<?xml version="1.0" encoding="UTF-8"?>
<svg width="24px" height="24px" viewBox="0 0 24 24" version="1.1" xmlns="http://www.w3.org/2000/svg" xmlns:xlink="http://www.w3.org/1999/xlink">
    <title>ad_canvas_music_voice_off</title>
    <g id="页面-1" stroke="none" stroke-width="1" fill="none" fill-rule="evenodd">
        <g id="ad_canvas_music_voice_off备份-4" transform="translate(2.000000, 3.000000)">
            <path d="M15.0627851,3.00548975 C16.2506768,4.3908274 16.9152691,6.15265529 16.9152691,8.01533125 C16.9152691,9.72793939 16.3535526,11.3558234 15.3382582,12.6849173 L15.1426015,12.9305687 L14.0653749,12.0363748 C14.9972035,10.91381 15.5152691,9.50534166 15.5152691,8.01533125 C15.5152691,6.58545199 15.038045,5.23096802 14.1772463,4.13293455 L14,3.91680084 L15.0627851,3.00548975 Z" id="路径" stroke="#000000" stroke-width="0.5" fill="#000000" fill-rule="nonzero" opacity="0.201939174"></path>
            <path d="M17.2947728,1 C18.9741521,2.93257883 19.9152691,5.40201033 19.9152691,8.01533125 C19.9152691,10.5904445 19.0012274,13.0247476 17.3711147,14.9418778 L17.1444067,15.2000637 L16.1072223,14.2597189 C17.6477871,12.5605019 18.5152691,10.3564564 18.5152691,8.01533125 C18.5152691,5.85634586 17.777774,3.81325618 16.4521891,2.17377035 L16.2380208,1.91830016 L17.2947728,1 Z" id="路径" stroke="#000000" stroke-width="0.5" fill="#000000" fill-rule="nonzero" opacity="0.201939174"></path>
            <path d="M3.26595,4.55556 L1.11111,4.55556 C0.49746,4.55556 0,5.05303 0,5.66668 L0,12.3333 C0,12.947 0.49746,13.4445 1.11111,13.4445 L5.55558,13.4445 L9.2144,17.1032 C9.9143,17.8032 11.1111,17.3075 11.1111,16.3176 L11.1111,12.4008 L3.26595,4.55556 Z" id="路径" stroke="#000000" stroke-width="1.3"></path>
            <path d="M11.1111,10.0437 L11.1111,1.68248 C11.1111,0.69258 9.9143,0.19684 9.2144,0.8968 L5.58928,4.52188 L11.1111,10.0437 Z" id="路径" fill="#000000" opacity="0.197753906"></path>
            <line x1="2.22223" y1="0.11111" x2="19.5071" y2="17.3959" id="路径" stroke="#000000" stroke-width="1.66667"></line>
        </g>
    </g>
</svg>