<?xml version="1.0" encoding="UTF-8"?>
<svg width="48px" height="48px" viewBox="0 0 48 48" version="1.1" xmlns="http://www.w3.org/2000/svg" xmlns:xlink="http://www.w3.org/1999/xlink">
    <title>Add_emoticon_button_nor</title>
    <g id="页面-1" stroke="none" stroke-width="1" fill="none" fill-rule="evenodd">
        <g id="avatar_dotline_add_bg备份-2" fill-rule="nonzero">
            <path d="M14,47.0010691 L14,47.9989309 L9,47.9989309 L9,47.0010691 L14,47.0010691 Z M22,47.0010691 L22,47.9989309 L17,47.9989309 L17,47.0010691 L22,47.0010691 Z M39,47.0010691 L39,47.9989309 L34,47.9989309 L34,47.0010691 L39,47.0010691 Z M31,47.0010691 L31,47.9989309 L26,47.9989309 L26,47.0010691 L31,47.0010691 Z M47.9999171,43 L48,43.0286558 C48,45.7742533 45.7672619,48 43.01304,48 L43.01304,48 L43,48 L43,47.1703505 C45.3024102,47.1572342 47.1639036,45.295324 47.1639036,43 L47.1639036,43 L47.9999171,43 Z M0.836096392,43 C0.836096392,45.295324 2.69758984,47.1572342 4.99774061,47.1673501 L5,47.1703505 L5,48 L4.98696005,48 C2.23273807,48 0,45.7742533 0,43.0286558 L8.28487096e-05,43 L0.836096392,43 Z M0.998930862,34 L0.998930862,39 L0.0010691375,39 L0.0010691375,34 L0.998930862,34 Z M47.9989309,34 L47.9989309,39 L47.0010691,39 L47.0010691,34 L47.9989309,34 Z M0.998930862,26 L0.998930862,31 L0.0010691375,31 L0.0010691375,26 L0.998930862,26 Z M47.9989309,26 L47.9989309,31 L47.0010691,31 L47.0010691,26 L47.9989309,26 Z M0.998930862,17 L0.998930862,22 L0.0010691375,22 L0.0010691375,17 L0.998930862,17 Z M47.9989309,17 L47.9989309,22 L47.0010691,22 L47.0010691,17 L47.9989309,17 Z M47.9989309,9 L47.9989309,14 L47.0010691,14 L47.0010691,9 L47.9989309,9 Z M0.998930862,9 L0.998930862,14 L0.0010691375,14 L0.0010691375,9 L0.998930862,9 Z M43.01304,0 C45.7672619,0 48,2.22574663 48,4.97134424 L47.9999171,5 L47.1639036,5 C47.1639036,2.70467605 45.3024102,0.842765768 43.0022595,0.832649918 L43,0.829649551 L43,0 L43.01304,0 Z M5,0 L5,0.829649551 C2.69758984,0.842765768 0.836096392,2.70467605 0.836096392,5 L0.836096392,5 L8.28487096e-05,5 L0,4.97134424 C0,2.22574663 2.23273807,0 4.98696005,0 L4.98696005,0 L5,0 Z M14,0.0010691375 L14,0.998930862 L9,0.998930862 L9,0.0010691375 L14,0.0010691375 Z M31,0.0010691375 L31,0.998930862 L26,0.998930862 L26,0.0010691375 L31,0.0010691375 Z M39,0.0010691375 L39,0.998930862 L34,0.998930862 L34,0.0010691375 L39,0.0010691375 Z M22,0.0010691375 L22,0.998930862 L17,0.998930862 L17,0.0010691375 L22,0.0010691375 Z" id="形状结合" fill="#B2B2B2"></path>
            <g id="icons_outlined_add备份-4" transform="translate(15.000000, 15.000000)" fill="#000000">
                <path d="M1.35714286,8 L17.6428571,8 C18.3923864,8 19,8.33672642 19,8.75209952 L19,10.2479005 C19,10.6632736 18.3923864,11 17.6428571,11 L1.35714286,11 C0.607613554,11 0,10.6632736 0,10.2479005 L0,8.75209952 C0,8.33672642 0.607613554,8 1.35714286,8 Z" id="矩形" opacity="0.202171689" transform="translate(9.500000, 9.500000) rotate(90.000000) translate(-9.500000, -9.500000) "></path>
                <path d="M1.72727273,8 L17.2727273,8 C18.2266736,8 19,8.44771525 19,9 L19,10 C19,10.5522848 18.2266736,11 17.2727273,11 L1.72727273,11 C0.773326341,11 0,10.5522848 0,10 L0,9 C0,8.44771525 0.773326341,8 1.72727273,8 Z" id="矩形"></path>
            </g>
        </g>
    </g>
</svg>