<?xml version="1.0" encoding="UTF-8"?>
<svg width="24px" height="24px" viewBox="0 0 24 24" version="1.1" xmlns="http://www.w3.org/2000/svg" xmlns:xlink="http://www.w3.org/1999/xlink">
    <title>add_emotion_outlined</title>
    <g id="页面-1" stroke="none" stroke-width="1" fill="none" fill-rule="evenodd">
        <g id="icons_add_expression备份" transform="translate(0.000000, 1.000000)">
            <path d="M17.7067447,13.0754272 C18.0966299,12.1427875 18.3089932,11.1189619 18.3031523,10.0439815 C18.2787397,5.66521865 14.6411476,2.09583883 10.1782407,2.07142392 C5.71533383,2.04725823 2.11712413,5.57725569 2.14129217,9.95601852 C2.16570473,14.3347813 5.8032968,17.9041612 10.2662037,17.9285761 C11.3618414,17.9344147 12.4053641,17.7261625 13.3559671,17.343726" id="Path" stroke="#000000" stroke-width="1.2" stroke-linecap="round" transform="translate(10.222222, 10.000000) rotate(-15.000000) translate(-10.222222, -10.000000) "></path>
            <path d="M7.875,7 C8.49632035,7 9.00000001,7.48841661 9.00000001,8.09090912 C9.00000001,8.69340155 8.49632035,9.18181815 7.875,9.18181815 C7.25367965,9.18181815 6.75,8.69340155 6.75,8.09090912 C6.75,7.48841661 7.25367965,7 7.875,7 Z M13.125,7 C13.7463204,7 14.25,7.48841661 14.25,8.09090912 C14.25,8.69340155 13.7463204,9.18181815 13.125,9.18181815 C12.5036796,9.18181815 12,8.69340155 12,8.09090912 C12,7.48841661 12.5036796,7 13.125,7 Z" id="Combined-Shape" fill="#000000" fill-rule="nonzero"></path>
            <path d="M14.1305443,11.3939394 L6.86836693,11.3939394 L6.87424435,11.4208004 C7.23158222,12.9868076 8.63664088,14.1643528 10.3297564,14.2386939 L10.5,14.2424242 C12.2651824,14.2424242 13.74409,13.046067 14.1208471,11.4413839 L14.1305443,11.3939394 Z" id="Combined-Shape-path" fill="#000000" fill-rule="nonzero" opacity="0.201520647"></path>
            <line x1="17" y1="15" x2="23" y2="15" id="Path-7" stroke="#000000" stroke-width="1.3" opacity="0.197405134" stroke-linecap="round"></line>
            <line x1="20" y1="12" x2="20" y2="18" id="Path-7-Copy" stroke="#000000" stroke-width="1.3" opacity="0.197405134" stroke-linecap="round"></line>
        </g>
    </g>
</svg>