<?xml version="1.0" encoding="UTF-8"?>
<svg width="48px" height="48px" viewBox="0 0 48 48" version="1.1" xmlns="http://www.w3.org/2000/svg" xmlns:xlink="http://www.w3.org/1999/xlink">
    <title>cameraEmoticonCreateButton</title>
    <g id="页面-1" stroke="none" stroke-width="1" fill="none" fill-rule="evenodd">
        <g id="cameraEmoticonCreateButton">
            <g id="Group">
                <path d="M1.40350877,42.6666667 C1.40350877,44.9855028 3.27798323,46.866532 5.59432573,46.8771478 L5.5973376,46.8801826 L5.5973376,47.7184195 L5.58420392,47.7184195 C2.81018785,47.7184195 0.561403509,45.4696351 0.561403509,42.695619 C0.561403509,42.6859682 0.561403509,42.6763174 0.561486953,42.6666667 L1.40350877,42.6666667 Z" id="Combined-Shape" fill="#000000" fill-rule="nonzero"></path>
                <path d="M43.508772,42.6666667 C43.508772,44.9855028 45.3832464,46.866532 47.6995889,46.8771478 L47.7026008,46.8801826 L47.7026008,47.7184195 L47.6894671,47.7184195 C44.915451,47.7184195 42.6666667,45.4696351 42.6666667,42.695619 C42.6666667,42.6859682 42.6666667,42.6763174 42.6667501,42.6666667 L43.508772,42.6666667 Z" id="Combined-Shape-Copy" fill="#000000" fill-rule="nonzero" transform="translate(45.184634, 45.192543) scale(-1, 1) translate(-45.184634, -45.192543) "></path>
                <path d="M43.508772,0.561403512 C43.508772,2.88023966 45.3832464,4.76126886 47.6995889,4.77188467 L47.7026008,4.7749194 L47.7026008,5.61315629 L47.6894671,5.61315629 C44.915451,5.61315629 42.6666667,3.36437194 42.6666667,0.590355876 C42.6666667,0.580705028 42.6666667,0.5710542 42.6667501,0.561403512 L43.508772,0.561403512 Z" id="Combined-Shape-Copy-2" fill="#000000" fill-rule="nonzero" transform="translate(45.184634, 3.087280) rotate(180.000000) translate(-45.184634, -3.087280) "></path>
                <path d="M1.40350877,0.561403512 C1.40350877,2.88023966 3.27798323,4.76126886 5.59432573,4.77188467 L5.5973376,4.7749194 L5.5973376,5.61315629 L5.58420392,5.61315629 C2.81018785,5.61315629 0.561403509,3.36437194 0.561403509,0.590355876 C0.561403509,0.580705028 0.561403509,0.5710542 0.561486953,0.561403512 L1.40350877,0.561403512 Z" id="Combined-Shape-Copy-3" fill="#000000" fill-rule="nonzero" transform="translate(3.079371, 3.087280) scale(-1, 1) rotate(-180.000000) translate(-3.079371, -3.087280) "></path>
                <line x1="9.4035088" y1="0.982456143" x2="13.6140351" y2="0.982456143" id="Line-2-Copy" stroke="#000000" stroke-linecap="square"></line>
                <line x1="9.4035088" y1="47.2982456" x2="13.6140351" y2="47.2982456" id="Line-2-Copy-3" stroke="#000000" stroke-linecap="square"></line>
                <line x1="17.8245614" y1="47.2982456" x2="22.0350877" y2="47.2982456" id="Line-2-Copy-14" stroke="#000000" stroke-linecap="square"></line>
                <line x1="26.2456141" y1="0.982456143" x2="30.4561404" y2="0.982456143" id="Line-2-Copy-2" stroke="#000000" stroke-linecap="square"></line>
                <line x1="34.6666667" y1="0.982456143" x2="38.877193" y2="0.982456143" id="Line-2-Copy-6" stroke="#000000" stroke-linecap="square"></line>
                <line x1="34.6666667" y1="47.2982456" x2="38.877193" y2="47.2982456" id="Line-2-Copy-4" stroke="#000000" stroke-linecap="square"></line>
                <line x1="47.2982456" y1="9.4035088" x2="47.2982456" y2="13.6140351" id="Line-2-Copy-7" stroke="#000000" stroke-linecap="square"></line>
                <line x1="0.982456143" y1="17.8245614" x2="0.982456143" y2="22.0350877" id="Line-2-Copy-10" stroke="#000000" stroke-linecap="square"></line>
                <line x1="0.982456143" y1="9.4035088" x2="0.982456143" y2="13.6140351" id="Line-2-Copy-15" stroke="#000000" stroke-linecap="square"></line>
                <line x1="26.2456141" y1="47.2982456" x2="30.4561404" y2="47.2982456" id="Line-2-Copy-5" stroke="#000000" stroke-linecap="square"></line>
                <line x1="47.2982456" y1="22.0350877" x2="47.2982456" y2="17.8245614" id="Line-2-Copy-8" stroke="#000000" stroke-linecap="square"></line>
                <line x1="0.982456143" y1="30.4561404" x2="0.982456143" y2="26.2456141" id="Line-2-Copy-11" stroke="#000000" stroke-linecap="square"></line>
                <line x1="47.2982456" y1="30.4561404" x2="47.2982456" y2="26.2456141" id="Line-2-Copy-9" stroke="#000000" stroke-linecap="square"></line>
                <line x1="0.982456143" y1="38.877193" x2="0.982456143" y2="34.6666667" id="Line-2-Copy-12" stroke="#000000" stroke-linecap="square"></line>
                <line x1="17.8245614" y1="0.982456143" x2="22.0350877" y2="0.982456143" id="Line-2" stroke="#000000" stroke-linecap="square"></line>
                <line x1="47.2982456" y1="38.877193" x2="47.2982456" y2="34.6666667" id="Line-2-Copy-13" stroke="#000000" stroke-linecap="square"></line>
            </g>
            <g id="Icons/Outlined/camera" transform="translate(13.000000, 15.000000)" fill-rule="nonzero">
                <g id="icons_filled_camera" transform="translate(0.564103, 0.571429)">
                    <path d="M10.5510064,3.80689106 C7.36978358,3.80689106 4.7922685,6.36591987 4.7922685,9.52432654 C4.7922685,12.6827331 7.36978358,15.2417619 10.5510064,15.2417619 C13.7317492,15.2417619 16.3097443,12.6827331 16.3097443,9.52432654 C16.3097443,6.36591987 13.7317492,3.80689106 10.5510064,3.80689106 Z" id="形状-path" fill="#000000" opacity="0.199544271"></path>
                    <path d="M10.4310327,13.0977237 C12.3525625,13.0977237 13.9102701,11.5511881 13.9102701,9.64343974 C13.9102701,9.38030203 13.6954139,9.16698677 13.4303753,9.16698677 C13.1653367,9.16698677 12.9504805,9.38030203 12.9504805,9.64343974 C12.9504805,11.0251533 11.8227277,12.1448178 10.4310327,12.1448178 C10.165994,12.1448178 9.95113782,12.3581331 9.95113782,12.6212707 C9.95113782,12.8844084 10.165994,13.0977237 10.4310327,13.0977237 Z" id="形状-path" fill="#000000"></path>
                    <path d="M16.8409878,2.86160838 L19.1905529,2.86160838 C20.2504609,2.86290675 21.1103973,3.71369555 21.115411,4.76599086 L21.1538462,15.2431913 C21.1562429,15.7478229 20.955377,16.2324795 20.5959218,16.5892672 C20.2364665,16.946055 19.7482584,17.1453586 19.239982,17.1428571 L1.96520809,17.1023108 C0.903833776,17.0986657 0.0437382778,16.2464399 0.0379504942,15.1926873 L-1.08221124e-13,4.76694375 C-0.00226024021,4.26215984 0.198202347,3.77728806 0.557044471,3.41967823 C0.915886595,3.0620684 1.40350427,2.86122282 1.91193976,2.86160838 L4.84553682,2.86160838 C5.11235833,2.86160838 5.42572966,2.66912138 5.54570336,2.43232427 L6.32985151,0.882899263 C6.56595976,0.415975361 7.18790345,0.03243074 7.71722745,0.0300484677 L13.9467421,0 C14.4784656,-0.00282678617 15.0984897,0.376429759 15.3374774,0.847641739 L16.1451403,2.43899463 C16.2641542,2.67340947 16.5751261,2.86160841 16.8409878,2.86160838 L16.8409878,2.86160838 Z" id="形状-path" stroke="#000000" stroke-width="1.3"></path>
                </g>
            </g>
        </g>
    </g>
</svg>