<?xml version="1.0" encoding="UTF-8"?>
<svg width="24px" height="24px" viewBox="0 0 24 24" version="1.1" xmlns="http://www.w3.org/2000/svg" xmlns:xlink="http://www.w3.org/1999/xlink">
    <title>icons_filled_voiceinput_white</title>
    <g id="页面-1" stroke="none" stroke-width="1" fill="none" fill-rule="evenodd">
        <g id="changyuyinhecheng" transform="translate(5.000000, 1.000000)" fill="#000000">
            <path d="M5.82471149,15.2401969 C7.39577222,15.2717138 8.63870921,13.7912658 8.60088896,11.9335239 C8.56306871,10.0757819 7.25881297,8.54423496 5.68775224,8.51271808 C4.95853804,8.49808939 4.30001448,8.80919688 3.80744194,9.33257699 C3.23878807,9.93679689 3.87584096,10.5823945 3.89610679,11.5778581 C3.93392704,13.4356 4.25365076,15.20868 5.82471149,15.2401969 Z" id="椭圆形" opacity="0.20093936" transform="translate(6.086809, 11.876458) rotate(-35.000000) translate(-6.086809, -11.876458) "></path>
            <path d="M0.43561114,12.3593892 C0.623454929,12.2639305 0.841537226,12.2469965 1.0418707,12.3123134 C1.24220417,12.3776303 1.4083741,12.5198463 1.50381606,12.7076677 L1.64907135,12.9775515 C2.83739389,15.1012208 5.08190047,16.4159627 7.51584296,16.4140708 C10.0480435,16.4149399 12.3659339,14.9932178 13.5124445,12.7359413 C13.7200436,12.3601258 14.1891021,12.2177521 14.5706433,12.4147452 C14.9521845,12.6117384 15.1076136,13.0765408 14.9212924,13.4633422 C14.2287926,14.8063325 13.187606,15.938289 11.9069236,16.7405016 C9.2121299,18.4244592 5.79148879,18.4194667 3.10162436,16.72765 C1.8164502,15.9203674 0.774257884,14.7798059 0.0859700574,13.4273577 C-0.00941655195,13.2393984 -0.0261642443,13.0212407 0.0394153531,12.8209297 C0.10499495,12.6206187 0.247523299,12.4545831 0.43561114,12.3593892 L0.43561114,12.3593892 Z M7.51198661,0 C8.37323486,0 9.2319122,0.208196013 9.99418118,0.604025474 C10.7320267,0.985718164 11.3824619,1.5383372 11.8786438,2.20533553 C12.097208,2.55706747 12.0098711,3.01755396 11.6776887,3.26487618 C11.3455063,3.5121984 10.8792046,3.4639167 10.6047676,3.15378404 C9.87729275,2.1754275 8.73133252,1.59685998 7.51198661,1.59231394 C5.38783327,1.59443787 3.66619785,3.31511727 3.66336388,5.43879955 L3.66336388,9.70553264 C3.66619786,11.8292149 5.38783328,13.5498943 7.51198661,13.5520182 C9.33653709,13.5450771 10.9077601,12.2635172 11.2809118,10.4779141 C11.3323296,10.2273078 11.3580385,9.96642023 11.3580385,9.70424748 L11.3580385,7.37682168 C11.3913736,6.96289845 11.7370888,6.64397089 12.1524436,6.64397089 C12.5677983,6.64397089 12.9135135,6.96289845 12.9468487,7.37682168 L12.9468487,9.70553264 C12.9341586,12.6998529 10.5082636,15.1234896 7.51327206,15.1340509 C4.51193694,15.1312182 2.07938211,12.6997768 2.07583913,9.69910683 L2.07583913,5.43622922 C2.07867373,2.43505738 4.51143569,0.00283397516 7.51327206,0 L7.51198661,0 Z" id="形状" fill-rule="nonzero"></path>
            <path d="M10.2389893,19 C10.6688176,19.0419624 11,19.47715 11,20 C11,20.52285 10.6688176,20.9580376 10.2389893,21 L4.82474766,21 C4.37037862,20.9982293 4.00219623,20.5525334 4,20.0016181 C4.00073215,19.449439 4.36934101,19.0017805 4.82474766,19 L10.2389893,19 Z" id="路径" fill-rule="nonzero"></path>
            <path d="M9.5001284,5.09702865 C10.7504522,4.08276686 11.9231964,3.82636827 12.9627625,4.10543192 C13.6835851,4.30082044 14.3294634,4.74115286 14.8078628,5.3633432 C14.9935634,5.60095271 15.0494529,5.9290514 14.9544781,6.22404766 C14.8595034,6.51904391 14.6280934,6.73612078 14.3474181,6.79350751 C14.0667428,6.85089424 13.7794434,6.73987241 13.5937428,6.50226288 C12.8515651,5.54891346 11.7576934,5.34351127 10.255236,6.67508402 L9.99663753,6.89181873 C9.05792495,7.65251507 8.16446707,7.99957394 7.32919391,7.99957394 C6.53945286,8.01346001 5.7762431,7.68744233 5.20351414,7.09155464 C4.92475096,6.74929828 4.9333477,6.22965656 5.22324838,5.89869212 C5.51314905,5.56772769 5.98670369,5.5369224 6.31031577,5.82797711 C6.90897133,6.45834933 7.87354377,6.52776108 9.24928785,5.30951365 L9.5001284,5.09702865 Z" id="路径" fill-rule="nonzero" opacity="0.198730469"></path>
        </g>
    </g>
</svg>