<?xml version="1.0" encoding="UTF-8"?>
<svg width="24px" height="24px" viewBox="0 0 24 24" version="1.1" xmlns="http://www.w3.org/2000/svg" xmlns:xlink="http://www.w3.org/1999/xlink">
    <title>icons_outlined_call_good</title>
    <g id="页面-1" stroke="none" stroke-width="1" fill="none" fill-rule="evenodd">
        <g id="编组-15备份-2" transform="translate(3.000000, 4.000000)">
            <path d="M1,5.27396356 L2,5.27396356 C2.55228475,5.27396356 3,5.72167881 3,6.27396356 L3,14.253 C3,14.8052847 2.55228475,15.253 2,15.253 L1,15.253 C0.44771525,15.253 6.76353751e-17,14.8052847 0,14.253 L0,6.27396356 C-6.76353751e-17,5.72167881 0.44771525,5.27396356 1,5.27396356 Z" id="矩形" fill="#000000" opacity="0.201520647"></path>
            <path d="M10.0399775,-0.549460113 C10.3801532,-0.701971528 10.7506357,-0.686217029 11.1136099,-0.490951779 C11.3722974,-0.351788538 11.6327606,-0.107153472 11.846651,0.228160172 C12.1787575,0.748799756 12.4056602,1.49731014 12.357077,2.28310418 L12.357077,2.28310418 L12.1724043,5.2185423 L16.1724375,5.2185423 C16.6438291,5.26566495 17.0633172,5.53156455 17.335139,5.92943177 C17.581563,6.29012423 17.7026427,6.75624366 17.6280419,7.23107786 L17.6280419,7.23107786 L16.3491206,13.4072819 C16.2395835,13.7777883 16.062932,14.0542136 15.858959,14.2495632 C15.5971448,14.5003088 15.2842419,14.6290552 14.955676,14.647172 L14.955676,14.647172 L4.35,14.6459987 L4.35,5.96108357 L6.35296723,5.94855835 C7.14691225,5.76253204 7.77764428,5.26933278 8.24921973,4.61926209 C8.83232426,3.81544764 9.17709858,2.77459055 9.2849531,1.71636296 L9.2849531,1.71636296 L9.31816736,0.982285822 C9.47928422,-0.33579847 9.82186278,-0.451672459 10.0399776,-0.549460138 Z" id="形状结合-path" stroke="#000000" stroke-width="1.3" fill-rule="nonzero"></path>
            <path d="M13.4752623,14.7877587 C15.6585665,14.4953335 15.7221113,13.5696233 16.9586822,11.9648034 C16.962941,11.4920558 18.5080334,11.1024928 18.3172804,10.6842081 C17.6292184,9.17542011 15.7865117,8.10992634 13.6116478,8.12967754 C10.8338415,8.1549044 8.56607875,9.94096257 8.54645785,12.1189501 C9.46211345,12.662232 10.697456,14.8129855 13.4752623,14.7877587 Z" id="椭圆形" fill="#000000" opacity="0.200265067" transform="translate(13.440025, 11.458693) rotate(-33.000000) translate(-13.440025, -11.458693) "></path>
        </g>
    </g>
</svg>