<?xml version="1.0" encoding="UTF-8"?>
<svg width="24px" height="24px" viewBox="0 0 24 24" version="1.1" xmlns="http://www.w3.org/2000/svg" xmlns:xlink="http://www.w3.org/1999/xlink">
    <title>icons_outlined_camera</title>
    <g id="页面-1" stroke="none" stroke-width="1" fill="none" fill-rule="evenodd">
        <g id="相机" transform="translate(2.000000, 4.000000)" fill="#000000" fill-rule="nonzero">
            <path d="M16,3 C15.967888,0.796129032 14.2387814,0 12.1218608,0 L7.87813915,0 C5.76121861,0 4.02964183,0.796129032 4,3 L16,3 Z" id="路径" opacity="0.199962798"></path>
            <path d="M18.5701573,17 L2.42983405,17 C1.08940907,17 0,15.9407745 0,14.6374878 L0,4.3625122 C0,3.05922551 1.08940907,2 2.42983405,2 L18.5701573,2 C19.9105823,2 21,3.05922551 21,4.3625122 L21,14.6374878 C21.0025015,15.9407745 19.9105823,17 18.5701573,17 Z M2.43234421,3.5741946 C1.98553588,3.5741946 1.62156281,3.92808331 1.62156281,4.3625122 L1.62156281,14.6374878 C1.62156281,15.0719167 1.98553588,15.4258054 2.43234421,15.4258054 L18.5726675,15.4258054 C19.0194758,15.4258054 19.3834489,15.0719167 19.3834489,14.6374878 L19.3834489,4.3625122 C19.3834489,3.92808331 19.0194758,3.5741946 18.5726675,3.5741946 L2.43234421,3.5741946 Z" id="形状"></path>
            <path d="M6,9.5 C6,11.1076951 6.85769511,12.5932667 8.24999997,13.3971143 C9.64230483,14.2009619 11.3576952,14.2009619 12.75,13.3971143 C14.1423049,12.5932667 15,11.1076951 15,9.5 C15,7.0147186 12.9852814,5 10.5,5 C8.01471863,5 6,7.0147186 6,9.5 L6,9.5 Z" id="路径" opacity="0.194963728"></path>
            <path d="M16,6 C16,6.55228475 16.4477153,7 17,7 C17.5522847,7 18,6.55228475 18,6 C18,5.44771525 17.5522847,5 17,5 C16.4477153,5 16,5.44771525 16,6 Z" id="路径"></path>
        </g>
    </g>
</svg>