<?xml version="1.0" encoding="UTF-8"?>
<svg width="24px" height="24px" viewBox="0 0 24 24" version="1.1" xmlns="http://www.w3.org/2000/svg" xmlns:xlink="http://www.w3.org/1999/xlink">
    <title>icons_filled_back3</title>
    <g id="页面-1" stroke="none" stroke-width="1" fill="none" fill-rule="evenodd">
        <g id="编组" transform="translate(7.000000, 5.000000)" fill="#000000" fill-rule="nonzero">
            <g id="指缘返回7备份-5" transform="translate(4.500000, 7.000000) rotate(-270.000000) translate(-4.500000, -7.000000) ">
                <g id="指缘返回7备份" transform="translate(4.500000, 7.000000) rotate(-180.000000) translate(-4.500000, -7.000000) ">
                    <path d="M3.75337831,6.99252406 C1.53174887,7.13470071 0.417682338,7.13966644 0.41117872,7.00742124 C0.401423276,6.80907168 0.425856795,6.61816159 0.484443337,6.43461805 C0.543119701,6.25112921 0.640799876,6.09991457 0.777663504,5.98090117 L6.21611506,0.416610664 C6.48971654,0.138888451 6.81712565,3.88578059e-15 7.19827054,3.88578059e-15 C7.57939746,3.88578059e-15 7.90678861,0.138888451 8.18040806,0.416610664 C8.31727168,0.555426182 8.41987448,0.714116773 8.48828832,0.892682436 C8.55666623,1.07117517 8.59090909,1.25223888 8.59090909,1.43570948 C8.59090909,1.61919833 8.55666625,1.79776399 8.48828832,1.97133352 C8.41989244,2.14484837 8.31728965,2.30111383 8.18042602,2.43992934 L3.75337831,6.99252406 Z" id="路径" opacity="0.198381696"></path>
                    <path d="M3.75337831,6.99252406 L8.18042602,11.5451917 C8.31728965,11.6840072 8.41989244,11.8426978 8.48830628,12.0212635 C8.55668419,12.1997562 8.59090909,12.3808199 8.59090909,12.5643087 C8.59090909,12.7477793 8.55668421,12.9263268 8.48830628,13.0999328 C8.41989244,13.2734294 8.31728963,13.4297131 8.18042602,13.5685104 C7.90680657,13.8561884 7.57941542,14 7.1982885,14 C6.81714361,14 6.48975246,13.8561884 6.21613302,13.5685104 L0.865588221,8.09354828 C0.728814429,7.95465983 0.62128899,7.78856624 0.543119701,7.59510339 C0.464932451,7.40173171 0.420934148,7.20578904 0.41111321,7.00742124 C0.404653254,6.8751882 1.51874162,6.87022247 3.75337831,6.99252406 Z" id="路径" opacity="0.71937779"></path>
                </g>
            </g>
        </g>
        <g id="编组-18备份" transform="translate(-23.000000, 4.000000)" fill="#000000" opacity="0.196800595">
            <path d="M20.9294219,15.154621 C23.1385609,15.154621 21.7284776,13.8807137 20.9837067,12.4190185 C20.2389357,10.9573232 20.2389357,10.9573232 19.4246777,9.35925187 C18.4814531,7.50806937 18.8508298,5.36649651 18.1198017,6.79828853 C17.6039408,7.80865409 17.2974118,9.07220579 17.2974118,10.443148 C17.2974118,12.9776375 18.345057,15.1450909 19.8262079,16.0242988 C20.281582,16.2946079 20.4099425,15.154621 20.9294219,15.154621 Z" id="椭圆形" transform="translate(19.707392, 11.198088) rotate(27.000000) translate(-19.707392, -11.198088) "></path>
        </g>
    </g>
</svg>