<?xml version="1.0" encoding="UTF-8"?>
<svg width="24px" height="24px" viewBox="0 0 24 24" version="1.1" xmlns="http://www.w3.org/2000/svg" xmlns:xlink="http://www.w3.org/1999/xlink">
    <title>icons_filled_mike</title>
    <g id="页面-1" stroke="none" stroke-width="1" fill="none" fill-rule="evenodd">
        <g id="changyuyinhecheng备份-2" transform="translate(5.000000, 2.000000)" fill="#FFFFFF">
            <path d="M5.40485807,14.4904788 C6.88074437,14.5062372 8.06185693,13.0944404 8.0429468,11.3371423 C8.02403667,9.57984416 6.81226474,8.14249783 5.33637844,8.12673939 C4.65133983,8.11942505 4.02980698,8.41966177 3.56230195,8.91924752 C3.02258745,9.49599786 3.61538448,10.1011059 3.62551739,11.0427469 C3.64442752,12.8000451 3.92897176,14.4747204 5.40485807,14.4904788 Z" id="椭圆形" opacity="0.20093936" transform="translate(5.689469, 11.308609) rotate(-35.000000) translate(-5.689469, -11.308609) "></path>
            <path d="M0.406570397,11.6727565 C0.581891267,11.582601 0.785434744,11.5666078 0.972412653,11.628296 C1.15939056,11.6899842 1.31448249,11.8242993 1.40356165,12.0016862 L1.53913326,12.2565764 C2.6482343,14.2622641 4.7431071,15.5039648 7.01478676,15.502178 C9.37817396,15.5029988 11.5415383,14.1602612 12.6116149,12.028389 C12.805374,11.6734522 13.243162,11.5389881 13.5992671,11.7250372 C13.9553722,11.9110863 14.1004394,12.3500663 13.9265396,12.7153787 C13.2802064,13.9837585 12.3084323,15.0528285 11.1131287,15.8104738 C8.59798791,17.4008781 5.40538954,17.396163 2.89484941,15.7983361 C1.69535352,15.0359026 0.722640691,13.9587056 0.0802387202,12.6813933 C-0.00878878182,12.5038763 -0.0244199613,12.2978384 0.0367876629,12.1086558 C0.0979952871,11.9194733 0.231021746,11.7626619 0.406570397,11.6727565 L0.406570397,11.6727565 Z M7.0111875,0 C7.81501921,0 8.61645138,0.196629568 9.32790244,0.570468503 C10.0165582,0.930956044 10.6236311,1.45287403 11.0867342,2.08281689 C11.2907275,2.41500817 11.209213,2.84991207 10.8991761,3.08349417 C10.5891392,3.31707627 10.1539243,3.27147688 9.89778311,2.97857381 C9.21880657,2.05457042 8.14924369,1.50814554 7.0111875,1.50385206 C5.02864439,1.50585798 3.42178466,3.13094409 3.41913962,5.13664402 L3.41913962,9.16633638 C3.42178467,11.1720363 5.0286444,12.7971224 7.0111875,12.7991283 C8.71410128,12.7925728 10.1805761,11.5822107 10.528851,9.8958078 C10.5768409,9.65912407 10.6008359,9.41273022 10.6008359,9.16512262 L10.6008359,6.96699825 C10.6319487,6.57607076 10.9546163,6.2748614 11.3422807,6.2748614 C11.7299451,6.2748614 12.0526126,6.57607076 12.0837254,6.96699825 L12.0837254,9.16633638 C12.0718814,11.9943055 9.80771266,14.2832957 7.01238726,14.2932703 C4.21114114,14.2905949 1.94075664,11.9942336 1.93744985,9.16026756 L1.93744985,5.13421649 C1.94009548,2.29977641 4.21067331,0.0026765321 7.01238726,0 L7.0111875,0 Z" id="形状" fill-rule="nonzero"></path>
            <path d="M10.2389893,18 C10.6688176,18.0419624 11,18.47715 11,19 C11,19.52285 10.6688176,19.9580376 10.2389893,20 L4.82474766,20 C4.37037862,19.9982293 4.00219623,19.5525334 4,19.0016181 C4.00073215,18.449439 4.36934101,18.0017805 4.82474766,18 L10.2389893,18 Z" id="路径" fill-rule="nonzero"></path>
            <path d="M9.05011556,5.09702865 C10.175407,4.08276686 11.2308768,3.82636827 12.1664862,4.10543192 C12.8152266,4.30082044 13.396517,4.74115286 13.8270765,5.3633432 C13.9942071,5.60095271 14.0445076,5.9290514 13.9590303,6.22404766 C13.8735531,6.51904391 13.6652841,6.73612078 13.4126763,6.79350751 C13.1600685,6.85089424 12.9014991,6.73987241 12.7343685,6.50226288 C12.0664086,5.54891346 11.0819241,5.34351127 9.72971244,6.67508402 L9.49697378,6.89181873 C8.65213245,7.65251507 7.84802037,7.99957394 7.09627452,7.99957394 C6.38550757,8.01346001 5.69861879,7.68744233 5.18316273,7.09155464 C4.93227586,6.74929828 4.94001293,6.22965656 5.20092354,5.89869212 C5.46183414,5.56772769 5.88803332,5.5369224 6.17928419,5.82797711 C6.7180742,6.45834933 7.58618939,6.52776108 8.82435907,5.30951365 L9.05011556,5.09702865 Z" id="路径" fill-rule="nonzero" opacity="0.198730469"></path>
        </g>
        <g id="icons_filled_call" transform="translate(-12.000000, 13.500000) rotate(-225.000000) translate(12.000000, -13.500000) translate(-21.000000, 5.000000)"></g>
        <g id="icons_filled_call备份" transform="translate(-12.000000, -11.500000) rotate(-225.000000) translate(12.000000, 11.500000) translate(-21.000000, -20.000000)"></g>
        <g id="icons_filled_call备份-2" transform="translate(12.000000, -11.500000) rotate(-225.000000) translate(-12.000000, 11.500000) translate(3.000000, -20.000000)">
            <g id="XMLID_19_" transform="translate(0.585786, 0.414214)"></g>
        </g>
    </g>
</svg>