<?xml version="1.0" encoding="UTF-8"?>
<svg width="24px" height="24px" viewBox="0 0 24 24" version="1.1" xmlns="http://www.w3.org/2000/svg" xmlns:xlink="http://www.w3.org/1999/xlink">
    <title>icons_outlined_comment</title>
    <g id="页面-1" stroke="none" stroke-width="1" fill="none" fill-rule="evenodd">
        <g id="icons_outlined_channels_comment备份-2" transform="translate(1.000000, 3.000000)" fill-rule="nonzero">
            <path d="M19.1052632,0 C20.7039822,0 22,1.32230403 22,2.95344869 L22,12.9951743 C22,14.626319 20.7039822,15.948623 19.1052632,15.948623 L10.4210526,15.948623 L7.76612364,18.653982 C7.31393762,19.1153393 6.58079922,19.1153393 6.1286132,18.653982 C5.91146581,18.4324303 5.78947368,18.1403377 5.78947368,17.8270163 L5.78947368,15.948623 L2.89473684,15.948623 C1.29601783,15.948623 0,14.626319 0,12.9951743 L0,2.95344869 C0,1.32230403 1.29601783,0 2.89473684,0 L19.1052632,0 Z M19.1052632,1.41765537 L2.89473684,1.41765537 C2.11536132,1.41765537 1.47432971,2.02198963 1.39724518,2.79642275 L1.38947368,2.95344869 L1.38947368,12.9951743 C1.38947368,13.7903572 1.98179433,14.4443905 2.74083243,14.5230384 L2.89473684,14.5309676 L7.17894737,14.5309676 L7.17778947,17.2481404 L9.84602752,14.5309676 L19.1052632,14.5309676 C19.8846386,14.5309676 20.5256703,13.9266333 20.6027548,13.1522001 L20.6105263,12.9951743 L20.6105263,2.95344869 C20.6105263,2.15826566 20.0182056,1.50423247 19.2591675,1.4255845 L19.1052632,1.41765537 Z" id="评论" fill="#000000"></path>
            <path d="M18.424213,13 L3.53717126,13 C2.9898044,13 2.66138428,12.5111111 2.66138428,12.0222222 L2.66138428,3.81417938 C2.66138428,3.20306828 3.09927778,2.71417938 3.53717126,2.71417938 L18.424213,2.71417938 C18.9715799,2.71417938 19.3,3.20306828 19.3,3.69195715 L19.3,11.9 C19.4094734,12.5111111 18.9715799,13 18.424213,13 Z" id="路径" fill="#979797" opacity="0.20203218"></path>
            <path d="M16.1683168,6.5 L5.83168318,6.5 C5.35643564,6.5 5,6.17857142 5,5.75000001 C5,5.32142857 5.35643564,5 5.83168318,5 L16.1683168,5 C16.6435644,5 17,5.32142857 17,5.75000001 C17,6.17857145 16.6435644,6.5 16.1683168,6.5 Z M10.7029703,11 L5.83168318,11 C5.35643564,11 5,10.6785714 5,10.25 C5,9.82142857 5.35643564,9.5 5.83168318,9.5 L10.7029703,9.5 C11.1782178,9.5 11.5346535,9.82142857 11.5346535,10.25 C11.5346535,10.6785714 11.1782178,11 10.7029703,11 Z" id="形状" fill="#000000"></path>
        </g>
    </g>
</svg>