<?xml version="1.0" encoding="UTF-8"?>
<svg width="24px" height="24px" viewBox="0 0 24 24" version="1.1" xmlns="http://www.w3.org/2000/svg" xmlns:xlink="http://www.w3.org/1999/xlink">
    <title>icons_filled_album</title>
    <g id="页面-1" stroke="none" stroke-width="1" fill="none" fill-rule="evenodd">
        <g id="图片" transform="translate(3.000000, 2.000000)">
            <path d="M10.1250857,3.68769711 C10.1250857,7.10505066 12.8952236,9.87518854 16.3125771,9.87518854 C16.8830045,9.87573703 17.4509637,9.79730327 18,9.64235545 L18,15.6251543 C18,17.4891902 16.488916,19 14.6251543,19 L3.37511998,19 C1.51108403,19 0.000274243925,17.488916 0,15.6251543 L0,5.37511998 C0,3.51108403 1.51108403,2 3.37511998,2 L10.3579188,2 C10.2029346,2.54933494 10.1245823,3.11718201 10.1250857,3.68769711 Z" id="路径" stroke="#000000" stroke-width="1.3" fill-rule="nonzero"></path>
            <path d="M13,3.5 C13,5.43299665 14.5670034,7 16.5,7 C18.4329966,7 20,5.43299665 20,3.5 C20,2.24957048 19.3329038,1.09412589 18.25,0.468911097 C17.1670962,-0.156303699 15.8329038,-0.156303699 14.75,0.468911097 C13.6670962,1.09412589 13,2.24957048 13,3.5 Z" id="路径" fill="#000000" fill-rule="nonzero" opacity="0.204622396"></path>
            <path d="M0,11.6077259 C3.37298613,10.592726 5.63289932,10.8491358 6.77973959,12.3769551 C8.5,14.6686841 10.815557,18.3547144 14.1577785,16.5116993 C16.3859262,15.2830225 17.5,15.2830225 17.5,16.5116993" id="路径-2" stroke="#000000" stroke-width="1.3"></path>
        </g>
    </g>
</svg>