<?xml version="1.0" encoding="UTF-8"?>
<svg width="24px" height="24px" viewBox="0 0 24 24" version="1.1" xmlns="http://www.w3.org/2000/svg" xmlns:xlink="http://www.w3.org/1999/xlink">
    <title>icons_outlined_ocr</title>
    <g id="页面-1" stroke="none" stroke-width="1" fill="none" fill-rule="evenodd">
        <g id="icons_outlined_pay_faceid备份-2" transform="translate(2.000000, 2.000000)" fill="#000000" fill-rule="nonzero">
            <path d="M0.564356436,12.9972997 C0.876041889,12.9972997 1.12871287,13.2499707 1.12871287,13.5616561 L1.12871287,15.9986499 C1.12871287,17.0328788 1.96712113,17.8712871 3.00135013,17.8712871 L5.43834383,17.8712871 C5.75002929,17.8712871 6.00270027,18.1239582 6.00270027,18.4356436 C6.00270027,18.747329 5.75002929,19 5.43834383,19 L3.00135013,19 C1.34375022,19 0,17.6562497 0,15.9986499 L0,13.5616561 C0,13.2499707 0.252670983,12.9972997 0.564356436,12.9972997 Z M15.9986499,0 C17.6562497,0 19,1.34375022 19,3.00135013 L19,5.43834383 C19,5.75002929 18.747329,6.00270027 18.4356436,6.00270027 C18.1239582,6.00270027 17.8712871,5.75002929 17.8712871,5.43834383 L17.8712871,3.00135013 C17.8712871,1.96712113 17.0328788,1.12871287 15.9986499,1.12871287 L13.5616561,1.12871287 C13.2499707,1.12871287 12.9972997,0.876041889 12.9972997,0.564356436 C12.9972997,0.252670983 13.2499707,0 13.5616561,0 L15.9986499,0 Z" id="Combined-Shape"></path>
            <path d="M18.4358974,13 C18.7474426,13 19,13.2525574 19,13.5641026 L19,16 C19,17.6568542 17.6568542,19 16,19 L13.5641026,19 C13.2525574,19 13,18.7474426 13,18.4358974 C13,18.1243522 13.2525574,17.8717949 13.5641026,17.8717949 L16,17.8717949 C17.0337637,17.8717949 17.8717949,17.0337637 17.8717949,16 L17.8717949,13.5641026 C17.8717949,13.2525574 18.1243522,13 18.4358974,13 Z" id="Combined-Shape-path" opacity="0.200241815"></path>
            <path d="M5.43589744,0 C5.74744268,0 6,0.252557321 6,0.564102564 C6,0.875647808 5.74744268,1.12820513 5.43589744,1.12820513 L3,1.12820513 C1.96623624,1.12820513 1.12820513,1.96623624 1.12820513,3 L1.12820513,5.43589744 C1.12820513,5.74744268 0.875647808,6 0.564102564,6 C0.252557321,6 0,5.74744268 0,5.43589744 L0,3 C0,1.34314575 1.34314575,0 3,0 L5.43589744,0 Z" id="Combined-Shape-path" opacity="0.200241815"></path>
            <path d="M10.15,5 L13.6,14.5 L12.148,14.5 L11.311,12.2 L7.294,12.2 L6.457,14.5 L5,14.5 L8.46,5 L10.15,5 Z M9.303,6.68067766 L7.73,11 L10.874,11 L9.303,6.68067766 Z" id="形状" fill-opacity="0.9"></path>
        </g>
    </g>
</svg>