<?xml version="1.0" encoding="UTF-8"?>
<svg width="24px" height="24px" viewBox="0 0 24 24" version="1.1" xmlns="http://www.w3.org/2000/svg" xmlns:xlink="http://www.w3.org/1999/xlink">
    <title>icons_filled_news_off</title>
    <g id="页面-1" stroke="none" stroke-width="1" fill="none" fill-rule="evenodd">
        <g id="icons_filled_news_off" transform="translate(1.000000, 2.000000)" fill="#000000" fill-rule="nonzero">
            <path d="M3.94505644,3.94505644 L2.06066017,2.06066017 L3.12132034,1 L14.3753314,12.2540111 C14.4458791,12.1881921 14.524197,12.1294269 14.6093524,12.0793553 L17.9389313,10.1917047 L19.0560213,14.3102152 C19.2403954,14.9966336 18.8282651,15.7045026 18.1341509,15.8868325 L18.0345678,15.9132474 L20.0918831,17.9705627 L19.0312229,19.0312229 L6.03809408,6.03809408 L3.94505644,3.94505644 Z M2.06106966,10.20243 L5.39064857,12.0900806 C5.79193332,12.3153117 6.0413806,12.7443232 6.0413806,13.2055106 L6.03053507,17.0022624 L1.86585005,15.8975578 C1.17173588,15.7152279 0.75960559,15.0073589 0.94397967,14.3209405 L2.06106966,10.20243 Z M2.26846169,4.38978204 L5.80754559,7.92886593 C5.69994651,8.083457 5.5585956,8.2160261 5.39064857,8.3147793 L2.06106966,10.20243 L0.94397967,6.07319419 C0.75960559,5.38677578 1.17173588,4.67890679 1.86585005,4.49657689 L2.26846169,4.38978204 Z" id="形状结合"></path>
            <path d="M10.661578,15.0931612 L13.9803114,17.0022624 L10.9218709,20.0160683 C10.4121308,20.5201568 9.5878702,20.5201568 9.0781301,20.0160683 L6.03053507,17.0022624 L9.3492684,15.0931612 C9.7505532,14.8572049 10.2494478,14.8572049 10.661578,15.0931612 Z" id="形状结合-path" opacity="0.197521391"></path>
            <path d="M13.9586204,7.18862412 L13.9694659,3.39187225 L18.1341509,4.49657689 C18.8282651,4.67890679 19.2403954,5.38677578 19.0560213,6.07319419 L17.9389313,10.1917047 L14.6093524,8.304054 C14.2080676,8.078823 13.9586204,7.6498115 13.9586204,7.18862412 Z" id="形状结合-path" opacity="0.197521391"></path>
            <path d="M9.3492684,5.30097348 L6.03053507,3.39187225 L9.0781301,0.37806639 C9.5878702,-0.12602213 10.4121308,-0.12602213 10.9218709,0.37806639 L13.9694659,3.39187225 L10.6507325,5.30097348 C10.2494478,5.53692981 9.7505532,5.53692981 9.3492684,5.30097348 Z" id="形状结合-path" opacity="0.197521391"></path>
        </g>
    </g>
</svg>