<?xml version="1.0" encoding="UTF-8"?>
<svg width="24px" height="24px" viewBox="0 0 24 24" version="1.1" xmlns="http://www.w3.org/2000/svg" xmlns:xlink="http://www.w3.org/1999/xlink">
    <title>icons_filled_location</title>
    <g id="页面-1" stroke="none" stroke-width="1" fill="none" fill-rule="evenodd">
        <g id="附近备份-2" transform="translate(2.000000, 2.000000)" fill-rule="nonzero">
            <path d="M19.9967839,11.0375 C19.9967839,7.8875 18.0944633,5.34999999 15.7165625,5 C15.8524426,5.61249999 15.9203826,6.3125 15.9203826,7.01249998 C15.9203826,7.01249998 15.9883226,7.71249999 15.7845025,8.84999999 C16.3959627,9.11249999 15.2409824,10.25 15.2409824,11.0375 C15.2409824,12.175 16.1242027,12.7 15.2409824,12.7 C14.9692223,12.7 15.4448024,13.1720961 15.2409824,13.084596 L14.5615821,14.7768239 C13.9501219,15.6518239 13.6114602,14.8 13,15.5 C14.4946805,17.6 15.2409824,19 15.2409824,19 C15.2409824,19 17.075363,17.775 18.6379835,15.5 C20.1326639,13.225 19.9967839,11.0375 19.9967839,11.0375 Z" id="路径" fill="#000000" opacity="0.200520833"></path>
            <path d="M8.5,0.7 C10.653124,0.7 12.6018828,1.57647775 14.0120221,2.99554351 C15.4224358,4.4148853 16.2939497,6.37677417 16.2939573,8.54445307 C16.2889801,9.61160898 16.0768754,12.0108237 14.1099287,14.4070247 C11.9551693,16.9964725 9.51056546,18.5935949 8.56467371,19.157248 C8.2507802,18.9933733 7.96926648,18.8312613 7.63851915,18.6216385 C7.13995247,18.3056543 6.53258614,17.8835131 5.87329222,17.3591834 C4.9276218,16.6071015 3.8753301,15.645073 2.88443226,14.4831043 C0.927665505,12.0931141 0.710547418,9.70658894 0.700458357,8.92526395 C0.70301694,6.58835907 1.56074564,4.54053413 2.95971517,3.07161953 C4.37133385,1.58942337 6.33204358,0.7 8.5,0.7 Z" id="路径" stroke="#000000" stroke-width="1.4"></path>
            <path d="M8.5,10 C7.14285714,10 6,8.89705883 6,7.5 C6,6.10294115 7.14285714,5 8.5,5 C9.85714284,5 11,6.02941177 11,7.42647058 C11,8.8235294 9.85714286,10 8.5,10 L8.5,10 Z" id="路径" fill="#000000" opacity="0.197707403"></path>
        </g>
        <g id="icons_outlined_favorites" transform="translate(2.000000, 21.000000)" fill="#000000" fill-rule="nonzero" opacity="0.196614583">
            <path d="M4.71322171,2.80207648 L12.9534442,6.55357359 C13.4919629,6.79874309 13.8942798,7.26978404 14.052202,7.84002175 L16.3262911,16.0514819 C16.4736931,16.5837328 16.1617115,17.1347005 15.6294605,17.2821025 C15.4086948,17.3432416 15.1736307,17.3267316 14.9635786,17.2353335 L7.0291819,13.7829127 C6.49039714,13.5484763 6.08196081,13.0889751 5.91232161,12.5264166 L3.34145796,4.00090418 C3.18200861,3.47213736 3.48139958,2.91422792 4.0101664,2.75477857 C4.24249453,2.68472015 4.49237095,2.70153054 4.71322171,2.80207648 Z" id="矩形" transform="translate(9.830715, 10.015286) rotate(-49.000000) translate(-9.830715, -10.015286) "></path>
        </g>
    </g>
</svg>