<?xml version="1.0" encoding="UTF-8"?>
<svg width="96px" height="96px" viewBox="0 0 96 96" version="1.1" xmlns="http://www.w3.org/2000/svg" xmlns:xlink="http://www.w3.org/1999/xlink">
    <title>icons_outlined_device_mac_large</title>
    <g id="页面-1" stroke="none" stroke-width="1" fill="none" fill-rule="evenodd">
        <g id="icons_outlined_device_mac_large" transform="translate(0.000000, 11.000000)">
            <rect id="矩形" stroke="#000000" stroke-width="0.8" x="0.4" y="0.4" width="95.2" height="62.2" rx="4"></rect>
            <line x1="0" y1="49.5" x2="96" y2="49.5" id="路径-2" stroke="#000000" stroke-width="0.8"></line>
            <path d="M40.5,63 L40.5,66.6225328 C40.5,68.1635285 39.5403684,69.5415171 38.0950228,70.0759738 L33.4877234,71.7796507 C33.1946109,71.8880372 33,72.1674899 33,72.48 C33,72.7671881 33.2328119,73 33.52,73 L62.48,73 C62.7671881,73 63,72.7671881 63,72.48 C63,72.1674899 62.8053891,71.8880372 62.5122766,71.7796507 L57.9049772,70.0759738 C56.4596316,69.5415171 55.5,68.1635285 55.5,66.6225328 L55.5,63 L55.5,63" id="路径-4" stroke="#000000" stroke-width="0.8"></path>
            <path d="M76,34 C83.6520309,34 90.5871359,30.9304749 95.6411793,25.9555603 C95.8152576,20.5206588 95.6,12.8143737 95.6,5.00243169 C95.4131731,-1.88804259 89.4647804,0.4 74.0008074,0.4 C60.4663388,0.4 53.915556,0.442239211 48.5668407,0.366903078 C48.1951683,2.18657521 48,4.07049561 48,6 C48,21.463973 60.536027,34 76,34 Z" id="椭圆形" fill="#000000" opacity="0.0454334077"></path>
            <path d="M12.3246809,50 C15.6928537,50 18.7454592,48.6443786 20.9700832,46.4472632 C21.0467068,44.0469998 20.9519574,40.6436053 20.9519574,37.1935485 C20.8697224,34.1504476 18.2514352,35.160936 11.4447019,35.160936 C5.48727312,35.160936 2.60383354,35.1795905 0.249504654,35.1463191 C0.0859066826,35.949957 0,36.7819693 0,37.6341134 C0,44.463604 5.51794757,50 12.3246809,50 Z" id="椭圆形备份-15" fill="#000000" opacity="0.0454334077" transform="translate(10.500000, 42.500000) rotate(-180.000000) translate(-10.500000, -42.500000) "></path>
        </g>
    </g>
</svg>