<?xml version="1.0" encoding="UTF-8"?>
<svg width="24px" height="24px" viewBox="0 0 24 24" version="1.1" xmlns="http://www.w3.org/2000/svg" xmlns:xlink="http://www.w3.org/1999/xlink">
    <title>icons_outlined_pay_transfer</title>
    <g id="页面-1" stroke="none" stroke-width="1" fill="none" fill-rule="evenodd">
        <g id="zhuanzhang" transform="translate(4.000000, 7.000000)" fill="#000000" fill-rule="nonzero">
            <path d="M12.4721049,3.75893573 L12.4721049,5.01426511 C12.4721049,5.12005129 12.5574572,5.20468024 12.6641476,5.20468024 C14.0422316,5.20468024 15.1589242,4.09745151 15.1589242,2.73104664 L15.1589242,0.262702356 C15.1589242,0.118127905 15.0397866,0 14.8939764,0 L2.61747055,0 C1.17181596,0 0,1.16188492 0,2.59528771 C0,2.77159801 0.144032007,2.91440936 0.3218493,2.91440936 L11.6221383,2.91440936 C12.0915759,2.91617246 12.4721049,3.29347652 12.4721049,3.75893573 Z" id="路径" opacity="0.20296224"></path>
            <path d="M15.6781507,8.08382754 L4.37786175,8.08382754 C3.90842409,8.08382754 3.52789509,7.70652348 3.52789509,7.24106427 L3.52789509,5.98573489 C3.52789509,5.87994871 3.44254279,5.79531976 3.33585241,5.79531976 C1.95776839,5.79531976 0.841075795,6.90254849 0.841075795,8.26895336 L0.841075795,10.7372976 C0.841075795,10.8818721 0.960213381,11 1.10602356,11 L13.3825295,11 C14.828184,11 16,9.83811508 16,8.40471229 C16,8.22663888 15.855968,8.08382754 15.6781507,8.08382754 Z" id="路径"></path>
        </g>
    </g>
</svg>