<?xml version="1.0" encoding="UTF-8"?>
<svg width="24px" height="24px" viewBox="0 0 24 24" version="1.1" xmlns="http://www.w3.org/2000/svg" xmlns:xlink="http://www.w3.org/1999/xlink">
    <title>icons_outlined_human_background</title>
    <g id="页面-1" stroke="none" stroke-width="1" fill="none" fill-rule="evenodd">
        <g id="icons_outlined_human_background" transform="translate(2.000000, 2.000000)" fill="#000000" fill-rule="nonzero">
            <path d="M7.416,16.449649 L5.719,16.449649 L3.37,18.798649 L5.067,18.798649 L7.416,16.449649 Z M10.951,16.449649 L9.254,16.449649 L6.905,18.798649 L8.602,18.798649 L10.951,16.449649 Z M14.487,16.449649 L12.79,16.449649 L10.441,18.798649 L12.138,18.798649 L14.487,16.449649 Z M18.799,13.975649 L13.976,18.798649 L15.673,18.798649 L18.799,15.673649 L18.799,13.975649 Z M18.798,17.512649 L17.514,18.796649 L17.695123,18.7924902 C18.0483391,18.7769924 18.1946024,18.7360951 18.3427168,18.6568826 C18.4812489,18.5827948 18.5827948,18.4812489 18.6568826,18.3427168 C18.7272937,18.2110595 18.767431,18.0808649 18.7863658,17.8054832 L18.7967332,17.5694329 L18.798,17.512649 Z M3.41184974,15.2226355 L1.2,17.433649 L1.20858072,17.7183664 C1.22484421,18.0548406 1.26566522,18.1978938 1.34311739,18.3427168 C1.41720519,18.4812489 1.51875106,18.5827948 1.65728321,18.6568826 L1.668,18.662649 L4.19027885,16.1428359 C3.84487998,15.9247256 3.57102066,15.6036092 3.41184974,15.2226355 Z M6.50527949,8.5923693 L1.2,13.898649 L1.2,15.595649 L3.47250444,13.3215251 C3.67745075,12.8722275 4.0162494,12.4772583 4.4306706,12.230081 L4.58195491,12.1481668 L4.712,12.083649 L6.88642422,9.9117671 C6.70180321,9.4860018 6.56747105,9.0263319 6.50527949,8.5923693 Z M18.799,10.439649 L16.3078501,12.9325868 C16.5460376,13.2791929 16.700117,13.6855646 16.7344066,14.0950843 L16.7344066,14.0950843 L16.738,14.198649 L18.799,12.137649 L18.799,10.439649 Z M18.799,6.90464902 L14.166,11.537649 L15.307,12.093649 L18.799,8.601649 L18.799,6.90464902 Z M12.059,1.20064902 L10.362,1.20064902 L1.2,10.362649 L1.2,12.059649 L6.47951679,6.77991262 C6.62498326,5.07138474 7.98839215,3.70874432 9.6959855,3.56292438 L12.059,1.20064902 Z M18.799,3.36964902 L13.479246,8.6915442 C13.3670699,9.3626908 13.0888667,10.0847061 12.724537,10.6401512 L12.724537,10.6401512 L12.6223597,10.7843597 L12.931,10.934649 L18.799,5.06564902 L18.799,3.36964902 Z M8.523,1.20064902 L6.826,1.20064902 L1.2,6.82764902 L1.2,8.524649 L8.523,1.20064902 Z M17.4338549,1.20087727 L13.1510999,5.48378558 C13.3564157,5.8872938 13.4865027,6.33543879 13.5228763,6.80970858 L18.6631657,1.66918529 C18.6610986,1.66521659 18.6590044,1.66125056 18.6568826,1.65728321 C18.5827948,1.51875106 18.4812489,1.41720519 18.3427168,1.34311739 C18.2110595,1.27270633 18.0808649,1.23256895 17.8054832,1.21363415 L17.5694329,1.2032668 C17.5269018,1.20220687 17.4817917,1.20141546 17.4338549,1.20087727 Z M4.988,1.20064902 L3.291,1.20064902 L1.2,3.29164902 L1.2,4.98864902 L4.988,1.20064902 Z M15.595,1.20064902 L13.897,1.20064902 L11.3012498,3.79749322 C11.6895334,3.95147097 12.0440677,4.17229993 12.3506493,4.4457558 L15.595,1.20064902 Z" id="形状结合" opacity="0.445359003"></path>
            <path d="M10,4.75 C8.7139578,4.75 7.66666667,5.79455933 7.66666667,7.08308855 L7.66666667,7.08308855 L7.66666667,8.0804195 C7.66666667,8.7455396 8.0145186,9.6956663 8.4436157,10.2042472 L8.4436157,10.2042472 L8.6545097,10.454206 C9.0003178,10.8640698 8.88897,11.3816484 8.4100963,11.6153334 L8.4100963,11.6153334 L5.1082236,13.2266107 C4.74892136,13.4019463 4.45833333,13.8677184 4.45833333,14.2673536 L4.45833333,14.2673536 L4.45833333,14.4535556 C4.45833333,14.8934197 4.81491366,15.25 5.25477778,15.25 L5.25477778,15.25 L14.7452222,15.25 C15.1850863,15.25 15.5416667,14.8934197 15.5416667,14.4535556 L15.5416667,14.4535556 L15.5416667,14.2673536 C15.5416667,13.8646826 15.2507009,13.4018206 14.8917764,13.2267419 L14.8917764,13.2267419 L11.5899036,11.6161311 C11.1090262,11.3815653 11.0016022,10.8627212 11.3454902,10.4550774 L11.3454902,10.4550774 L11.5563842,10.2050843 C11.9838772,9.6983352 12.3333333,8.7454226 12.3333333,8.0809416 L12.3333333,8.0809416 L12.3333333,7.08345436 C12.3333333,5.79590513 11.2886644,4.75 10,4.75 Z" id="形状结合-path"></path>
        </g>
    </g>
</svg>