<?xml version="1.0" encoding="UTF-8"?>
<svg width="24px" height="24px" viewBox="0 0 24 24" version="1.1" xmlns="http://www.w3.org/2000/svg" xmlns:xlink="http://www.w3.org/1999/xlink">
    <title>icons_outlined_favorites</title>
    <g id="页面-1" stroke="none" stroke-width="1" fill="none" fill-rule="evenodd">
        <g id="编组-8" transform="translate(1.000000, -4.000000)">
            <path d="M5.6985608,3.84135046 L13.9387833,7.59284757 C14.477302,7.83801707 14.8796189,8.30905802 15.0375411,8.87929573 L17.3116302,17.0907559 C17.4590322,17.6230068 17.1470506,18.1739745 16.6147996,18.3213765 C16.3940339,18.3825156 16.1589698,18.3660056 15.9489177,18.2746075 L8.01452099,14.8221867 C7.47573623,14.5877503 7.0672999,14.1282491 6.8976607,13.5656906 L4.32679705,5.04017816 C4.1673477,4.51141134 4.46673867,3.9535019 4.99550549,3.79405255 C5.22783362,3.72399413 5.47771004,3.74080452 5.6985608,3.84135046 Z" id="矩形" fill="#000000" opacity="0.196614583" transform="translate(10.780295, 11.018838) rotate(-49.000000) translate(-10.780295, -11.018838) "></path>
            <path d="M3,14.9728144 C3.18888976,14.9728144 3.37567728,15.0124534 3.54828693,15.0891688 L3.54828693,15.0891688 L8.54828693,17.311391 C8.79204834,17.4197294 8.99247661,17.5947646 9.13196452,17.8094033 C9.27145244,18.024042 9.35,18.2782842 9.35,18.5450366 L9.35,18.5450366 L9.35,23.1677665 C9.35,23.5405587 9.1988961,23.8780587 8.95459415,24.1223606 C8.71029221,24.3666626 8.37279221,24.5177665 8,24.5177665 C7.81111024,24.5177665 7.62432272,24.4781275 7.45171307,24.4014121 L7.45171307,24.4014121 L2.45171307,22.1791898 C2.20795166,22.0708514 2.00752339,21.8958162 1.86803548,21.6811775 C1.72854756,21.4665388 1.65,21.2122966 1.65,20.9455442 L1.65,20.9455442 L1.65,16.3228144 C1.65,15.9500222 1.8011039,15.6125222 2.04540585,15.3682202 C2.28970779,15.1239183 2.62720779,14.9728144 3,14.9728144 Z" id="矩形备份-5" stroke="#000000" stroke-width="1.3"></path>
            <path d="M18.4517131,15.0891688 C18.7923749,14.9377635 19.1621554,14.9387723 19.4846218,15.0627978 C19.8070881,15.1868233 20.0822403,15.4338656 20.2336456,15.7745274 C20.310361,15.9471371 20.35,16.1339246 20.35,16.3228144 L20.35,16.3228144 L20.35,20.9455442 C20.35,21.2122966 20.2714524,21.4665388 20.1319645,21.6811775 C19.9924766,21.8958162 19.7920483,22.0708514 19.5482869,22.1791898 L19.5482869,22.1791898 L14.5482869,24.4014121 C14.2076251,24.5528173 13.8378446,24.5518086 13.5153782,24.427783 C13.1929119,24.3037575 12.9177597,24.0567152 12.7663544,23.7160534 C12.689639,23.5434437 12.65,23.3566562 12.65,23.1677665 L12.65,23.1677665 L12.65,18.5450366 C12.65,18.2782842 12.7285476,18.024042 12.8680355,17.8094033 C13.0075234,17.5947646 13.2079517,17.4197294 13.4517131,17.311391 L13.4517131,17.311391 Z" id="矩形备份-6" stroke="#000000" stroke-width="1.3"></path>
        </g>
    </g>
</svg>