<?xml version="1.0" encoding="UTF-8"?>
<svg width="24px" height="24px" viewBox="0 0 24 24" version="1.1" xmlns="http://www.w3.org/2000/svg" xmlns:xlink="http://www.w3.org/1999/xlink">
    <title>icons_outlined_colorful_moment</title>
    <g id="页面-1" stroke="none" stroke-width="1" fill="none" fill-rule="evenodd">
        <g id="圈子备份-3" transform="translate(3.000000, 3.000000)">
            <circle id="椭圆形" stroke="#000000" stroke-width="1.3" cx="9" cy="10" r="7.35"></circle>
            <path d="M3.71652049,10.0071532 C3.43764602,9.98927402 3.15763278,10.0049412 2.88249589,10.053818 L2.95096062,10.0429295 C2.87633629,10.0550238 2.80212669,10.0695495 2.72845031,10.0864834 L2.88249589,10.0553735 C2.80158305,10.069373 2.72067024,10.0864834 2.6397574,10.1067049 L2.72845031,10.0864834 C1.27955077,10.4142385 0.195308231,11.6203838 0.0235824611,13.0954631 C-0.148143309,14.5705423 0.630040333,15.9933625 1.96492292,16.6449831 C3.29980551,17.2966037 4.90072138,17.0351367 5.95873953,15.9926995 L5.80313795,16.1358051 C5.87160264,16.0766963 5.93695531,16.0144765 5.99919597,15.9507011 L5.95873953,15.9926995 C6.12213089,15.831341 6.26911538,15.654185 6.39753604,15.4638311 L6.33529542,15.5556053 C6.38353193,15.4871635 6.43021241,15.4171662 6.47533686,15.3456134 L6.39753604,15.4638311 C6.45355261,15.3813898 6.50645717,15.2958376 6.55469368,15.2087298 L6.47533686,15.3456134 C6.51579327,15.2787271 6.55469368,15.2118408 6.59203806,15.1418435 L6.55469368,15.2087298 C6.59203806,15.143399 6.6247144,15.0780682 6.65739073,15.0111819 L6.59203806,15.1418435 C6.63560652,15.0609578 6.6745069,14.976961 6.71185128,14.8929643 L6.65739073,15.0111819 C6.69473512,14.9318517 6.73052347,14.8494104 6.76319981,14.7669691 L6.71185128,14.8929643 C6.73830354,14.8307444 6.76475584,14.7654136 6.78809608,14.7016383 L6.76319981,14.7669691 C6.78965207,14.6954163 6.81610437,14.6238636 6.83788858,14.5491998 L6.78809608,14.7016383 C6.82388443,14.6036421 6.85500478,14.5040904 6.88145704,14.4029832 L6.83788858,14.5507553 C6.86122882,14.477647 6.88145704,14.4045387 6.90012923,14.3314304 L6.88145704,14.4029832 C6.98598875,14.0107809 7.02178738,13.6034445 6.98726611,13.1990297 L6.99504618,13.3265804 C6.99069609,13.2371328 6.98291027,13.1478852 6.97170594,13.0590352 L6.98726611,13.1990297 C6.98109738,13.1287965 6.97279479,13.0587669 6.96236985,12.9890379 L6.97170594,13.0590352 C6.9615231,12.9787594 6.94854846,12.8988623 6.93280557,12.8194889 L6.96392587,12.9890379 C6.95103273,12.9034329 6.93494265,12.8183398 6.91568937,12.7339366 L6.93280557,12.8194889 C6.91428899,12.7263226 6.89196743,12.6339527 6.86589687,12.5426107 L6.91568937,12.7339366 C6.89654891,12.6491324 6.87423031,12.5650765 6.8487807,12.4819464 L6.86589687,12.5441662 C6.84456569,12.4687186 6.82069318,12.3940123 6.79432012,12.3201748 L6.8487807,12.4819464 C6.82212881,12.3942037 6.79202239,12.307547 6.75853176,12.2221786 L6.79432012,12.3201748 C6.64951716,11.9158312 6.43169608,11.5414941 6.15168552,11.2157731 L6.25127056,11.3371017 C6.11999051,11.1695648 5.97363197,11.0144038 5.81403004,10.8735641 L5.8980549,10.9513389 C5.84266373,10.8991904 5.78557923,10.8488691 5.72689315,10.8004558 L5.81403004,10.8735641 C5.75456518,10.8211921 5.6933261,10.7708684 5.63042017,10.7226811 L5.72689315,10.8004558 C5.65891861,10.7444214 5.58884778,10.6909779 5.51683099,10.6402398 L5.63042017,10.7226811 C5.57461936,10.680003 5.51753931,10.6390228 5.45925839,10.5997969 L5.51683099,10.6402398 C5.44599309,10.5903794 5.37332904,10.5431636 5.29898877,10.4986897 L5.45925839,10.5997969 C5.39029367,10.5537445 5.31970951,10.510163 5.24764024,10.4691353 L5.29743274,10.4986897 C5.227254,10.4567978 5.15563364,10.4173679 5.08270253,10.3804721 L5.24764024,10.4691353 C5.17442513,10.426515 5.0996872,10.3865643 5.02357393,10.3493622 L5.08270253,10.3804721 C5.0198256,10.3484868 4.95600006,10.3184002 4.89131256,10.2902533 L5.02357393,10.3493622 C4.94450774,10.3116288 4.86405733,10.2768651 4.78239143,10.245144 L4.89131256,10.2902533 C4.80959693,10.2544467 4.72654947,10.2217577 4.64234999,10.1922571 L4.78239143,10.245144 C4.71064939,10.2168401 4.63799608,10.1909011 4.5645492,10.1673692 L4.64234999,10.1922571 C4.57047715,10.167617 4.497825,10.1453098 4.42450776,10.1253708 L4.5645492,10.1673692 C4.48599989,10.1422954 4.40659416,10.1199862 4.32647875,10.1004829 L4.42450776,10.1253708 C4.34940571,10.1047132 4.2736378,10.0865557 4.19732944,10.0709285 L4.32647875,10.1004829 C4.24413629,10.0803826 4.16109467,10.063261 4.07751618,10.0491515 L4.19732944,10.0709285 C4.12718785,10.0563276 4.05661537,10.0438778 3.98571125,10.0335966 L4.07907221,10.0491515 C4.00112465,10.0361454 3.92276068,10.0257695 3.84411378,10.0180416 L3.71652049,10.0071532 Z" id="路径" fill="#27C3FE" fill-rule="nonzero"></path>
            <path d="M14.5960298,10.0009211 C14.4482219,9.9978104 14.3004139,10.0024765 14.1557176,10.0164749 L14.2832993,10.0071426 C14.1961704,10.0133642 14.1121532,10.0226964 14.0265802,10.033584 L14.1557176,10.0180303 C14.0755155,10.0256426 13.9955998,10.036018 13.9161132,10.0491378 L14.0250243,10.033584 C13.9531023,10.0432926 13.8814978,10.0552228 13.8103137,10.0693576 L13.9161132,10.0491378 C13.8336519,10.0646915 13.7527465,10.0802452 13.6733969,10.1004651 L13.8103137,10.0693576 C13.7309642,10.0849114 13.6531705,10.1035759 13.5753769,10.1253511 L13.6733969,10.1004651 C13.5932875,10.1199619 13.5138889,10.1422694 13.4353483,10.1673462 L13.5753769,10.1253511 C13.5031308,10.144841 13.4315243,10.1666273 13.3606663,10.1906768 L13.4353483,10.1673462 C13.3523359,10.1938457 13.2703367,10.2234182 13.1895202,10.2560026 L13.3606663,10.1906768 C13.2850335,10.2166381 13.2103082,10.2451698 13.1366206,10.2762224 L13.1895202,10.2560026 C13.1190514,10.2843326 13.0495192,10.3149377 12.9810332,10.3477697 L13.1366206,10.2762224 C13.0619386,10.3073299 12.9872567,10.3431035 12.9141306,10.3804325 L12.9810332,10.3477697 C12.9032396,10.3850986 12.8254459,10.4255384 12.7507639,10.4690889 L12.9141306,10.3804325 C12.8454944,10.4155249 12.7780364,10.4528743 12.7118671,10.4924195 L12.7507639,10.4690889 C12.6819326,10.508778 12.6144724,10.5507975 12.5485004,10.5950742 L12.7103112,10.4924195 C12.6283519,10.5409726 12.5484167,10.592862 12.4707067,10.6479569 L12.5485004,10.5950742 C12.4862655,10.6355139 12.4271423,10.6790644 12.3680191,10.7241703 L12.4707067,10.6464016 C12.4084718,10.6930628 12.3462369,10.739724 12.2840019,10.789496 L12.3680191,10.7241703 C12.2940852,10.780899 12.2224575,10.8405696 12.1533085,10.9030383 L12.2855578,10.789496 C12.2233228,10.8408234 12.1610879,10.8937061 12.1035206,10.9496996 L12.1533085,10.9030383 C12.0101225,11.0323512 11.8779368,11.1733388 11.7581167,11.3245448 L11.8483574,11.2156686 C11.7907881,11.2825154 11.7357744,11.3515199 11.6834348,11.4225334 L11.7581167,11.3245448 C11.4720775,11.6857728 11.2595899,12.0995153 11.1326556,12.5424031 L11.151326,12.4817434 C11.1248762,12.5657337 11.103094,12.6497239 11.0844235,12.7337141 L11.1310997,12.5424031 C11.1077616,12.6263933 11.0875352,12.7134942 11.0688648,12.7974845 L11.0844235,12.7352695 C11.065965,12.8160866 11.0503963,12.8975364 11.0377473,12.9794633 L11.0688648,12.7974845 C11.053306,12.8845854 11.0377473,12.9716864 11.0268562,13.0587874 L11.0377473,12.9794633 C11.0271731,13.0517693 11.0188711,13.1243891 11.0128533,13.1972157 L11.0268562,13.057232 C11.0156007,13.14659 11.0078155,13.2363507 11.0035181,13.3263118 L11.0128533,13.1987711 C10.9774339,13.6117522 11.0153589,14.027741 11.1248762,14.4275169 L11.0937587,14.3077531 C11.1108733,14.3839664 11.1310997,14.457069 11.1544378,14.531727 L11.1233203,14.4275169 C11.1466584,14.5052856 11.1699965,14.5846097 11.1980023,14.6623784 L11.1544378,14.531727 C11.1808876,14.6203833 11.2120051,14.7090397 11.2477902,14.7961407 L11.1980023,14.6623784 C11.2291197,14.7463687 11.2602372,14.8303589 11.2975782,14.9127938 L11.2477902,14.7961407 C11.2757959,14.8661325 11.3053575,14.9361244 11.3380309,15.0030054 L11.2975782,14.9127938 C11.3302515,14.9905625 11.3675925,15.0667758 11.4064893,15.1414338 L11.3380309,15.0030054 C11.3691483,15.0729973 11.4049334,15.1414338 11.4438302,15.2083149 L11.4080452,15.1414338 C11.5626548,15.4335742 11.7580601,15.7022358 11.988386,15.9393409 L11.8888101,15.8320201 C12.8804347,16.9414428 14.4653357,17.3028197 15.8401023,16.7329634 C17.2148689,16.163107 18.078937,14.7866046 17.9942971,13.3012265 C17.9096571,11.8158484 16.894814,10.5463416 15.4642072,10.1362387 L15.6322416,10.1891215 C15.5482134,10.1599456 15.4630964,10.1340036 15.3770783,10.1113527 L15.4642072,10.1362387 C15.372353,10.1096128 15.2794404,10.0867813 15.1857059,10.0678022 L15.3770783,10.1113527 C15.2983725,10.0909447 15.2189741,10.0733062 15.1390297,10.05847 L15.1857059,10.0678022 C15.1196679,10.0544683 15.0532558,10.0430574 14.9865541,10.033584 L15.1390297,10.05847 C14.973606,10.0277241 14.8061699,10.0090106 14.6380384,10.0024765 L14.5960298,10.0009211 Z" id="路径" fill="#FB6867" fill-rule="nonzero"></path>
            <path d="M8.50050334,0 C7.27929664,-0.000622709849 6.14613396,0.635785598 5.51078827,1.67908814 C4.87544258,2.72239068 4.82986351,4.02159678 5.39053331,5.10688902 L5.32366894,4.96688903 C5.4408355,5.22105606 5.58805569,5.46024606 5.76217472,5.67933342 L5.71086021,5.61088899 C5.75595476,5.67155565 5.80415931,5.73066675 5.85236386,5.78822231 L5.76217472,5.67933342 C5.81659918,5.74777785 5.87257864,5.81311118 5.93166809,5.87688897 L5.85391882,5.78822231 C5.90367833,5.84733341 5.95810283,5.90488897 6.01252729,5.96088897 L5.93166809,5.87688897 C5.97987264,5.92977787 6.03118715,5.9811112 6.08250162,6.03088896 L6.01252729,5.96088897 C6.06850675,6.01844453 6.12759617,6.07288896 6.18668563,6.12577786 L6.08250162,6.03088896 C6.3054255,6.24363589 6.555325,6.42616083 6.82578447,6.57377783 L6.75425515,6.53333336 C6.83200439,6.57844446 6.91286362,6.62044446 6.99372285,6.65777782 L6.82578447,6.57377783 C6.89109384,6.60955559 6.95640321,6.64222226 7.02326758,6.67333335 L6.99372285,6.65777782 C7.06058722,6.69044449 7.12745155,6.72000005 7.19587092,6.74800002 L7.02482254,6.67333335 C7.11034673,6.71377778 7.19898087,6.75111112 7.28917002,6.78377782 L7.19587092,6.74800002 C7.27206519,6.77911111 7.34825944,6.80555558 7.42600868,6.83044448 L7.28917002,6.78377782 C7.36069934,6.81022225 7.43533862,6.83511115 7.50997787,6.85688891 L7.42600868,6.83044448 C7.51464282,6.86000005 7.60638693,6.88488891 7.69968606,6.90822224 L7.50997787,6.85688891 C7.58306215,6.87866667 7.65770143,6.89888891 7.73234075,6.91600001 L7.69968606,6.90666667 C7.7805453,6.92688891 7.86295949,6.94244444 7.94848364,6.95644447 L7.73234075,6.91600001 C7.81630994,6.93466667 7.90183413,6.95022224 7.98735828,6.96266667 L7.94692868,6.95644447 C8.02156796,6.96733337 8.09620724,6.97822224 8.17240148,6.98444447 L7.98580328,6.96266667 C8.07443743,6.9751111 8.16307157,6.98444443 8.25170572,6.99066667 L8.50050334,7 C8.61868221,7 8.73530609,6.99377777 8.85037497,6.9828889 L8.744636,6.99222223 C8.8379351,6.98444447 8.9312342,6.97511114 9.0245333,6.96111114 L8.85037497,6.9828889 C8.92165575,6.97573955 8.99270022,6.96640182 9.0634079,6.9548889 L9.0229783,6.96111114 C9.1053925,6.94866671 9.18780673,6.93311114 9.26866592,6.91444447 L9.0634079,6.9548889 C9.156707,6.93933334 9.2500061,6.92066667 9.34330521,6.89733334 L9.26866592,6.91444447 C9.3448602,6.89888891 9.41949948,6.87866671 9.49258377,6.85688891 L9.34330521,6.89733334 C9.42882939,6.87711111 9.51435355,6.85222224 9.59676778,6.82577781 L9.49258377,6.85688891 C9.58291309,6.83042599 9.67213816,6.80032743 9.7600412,6.76666668 L9.59676778,6.82577781 C9.66985206,6.80088891 9.74293638,6.77444448 9.81446567,6.74488892 L9.7600412,6.76666668 C9.83312549,6.73866668 9.90465481,6.70755559 9.97462914,6.67488892 L9.81291071,6.74488892 C9.89376994,6.71377782 9.97307418,6.67800002 10.0492684,6.63911116 L9.97462914,6.67488892 C10.0441475,6.64291117 10.1126033,6.6086707 10.1798872,6.57222226 L10.0492684,6.63911116 C10.263782,6.53414502 10.4669895,6.40748467 10.6557126,6.26111118 L10.610618,6.29222228 C11.810219,5.38524466 12.2963499,3.81292475 11.818097,2.38680652 C11.3398442,0.96068829 10.0041814,-0.000239539863 8.50050334,0 L8.50050334,0 Z" id="路径" fill="#7BD73A" fill-rule="nonzero"></path>
        </g>
    </g>
</svg>