<?xml version="1.0" encoding="UTF-8"?>
<svg width="24px" height="24px" viewBox="0 0 24 24" version="1.1" xmlns="http://www.w3.org/2000/svg" xmlns:xlink="http://www.w3.org/1999/xlink">
    <title>icons_filled_previous</title>
    <g id="页面-1" stroke="none" stroke-width="1" fill="none" fill-rule="evenodd">
        <g id="icons_filled_previous" transform="translate(2.000000, 1.000000)">
            <circle id="椭圆形" stroke="#000000" stroke-width="1.3" cx="10" cy="11" r="9"></circle>
            <g id="编组-57" transform="translate(7.000000, 7.000000)" stroke="#000000">
                <path d="M3.8349328,4.84154022 C4.40853683,4.82154369 6.39265335,7.11975099 5.99446232,7.76946897 C5.59627129,8.41918694 2.63613915,8.58436821 2.04553396,7.90713341 C1.45492877,7.2298986 3.26132877,4.86153675 3.8349328,4.84154022 Z" id="三角形" fill="#000000" fill-rule="nonzero" transform="translate(3.987639, 6.591867) scale(-1, 1) rotate(-180.000000) translate(-3.987639, -6.591867) "></path>
                <path d="M4.06288152,6.3301344 L4.06288152,1.89516539 C4.06297558,1.56522505 3.94645404,1.24588457 3.73396598,0.993477256 C2.50902934,-0.4615831 1.26437401,-0.318317506 -1.86517468e-14,1.42327404" id="路径-24" stroke-linecap="round"></path>
            </g>
            <path d="M13.6393583,7.68864915 C16.400782,7.68864915 18.6393583,6.12164577 18.6393583,4.18864915 C17.6001495,3.11890517 17.4569095,3.27057154 14.6954858,3.27057154 C11.934062,3.27057154 11.1085718,3.82572038 10.1773109,4.02900407 C10.1773109,4.37576572 8.71139799,4.87039441 8.8455725,5.18666657 C9.45934367,6.63342971 11.3733083,7.68864915 13.6393583,7.68864915 Z" id="椭圆形" fill="#000000" opacity="0.202520461" transform="translate(13.738126, 5.475909) rotate(41.000000) translate(-13.738126, -5.475909) "></path>
            <path d="M4.42946951,18 C6.40141905,18 8,16.9377399 8,15.6273757 C7.25789463,14.9022041 7.15560612,15.0050176 5.18365658,15.0050176 C3.21170704,15.0050176 2.62221945,15.381349 1.95720033,15.5191535 C1.95720033,15.7542207 0.910382998,16.0895258 1.00619783,16.3039244 C1.44449557,17.2846745 2.81126941,18 4.42946951,18 Z" id="椭圆形" fill="#000000" opacity="0.202520461" transform="translate(4.500000, 16.500000) rotate(-135.000000) translate(-4.500000, -16.500000) "></path>
        </g>
    </g>
</svg>