<?xml version="1.0" encoding="UTF-8"?>
<svg width="24px" height="24px" viewBox="0 0 24 24" version="1.1" xmlns="http://www.w3.org/2000/svg" xmlns:xlink="http://www.w3.org/1999/xlink">
    <title>icons_filled_transfer_text_en</title>
    <g id="页面-1" stroke="none" stroke-width="1" fill="none" fill-rule="evenodd">
        <g id="icons_filled_transfer_text_en备份" transform="translate(3.000000, 3.000000)">
            <rect id="矩形" stroke="#000000" stroke-width="1.3" x="0.65" y="0.65" width="17.7" height="17.7" rx="4"></rect>
            <path d="M15.5,19 C17.1376859,18.1631288 18.28,16.9852814 18.28,14.5 C18.28,13.0541674 19.3181336,11.7675932 18.2584322,10.9443089 C17.4965837,10.3524272 16.5394488,10 15.5,10 C13.0147186,10 11,12.0147186 11,14.5 C11,16.9852814 13.0147186,19 15.5,19 Z" id="椭圆形" fill="#000000" opacity="0.20093936"></path>
            <polygon id="合并形状-path" fill="#000000" points="3 3 3 10 8 10 8 9.08823529 4.02830189 9.08823529 4.02830189 6.8627451 7.61320755 6.8627451 7.61320755 5.95098039 4.02830189 5.95098039 4.02830189 3.91176471 7.83962264 3.91176471 7.83962264 3"></polygon>
            <path d="M11.8791209,5 C11.5274725,5 11.2087912,5.05649718 10.9230769,5.18832392 C10.6373626,5.31073446 10.3846154,5.48964218 10.1648352,5.73446328 L10.1648352,5.13182674 L9,5.13182674 L9,10 L10.1648352,10 L10.1648352,7.07156309 C10.2087912,6.67608286 10.3736264,6.3653484 10.6373626,6.1393597 C10.8791209,5.93220339 11.1758242,5.83804143 11.5054945,5.83804143 C12.3846154,5.83804143 12.8351648,6.25235405 12.8351648,7.08097928 L12.8351648,10 L14,10 L14,6.99623352 C14,5.65913371 13.2857143,5 11.8791209,5 Z" id="合并形状-path" fill="#000000"></path>
        </g>
    </g>
</svg>