<?xml version="1.0" encoding="UTF-8"?>
<svg width="24px" height="24px" viewBox="0 0 24 24" version="1.1" xmlns="http://www.w3.org/2000/svg" xmlns:xlink="http://www.w3.org/1999/xlink">
    <title>icons_outlined_wallet</title>
    <g id="页面-1" stroke="none" stroke-width="1" fill="none" fill-rule="evenodd">
        <g id="icons_outlined_wallet" transform="translate(2.000000, 4.000000)" fill="#000000">
            <path d="M20,10 L20,10.2 C20,10.2684931 19.993114,10.3353779 19.9799964,10.3999999 L20,10.3999999 L20,15 C20,15.5522847 19.5522847,16 19,16 L1,16 C0.44771525,16 0,15.5522847 0,15 L0,1 C0,0.44771525 0.44771525,0 1,0 L19,0 C19.5522847,0 20,0.44771525 20,1 L20,5.5999999 L19.9799964,5.5999999 C19.9931139,5.66462192 20,5.7315068 20,5.8 L20,6 L20,10 Z M18.8,4.8 L18.8,1.2 L1.2,1.2 L1.2,14.8 L18.8,14.8 L18.8,11.2 L18.8,4.8 Z" id="Combined-Shape" fill-rule="nonzero"></path>
            <path d="M18.8,10 L18.8,6 L13,6 C11.8954305,6 11,6.8954305 11,8 C11,9.1045695 11.8954305,10 13,10 L18.8,10 Z" id="形状结合" fill-rule="nonzero" opacity="0.195638021"></path>
            <path d="M13,9 C12.4477153,9 12,8.5522847 12,8 C12,7.4477153 12.4477153,7 13,7 C13.5522847,7 14,7.4477153 14,8 C14,8.5522847 13.5522847,9 13,9 Z" id="Combined-Shape-path" fill-rule="nonzero"></path>
            <path d="M0.773648776,15.4527233 C2.28187826,15.4527233 6.05903166,15.6901301 6.75762273,15.4527233 C7.01348436,14.9062451 7.15736112,14.2902102 7.15736112,13.6384876 C7.15736112,11.3850277 5.43721715,9.55823743 3.31531202,9.55823743 C2.15983923,9.55823743 1.12350037,10.0999341 0.419179342,10.9572452 C-0.169911657,11.6742964 0.419179342,12.3181356 0.419179342,13.3444852 C0.419179342,15.5979452 0.312119966,15.0603687 0.773648776,15.4527233 Z" id="椭圆形" opacity="0.201055618"></path>
        </g>
    </g>
</svg>