<?xml version="1.0" encoding="UTF-8"?>
<svg width="24px" height="24px" viewBox="0 0 24 24" version="1.1" xmlns="http://www.w3.org/2000/svg" xmlns:xlink="http://www.w3.org/1999/xlink">
    <title>icons_outlined_new_mini_window</title>
    <g id="页面-1" stroke="none" stroke-width="1" fill="none" fill-rule="evenodd">
        <g id="编组-13备份-4" transform="translate(2.000000, 2.000000)" fill="#000000">
            <g id="minimize窗口化" transform="translate(11.000000, 0.000000)">
                <path d="M3.21854908,7.69945042 L6.59920116,7.69945042 C7.11980363,7.69953012 7.54179306,8.12158416 7.54179306,8.64218664 C7.54179306,9.16278912 7.11980363,9.58484316 6.59920116,9.58492286 L0.911673526,9.58492286 L0.862651258,9.58115191 L0.832483684,9.5783237 L0.797602458,9.57361002 C0.790675246,9.57243022 0.783761414,9.57117316 0.776862254,9.56983907 L0.755179328,9.56606814 C0.534433262,9.52197387 0.336967772,9.39981301 0.198964942,9.2219694 L0.27626932,9.30870115 C0.104661569,9.13614798 0.00579431708,8.90433295 0,8.66104137 C0,8.65475661 0,8.64847138 0,8.64218663 L0,2.98576929 C0.00012731488,2.46516682 0.422181352,2.04317739 0.942783833,2.04317739 C1.46338631,2.04317739 1.88544035,2.46516682 1.88552005,2.98576929 L1.88552005,6.36453593 C1.88673216,6.94418482 1.96621951,7.31300214 2.1239821,7.47098787 C2.28174469,7.62897361 2.64660035,7.70512779 3.21854908,7.69945042 Z" id="路径备份" fill-rule="nonzero"></path>
                <rect id="矩形" opacity="0.196196057" transform="translate(5.993528, 3.535534) rotate(45.000000) translate(-5.993528, -3.535534) " x="4.9935282" y="-0.464466094" width="2" height="8" rx="1"></rect>
            </g>
            <g id="minimize窗口化备份" transform="translate(5.000000, 15.000000) rotate(-180.000000) translate(-5.000000, -15.000000) translate(0.000000, 10.000000)">
                <path d="M3.21854908,7.69945042 L6.59920116,7.69945042 C7.11980363,7.69953012 7.54179306,8.12158416 7.54179306,8.64218664 C7.54179306,9.16278912 7.11980363,9.58484316 6.59920116,9.58492286 L0.911673526,9.58492286 L0.862651258,9.58115191 L0.832483684,9.5783237 L0.797602458,9.57361002 C0.790675246,9.57243022 0.783761414,9.57117316 0.776862254,9.56983907 L0.755179328,9.56606814 C0.534433262,9.52197387 0.336967772,9.39981301 0.198964942,9.2219694 L0.27626932,9.30870115 C0.104661569,9.13614798 0.00579431708,8.90433295 0,8.66104137 C0,8.65475661 0,8.64847138 0,8.64218663 L0,2.98576929 C0.00012731488,2.46516682 0.422181352,2.04317739 0.942783833,2.04317739 C1.46338631,2.04317739 1.88544035,2.46516682 1.88552005,2.98576929 L1.88552005,6.36453593 C1.88673216,6.94418482 1.96621951,7.31300214 2.1239821,7.47098787 C2.28174469,7.62897361 2.64660035,7.70512779 3.21854908,7.69945042 Z" id="路径备份" fill-rule="nonzero"></path>
                <rect id="矩形" opacity="0.196196057" transform="translate(5.993528, 3.535534) rotate(45.000000) translate(-5.993528, -3.535534) " x="4.9935282" y="-0.464466094" width="2" height="8" rx="1"></rect>
            </g>
        </g>
    </g>
</svg>