<?xml version="1.0" encoding="UTF-8"?>
<svg width="24px" height="24px" viewBox="0 0 24 24" version="1.1" xmlns="http://www.w3.org/2000/svg" xmlns:xlink="http://www.w3.org/1999/xlink">
    <title>icons_outlined_finder</title>
    <g id="页面-1" stroke="none" stroke-width="1" fill="none" fill-rule="evenodd">
        <g id="icons_outlined_finder备份" transform="translate(3.000000, 6.000000)" fill-rule="nonzero">
            <path d="M8.99989778,8.38074221 L8.98436518,8.40366121 C8.58134807,9.01675115 8.15143966,9.63004145 7.71154082,10.2039951 C7.29912061,10.7420964 6.89799098,11.2188657 6.51372134,11.6188364 C5.66111334,12.5062816 4.92927592,13 4.19902647,13 C1.94203389,13 -0.934726926,3.54416878 0.29422712,1.04510141 C0.750933745,0.116171153 1.62729525,-0.207025873 2.65232761,0.129883928 C3.39551454,0.374156172 4.21573348,0.958222917 5.13231631,1.83316738 C5.67776843,2.35384081 6.24836025,2.97042618 6.8356564,3.66357283 C7.48591826,4.43103362 8.12298827,5.25170646 8.7210709,6.0721933 L9,6.45832491 L8.99989778,8.38074221 Z" id="形状-path" fill="#000000" opacity="0.197102865"></path>
            <path d="M17.9998978,8.38074221 L17.9843652,8.40366121 C17.5813481,9.01675115 17.1514397,9.63004145 16.7115408,10.2039951 C16.2991206,10.7420964 15.897991,11.2188657 15.5137213,11.6188364 C14.6611133,12.5062816 13.9292759,13 13.1990265,13 C10.9420339,13 8.06527307,3.54416878 9.29422712,1.04510141 C9.75093374,0.116171153 10.6272953,-0.207025873 11.6523276,0.129883928 C12.3955145,0.374156172 13.2157335,0.958222917 14.1323163,1.83316738 C14.6777684,2.35384081 15.2483602,2.97042618 15.8356564,3.66357283 C16.4859183,4.43103362 17.1229883,5.25170646 17.7210709,6.0721933 L18,6.45832491 L17.9998978,8.38074221 Z" id="形状-path备份" stroke="#000000" stroke-width="1.3" transform="translate(13.500000, 6.500000) scale(-1, 1) translate(-13.500000, -6.500000) "></path>
        </g>
    </g>
</svg>