<?xml version="1.0" encoding="UTF-8"?>
<svg width="24px" height="24px" viewBox="0 0 24 24" version="1.1" xmlns="http://www.w3.org/2000/svg" xmlns:xlink="http://www.w3.org/1999/xlink">
    <title>icons_filled_quote</title>
    <g id="页面-1" stroke="none" stroke-width="1" fill="none" fill-rule="evenodd">
        <g id="icons_filled_quote" transform="translate(3.000000, 2.000000)" fill-rule="nonzero">
            <path d="M7.38376211,6 C5.7724386,6.82278127 4.97800558,8.15429769 5.00046304,9.9945493 L5.00046304,9.9945493 L5.00046304,13 L8,13 L8,9.9945493 L6.5,9.9945493 C6.5,8.70198285 7,7.76201524 8,7.17464623 C7.58917471,6.39154875 7.38376211,6 7.38376211,6 Z" id="路径" fill="#000000" opacity="0.202520461"></path>
            <path d="M13.3837621,6 C11.7724386,6.82278127 10.9780056,8.15429769 11.000463,9.9945493 L11.000463,9.9945493 L11.000463,13 L14,13 L14,9.9945493 L12.5,9.9945493 C12.5,8.70198285 13,7.76201524 14,7.17464623 C13.5891747,6.39154875 13.3837621,6 13.3837621,6 Z" id="路径" fill="#000000" opacity="0.522460938"></path>
            <path d="M9.5,0 C14.7467052,0 19,4.25329487 19,9.5 C19,14.7467052 14.7467052,19 9.5,19 C4.25329487,19 0,14.7467052 0,9.5 C0,4.25329487 4.25329487,0 9.5,0 Z" id="路径" stroke="#000000" stroke-width="1.3"></path>
        </g>
    </g>
</svg>