<?xml version="1.0" encoding="UTF-8"?>
<svg width="24px" height="24px" viewBox="0 0 24 24" version="1.1" xmlns="http://www.w3.org/2000/svg" xmlns:xlink="http://www.w3.org/1999/xlink">
    <title>icons_filled_nearby_hot</title>
    <g id="页面-1" stroke="none" stroke-width="1" fill="none" fill-rule="evenodd" opacity="0.900000036">
        <g id="live_reward_icon备份" transform="translate(4.000000, 3.000000)" fill="#000000" fill-rule="nonzero" stroke="#000000" stroke-width="0.2">
            <g id="编组-34">
                <path d="M10.0279987,16.3363177 C12.2154276,15.4355676 13.741207,13.4017109 13.741207,11.0370052 C13.741207,10.0746535 13.4785274,8.99769802 13.0083069,7.87519364 C12.1992435,8.44784004 11.1413434,8.60521517 10.1524281,7.91901429 C9.25688797,7.29760562 9.17349525,6.74190219 9.2698699,5.27817586 C9.33087762,4.35159658 9.28948525,3.90215694 9.03241906,3.38533896 C8.65621671,2.62900432 8.03524561,1.97675439 7.35105226,1.5793155 C7.22135515,2.32657089 6.82873173,2.97704458 6.17957605,3.60791283 C5.84790381,3.93024157 4.46861164,5.06154442 4.47783337,5.05364288 C3.74927974,5.67789612 3.16385736,6.27380603 2.59781329,7.00952689 C1.80934116,8.03435068 1.25879302,9.84009524 1.25879302,11.0370052 C1.25879302,13.3571757 2.72764285,15.358842 4.84912183,16.284225 C5.6800738,16.5107912 5.95608849,16.7491875 7.50000004,16.7491875 C9.04391159,16.7491875 8.9163235,16.5950691 10.0279987,16.3363177 Z M7.5,18 C3.35786439,18 0,14.882561 0,11.0370052 C0,9.83592467 0.50822589,7.71484388 1.57349127,6.3302556 C4.19597673,2.92165643 6.81846219,2.92165643 5.97926683,0 C7.83469628,0 9.46169296,1.46082822 10.1752436,2.8953834 C11.0737223,4.70172676 9.96544473,6.3302556 10.9060299,6.98292054 C11.9344308,7.69652032 13.1124273,6.3302556 13.1124273,5.35637013 C14.0823748,6.97823137 15,9.06686619 15,11.0370052 C15,14.882561 11.6421357,18 7.5,18 Z" id="形状结合"></path>
                <path d="M10.4547698,13.1980299 C10.4547698,12.3292524 9.47783298,10.8645627 7.45476976,8.95157644 C5.43170653,10.8645627 4.45476976,12.3292524 4.45476976,13.1980299 C4.45476976,14.7290253 5.80997636,15.9515764 7.45476976,15.9515764 C9.09956315,15.9515764 10.4547698,14.7290253 10.4547698,13.1980299 Z" id="形状结合-path" opacity="0.202869234"></path>
            </g>
        </g>
    </g>
</svg>