<?xml version="1.0" encoding="UTF-8"?>
<svg width="24px" height="24px" viewBox="0 0 24 24" version="1.1" xmlns="http://www.w3.org/2000/svg" xmlns:xlink="http://www.w3.org/1999/xlink">
    <title>icons_outlined_pay</title>
    <g id="页面-1" stroke="none" stroke-width="1" fill="none" fill-rule="evenodd">
        <g id="icons_outlined_pay" transform="translate(2.000000, 4.000000)" fill="#000000">
            <path d="M5,1.19999695 L1.20001221,1.19999695 L1.20001221,5 L0,5 L0,1 C0,0.44771525 0.44771525,0 1,0 L5,0 L5,1.19999695 Z" id="Combined-Shape" fill-rule="nonzero"></path>
            <path d="M5,12.1999969 L1.20001221,12.1999969 L1.20001221,16 L0,16 L0,12 C0,11.4477153 0.44771525,11 1,11 L5,11 L5,12.1999969 Z" id="Combined-Shape" fill-rule="nonzero" opacity="0.203264509" transform="translate(2.500000, 13.500000) scale(-1, 1) rotate(-180.000000) translate(-2.500000, -13.500000) "></path>
            <path d="M20,1.19999695 L16.2000122,1.19999695 L16.2000122,5 L15,5 L15,1 C15,0.44771525 15.4477153,0 16,0 L20,0 L20,1.19999695 Z" id="Combined-Shape" fill-rule="nonzero" opacity="0.203264509" transform="translate(17.500000, 2.500000) scale(-1, 1) translate(-17.500000, -2.500000) "></path>
            <path d="M20,12.1999969 L16.2000122,12.1999969 L16.2000122,16 L15,16 L15,12 C15,11.4477153 15.4477153,11 16,11 L20,11 L20,12.1999969 Z" id="Combined-Shape" fill-rule="nonzero" transform="translate(17.500000, 13.500000) rotate(180.000000) translate(-17.500000, -13.500000) "></path>
            <circle id="椭圆形" opacity="0.199474516" cx="9" cy="10" r="3"></circle>
            <path d="M8.8284273,10.5583261 L14.6367534,4.75 L15.4852815,5.59852817 L9.5355341,11.5482756 C9.1450098,11.9387999 8.5118448,11.9387999 8.1213205,11.5482756 L5,8.4269551 L5.84852817,7.578427 L8.8284273,10.5583261 Z" id="Combined-Shape" fill-rule="nonzero"></path>
        </g>
    </g>
</svg>