<?xml version="1.0" encoding="UTF-8"?>
<svg width="24px" height="24px" viewBox="0 0 24 24" version="1.1" xmlns="http://www.w3.org/2000/svg" xmlns:xlink="http://www.w3.org/1999/xlink">
    <title>icons_outlined_translate</title>
    <g id="页面-1" stroke="none" stroke-width="1" fill="none" fill-rule="evenodd">
        <g id="编组-9备份" transform="translate(2.000000, 2.000000)" fill-rule="nonzero">
            <path d="M13.4745785,7.26953125 L15.1210939,7.26953125 L15.5507812,8.6367188 L16.8046875,8.6367188 L14.84375,3 L13.4570312,3 L12.2418545,6.5 L8,6.5 L8,1.00247329 C8,0.45576096 8.4488226,0 9.00247331,0 L18.9975267,0 C19.5442389,0 20,0.44882258 20,1.00247329 L20,10.9975267 C20,11.544239 19.5511775,12 18.9975267,12 L13.5,12 L13.5,7.49268723 C13.5,7.41595736 13.4912019,7.34126077 13.4745785,7.26953125 L13.4745785,7.26953125 Z" id="路径" fill="#000000" opacity="0.19687035"></path>
            <polygon id="路径" fill="#000000" opacity="0.197079613" points="14.1171875 4.078125 14.1445312 4.078125 14.8671875 6.38671875 13.3945312 6.38671875"></polygon>
            <path d="M1.00247329,8 L10.9975267,8 C11.544239,8 12,8.4488226 12,9.00247331 L12,18.9975267 C12,19.5442389 11.5511774,20 10.9975267,20 L1.00247329,20 C0.45576096,20 0,19.5511775 0,18.9975267 L0,9.00247331 C0,8.455761 0.44882258,8 1.00247329,8 Z" id="路径" stroke="#000000" stroke-width="1.3"></path>
            <path d="M6.31521355,10.3876825 C6.49618563,10.72791 6.69887435,11.1839597 6.77126319,11.4879928 L6.77126319,11.4879928 L6.18491365,11.6689648 L9.2252446,11.6689648 L9.2252446,12.6968862 L8.1321732,12.6968862 C7.79194571,13.6813744 7.32865719,14.4993681 6.73506877,15.1725843 C7.45895708,15.6937839 8.33486189,16.0774447 9.3845,16.3090889 C9.14561691,16.5407332 8.83434491,17.0040217 8.67508951,17.2935771 C7.56030145,17.0040217 6.65544105,16.5552111 5.90983609,15.9543837 C5.12079783,16.5769276 4.16526525,17.0329772 3.02152172,17.3514881 C2.90569959,17.0981272 2.58718873,16.6058831 2.3845,16.3597611 C3.49204912,16.1136391 4.39690951,15.7372172 5.12803671,15.2015399 C4.52720941,14.5066071 4.06392089,13.6741355 3.68749897,12.6968862 L3.68749897,12.6968862 L2.54375543,12.6968862 L2.54375543,11.6689648 L5.52617528,11.6689648 C5.45378645,11.3794095 5.32348656,11.0102265 5.18594777,10.7206711 L5.18594777,10.7206711 Z M6.94499639,12.6968862 L4.78057032,12.6968862 C5.06288676,13.3628635 5.44654757,13.9564519 5.93155275,14.4704127 C6.35864685,13.9781687 6.69887435,13.3918191 6.94499639,12.6968862 L6.94499639,12.6968862 Z" id="形状结合" fill="#000000"></path>
        </g>
    </g>
</svg>