<?xml version="1.0" encoding="UTF-8"?>
<svg width="24px" height="24px" viewBox="0 0 24 24" version="1.1" xmlns="http://www.w3.org/2000/svg" xmlns:xlink="http://www.w3.org/1999/xlink">
    <title>icons_filled_grouptool</title>
    <g id="页面-1" stroke="none" stroke-width="1" fill="none" fill-rule="evenodd">
        <g id="icons_filled_grouptool备份" transform="translate(1.000000, 1.000000)" fill-rule="nonzero">
            <path d="M5.91304347,12.173913 C8.0741577,12.173913 9.82608694,13.9258423 9.82608694,16.0869565 C9.82608694,18.2480708 8.0741577,20 5.91304347,20 C3.75192923,20 2,18.2480708 2,16.0869565 C2,13.9258423 3.75192923,12.173913 5.91304347,12.173913 Z" id="形状结合-path" stroke="#000000" stroke-width="1.3"></path>
            <path d="M16.0869565,12.173913 C18.2480708,12.173913 20,13.9258423 20,16.0869565 C20,18.2480708 18.2480708,20 16.0869565,20 C13.9258423,20 12.173913,18.2480708 12.173913,16.0869565 C12.173913,13.9258423 13.9258423,12.173913 16.0869565,12.173913 Z" id="形状结合-path" stroke="#000000" stroke-width="1.3"></path>
            <path d="M5.32608694,0.826086937 C7.81136831,0.826086937 9.82608694,2.84080556 9.82608694,5.32608694 C9.82608694,7.81136831 7.81136831,9.82608694 5.32608694,9.82608694 C2.84080556,9.82608694 0.826086937,7.81136831 0.826086937,5.32608694 C0.826086937,2.84080556 2.84080556,0.826086937 5.32608694,0.826086937 Z" id="形状结合-path" fill="#000000" opacity="0.198428199"></path>
            <path d="M14,5 C15.1045695,5 16,5.8954305 16,7 C16,8.1045695 15.1045695,9 14,9 C12.8954305,9 12,8.1045695 12,7 C12,5.8954305 12.8954305,5 14,5 Z" id="形状结合-path" fill="#000000" opacity="0.198428199"></path>
            <path d="M14,15 C15.1045695,15 16,15.8954305 16,17 C16,18.1045695 15.1045695,19 14,19 C12.8954305,19 12,18.1045695 12,17 C12,15.8954305 12.8954305,15 14,15 Z" id="形状结合-path备份" fill="#000000" opacity="0.198428199"></path>
            <path d="M4,16 C5.1045695,16 6,16.8954305 6,18 C6,19.1045695 5.1045695,20 4,20 C2.8954305,20 2,19.1045695 2,18 C2,16.8954305 2.8954305,16 4,16 Z" id="形状结合-path备份-2" fill="#000000" opacity="0.198428199"></path>
            <path d="M16.0869565,2 C18.2480708,2 20,3.75192923 20,5.91304347 C20,8.0741577 18.2480708,9.82608694 16.0869565,9.82608694 C13.9258423,9.82608694 12.173913,8.0741577 12.173913,5.91304347 C12.173913,3.75192923 13.9258423,2 16.0869565,2 Z" id="形状结合-path" stroke="#000000" stroke-width="1.3"></path>
        </g>
    </g>
</svg>