<?xml version="1.0" encoding="UTF-8"?>
<svg width="24px" height="24px" viewBox="0 0 24 24" version="1.1" xmlns="http://www.w3.org/2000/svg" xmlns:xlink="http://www.w3.org/1999/xlink">
    <title>icons_outlined_channels_comment</title>
    <g id="页面-1" stroke="none" stroke-width="1" fill="none" fill-rule="evenodd">
        <g id="icons_outlined_channels_comment备份" transform="translate(2.000000, 4.000000)" fill-rule="nonzero">
            <path d="M17,0.5 C18.3807119,0.5 19.5,1.61928813 19.5,3 L19.5,11.5 C19.5,12.8807119 18.3807119,14 17,14 L9.5,14 L7.20710678,16.29 C6.81658249,16.6805243 6.18341751,16.6805243 5.79289322,16.29 C5.60535684,16.1024636 5.5,15.8552165 5.5,15.59 L5.5,14 L3,14 C1.61928813,14 0.5,12.8807119 0.5,11.5 L0.5,3 C0.5,1.61928813 1.61928813,0.5 3,0.5 L17,0.5 Z M17,1.7 L3,1.7 C2.32690296,1.7 1.77328475,2.21154965 1.70671175,2.86708255 L1.7,3 L1.7,11.5 C1.7,12.173097 2.21154965,12.7267153 2.86708255,12.7932882 L3,12.8 L6.7,12.8 L6.699,15.1 L9.0033874,12.8 L17,12.8 C17.673097,12.8 18.2267153,12.2884503 18.2932882,11.6329174 L18.3,11.5 L18.3,3 C18.3,2.32690296 17.7884503,1.77328475 17.1329174,1.70671175 L17,1.7 Z" id="评论" fill="#000000"></path>
            <path d="M16.2189098,12 L3.76631361,12 C3.28736761,12 3,11.6 3,11.2 L3,3.9 C3,3.40000001 3.38315681,3 3.76631361,3 L16.2189098,3 C16.6978558,3 16.9852234,3.40000001 16.9852234,3.79999999 L16.9852234,11.1 C17.0810127,11.6 16.6978558,12 16.2189098,12 Z" id="路径" fill="#979797" opacity="0.20203218"></path>
            <path d="M14.3069307,6.24999999 L5.69306932,6.24999999 C5.2970297,6.24999999 5,5.98214285 5,5.62500001 C5,5.26785714 5.2970297,5 5.69306932,5 L14.3069307,5 C14.7029703,5 15,5.26785714 15,5.62500001 C15,5.98214287 14.7029703,6.24999999 14.3069307,6.24999999 Z M9.75247525,9.99999999 L5.69306932,9.99999999 C5.2970297,9.99999999 5,9.73214285 5,9.37500001 C5,9.01785714 5.2970297,8.75 5.69306932,8.75 L9.75247525,8.75 C10.1485149,8.75 10.4455446,9.01785714 10.4455446,9.37500001 C10.4455446,9.73214287 10.1485149,9.99999999 9.75247525,9.99999999 Z" id="形状" fill="#000000"></path>
        </g>
    </g>
</svg>