<?xml version="1.0" encoding="UTF-8"?>
<svg width="24px" height="24px" viewBox="0 0 24 24" version="1.1" xmlns="http://www.w3.org/2000/svg" xmlns:xlink="http://www.w3.org/1999/xlink">
    <title>icons_outlined_close_8</title>
    <g id="页面-1" stroke="none" stroke-width="1" fill="none" fill-rule="evenodd">
        <g id="icons_outlined_add备份-5" transform="translate(12.500000, 12.500000) rotate(-330.000000) translate(-12.500000, -12.500000) translate(5.000000, 5.000000)" fill="#000000" fill-rule="nonzero">
            <path d="M1.07142857,6 L13.9285714,6 C14.520305,6 15,6.33672642 15,6.75209952 L15,8.24790048 C15,8.66327358 14.520305,9 13.9285714,9 L1.07142857,9 C0.479694911,9 0,8.66327358 0,8.24790048 L0,6.75209952 C0,6.33672642 0.479694911,6 1.07142857,6 Z" id="矩形" opacity="0.202171689" transform="translate(7.500000, 7.500000) rotate(90.000000) translate(-7.500000, -7.500000) "></path>
            <path d="M1.36363636,6 L13.6363636,6 C14.3894791,6 15,6.44771525 15,7 L15,8 C15,8.55228475 14.3894791,9 13.6363636,9 L1.36363636,9 C0.610520795,9 0,8.55228475 0,8 L0,7 C0,6.44771525 0.610520795,6 1.36363636,6 Z" id="矩形" opacity="0.720238095"></path>
        </g>
    </g>
</svg>