<?xml version="1.0" encoding="UTF-8"?>
<svg width="56px" height="48px" viewBox="0 0 56 48" version="1.1" xmlns="http://www.w3.org/2000/svg" xmlns:xlink="http://www.w3.org/1999/xlink">
    <title>icons_outlined_like_finder</title>
    <g id="页面-1" stroke="none" stroke-width="1" fill="none" fill-rule="evenodd">
        <g id="icons_outlined_like_finder" fill="#000000">
            <path d="M48.8908704,22.9352858 C53.2232214,18.4702556 53.1726484,11.3446116 48.7670195,6.9389827 C44.3150426,2.4870058 37.0969618,2.4870058 32.6449849,6.9389827 C32.0681904,7.5157772 31.3365735,8.2214992 30.4467959,9.0598356 L27.9780802,11.385826 L25.5093644,9.0598356 C24.6195868,8.2214992 23.8879699,7.5157772 23.3111754,6.9389827 C18.8591985,2.4870058 11.6411177,2.4870058 7.1891408,6.9389827 C2.783566,11.3445575 2.7327041,18.4706111 7.0259755,22.897852 L27.9779527,43.8500468 L48.8908704,22.9352858 Z M4.6435564,4.3933983 C10.5014208,-1.4644661 19.9988954,-1.4644661 25.8567598,4.3933983 C26.4051799,4.9418184 27.1122867,5.6238979 27.9780802,6.4396367 C28.8438736,5.6238979 29.5509804,4.9418184 30.0994005,4.3933983 C35.9572649,-1.4644661 45.4547396,-1.4644661 51.3126039,4.3933983 C57.1159785,10.1967729 57.1699615,19.5723615 51.4745527,25.4421935 L30.0994005,46.8198051 C28.9278889,47.9914393 27.028394,47.9915387 25.8567598,46.8200272 L4.4803779,25.4434232 C-1.21380113,19.5723615 -1.15981822,10.1967729 4.6435564,4.3933983 Z" id="Combined-Shape" fill-rule="nonzero"></path>
            <path d="M41.4179439,36.5182268 C44.3780571,31.4182976 44.9224147,29.1001287 46.7144351,23.0488787 C48.7901544,16.0396417 48.4109085,14.7479202 46.8763034,11.8617477 C46.0443432,10.2970582 44.3675307,11.2141096 43.0357168,11.2141096 C35.3037303,11.2141096 29.0357168,18.8252689 29.0357168,28.2141096 C29.0357168,36.1150206 33.4744629,42.7570515 39.4890812,44.6638553 C40.6217772,45.022952 40.5731454,37.973716 41.4179439,36.5182268 Z" id="椭圆形" opacity="0.203264509" transform="translate(38.593090, 27.812081) rotate(28.000000) translate(-38.593090, -27.812081) "></path>
        </g>
    </g>
</svg>