<?xml version="1.0" encoding="UTF-8"?>
<svg width="24px" height="24px" viewBox="0 0 24 24" version="1.1" xmlns="http://www.w3.org/2000/svg" xmlns:xlink="http://www.w3.org/1999/xlink">
    <title>icons_outlined_chats</title>
    <g id="页面-1" stroke="none" stroke-width="1" fill="none" fill-rule="evenodd">
        <g id="消息备份-2" transform="translate(4.000000, 5.000000)" fill-rule="nonzero">
            <path d="M7.91389349,15.8539134 L8,15.8734505 C5.90574303,15.7217124 3.6386056,15.762089 1.19792016,15.9949061 C0.874303466,16.0258843 0.553384007,15.9144567 0.322584023,15.6909776 C0.0917840382,15.4674986 -0.0248538055,15.155248 0.00444401381,14.8392868 L0.00778148161,14.8067249 L0.0244687913,14.669314 C0.259759802,12.6889035 0.268770947,10.4655818 0.0521697036,8 C0.9282533,11.8572744 3.99504647,14.9105972 7.91389349,15.8539134 Z" id="路径" fill="#000000" opacity="0.2"></path>
            <path d="M8,0.65 C10.0296453,0.65 11.8671453,1.47267743 13.1972339,2.80276608 C14.5273226,4.13285472 15.35,5.97035467 15.35,8 C15.35,10.0296453 14.5273226,11.8671453 13.1972339,13.1972339 C11.8671453,14.5273226 10.0296453,15.35 8,15.35 C5.97035467,15.35 4.13285472,14.5273226 2.80276608,13.1972339 C1.47267743,11.8671453 0.65,10.0296453 0.65,8 C0.65,5.97035467 1.47267743,4.13285472 2.80276608,2.80276608 C4.13285472,1.47267743 5.97035467,0.65 8,0.65 Z" id="形状" stroke="#000000" stroke-width="1.3"></path>
            <path d="M8.55929879,9 L3.44070121,9 C3.19730865,9 3,9.13912842 3,9.31075203 L3,9.68924799 C3,9.86087159 3.19730866,10 3.44070121,10 L8.55929879,10 C8.80269134,10 9,9.86087159 9,9.68924799 L9,9.31095918 C9,9.13933558 8.80269134,9.00020717 8.55929879,9.00020717 L8.55929879,9 Z" id="路径" fill="#000000"></path>
            <path d="M10.5856067,6.00020715 L3.41439327,6.00020715 C3.18553019,6.00020715 3,6.13933558 3,6.31095918 L3,6.68924797 C3,6.86087158 3.18553019,7 3.41439327,7 L10.5856067,7 C10.8144698,7 11,6.86087158 11,6.68924797 L11,6.31075201 C11,6.13912841 10.8144698,6 10.5856067,6 L10.5856067,6.00020715 Z" id="路径" fill="#000000"></path>
        </g>
    </g>
</svg>