<?xml version="1.0" encoding="UTF-8"?>
<svg width="24px" height="24px" viewBox="0 0 24 24" version="1.1" xmlns="http://www.w3.org/2000/svg" xmlns:xlink="http://www.w3.org/1999/xlink">
    <title>icons_filled_transfer_text</title>
    <g id="页面-1" stroke="none" stroke-width="1" fill="none" fill-rule="evenodd">
        <g id="icons_filled_transfer_text备份" transform="translate(3.000000, 3.000000)">
            <rect id="矩形" stroke="#000000" stroke-width="1.3" x="0.65" y="0.65" width="17.7" height="17.7" rx="4"></rect>
            <path d="M15.5,19 C17.1376859,18.1631288 18.28,16.9852814 18.28,14.5 C18.28,13.0541674 19.3181336,11.7675932 18.2584322,10.9443089 C17.4965837,10.3524272 16.5394488,10 15.5,10 C13.0147186,10 11,12.0147186 11,14.5 C11,16.9852814 13.0147186,19 15.5,19 Z" id="椭圆形" fill="#000000" opacity="0.20093936"></path>
            <path d="M7.697,2 C8.093,2.517 8.456,3.133 8.786,3.848 L8.786,3.848 L12.944,3.848 L12.944,4.992 L11.283,4.992 C10.755,6.642 9.985,8.017 8.973,9.128 C10.106,10.03 11.514,10.778 13.186,11.394 L13.186,11.394 L12.548,12.373 C10.788,11.713 9.325,10.899 8.159,9.931 C6.927,11.02 5.409,11.823 3.616,12.329 L3.616,12.329 L3,11.317 C4.749,10.866 6.201,10.162 7.345,9.194 C6.157,7.984 5.332,6.587 4.87,4.992 L4.87,4.992 L3.198,4.992 L3.198,3.848 L7.554,3.848 C7.279,3.342 6.938,2.869 6.542,2.418 L6.542,2.418 Z M10.095,4.992 L5.97,4.992 C6.421,6.29 7.147,7.423 8.159,8.413 C9.017,7.467 9.666,6.323 10.095,4.992 L10.095,4.992 Z" id="形状结合" fill="#000000" fill-rule="nonzero"></path>
        </g>
    </g>
</svg>