<?xml version="1.0" encoding="UTF-8"?>
<svg width="24px" height="24px" viewBox="0 0 24 24" version="1.1" xmlns="http://www.w3.org/2000/svg" xmlns:xlink="http://www.w3.org/1999/xlink">
    <title>icons_outlined_imac_lock</title>
    <g id="页面-1" stroke="none" stroke-width="1" fill="none" fill-rule="evenodd">
        <g id="jiesuo备份" transform="translate(3.000000, 1.000000)" fill="#000000" fill-rule="nonzero">
            <path d="M13.0778765,20.4320504 C14.1623762,21.9845037 12.9663394,20.8469728 14.968435,20.2 C16.811638,19.604373 17.1232761,19.2595585 17.1232761,15.94585 C17.1232761,12.6321415 17.4094535,13 18,11 C18.1312621,10.5554554 17.4094535,11.0216967 17.1232761,11.0635957 C14.2251477,11.4879081 12,13.9840985 12,17 C12,18.2763057 12.3985051,19.4595354 13.0778765,20.4320504 Z" id="路径" opacity="0.196358817"></path>
            <path d="M13.8444023,7.59081544 L4.95540797,7.59081544 L4.95540797,5.42340666 C4.95540797,3.20296405 6.7983871,1.39562704 9.0626186,1.39562704 C11.3268501,1.39562704 13.1698292,3.20296405 13.1698292,5.42340666 L13.1698292,7.73602712 C13.1698292,8.12122018 13.4886148,8.43384063 13.8814042,8.43384063 C14.2741935,8.43384063 14.5929791,8.12122018 14.5929791,7.73602712 L14.5929791,5.42340666 C14.5929791,2.43257792 12.1124288,0 9.0626186,0 C6.01280835,0 3.53225806,2.43257792 3.53225806,5.42340666 L3.53225806,7.63687114 C1.53557875,7.93274407 0,9.62703529 0,11.6660464 L0,16.9261647 C0,19.1731242 1.86432638,21 4.15559772,21 L13.8444023,21 C16.1356736,21 18,19.1717286 18,16.9261647 L18,11.6660464 C18,9.41908686 16.1356736,7.59081544 13.8444023,7.59081544 Z M16.5768501,16.9261647 C16.5768501,18.4027381 15.351518,19.604373 13.8444023,19.604373 L4.15559772,19.604373 C2.64990512,19.604373 1.42314991,18.4027381 1.42314991,16.9261647 L1.42314991,11.6660464 C1.42314991,10.189473 2.64848197,8.98644248 4.15559772,8.98644248 L13.8444023,8.98644248 C15.3500949,8.98644248 16.5768501,10.1880774 16.5768501,11.6660464 L16.5768501,16.9261647 Z" id="形状"></path>
            <path d="M5.64571933,9.80754748 C4.8176319,9.80754748 4.14571933,10.3031274 4.14571933,10.9138963 C4.14571933,11.2728569 4.37816476,11.5916353 4.73772879,11.7938855 L4.73772879,14.1378448 C4.73772879,14.5075207 5.14450829,14.8075475 5.64571933,14.8075475 C6.14692922,14.8075475 6.55370873,14.5075207 6.55370873,14.1378448 L6.55370873,11.7938855 C6.92714184,11.585209 7.14629413,11.2594513 7.14571933,10.9138963 C7.14571933,10.3031274 6.47380561,9.80754748 5.64571933,9.80754748 L5.64571933,9.80754748 Z" id="路径" transform="translate(5.645719, 12.307547) rotate(-90.000000) translate(-5.645719, -12.307547) "></path>
        </g>
    </g>
</svg>