<?xml version="1.0" encoding="UTF-8"?>
<svg width="24px" height="24px" viewBox="0 0 24 24" version="1.1" xmlns="http://www.w3.org/2000/svg" xmlns:xlink="http://www.w3.org/1999/xlink">
    <title>icons_outlined_discover</title>
    <g id="页面-1" stroke="none" stroke-width="1" fill="none" fill-rule="evenodd">
        <g id="发现-4备份-2" transform="translate(2.000000, 6.000000)" fill-rule="nonzero">
            <path d="M9.99949262,0.65 C11.1630032,0.65 12.256862,0.978384379 13.206362,1.55280927 C14.2009016,2.15448206 15.0372352,3.02521986 15.6332731,4.07169698 C17.2627077,4.3518578 18.0721126,4.41071049 18.6470263,4.59821532 C18.9956918,4.71193058 19.2662113,4.85981693 19.3345388,5.13531315 C19.4111643,5.44393354 19.2181822,5.75030043 18.9218076,6.07588391 C18.4646855,6.57805709 17.7195874,7.0994035 16.7006511,7.65230987 C15.0667171,8.54555781 12.8722088,9.41022153 10.5239472,10.0904193 C8.17699143,10.7701549 5.87800453,11.2081716 4.05910448,11.3191234 C3.56069527,11.3427267 3.34548751,11.35 3.14383792,11.35 C2.31984498,11.35 1.67286765,11.2688204 1.21146538,11.0833417 C0.933681639,10.9716756 0.723737919,10.8289246 0.665346139,10.5936133 C0.593374223,10.3033803 0.764171649,10.0144226 1.03040401,9.70815343 C1.44447734,9.23181049 2.12269478,8.73855755 3.04817938,8.21661157 C3.42735186,5.7145148 4.19141722,3.95088375 5.40144196,2.67764542 C6.59036287,1.42661343 8.2114969,0.65 9.99949262,0.65 Z" id="形状" stroke="#000000" stroke-width="1.3"></path>
            <path d="M7.10754597,6.80046732 C7.09619061,6.80036151 7.08467434,6.79936502 7.07315621,6.79814361 C6.84014392,6.76874527 6.66411189,6.46814556 6.68000702,6.12732894 C6.77160438,4.16403661 7.52142767,2.41903868 8.68560072,1.45905874 C8.88830533,1.29366247 9.14666629,1.40086502 9.2637583,1.69916964 C9.38101121,1.99837522 9.31232966,2.37585646 9.11040349,2.54260868 C8.18960817,3.30155034 7.59649066,4.68150246 7.52404313,6.23383635 C7.50893077,6.55801686 7.32575302,6.80229286 7.10754597,6.80046732 L7.10754597,6.80046732 Z" id="路径" fill="#000000" transform="translate(7.999999, 4.090908) rotate(24.000000) translate(-7.999999, -4.090908) "></path>
            <path d="M17.8329993,10.0696473 C17.8908812,10.0464783 17.9454406,10.023169 18,10 C17.4217054,12.8327904 14.3499415,15 10.6614116,15 C8.39614748,15 6.36555871,14.1820658 5,12.8972422 C6.84102985,12.7837845 9.09020594,12.4585767 11.3843236,11.9633228 C13.8358241,11.4370366 16.1267941,10.7635925 17.8329993,10.0696473 L17.8329993,10.0696473 Z" id="路径" fill="#000000" opacity="0.2" transform="translate(11.500000, 12.500000) rotate(-4.000000) translate(-11.500000, -12.500000) "></path>
        </g>
    </g>
</svg>