<?xml version="1.0" encoding="UTF-8"?>
<svg width="24px" height="24px" viewBox="0 0 24 24" version="1.1" xmlns="http://www.w3.org/2000/svg" xmlns:xlink="http://www.w3.org/1999/xlink">
    <title>icons_outlined_colorful_chatroom_invitation</title>
    <g id="页面-1" stroke="none" stroke-width="1" fill="none" fill-rule="evenodd">
        <g id="icons_filled_add_friends备份" transform="translate(4.000000, 2.000000)" fill="#07C160" fill-rule="nonzero">
            <path d="M7.72498498,0.666338642 C9.07447683,0.666338642 10.2980182,1.21556681 11.1842921,2.10184071 C12.070566,2.98811462 12.6197942,4.21165599 12.6197942,5.56114784 C12.6197942,6.91066008 12.0705515,8.13425941 11.1842588,9.02058212 C10.2979895,9.90688149 9.0744625,10.4561448 7.72498498,10.4561448 C6.37543167,10.4561448 5.15190434,9.90693965 4.26565367,9.02068899 C3.37937513,8.13441046 2.83017578,6.91084892 2.83017578,5.56133564 C2.83017578,4.21180195 3.37938962,2.98818243 4.26568697,2.10185507 C5.15193308,1.21557894 6.37544601,0.666338642 7.72498498,0.666338642 Z M5.74744898,4.27857143 C5.43147774,4.27857143 5.14575702,4.40571113 4.93880767,4.61022579 C4.72905772,4.8175081 4.6,5.10405332 4.6,5.42016807 C4.6,6.23403524 4.93321358,6.97121072 5.47303892,7.50468517 C6.01006366,8.03539197 6.75177927,8.36428571 7.57142857,8.36428571 C8.39107787,8.36428571 9.13279348,8.03539197 9.66981822,7.50468517 C10.2096436,6.97121072 10.5428571,6.23403524 10.5428571,5.42016807 C10.5428571,5.10405332 10.4137994,4.8175081 10.2040495,4.61022579 L10.2040495,4.61022579 L10.156495,4.56033712 C10.0020837,4.39521256 9.77969266,4.18599552 8.58676683,4.61022581 C8.37701689,4.81750811 8.24795918,5.10405334 8.24795918,5.42016807 C8.24795918,5.60180576 8.17286102,5.76589079 8.05253559,5.88480063 C7.92940956,6.00647811 7.75913538,6.08109244 7.1270052,5.89947943 C6.99398928,5.76521747 6.91458098,5.57035815 6.89206228,5.33957844 C6.87119371,5.04380317 6.73735962,4.77844569 6.53174158,4.58686094 C6.32700561,4.39609807 6.05120398,4.27857143 5.74744898,4.27857143 Z" id="形状结合" stroke="#07C160" stroke-width="1.3"></path>
            <path d="M0.723849003,17.3101105 C0.65999684,17.3101105 0.595017874,17.3016595 0.530602309,17.2838185 C0.145611323,17.1773356 -0.080124855,16.7790108 0.0263580176,16.3943954 C0.0873931738,16.1741054 1.56632196,10.9898731 5.83145867,10.0183813 C6.22114467,9.92917605 6.60857706,10.1733167 6.69721889,10.5630027 C6.78604852,10.9523131 6.54228349,11.3399332 6.1525975,11.4287629 C2.72091931,12.2103885 1.43317142,16.7339387 1.42058878,16.7795742 C1.33194696,17.1001496 1.04104401,17.3101105 0.723849003,17.3101105 L0.723849003,17.3101105 Z" id="路径" stroke="#07C160"></path>
            <path d="M11.6519306,12 C12.0511944,12 12.3751502,12.323768 12.3751502,12.7232197 L12.375,13.928 L13.5804537,13.9287109 C13.9797175,13.9287109 14.3036734,14.2526668 14.3036734,14.6519306 C14.3036734,15.0511944 13.9799053,15.3751502 13.5806415,15.3751502 L12.375,15.375 L12.3751502,16.5804537 C12.3751502,16.9799053 12.0511944,17.3038612 11.6519306,17.3038612 C11.2526668,17.3038612 10.9287109,16.9799053 10.9287109,16.5806415 L10.928,15.375 L9.7232197,15.3751502 C9.3239558,15.3751502 9,15.0511944 9,14.6519306 C9,14.2526668 9.3239558,13.9287109 9.7232197,13.9287109 L10.928,13.928 L10.9287109,12.7232197 C10.9287109,12.323768 11.2526668,12 11.6519306,12 Z" id="形状结合" opacity="0.452892485"></path>
        </g>
    </g>
</svg>