<?xml version="1.0" encoding="UTF-8"?>
<svg width="24px" height="24px" viewBox="0 0 24 24" version="1.1" xmlns="http://www.w3.org/2000/svg" xmlns:xlink="http://www.w3.org/1999/xlink">
    <title>icons_outlined_colorful_cards</title>
    <g id="页面-1" stroke="none" stroke-width="1" fill="none" fill-rule="evenodd">
        <g id="卡包-(1)备份" transform="translate(3.000000, 4.000000)" fill-rule="nonzero">
            <path d="M15.2185632,16 L0.78723631,16 C0.353453037,16 0.00200825589,15.6334311 0.00200825589,15.1809803 L0.00200825589,10.8701299 C0.00200825589,10.4176791 0.353453037,10.0511102 0.78723631,10.0511102 C1.22101958,10.0511102 1.57246437,10.4176791 1.57246437,10.8701299 L1.57246437,14.3619606 L15.2185632,14.3619606 C15.8752628,14.3619606 16.4295415,13.9325513 16.4295415,13.4256389 L16.4295415,7.63803938 L1.57246437,7.63803938 L1.57246437,8.4235442 C1.57246437,8.87599497 1.22101958,9.24256389 0.78723631,9.24256389 C0.353453037,9.24256389 0,8.87599497 0,8.4235442 L0,6.81901969 C0,6.36656891 0.351444781,6 0.785228055,6 L17.2147695,6 C17.6485528,6 18,6.36656891 18,6.81901969 L18,13.4256389 C18.0020058,14.8458316 16.7548789,16 15.2185632,16 L15.2185632,16 Z" id="路径" fill="#2FA8FF"></path>
            <polygon id="路径" fill="#06AE56" opacity="0.204310826" points="0 4.71889952 13.7884877 0 14 1.54106858 0.0782595558 5"></polygon>
            <polygon id="路径" fill="#06AE56" opacity="0.617978051" points="16 5 15.6008638 2 1 4.81500873 1.05224296 5"></polygon>
        </g>
    </g>
</svg>