<?xml version="1.0" encoding="UTF-8"?>
<svg width="24px" height="24px" viewBox="0 0 24 24" version="1.1" xmlns="http://www.w3.org/2000/svg" xmlns:xlink="http://www.w3.org/1999/xlink">
    <title>icons_outlined_keyboard</title>
    <g id="页面-1" stroke="none" stroke-width="1" fill="none" fill-rule="evenodd">
        <g id="键盘" transform="translate(3.000000, 3.000000)">
            <path d="M9.00020456,18 C4.03759348,18 0,13.9628156 0,9.00020456 C0,4.03759348 4.03759348,0 9.00020456,0 C13.9628156,0 18,4.03759348 18,9.00020456 C18,13.9628156 13.9628156,18 9.00020456,18 Z" id="路径" stroke="#000000" stroke-width="1.3" fill-rule="nonzero"></path>
            <path d="M5.19176726,8 C10.0564199,8 14,4.68220672 14,0.589501306 C8.20416602,-1.47665277 -0.507677457,2.21529076 0.0231624181,6.59071459 C0.174239022,7.83595671 3.26075195,8 5.19176726,8 Z" id="椭圆形" fill="#000000" opacity="0.200869606"></path>
            <g id="编组-5" transform="translate(4.000000, 7.000000)" fill="#000000" fill-rule="nonzero">
                <path d="M2.36678873,3.33333333 L0.631578855,3.33333333 C0.283149687,3.33333333 0,3.49123284 0,3.68469938 L0,4.64840742 C0,4.84232704 0.283557696,5 0.631578855,5 L2.36678873,5 C2.71603387,5 3,4.84255357 3,4.64840742 L3,3.68469938 C3.00040755,3.4910063 2.71644186,3.33333333 2.36678873,3.33333333 Z" id="路径"></path>
                <path d="M2.36678873,0 L0.631578855,0 C0.283149687,0 0,0.15746783 0,0.351413812 L0,1.31525285 C0,1.5087457 0.283557696,1.66666667 0.631578855,1.66666667 L2.36678873,1.66666667 C2.71603387,1.66666667 3,1.50897227 3,1.31525285 L3,0.351413812 C3.00040755,0.157694399 2.71644186,0 2.36678873,0 Z" id="路径"></path>
                <path d="M4.63237326,1.66666667 L6.36599627,1.66666667 C6.71541183,1.66666667 7,1.50897227 7,1.31525285 L7,0.351413812 C7,0.157694399 6.71581956,3.79696274e-14 6.36599629,3.79696274e-14 L4.63237328,3.79696274e-14 C4.28377316,3.79696274e-14 4,0.15746783 4,0.351413812 L4,1.31525285 C3.99959271,1.50874569 4.28377314,1.66666667 4.63237326,1.66666667 Z" id="路径"></path>
                <path d="M10.3531652,0.833333333 L8.57875254,0.833333333 C8.22111574,0.833333333 7.93066625,1.00945749 7.93066625,1.22638163 L7.93066625,3.13561813 L4.64725166,3.13561813 C4.29044949,3.13561813 4,3.31224911 4,3.52866642 L4,4.6066983 C4,4.82362243 4.29044949,5 4.64725166,5 L10.4245256,4.99619876 C10.7529505,4.97339131 11,4.80639013 11,4.6066983 L11,1.22638163 C11.0004169,1.0097109 10.7099674,0.833333333 10.3531652,0.833333333 Z" id="路径"></path>
            </g>
        </g>
    </g>
</svg>