<?xml version="1.0" encoding="UTF-8"?>
<svg width="24px" height="24px" viewBox="0 0 24 24" version="1.1" xmlns="http://www.w3.org/2000/svg" xmlns:xlink="http://www.w3.org/1999/xlink">
    <title>icons_filled_delete</title>
    <g id="页面-1" stroke="none" stroke-width="1" fill="none" fill-rule="evenodd">
        <g id="垃圾篓" transform="translate(3.000000, 2.000000)">
            <path d="M16.35,5.65 L16.35,17 C16.35,17.6489346 16.0869673,18.2364346 15.6617009,18.6617009 C15.2364346,19.0869673 14.6489346,19.35 14,19.35 L14,19.35 L4,19.35 C3.35106542,19.35 2.76356542,19.0869673 2.33829906,18.6617009 C1.91303271,18.2364346 1.65,17.6489346 1.65,17 L1.65,17 L1.65,5.65 L16.35,5.65 Z" id="矩形" stroke="#000000" stroke-width="1.3"></path>
            <rect id="矩形" fill="#000000" opacity="0.199288504" x="4" y="10" width="3" height="7" rx="1.5"></rect>
            <path d="M11.5716524,1.5 L11.5716524,1 C11.5716524,0.447586543 10.9962041,0 10.2859829,0 L7.71433049,0 C7.00410935,0 6.42866098,0.447586543 6.42866098,1 L6.42866098,1.5 L0.642834755,1.5 C0.287724186,1.5 0,1.72379327 0,2 L0,2.5 C0,2.77620673 0.287724186,3 0.642834755,3 L17.3571652,3 C17.7122758,3 18,2.77620673 18,2.5 L18,2 C18,1.72379327 17.7122758,1.5 17.3571652,1.5 L11.5716524,1.5 L11.5716524,1.5 Z" id="路径" fill="#000000" fill-rule="nonzero" opacity="0.199242001"></path>
        </g>
    </g>
</svg>