<?xml version="1.0" encoding="UTF-8"?>
<svg width="24px" height="24px" viewBox="0 0 24 24" version="1.1" xmlns="http://www.w3.org/2000/svg" xmlns:xlink="http://www.w3.org/1999/xlink">
    <title>icons_outlined_play</title>
    <g id="页面-1" stroke="none" stroke-width="1" fill="none" fill-rule="evenodd">
        <g id="视频" transform="translate(3.000000, 4.000000)" fill="#000000" fill-rule="nonzero">
            <path d="M14.7272727,14 L3.27272727,14 C1.47272728,14 0,12.425 0,10.5 L0,3.5 C0,1.57500001 1.47272728,0 3.27272727,0 L14.7272727,0 C16.5272727,0 18,1.57500001 18,3.5 L18,10.5 C18,12.425 16.5272727,14 14.7272727,14 Z M3.27272727,1.60416666 C2.37272728,1.60416666 1.63636363,2.39166665 1.63636363,3.35416667 L1.63636363,10.3541667 C1.63636363,11.3166667 2.37272725,12.1041667 3.27272727,12.1041667 L14.7272727,12.1041667 C15.6272727,12.1041667 16.3636364,11.3166667 16.3636364,10.3541667 L16.3636364,3.35416667 C16.3636364,2.39166667 15.6272727,1.60416666 14.7272727,1.60416666 L3.27272727,1.60416666 Z" id="形状"></path>
            <path d="M8.93817138,5 C8.7770225,5 8.69644808,5.04012865 8.65616084,5.04012865 C8.29357588,5.20064324 8.09213977,5.92295886 8.01156535,6.92617502 C7.93099091,8.41093493 8.29357588,8.77209275 8.41443754,8.89247867 C8.57558642,9.01286461 9.09932025,9.17337918 10.4690857,8.49119221 C11.8791383,7.80900524 12,7.28733283 12,7.16694689 C12,7.04656094 11.9194256,6.52488854 10.6302346,5.682187 C9.78420297,5.16051459 9.26046913,5 8.93817138,5 L8.93817138,5 Z" id="形状" opacity="0.204520089"></path>
            <path d="M14.0769231,16 L3.92307692,16 C3.41538461,16 3,15.775 3,15.5 C3,15.225 3.41538461,15 3.92307692,15 L14.0769231,15 C14.5846154,15 15,15.225 15,15.5 C15,15.775 14.5846154,16 14.0769231,16 Z" id="路径"></path>
        </g>
    </g>
</svg>