<?xml version="1.0" encoding="UTF-8"?>
<svg width="24px" height="24px" viewBox="0 0 24 24" version="1.1" xmlns="http://www.w3.org/2000/svg" xmlns:xlink="http://www.w3.org/1999/xlink">
    <title>icons_outlined_album</title>
    <g id="页面-1" stroke="none" stroke-width="1" fill="none" fill-rule="evenodd">
        <g id="图片，相册" transform="translate(3.000000, 5.000000)" fill-rule="nonzero">
            <path d="M15.0522069,7.19337715 L15.1146424,7.27810101 L16.7895273,9.65116866 L16.7897988,9.34237366 C16.7960074,9.35755591 16.802205,9.37278444 16.8083915,9.38805926 C17.3797811,13.1856355 16.6453759,14 14.9768813,14 L3.29538513,14 C2.4941458,14 1.72572314,13.7070643 1.15916138,13.1856355 C0.672433316,12.7376808 1.43642922,12.8598099 1.66140133,12.4355732 C1.72416016,12.5664399 1.80366403,12.6894371 1.89642525,12.8011382 L10.9072897,6.54196247 C12.240302,5.61625052 14.0728214,5.90424903 15.0522069,7.19337715 Z" id="形状" fill="#565656" opacity="0.204124814"></path>
            <path d="M14.9318182,0 C16.6263282,0 18,1.30583615 18,2.91666667 L18,11.0833333 C18,12.6941639 16.6263282,14 14.9318182,14 L3.06818182,14 C2.25444941,14 1.47404536,13.6927092 0.898649649,13.1457281 C0.323253942,12.598747 0,11.8568814 0,11.0833333 L0,2.91666667 C0,2.14311857 0.323253942,1.40125299 0.898649649,0.854271888 C1.47404536,0.307290784 2.25444941,0 3.06818182,0 L14.9318182,0 Z" id="路径" stroke="#000000" stroke-width="1.3"></path>
            <path d="M3.5,2 C4.03589837,2 4.53108891,2.28589837 4.7990381,2.74999999 C5.0669873,3.21410161 5.0669873,3.78589839 4.7990381,4.25000001 C4.53108891,4.71410163 4.03589837,5 3.5,5 C2.67157287,5 2,4.32842712 2,3.5 C2,2.67157288 2.67157287,2 3.5,2 L3.5,2 Z" id="路径" fill="#131415" opacity="0.196335565"></path>
        </g>
    </g>
</svg>