<?xml version="1.0" encoding="UTF-8"?>
<svg width="25px" height="24px" viewBox="0 0 25 24" version="1.1" xmlns="http://www.w3.org/2000/svg" xmlns:xlink="http://www.w3.org/1999/xlink">
    <title>icon_music_filled</title>
    <g id="页面-1" stroke="none" stroke-width="1" fill="none" fill-rule="evenodd">
        <g id="icons_filled_music备份-4" transform="translate(2.000000, 2.000000)" fill-rule="nonzero">
            <path d="M4.9496027,0 C5.18437651,1.18206588 4.57650771,2.3688071 3.59188974,2.65066069 C3.54692578,2.66353192 3.50157234,2.6743564 3.45592666,2.68311089 L2.53337515,2.86004912 L3.90354816,8.99903848 C4.18733801,10.2705443 3.55881023,11.5774944 2.49969207,11.9181933 C1.4405739,12.2588922 0.351931855,11.5043243 0.0681419904,10.2328184 C-0.202748325,9.01910845 0.357625984,7.77310293 1.33028706,7.3660176 L1.47199808,7.31366357 L1.47199808,7.31366357 C1.70779374,7.23781242 1.85837691,6.97074321 1.8390078,6.6886625 L1.82358113,6.58241922 L1.82358113,6.58241922 L0.660563956,1.37540788 C0.603395309,1.12123934 0.728677662,0.859556631 0.94039063,0.790922942 C0.962150012,0.783868938 0.984370165,0.779051925 1.00680963,0.776515151 C2.05015103,0.658840968 2.81555957,0.554242151 3.30303526,0.462718712 C3.86077281,0.358003617 4.40962862,0.20376405 4.9496027,0 Z" id="形状结合-path" fill="#000000" opacity="0.1976609"></path>
            <path d="M18.5313,3.35527597 C18.9718913,3.3105002 19.3745329,3.55288148 19.5495712,3.92193637 L19.5495712,3.92193637 L17.5790702,15.9070437 C17.4387914,16.6918734 16.9865469,17.3475681 16.3666468,17.7711474 C15.7544282,18.1894779 14.9787486,18.3806842 14.1843649,18.2439947 C13.3870807,18.106806 12.7233902,17.6659061 12.2932827,17.0664787 C11.8586897,16.4608002 11.6617665,15.6932472 11.8036899,14.9077916 C11.9450698,14.1253443 12.3966632,13.471677 13.0151468,13.0490654 C13.6273654,12.6307349 14.403045,12.4395286 15.1974287,12.5762182 L15.1974287,12.5762182 L16.234382,8.34052257 L10.4982419,8.9228687 L9.16982556,16.274805 C9.03449612,17.023767 8.61494634,17.6546523 8.03689528,18.0779718 C7.46078778,18.499868 6.72716302,18.7147152 5.9654584,18.6328317 C5.06166641,18.4816283 4.37503288,18.0453372 3.92985729,17.4663952 C3.45635952,16.8506207 3.25093873,16.0697411 3.39541176,15.2701753 C3.53679161,14.487728 3.98838498,13.8340607 4.60686865,13.4114491 C5.21908721,12.9931186 5.99476681,12.8019123 6.78915056,12.9386019 L6.78915056,12.9386019 L8.42790133,5.37461447 C8.48215158,5.07423122 8.63437169,4.80904136 8.85167494,4.61146779 C9.06466463,4.41781613 9.34033291,4.2893221 9.64541879,4.25831729 L9.64541879,4.25831729 Z" id="形状结合-path" stroke="#000000" stroke-width="1.3"></path>
        </g>
    </g>
</svg>