<?xml version="1.0" encoding="UTF-8"?>
<svg width="24px" height="24px" viewBox="0 0 24 24" version="1.1" xmlns="http://www.w3.org/2000/svg" xmlns:xlink="http://www.w3.org/1999/xlink">
    <title>icons_outlined_pay_receive_money</title>
    <g id="页面-1" stroke="none" stroke-width="1" fill="none" fill-rule="evenodd">
        <g id="icons_outlined_pay_receive_money" transform="translate(2.000000, 0.000000)" fill="#000000" fill-rule="nonzero">
            <path d="M10,5.85 C5.22546191,5.85 0.85,10.9014966 0.85,15.6176471 C0.85,19.8883233 4.73999082,22.65 10,22.65 C15.2600092,22.65 19.15,19.8883233 19.15,15.6176471 L19.1406653,15.2516072 C19.0909971,14.2688353 18.8440573,13.2355769 18.4222641,12.2199423 L18.194,11.673 L18.2019959,11.670158 L18.171,11.617 L18.1459969,11.5547191 L18.138,11.558 L17.8439336,11.0326146 C16.1130944,7.9507907 13.139584,5.85 10,5.85 Z M10.261941,7.15602043 C12.5299969,7.26007594 14.7350957,8.70520858 16.2244918,10.8859 L16.328,11.041 L17.472,13.397 L17.567481,13.7081537 C17.7536492,14.3647297 17.85,15.0103948 17.85,15.6176471 C17.85,19.0560043 14.6187665,21.35 10,21.35 C5.38123351,21.35 2.15,19.0560042 2.15,15.6176471 C2.15,11.5812847 5.98825209,7.15 10,7.15 L10.261941,7.15602043 Z" id="形状结合-path"></path>
            <path d="M17.5295416,12.0237786 C17.8478007,12.6716808 9.89647901,17.4859996 8.361,17.851 C6.82552099,18.2160004 7.17270723,14.7726229 7.15736112,14.5025 C7.14713038,14.3224181 7.49279859,14.514942 8.19436576,15.0800719 L8.33889343,15.1615221 C8.58862235,15.2807616 8.8293051,15.3353156 9.076135,15.3353156 C9.26026864,15.3353156 9.47302811,15.3943687 9.64483391,15.3353156 C14.0784627,13.0785683 16.7066986,11.9747226 17.5295416,12.0237786 Z" id="路径" stroke="#000000" opacity="0.201985677"></path>
            <path d="M9.0970575,1.44826945 C9.3519838,1.56925457 9.5049705,1.64069451 9.6659695,1.71299186 C10.4312057,2.05662464 10.967296,2.21796875 11.4244792,2.21796875 C11.9276908,2.21796875 12.3544903,2.16268394 12.9006467,2.04768382 C14.5364981,1.70323468 14.9348863,1.73432503 15.5568841,2.71902779 C16.126929,3.62148257 15.7201885,4.66086631 14.479285,5.88167506 C13.1203658,5.01780583 11.5851164,4.5 10,4.5 C8.5127884,4.5 7.06947396,4.95581662 5.77562024,5.72499701 C4.10383441,3.80526419 3.72687038,2.25569441 4.88913603,1.14846666 C5.91389081,0.17223811 6.82153886,0.36833412 9.0970575,1.44826945 Z" id="形状结合-path" opacity="0.196684338"></path>
        </g>
    </g>
</svg>