<?xml version="1.0" encoding="UTF-8"?>
<svg width="24px" height="24px" viewBox="0 0 24 24" version="1.1" xmlns="http://www.w3.org/2000/svg" xmlns:xlink="http://www.w3.org/1999/xlink">
    <title>icons_filled_call_good</title>
    <g id="页面-1" stroke="none" stroke-width="1" fill="none" fill-rule="evenodd">
        <g id="编组-15备份-10" transform="translate(2.000000, 3.000000)" fill="#000000">
            <path d="M1,7.27396356 L2,7.27396356 C2.55228475,7.27396356 3,7.72167881 3,8.27396356 L3,16.253 C3,16.8052847 2.55228475,17.253 2,17.253 L1,17.253 C0.44771525,17.253 6.76353751e-17,16.8052847 0,16.253 L0,8.27396356 C-6.76353751e-17,7.72167881 0.44771525,7.27396356 1,7.27396356 Z" id="矩形" opacity="0.201520647"></path>
            <path d="M9.92150718,0.797272085 C11.7292645,0.132824488 13.1306244,2.30488731 13.0057945,4.32391594 L13.0057945,4.32391594 L12.864,6.569 L16.2292943,6.57193145 L16.40694,6.58807164 C17.6334229,6.76499446 18.4561953,8.04789621 18.2671798,9.34812839 L18.2671798,9.34812839 L18.2428471,9.48009024 L16.9749221,15.580833 L16.9250083,15.7611636 C16.6494991,16.6092021 15.9147757,17.227985 14.9736123,17.2966011 L14.9736123,17.2966011 L14.838986,17.2999999 L3.7,17.2955516 L3.7,7.31513553 L6.33626195,7.30124385 L6.44047219,7.29519824 L6.55021117,7.28569965 C7.49377639,7.06149907 8.45385723,5.50445741 8.63639108,3.67667678 L8.63639108,3.67667678 L8.64671374,3.53094035 L8.67086102,2.92888132 L8.69310324,2.67506421 L8.71591998,2.49436268 C8.8290026,1.73389723 9.11162193,1.15441448 9.7740639,0.857421058 L9.7740639,0.857421058 Z M15.4341204,10.0379806 C14.8902261,9.94207738 14.3715678,10.3052459 14.2756645,10.8491402 L14.2756645,10.8491402 L13.75472,13.8035635 C13.6588167,14.3474578 14.0219853,14.8661161 14.5658796,14.9620194 C15.1097739,15.0579226 15.6284322,14.6947541 15.7243355,14.1508598 L15.7243355,14.1508598 L16.24528,11.1964365 C16.3411833,10.6525422 15.9780147,10.1338839 15.4341204,10.0379806 Z" id="形状结合" fill-rule="nonzero"></path>
        </g>
    </g>
</svg>