<?xml version="1.0" encoding="UTF-8"?>
<svg width="24px" height="24px" viewBox="0 0 24 24" version="1.1" xmlns="http://www.w3.org/2000/svg" xmlns:xlink="http://www.w3.org/1999/xlink">
    <title>icons_filled_call_end</title>
    <g id="页面-1" stroke="none" stroke-width="1" fill="none" fill-rule="evenodd">
        <g id="icons_filled_call" transform="translate(-12.000000, 12.500000) rotate(-225.000000) translate(12.000000, -12.500000) translate(-21.000000, 4.000000)"></g>
        <g id="icons_filled_call备份-4" transform="translate(12.000000, 12.500000) rotate(-225.000000) translate(-12.000000, -12.500000) translate(3.000000, 4.000000)">
            <g id="XMLID_19_" transform="translate(0.585786, 0.414214)">
                <path d="M3.02168871,0.000233768195 L3.00752856,0 C2.96822134,0 2.92849541,0.00230413586 2.88817176,0.00660676326 C2.80538132,0.0154406937 2.72253582,0.0322618385 2.63870502,0.0548598232 L2.49295097,0.0995434863 C1.00114013,0.642311985 0,2.02602212 0,3.60330131 C0,3.81908837 0.0244340959,4.03478808 0.066683488,4.26218924 L0.122254196,4.53308915 C0.765155509,7.32640106 2.18307567,9.83733314 4.2014519,11.8371548 C6.21983237,13.8369805 8.75407205,15.2418718 11.538727,15.8725133 C11.7629404,15.9366141 12.1467848,16 12.511758,16 C14.103709,16 15.5002717,15.0080531 16.0438156,13.542008 L16.0898362,13.411007 C16.1200434,13.3148141 16.140636,13.2203917 16.1475823,13.1230074 C16.1508827,13.0767363 16.1509052,13.0308627 16.1470644,12.9851965 C16.1108907,12.4467112 15.7907743,11.9811822 15.2992249,11.7751308 L12.3205424,10.6647597 C12.0342992,10.5699021 11.8587243,10.6015314 11.6003295,10.7411784 L10.4322882,11.3739992 L9.70235271,11.7617654 L9.30076188,11.9710686 C9.17783173,12.0365992 9.06289609,12.0665674 8.93292404,12.0665674 C8.80206815,12.0665674 8.68143301,12.0307096 8.56576323,11.9601826 C7.55621673,11.3708935 6.71003351,10.7405376 6.01109,10.0362819 C5.30459414,9.33625962 4.66749746,8.49252312 4.08163185,7.50705736 C4.00940329,7.3906148 3.97000912,7.25833958 3.97000912,7.13624679 C3.97000912,7.01502354 4.00306003,6.88840148 4.0634195,6.7773358 L4.37981905,6.17647129 L4.87895884,5.25784481 L5.30360506,4.50059163 C5.44859675,4.2373895 5.48264129,4.04624391 5.38644681,3.78414094 L4.27054094,0.844347394 C4.05375272,0.335763301 3.57613539,0.0185454256 3.02168871,0.000233768195 Z" id="Combined-Shape" stroke="#000000" fill-rule="nonzero"></path>
                <path d="M12.75,16 C14.6277681,16 15.6072748,14.9708468 16.15,13.8947368 C16.6927252,12.8186269 14.6277681,10.5263158 12.75,10.5263158 C11.9202331,10.5263158 10.4690173,11.6628771 8.925,11.7850115 C8.36545041,11.8292729 7.02171024,10.6426192 6.60208175,10.7473831 C5.55924933,11.007735 4.97412201,11.4701722 4.97412201,12.2105263 C4.97412201,14.0708539 10.8722319,16 12.75,16 Z" id="椭圆形备份-9" fill="#000000" opacity="0.202566964"></path>
            </g>
        </g>
    </g>
</svg>