<?xml version="1.0" encoding="UTF-8"?>
<svg width="24px" height="24px" viewBox="0 0 24 24" version="1.1" xmlns="http://www.w3.org/2000/svg" xmlns:xlink="http://www.w3.org/1999/xlink">
    <title>icons_filled_scan</title>
    <g id="页面-1" stroke="none" stroke-width="1" fill="none" fill-rule="evenodd">
        <g id="扫一扫" transform="translate(3.000000, 4.000000)" fill="#000000" fill-rule="nonzero">
            <polygon id="路径" opacity="0.456263951" points="13 4 13 12 4 12 4 4"></polygon>
            <path d="M16.2546757,8.75562533 L0.745324265,8.75562533 C0.336531455,8.75562533 0,8.41653585 0,8 C0,7.5855573 0.334466845,7.24437467 0.745324265,7.24437467 L16.2546757,7.24437467 C16.6634685,7.24437467 17,7.58346415 17,8 C16.9979354,8.4144427 16.6634685,8.75562533 16.2546757,8.75562533 Z" id="形状" opacity="0.738816034"></path>
            <path d="M2.09764392,5.58451073 L2.09764392,4.35792779 C2.09764392,2.78388278 3.3549915,1.50915751 4.90757833,1.50915751 L12.0924217,1.50915751 C13.6450085,1.50915751 14.9023561,2.78388278 14.9023561,4.35792779 L14.9023561,5.58451073 C14.9023561,6.00104657 15.2347583,6.34013605 15.6476803,6.34013605 C16.0585378,6.34013605 16.3930046,6.00313972 16.3930046,5.58451073 L16.3930046,4.35792779 C16.3930046,1.95081109 14.468788,0 12.0944863,0 L4.90757833,0 C2.53327666,0 0.609059995,1.95081109 0.609059995,4.35792779 L0.609059995,5.58451073 C0.609059995,6.00104657 0.94146223,6.34013605 1.35438426,6.34013605 C1.76524168,6.34013605 2.09764392,6.00104657 2.09764392,5.58451073 Z" id="路径"></path>
            <path d="M14.9023561,10.4154893 L14.9023561,11.6420722 C14.9023561,13.2161172 13.6450085,14.4908425 12.0924217,14.4908425 L4.90757833,14.4908425 C3.3549915,14.4908425 2.09764392,13.2161172 2.09764392,11.6420722 L2.09764392,10.4154893 C2.09764392,9.99895343 1.76524168,9.65986395 1.35231965,9.65986395 C0.94146223,9.65986395 0.606995385,9.99686028 0.606995385,10.4154893 L0.606995385,11.6420722 C0.606995385,14.0491889 2.53121205,16 4.90551372,16 L12.0924217,16 C14.4667233,16 16.39094,14.0491889 16.39094,11.6420722 L16.39094,10.4154893 C16.39094,9.99895343 16.0585378,9.65986395 15.6456157,9.65986395 C15.2347583,9.65986395 14.9023561,9.99895343 14.9023561,10.4154893 Z" id="路径" opacity="0.200660342"></path>
        </g>
    </g>
</svg>