<?xml version="1.0" encoding="UTF-8"?>
<svg width="24px" height="24px" viewBox="0 0 24 24" version="1.1" xmlns="http://www.w3.org/2000/svg" xmlns:xlink="http://www.w3.org/1999/xlink">
    <title>icons_outlined_colorful_game</title>
    <g id="页面-1" stroke="none" stroke-width="1" fill="none" fill-rule="evenodd">
        <g id="录音带备份-2" transform="translate(4.000000, 6.000000)" fill-rule="nonzero">
            <path d="M15.1111111,0.65 C15.453072,0.65 15.7640214,0.787412446 15.9894309,1.00903356 C16.2108079,1.22668993 16.35,1.52641117 16.35,1.85714287 L16.35,1.85714287 L16.35,11.1428571 C16.35,11.4735888 16.2108079,11.7733101 15.9894309,11.9909664 C15.7640214,12.2125876 15.453072,12.35 15.1111111,12.35 L15.1111111,12.35 L11.7111111,12.35 L9.84464523,10.2563529 C9.47042847,9.84066891 8.97907225,9.65514346 8.49877616,9.66863557 C7.99633694,9.6827497 7.4996911,9.91717488 7.15611409,10.3608923 L7.15611409,10.3608923 L6.10886804,12.2329746 L1.88888888,12.35 C1.54692797,12.35 1.23597858,12.2125876 1.01056907,11.9909664 C0.789192082,11.7733101 0.65,11.4735888 0.65,11.1428571 L0.65,11.1428571 L0.65,1.85714287 C0.65,1.52641117 0.78919209,1.22668993 1.01056909,1.00903356 C1.23597859,0.787412445 1.54692798,0.65 1.88888888,0.65 L1.88888888,0.65 Z" id="路径" stroke="#6236FF" stroke-width="1.3"></path>
            <path d="M10,5 C10,6.1045695 10.6715729,7 11.5,7 C12.3284271,7 13,6.1045695 13,5 C13,3.8954305 12.3284271,3 11.5,3 C10.6715729,3 10,3.8954305 10,5 L10,5 Z" id="路径" fill="#F7B500" opacity="0.20405506"></path>
            <path d="M4,5 C4,5.71453116 4.28589837,6.37478521 4.74999999,6.7320508 C5.21410161,7.0893164 5.78589839,7.0893164 6.25000001,6.7320508 C6.71410163,6.37478521 7,5.71453116 7,5 C7,3.89543049 6.32842712,3 5.5,3 C4.67157288,3 4,3.89543049 4,5 L4,5 Z" id="路径" fill="#E02020" opacity="0.20405506"></path>
        </g>
    </g>
</svg>