<?xml version="1.0" encoding="UTF-8"?>
<svg width="24px" height="24px" viewBox="0 0 24 24" version="1.1" xmlns="http://www.w3.org/2000/svg" xmlns:xlink="http://www.w3.org/1999/xlink">
    <title>icons_filled_volume_up</title>
    <g id="页面-1" stroke="none" stroke-width="1" fill="none" fill-rule="evenodd">
        <g id="icons_filled_volume_down" transform="translate(2.000000, 4.000000)">
            <path d="M9.3,0.7 L5.5,4.5 L1,4.5 C0.4,4.5 0,4.9 0,5.5 L0,10.5 C0,11.1 0.4,11.5 1,11.5 L5.5,11.5 L9.3,15.3 C9.5,15.5 9.7,15.6 10,15.6 C10.6,15.6 11,15.2 11,14.6 L11,1.4 C11,1.1 10.9,0.9 10.7,0.7 C10.3,0.3 9.7,0.3 9.3,0.7 Z" id="Path" stroke="#000000" stroke-width="1.3" fill-rule="nonzero"></path>
            <path d="M5.62502451,11.5247247 C6.44613424,11.5247247 7.56519291,14.4535155 8.10690431,13.9394639 C8.6582628,13.4162577 9,12.6892129 9,11.8853997 C9,10.2918374 7.656864,9 6.00002179,9 C4.34317957,9 3,10.2918374 3,11.8853997 C3.91053077,11.8898558 3.9681823,11.5247247 5.62502451,11.5247247 Z" id="椭圆形" fill="#000000" opacity="0.201171875"></path>
            <path d="M15.0627851,3.00548975 C16.2506768,4.3908274 16.9152691,6.15265529 16.9152691,8.01533125 C16.9152691,9.72793939 16.3535526,11.3558234 15.3382582,12.6849173 L15.1426015,12.9305687 L14.0653749,12.0363748 C14.9972035,10.91381 15.5152691,9.50534166 15.5152691,8.01533125 C15.5152691,6.58545199 15.038045,5.23096802 14.1772463,4.13293455 L14,3.91680084 L15.0627851,3.00548975 Z" id="路径" stroke="#000000" stroke-width="0.5" fill="#000000" fill-rule="nonzero" opacity="0.517299107"></path>
            <path d="M17.2947728,1 C18.9741521,2.93257883 19.9152691,5.40201033 19.9152691,8.01533125 C19.9152691,10.5904445 19.0012274,13.0247476 17.3711147,14.9418778 L17.1444067,15.2000637 L16.1072223,14.2597189 C17.6477871,12.5605019 18.5152691,10.3564564 18.5152691,8.01533125 C18.5152691,5.85634586 17.777774,3.81325618 16.4521891,2.17377035 L16.2380208,1.91830016 L17.2947728,1 Z" id="路径" stroke="#000000" stroke-width="0.5" fill="#000000" fill-rule="nonzero" opacity="0.201939174"></path>
        </g>
    </g>
</svg>