<?xml version="1.0" encoding="UTF-8"?>
<svg width="24px" height="24px" viewBox="0 0 24 24" version="1.1" xmlns="http://www.w3.org/2000/svg" xmlns:xlink="http://www.w3.org/1999/xlink">
    <title>icons_filled_pay</title>
    <g id="页面-1" stroke="none" stroke-width="1" fill="none" fill-rule="evenodd">
        <g id="icons_filled_pay备份" transform="translate(4.000000, 4.000000)" fill-rule="nonzero">
            <path d="M1.7,0 L11.3,0 C11.9627417,0 12.5,0.511674571 12.5,1.14285714 L12.5,4.19047619 C12.5,4.82165877 11.9627417,5.33333334 11.3,5.33333334 L7.76396122,5.33333334 L7.76396122,6.85714286 C7.76396122,7.48832543 7.22670292,8 6.56396122,8 L1.7,8 C1.0372583,8 0.5,7.48832543 0.5,6.85714286 L0.5,1.14285714 C0.5,0.511674571 1.0372583,0 1.7,0 Z" id="矩形" fill="#000000"></path>
            <path d="M14.3,7.5 C14.4961935,7.5 14.6747923,7.57403436 14.8037005,7.69680409 L14.8037005,7.69680409 L15,11.1904762 C14.6747923,11.759299 14.4961935,11.8333334 14.3,11.8333334 L14.3,11.8333334 L10.2639612,11.8333334 L10.2639612,13.8571429 C9.93875355,14.4259656 9.76015476,14.5 9.56396122,14.5 L9.56396122,14.5 L4.7,14.5 C4.50380646,14.5 4.32520767,14.4259656 4.19629946,14.3031959 L4.19629946,14.3031959 L4,8.14285714 C4.32520766,7.57403435 4.50380646,7.5 4.7,7.5 L4.7,7.5 Z" id="矩形" stroke="#000000" opacity="0.195219494" transform="translate(9.500000, 11.000000) rotate(180.000000) translate(-9.500000, -11.000000) "></path>
        </g>
    </g>
</svg>