<?xml version="1.0" encoding="UTF-8"?>
<svg width="24px" height="24px" viewBox="0 0 24 24" version="1.1" xmlns="http://www.w3.org/2000/svg" xmlns:xlink="http://www.w3.org/1999/xlink">
    <title>icons_filled_pencil</title>
    <g id="页面-1" stroke="none" stroke-width="1" fill="none" fill-rule="evenodd">
        <g id="编辑备份-2" transform="translate(2.000000, 2.000000)">
            <path d="M3.80377238,20 C1.71169757,20 0,18.29 0,16.2 L0,4.8 C0,2.71 1.71169757,1 3.80377238,1 L7.6836202,1 C8.21614834,1 8.6345633,1.418 8.6345633,1.95 C8.6345633,2.482 8.21614834,2.46282559 7.6836202,2.46282559 L3.78475352,2.46282559 C2.73871611,2.46282559 1.45785476,3.755 1.45785476,4.8 L1.45785476,16.2 C1.45785476,17.245 2.73871611,18.5 3.78475352,18.5 L15.1960706,18.5 C16.2421081,18.5 17.5133949,17.245 17.5133949,16.2 L17.5133949,12.362 C17.5133949,11.83 17.5163718,11.412 18.0488999,11.412 C18.5814281,11.412 19,11.83 19,12.362 L19,16.2 C19.0188619,18.29 17.3071643,20 15.2150895,20 L3.80377238,20 Z" id="路径" fill="#333333" fill-rule="nonzero"></path>
            <path d="M12.2812125,0.249720157 C13.6619244,0.249720157 14.7812125,1.36900828 14.7812125,2.74972016 L14.7812125,14.1639337 C14.7812125,15.5446456 13.6619244,16.6639337 12.2812125,16.6639337 C10.9005006,16.6639337 9.7812125,15.5446456 9.7812125,14.1639337 L9.7812125,2.74972016 C9.7812125,1.36900828 10.9005006,0.249720157 12.2812125,0.249720157 Z" id="矩形" fill="#000000" opacity="0.202869234" transform="translate(12.281212, 8.456827) rotate(45.000000) translate(-12.281212, -8.456827) "></path>
            <path d="M12.0151235,8 L12.914973,8 C13.9358107,6.9796521 15.6523304,5.23372348 15.9472391,4.84070058 C16.0379802,4.71977046 16.0077332,4.49302648 15.886745,4.3116313 C15.8035656,4.18314305 15.5540275,3.91860841 15.0549513,4.02442226 C14.2382812,4.78779365 12.4310204,6.58662921 12,7.01744276 L12,7.9773256 L12.0151235,8 Z" id="路径" fill="#000000" fill-rule="nonzero"></path>
            <circle id="椭圆形" fill="#000000" cx="7" cy="14" r="1"></circle>
        </g>
    </g>
</svg>