<?xml version="1.0" encoding="UTF-8"?>
<svg width="24px" height="24px" viewBox="0 0 24 24" version="1.1" xmlns="http://www.w3.org/2000/svg" xmlns:xlink="http://www.w3.org/1999/xlink">
    <title>icons_outlined_font</title>
    <g id="页面-1" stroke="none" stroke-width="1" fill="none" fill-rule="evenodd">
        <g id="字号,字体,字体大小,字符大小,Word" transform="translate(3.000000, 2.000000)">
            <rect id="矩形" stroke="#000000" stroke-width="1.3" x="0" y="1" width="18" height="18" rx="4"></rect>
            <path d="M13,4 C14.7525156,4 16.3546115,3.72399006 17.5825294,3.26786656 C19.0633592,2.71779622 16.4516602,2.71647041 16.4516602,1.81069426 C15.3865404,0.829531368 15.8845105,1 12.0185173,1 C8.15252404,1 7.77137143,0.710528433 6,1 C6,2.65685425 9.13400675,4 13,4 Z" id="椭圆形" fill="#000000" opacity="0.203148251"></path>
            <path d="M8.34374482,13.6562552 L7.68748966,11.8984414 L5.28124138,11.8984414 L4.62500689,13.6562552 L3.09376552,13.6562552 L5.49999311,6.625 L7.46875862,6.625 L9.87500689,13.6562552 L8.34376551,13.6562552 L8.34374482,13.6562552 Z M6.37500001,8.60253794 L5.71874483,10.5800759 L7.24998621,10.5800759 L6.59375172,8.60255863 L6.37500001,8.60255863 L6.37500001,8.60253794 Z" id="形状" fill="#000000" fill-rule="nonzero"></path>
            <path d="M12.7187586,7.72366206 C14.1286552,7.72366206 14.9062552,8.58882069 14.9062552,9.70117931 L14.9062552,13.6562759 L13.5937241,13.6562759 L13.5937241,12.7773793 C13.2861103,13.3644483 12.530731,13.6562759 11.843731,13.6562759 C10.7978483,13.6562759 9.87583449,12.8923724 9.87583449,11.8984621 C9.87583449,10.8942483 10.7050966,10.3603724 12.0625034,10.3603724 L13.5937448,10.3603724 L13.5937448,9.92092414 C13.5937448,9.40593793 13.2827172,9.04202759 12.7187586,9.04202759 C12.159931,9.04202759 11.6967724,9.29435862 11.625,9.7012 L10.3124897,9.7012 C10.3688896,8.63003448 11.2627034,7.72366206 12.7187586,7.72366206 Z M13.3374,11.1912069 L12.1787172,11.2633103 C11.6198897,11.3045035 11.3019931,11.5568552 11.3019931,11.9482414 C11.3019931,12.3602345 11.6403724,12.6177172 12.1479517,12.6177172 C12.7990552,12.6177172 13.3374,12.190269 13.3374,11.5928966 L13.3374,11.1912069 Z" id="形状结合" fill="#000000" fill-rule="nonzero" opacity="0.194638207"></path>
        </g>
    </g>
</svg>