<?xml version="1.0" encoding="UTF-8"?>
<svg width="24px" height="24px" viewBox="0 0 24 24" version="1.1" xmlns="http://www.w3.org/2000/svg" xmlns:xlink="http://www.w3.org/1999/xlink">
    <title>icons_filled_search</title>
    <g id="页面-1" stroke="none" stroke-width="1" fill="none" fill-rule="evenodd">
        <g id="icons_outlined_searchlogo备份-2" transform="translate(3.000000, 2.000000)" fill-rule="nonzero">
            <path d="M15.5,15.5 C16.0525207,15.5 16.552809,15.7234734 16.9148215,16.0854859 C17.2764711,16.4471355 17.5,16.9469829 17.5,17.5 C17.5,18.053017 17.2764711,18.5528645 16.9148215,18.9145141 C16.552809,19.2765266 16.0525207,19.5 15.5,19.5 C14.9474793,19.5 14.447191,19.2765266 14.0851785,18.9145141 C13.7235289,18.5528645 13.5,18.0530171 13.5,17.5 C13.5,16.9469829 13.7235289,16.4471355 14.0851785,16.0854859 C14.447191,15.7234734 14.9474793,15.5 15.5,15.5 Z" id="形状-path" stroke="#000000"></path>
            <path d="M9,0.65 C11.3039075,0.65 13.3913258,1.58568422 14.9028208,3.09717922 C16.4143158,4.60867422 17.35,6.6960925 17.35,9 C17.35,11.3022067 16.4121461,13.3881147 14.9009775,14.8992832 C13.387589,16.4126717 11.2989448,17.35 9,17.35 C6.69609251,17.35 4.60867422,16.4143158 3.09717922,14.9028208 C1.58568422,13.3913258 0.65,11.3039075 0.65,9 C0.65,6.69609251 1.58568422,4.60867422 3.09717921,3.09717922 C4.60867422,1.58568422 6.6960925,0.65 9,0.65 Z" id="形状结合" stroke="#000000" stroke-width="1.3"></path>
            <path d="M8.36980307,3 C5.41575492,3 3,5.40262582 3,8.36980306 C3,8.72428884 3.28884027,9 3.63019693,9 C3.98468273,9 4.26039389,8.72428884 4.26039389,8.36980306 C4.26039389,6.11159737 6.09846828,4.26039387 8.36980307,4.26039387 C8.72428884,4.26039387 9,3.98468271 9,3.63019694 C9,3.27571114 8.71115975,3 8.36980307,3 Z" id="形状结合-path" fill="#000000" opacity="0.200613839"></path>
        </g>
    </g>
</svg>