<?xml version="1.0" encoding="UTF-8"?>
<svg width="24px" height="24px" viewBox="0 0 24 24" version="1.1" xmlns="http://www.w3.org/2000/svg" xmlns:xlink="http://www.w3.org/1999/xlink">
    <title>icons_filled_wechatWork</title>
    <defs>
        <path d="M0.0909481278,0.0907442267 C-0.0224922056,0.203606067 -0.0297374824,0.38261404 0.0687982817,0.503950853 L0.0687982817,0.503950853 C0.0756295427,0.512425827 0.0828748194,0.520694093 0.0909481278,0.52834224 L0.0909481278,0.52834224 C0.104196634,0.54198488 0.118894195,0.553560453 0.134005773,0.564102493 L0.134005773,0.564102493 C0.164228927,0.592421307 0.194245074,0.62136024 0.223640197,0.650712587 L0.223640197,0.650712587 C0.80409037,1.23011137 1.1686313,1.94324937 1.31829801,2.69049397 L1.31829801,2.69049397 C1.32078211,2.73266213 1.32554329,2.77462359 1.33216754,2.81637833 L1.33216754,2.81637833 C1.33941282,2.86226721 1.3493492,2.90774268 1.36156267,2.95301144 L1.36156267,2.95301144 C1.41911086,3.16281871 1.5300671,3.36146381 1.69525941,3.52662244 L1.69525941,3.52662244 C2.20160075,4.03243365 3.02280112,4.03243365 3.52893546,3.52662244 L3.52893546,3.52662244 C4.0352768,3.02101793 4.0352768,2.20121929 3.52893546,1.69582149 L3.52893546,1.69582149 C3.35049464,1.51743364 3.13272232,1.40250473 2.90377158,1.34979453 L2.90377158,1.34979453 C2.8781026,1.34400675 2.85222661,1.33904579 2.82635062,1.33470495 L2.82635062,1.33470495 C2.80047463,1.3301574 2.77439164,1.32643668 2.74789462,1.32374949 L2.74789462,1.32374949 C1.98093033,1.18112189 1.24750131,0.81359744 0.654009637,0.220969427 L0.654009637,0.220969427 C0.611159,0.178387853 0.56955041,0.134772747 0.529183868,0.09053752 L0.529183868,0.09053752 L0.528976861,0.0907442267 C0.468530551,0.0301791733 0.389246523,0 0.309962494,0 L0.309962494,0 C0.230678466,0 0.151394437,0.0301791733 0.0909481278,0.0907442267 L0.0909481278,0.0907442267 Z" id="path-1"></path>
        <path d="M1.69818937,0.379306733 C1.51974855,0.55748788 1.40465216,0.774736587 1.35186514,1.00335416 L1.35186514,1.00335416 C1.34606892,1.02898579 1.34089372,1.05482412 1.33675356,1.08066245 L1.33675356,1.08066245 C1.3324064,1.10670749 1.32868026,1.13275253 1.32578214,1.15900428 L1.32578214,1.15900428 C1.18294669,1.92485248 0.814886629,2.6572142 0.221394957,3.25004892 L0.221394957,3.25004892 C0.178751328,3.29263049 0.134865652,3.33417853 0.0907729675,3.37427963 L0.0907729675,3.37427963 L0.0909799754,3.37448633 C-0.0303266585,3.49540973 -0.0303266585,3.69157436 0.0909799754,3.81229105 L0.0909799754,3.81229105 C0.204006293,3.92556631 0.383068133,3.93280104 0.505202799,3.83420196 L0.505202799,3.83420196 C0.513276107,3.82738064 0.521349416,3.82014591 0.529422724,3.81229105 L0.529422724,3.81229105 C0.542878238,3.79885512 0.554470681,3.78438565 0.565235092,3.76929607 L0.565235092,3.76929607 C0.593388167,3.73891019 0.622162267,3.70914443 0.651764397,3.67958537 L0.651764397,3.67958537 C1.23221457,3.09997988 1.94597784,2.73596944 2.69472544,2.58672723 L2.69472544,2.58672723 C2.73695505,2.58424675 2.77877065,2.57949249 2.82058625,2.57287788 L2.82058625,2.57287788 C2.86633499,2.56564315 2.91229075,2.55551452 2.95741847,2.54331883 L2.95741847,2.54331883 C3.16794552,2.48606108 3.36688011,2.3750596 3.53186542,2.21031439 L3.53186542,2.21031439 C4.03820676,1.70470988 4.03820676,0.88491124 3.53186542,0.379306733 L3.53186542,0.379306733 C3.27890175,0.12650448 2.94686107,0 2.61502739,0 L2.61502739,0 C2.28319372,0 1.95136004,0.12650448 1.69818937,0.379306733 L1.69818937,0.379306733 Z" id="path-3"></path>
        <path d="M0.379600751,0.379306733 C-0.126533584,0.88491124 -0.126533584,1.70450317 0.379600751,2.21052109 L0.379600751,2.21052109 C0.558041567,2.38849553 0.776020894,2.50342444 1.00476463,2.55613464 L1.00476463,2.55613464 C1.03043361,2.56212913 1.0563096,2.56709009 1.08218559,2.57163764 L1.08218559,2.57163764 C1.10826859,2.57556507 1.13435158,2.57928579 1.16043458,2.58217968 L1.16043458,2.58217968 C1.92781289,2.72480728 2.66124191,3.09233173 3.25452657,3.68495975 L3.25452657,3.68495975 C3.29737721,3.72754132 3.3389858,3.77136313 3.37935234,3.81539165 L3.37935234,3.81539165 C3.50065898,3.93631505 3.69690247,3.93631505 3.8180021,3.81539165 L3.8180021,3.81539165 C3.93102842,3.70232311 3.93827369,3.52352184 3.83973793,3.40197832 L3.83973793,3.40197832 C3.83290667,3.39371005 3.82566139,3.38544179 3.8180021,3.37738023 L3.8180021,3.37738023 C3.80433958,3.364151 3.78984902,3.35236872 3.77453044,3.34182668 L3.77453044,3.34182668 C3.74430728,3.31350787 3.71449814,3.28456893 3.68489601,3.25521659 L3.68489601,3.25521659 C3.10465285,2.6758178 2.73990491,1.96309321 2.5902382,1.2154352 L2.5902382,1.2154352 C2.58796111,1.17306033 2.58340694,1.13130559 2.57636867,1.08955084 L2.57636867,1.08955084 C2.5693304,1.04386867 2.55918701,0.998186494 2.54718055,0.952917734 L2.54718055,0.952917734 C2.48963235,0.74290376 2.37846911,0.544258653 2.21348381,0.379306733 L2.21348381,0.379306733 C1.96031313,0.12650448 1.62847946,0 1.29664578,0 L1.29664578,0 C0.964812106,0 0.632771422,0.12650448 0.379600751,0.379306733 L0.379600751,0.379306733 Z" id="path-5"></path>
        <path d="M3.40703965,0.0686279976 C3.39855232,0.0754493176 3.39027201,0.0826840509 3.38281972,0.0905389042 L3.38281972,0.0905389042 C3.3691572,0.104181544 3.35715074,0.118444304 3.34680035,0.133740598 L3.34680035,0.133740598 C3.31823326,0.163919771 3.28966617,0.193892238 3.26006403,0.223244584 L3.26006403,0.223244584 C2.68002788,0.802643371 1.9658506,1.16706722 1.21710299,1.31610273 L1.21710299,1.31610273 C1.17508039,1.31878992 1.13326479,1.32333746 1.09124219,1.33015878 L1.09124219,1.33015878 C1.04528643,1.33718681 0.99974469,1.34752214 0.954616966,1.35971784 L0.954616966,1.35971784 C0.744089924,1.41676888 0.545155325,1.52777036 0.379756007,1.69251557 L0.379756007,1.69251557 C-0.126585336,2.19832678 -0.126585336,3.01812542 0.379756007,3.52372993 L0.379756007,3.52372993 C0.886511365,4.02933444 1.70729772,4.02933444 2.21363906,3.52372993 L2.21363906,3.52372993 C2.39207988,3.34554878 2.50738328,3.12809337 2.5601703,2.8994758 L2.5601703,2.8994758 C2.56596652,2.87384417 2.57093471,2.84800584 2.57528188,2.8221675 L2.57528188,2.8221675 C2.57983605,2.79612246 2.58335518,2.77007742 2.58604629,2.74403238 L2.58604629,2.74403238 C2.72908875,1.97797748 3.09714881,1.24561576 3.69043347,0.652987744 L3.69043347,0.652987744 C3.73328411,0.610406171 3.77696278,0.568858131 3.82126247,0.528550331 L3.82126247,0.528550331 L3.82084846,0.528343624 C3.94194808,0.407626931 3.94194808,0.211255598 3.82084846,0.0905389042 L3.82084846,0.0905389042 C3.76040215,0.0301805576 3.68111812,-1.36581948e-06 3.60162708,-1.36581948e-06 L3.60162708,-1.36581948e-06 C3.53269345,-0.000205322452 3.46355281,0.0227391176 3.40703965,0.0686279976 L3.40703965,0.0686279976 Z" id="path-7"></path>
        <path d="M8.15052235,0.0653193067 C5.82168339,0.31812156 3.70502753,1.31320745 2.19055768,2.86681476 L2.19055768,2.86681476 C1.59271884,3.48011344 1.10583624,4.16534604 0.742744373,4.90349555 L0.742744373,4.90349555 C0.250065553,5.90478264 0,6.96787503 0,8.06280024 L0,8.06280024 C0,9.47295312 0.429748416,10.8628487 1.24266847,12.0834516 L1.24266847,12.0834516 C1.6544072,12.7017113 2.32801093,13.4801686 2.94737859,14.0291815 L2.94737859,14.0291815 L2.94737859,14.030215 L2.6675039,16.2273002 C2.65632547,16.2574793 2.64452602,16.2870384 2.63748775,16.3184578 L2.63748775,16.3184578 C2.63127751,16.3469833 2.62900043,16.3767491 2.62630933,16.4063081 L2.62630933,16.4063081 C2.62444625,16.4288392 2.61947806,16.4505434 2.61947806,16.4736945 L2.61947806,16.4736945 C2.61947806,16.4980859 2.62444625,16.521237 2.62672334,16.5456284 L2.62672334,16.5456284 C2.66377776,16.9069517 2.96538828,17.1901398 3.33717448,17.1901398 L3.33717448,17.1901398 C3.46676143,17.1901398 3.58661901,17.1531393 3.69157202,17.0931944 L3.69157202,17.0931944 C3.69488414,17.0911273 3.69840328,17.0894737 3.7015084,17.08782 L3.7015084,17.08782 C3.71703399,17.0787249 3.73276659,17.0706634 3.74725715,17.0605347 L3.74725715,17.0605347 L4.4160997,16.7254632 L6.40875781,15.7266566 C6.9815487,15.8909884 7.55019942,15.995582 8.1492803,16.0615214 L8.1492803,16.0615214 C8.53886918,16.1043097 8.9344613,16.1260139 9.32446419,16.1260139 L9.32446419,16.1260139 C9.72274741,16.1260139 10.1353142,16.1020359 10.550779,16.0551135 L10.550779,16.0551135 C11.3680463,15.9620955 12.1542623,15.7739924 12.9007328,15.506514 L12.9007328,15.506514 C12.8199997,15.4796421 12.7407157,15.4449154 12.6641228,15.4010936 L12.6641228,15.4010936 C12.2072563,15.1402298 11.9712673,14.6443405 12.0180511,14.1534122 L12.0180511,14.1534122 C11.4847987,14.3224982 10.9277404,14.443835 10.3522585,14.5091543 L10.3522585,14.5091543 C10.0026221,14.5486353 9.6571259,14.5688926 9.32446419,14.5688926 L9.32446419,14.5688926 C8.99801272,14.5688926 8.66700708,14.5507024 8.34076262,14.5149421 L8.34076262,14.5149421 C8.27307103,14.5075007 8.20517244,14.4969587 8.13727384,14.4878636 L8.13727384,14.4878636 C7.68951574,14.428332 7.24672582,14.3369677 6.81884048,14.2121169 L6.81884048,14.2121169 C6.73189716,14.1842115 6.63936462,14.1703621 6.54496902,14.1703621 L6.54496902,14.1703621 C6.39737238,14.1703621 6.25412291,14.209223 6.10921737,14.2842575 L6.10921737,14.2842575 C6.09017264,14.2939727 6.07154193,14.302241 6.05270421,14.3131964 L6.05270421,14.3131964 L4.4160997,15.2762428 L4.34509598,15.3182042 L4.34323291,15.3190311 C4.30783456,15.3397017 4.28775479,15.3475566 4.2697451,15.3475566 L4.2697451,15.3475566 C4.2095058,15.3475566 4.16065194,15.2967067 4.16065194,15.2346947 L4.16065194,15.2346947 L4.22378935,14.9798254 C4.24159203,14.9126458 4.26643298,14.8179741 4.29665613,14.7030452 L4.29665613,14.7030452 C4.33205448,14.5680657 4.37387008,14.4091083 4.4160997,14.2493241 L4.4160997,14.2493241 C4.46246947,14.0723832 4.50925325,13.8939953 4.54899877,13.742686 L4.54899877,13.742686 C4.5655594,13.6837746 4.58232704,13.6130809 4.58232704,13.5337056 L4.58232704,13.5337056 C4.58232704,13.3141831 4.47696002,13.1066496 4.30162432,12.9793183 L4.30162432,12.9793183 C4.21261092,12.9133789 4.12359752,12.8443389 4.03002995,12.7682708 L4.03002995,12.7682708 C3.88678048,12.6516882 3.74974124,12.5305581 3.6176702,12.4052939 L3.6176702,12.4052939 C3.24691903,12.054306 2.9215026,11.6710718 2.64804516,11.2605524 L2.64804516,11.2605524 C2.00425056,10.293992 1.66392956,9.19741313 1.66392956,8.08905199 L1.66392956,8.08905199 C1.66392956,7.22873884 1.86079408,6.39240367 2.24934793,5.60257749 L2.24934793,5.60257749 C2.53957301,5.01284337 2.93040394,4.46362376 3.4110763,3.97021495 L3.4110763,3.97021495 C4.65622887,2.69297445 6.40689474,1.87400264 8.34076262,1.66419537 L8.34076262,1.66419537 C8.67735748,1.627815 9.00836312,1.60900469 9.32446419,1.60900469 L9.32446419,1.60900469 C9.65671189,1.60900469 10.0024151,1.62905524 10.3522585,1.66874292 L10.3522585,1.66874292 C12.277018,1.88723187 14.0175405,2.71054452 15.2531707,3.98654477 L15.2531707,3.98654477 C15.73198,4.48119383 16.1205338,5.03144697 16.4086888,5.62242133 L16.4086888,5.62242133 C16.7910324,6.40707984 16.9847918,7.23700711 16.9847918,8.08905199 L16.9847918,8.08905199 C16.9847918,8.17752244 16.9789956,8.26578619 16.9748554,8.35404993 L16.9748554,8.35404993 C17.4739515,8.04895089 18.1338927,8.10889583 18.5663322,8.54049935 L18.5663322,8.54049935 C18.5880681,8.56241025 18.6064918,8.58597481 18.6263645,8.60912596 L18.6263645,8.60912596 C18.6406481,8.42763751 18.6487214,8.24532223 18.6487214,8.06280024 L18.6487214,8.06280024 C18.6487214,6.97821036 18.402796,5.92338624 17.9179835,4.92850705 L17.9179835,4.92850705 C17.5573757,4.18870389 17.0727702,3.50181764 16.4778295,2.88707201 L16.4778295,2.88707201 C14.974124,1.33429153 12.8692676,0.33424468 10.550779,0.0709003867 L10.550779,0.0709003867 C10.1344861,0.0237712667 9.72212639,0 9.32446419,0 L9.32446419,0 C8.94584673,0 8.55087564,0.0217042 8.15052235,0.0653193067 L8.15052235,0.0653193067 Z" id="path-9"></path>
    </defs>
    <g id="页面-1" stroke="none" stroke-width="1" fill="none" fill-rule="evenodd">
        <g id="icons_filled_wechatWork" transform="translate(1.000000, 3.000000)">
            <g id="Fill-12-Clipped" transform="translate(15.049991, 14.844019)">
                <mask id="mask-2" fill="white">
                    <use xlink:href="#path-1"></use>
                </mask>
                <g id="path-1"></g>
                <polygon id="Fill-12" fill="#FB6500" fill-rule="nonzero" opacity="0.204403832" mask="url(#mask-2)" points="-0.136760571 4.04235557 4.04521318 4.04235557 4.04521318 -0.1364264 -0.136760571 -0.1364264"></polygon>
            </g>
            <g id="Fill-15-Clipped" transform="translate(18.713379, 12.508647)">
                <mask id="mask-4" fill="white">
                    <use xlink:href="#path-3"></use>
                </mask>
                <g id="path-3"></g>
                <polygon id="Fill-15" fill="#0082EF" fill-rule="nonzero" mask="url(#mask-4)" points="-0.136521715 4.03946168 4.04835015 4.03946168 4.04835015 -0.1364264 -0.136521715 -0.1364264"></polygon>
            </g>
            <g id="Fill-18-Clipped" transform="translate(16.374758, 8.847459)">
                <mask id="mask-6" fill="white">
                    <use xlink:href="#path-5"></use>
                </mask>
                <g id="path-5"></g>
                <polygon id="Fill-18" fill="#2DBC00" fill-rule="nonzero" opacity="0.204403832" mask="url(#mask-6)" points="-0.136469963 4.04235557 4.04529678 4.04235557 4.04529678 -0.1364264 -0.136469963 -0.1364264"></polygon>
            </g>
            <g id="Fill-21-Clipped" transform="translate(12.708079, 11.185930)">
                <mask id="mask-8" fill="white">
                    <use xlink:href="#path-7"></use>
                </mask>
                <g id="path-7"></g>
                <polygon id="Fill-21" fill="#FFCC00" fill-rule="nonzero" mask="url(#mask-8)" points="-0.136521715 4.03946306 4.04835015 4.03946306 4.04835015 -0.136425016 -0.136521715 -0.136425016"></polygon>
            </g>
            <g id="Fill-24-Clipped" transform="translate(0.125000, 0.000000)">
                <mask id="mask-10" fill="white">
                    <use xlink:href="#path-9"></use>
                </mask>
                <g id="path-9"></g>
                <polygon id="Fill-24" fill="#0082EF" fill-rule="nonzero" mask="url(#mask-10)" points="-0.136418211 17.3265662 18.7853466 17.3265662 18.7853466 -0.136633107 -0.136418211 -0.136633107"></polygon>
            </g>
        </g>
    </g>
</svg>