<?xml version="1.0" encoding="UTF-8"?>
<svg width="24px" height="24px" viewBox="0 0 24 24" version="1.1" xmlns="http://www.w3.org/2000/svg" xmlns:xlink="http://www.w3.org/1999/xlink">
    <title>icons_outlined_setting</title>
    <g id="页面-1" stroke="none" stroke-width="1" fill="none" fill-rule="evenodd">
        <g id="网球" transform="translate(3.000000, 3.000000)" fill-rule="nonzero">
            <path d="M0,9 C0,12.2153903 1.71539025,15.1865334 4.5,16.7942286 C7.28460967,18.4019238 10.7153903,18.4019238 13.5,16.7942286 C16.2846097,15.1865334 18,12.2153903 18,9 C18,4.02943722 13.9705627,0 9,0 C4.02943725,0 0,4.02943722 0,9 Z" id="路径" stroke="#000000" stroke-width="1.3"></path>
            <path d="M3,15.7894737 C4.61892306,17.1428571 6.84494224,18 9.27332682,18 C11.7017114,18 13.381077,16.7498358 15,15.3964523 C13.9881731,13.1408132 12.1064421,12 9.27332682,12 C6.44021147,12 4.01182689,13.5789474 3,15.7894737 Z" id="路径" fill="#000000" opacity="0.201148624"></path>
            <path d="M9.27332682,6 C12.1064422,6 13.9881731,4.66985928 15,2.45933297 C13.381077,1.10594951 11.7017114,0 9.27332682,0 C6.84494224,0 4.61892304,0.857142851 3,2.21052631 C4.01182692,4.46616542 6.44021149,6 9.27332682,6 Z" id="路径" fill="#000000" opacity="0.201148624"></path>
            <path d="M11.5394355,9.5 C11.5394355,10.880715 10.4201506,12 9.03943555,12 C7.65872051,12 6.53943555,10.880715 6.53943555,9.5 C6.53943555,8.11928498 7.65872051,7 9.03943555,7 C10.4201506,7 11.5394355,8.11928498 11.5394355,9.5 Z" id="路径" fill="#000000"></path>
        </g>
    </g>
</svg>