<?xml version="1.0" encoding="UTF-8"?>
<svg width="24px" height="24px" viewBox="0 0 24 24" version="1.1" xmlns="http://www.w3.org/2000/svg" xmlns:xlink="http://www.w3.org/1999/xlink">
    <title>icons_outlined_grouppay</title>
    <g id="页面-1" stroke="none" stroke-width="1" fill="none" fill-rule="evenodd">
        <g id="编组-15" transform="translate(4.000000, 3.000000)">
            <rect id="矩形" stroke="#000000" stroke-width="1.3" x="0.65" y="0.65" width="13.7" height="16.7" rx="2"></rect>
            <path d="M14.3439441,10.1000882 L13.772,11.7860882 L13.6366143,11.8600562 C10.9453847,13.3168716 8.3289115,14.7332199 8.3289115,14.7332199 L8.2691668,14.7657162 C8.1953911,14.8003364 8.1123369,14.8207263 8.024304,14.8207263 C7.81995,14.8207263 7.6423001,14.7151663 7.5490622,14.5592689 L7.5135322,14.4862053 L6.02602515,11.423055 C6.00995745,11.3897091 6,11.3519029 6,11.3151587 C6,11.1741289 6.12197875,11.0598608 6.2722457,11.0598608 C6.33380083,11.0598608 6.38969833,11.0787639 6.43541207,11.110623 L8.1904124,12.2832518 C8.3182751,12.3618377 8.4719366,12.4081397 8.6366871,12.4081397 C8.7346775,12.4081397 8.8285943,12.3911481 8.915722,12.3612005 C8.915722,12.3612005 10.7272991,11.6063678 12.7006642,10.7844459 L13.1964213,10.5779658 C13.582023,10.41737 13.9685384,10.2564068 14.3439441,10.1000882 Z" id="形状结合" fill="#000000"></path>
            <rect id="矩形" fill="#000000" opacity="0.419084821" x="2" y="4" width="9" height="2" rx="1"></rect>
            <rect id="矩形备份-8" fill="#000000" opacity="0.172293527" x="2" y="7" width="6" height="2" rx="1"></rect>
        </g>
    </g>
</svg>