<?xml version="1.0" encoding="UTF-8"?>
<svg width="24px" height="24px" viewBox="0 0 24 24" version="1.1" xmlns="http://www.w3.org/2000/svg" xmlns:xlink="http://www.w3.org/1999/xlink">
    <title>icons_outlined_followed</title>
    <g id="页面-1" stroke="none" stroke-width="1" fill="none" fill-rule="evenodd">
        <g id="icons_outlined_followed备份" transform="translate(1.000000, 3.000000)" fill="#000000">
            <path d="M9.9,0 C12.109139,0 13.9,1.79298022 13.9,4.00020747 L13.9,5.71018568 C13.9,6.84929595 13.3009324,8.4828603 12.5680872,9.351573 L12.2065546,9.7801327 C11.9505779,10.0835668 11.8404693,10.4229419 11.8653023,10.7427561 L10.3032034,10.7422629 C10.2829736,10.1281942 10.4713078,9.494871 10.887211,8.9345462 L11.0141712,8.7742392 L11.3757038,8.3456795 C11.8309068,7.8060831 12.2618476,6.68751998 12.33051,5.9123799 L12.34,5.71018568 L12.34,4.00020747 C12.34,2.65370434 11.2467349,1.56 9.9,1.56 C8.616194,1.56 7.56006723,2.55689347 7.46670819,3.8177426 L7.46,3.99958038 L7.46,5.70929053 C7.46,6.4163665 7.85128439,7.5446256 8.3005223,8.182917 L8.4242281,8.3441639 L8.7857607,8.7726648 C9.9885432,10.1982444 9.6229239,12.1770766 8.0395267,13.0757909 L7.85860006,13.1711201 L2.19824691,15.9333098 C2.13188269,15.9656948 2.01067626,16.1475304 1.97211757,16.258875 L1.96,16.3154633 L1.96,16.44 L9.899,16.439 L9.899,18 L1.40142961,18 C0.84835531,18 0.4,17.5557555 0.4,17.0015619 L0.4,16.3154633 C0.4,15.6303744 0.89815091,14.8319079 1.51409761,14.5313327 L7.17445076,11.769143 C7.99537712,11.36854 8.1862591,10.4812624 7.59344523,9.7786389 L7.23191269,9.350138 C6.49631763,8.4782852 5.9,6.84949648 5.9,5.70929053 L5.9,3.99958038 C5.9,1.79067313 7.69535616,0 9.9,0 Z" id="1.3pt" fill-rule="nonzero"></path>
            <path d="M14.7014384,16.2055376 L19.7323629,11.1746131 L20.775007,12.2172572 L15.138197,17.8524474 C14.9039017,18.0867813 14.5240027,18.0867267 14.2897218,17.8523785 C14.2897042,17.8523608 14.2896865,17.8523431 14.2897219,17.8522725 L11.473476,15.0345129 L11.473476,15.0345129 L12.5019448,14.0060441 L14.7014384,16.2055376 Z" id="1.3pt-path" fill-rule="nonzero" opacity="0.203822545"></path>
            <path d="M12,8 C12.3245815,8 12.6371235,7.93127089 12.9298866,7.80413212 C14.131558,7.28228005 14.0502986,5.41812735 13.3906885,4 C12.9298866,3.00930009 13.6568542,1.42283172 12,1.42283172 C11.4537622,1.42283172 10.9416218,0.194651068 10.5004673,0.534768396 C9.60350757,1.2262985 9,2.51917809 9,4 C9,6.209139 10.3431458,8 12,8 Z" id="椭圆形" opacity="0.198544457"></path>
        </g>
    </g>
</svg>