<?xml version="1.0" encoding="UTF-8"?>
<svg width="24px" height="24px" viewBox="0 0 24 24" version="1.1" xmlns="http://www.w3.org/2000/svg" xmlns:xlink="http://www.w3.org/1999/xlink">
    <title>icons_filled_multiple_choice</title>
    <g id="页面-1" stroke="none" stroke-width="1" fill="none" fill-rule="evenodd">
        <g id="闪电排序" transform="translate(0.000000, 3.000000)" fill-rule="nonzero">
            <path d="M16.4124574,17.6366797 L22.8611468,8.09276011 C23.1143422,7.71777116 23.0116664,7.21097917 22.6313356,6.96116333 C22.4956398,6.87186591 22.3361664,6.82424722 22.1730572,6.82432154 L17.1026973,6.82432154 L17.1026973,0.816012022 C17.1026973,0.365441848 16.7325803,0 16.2759146,0 C15.9993349,0 15.7413013,0.136311401 15.5878251,0.36332027 L9.13886693,9.90723989 C8.88567147,10.2822288 8.98834734,10.7887556 9.36840931,11.0388367 C9.50418049,11.128217 9.66373802,11.1759252 9.82695649,11.1759437 L14.8973165,11.1759437 L14.8973165,17.183988 C14.8973165,17.6345582 15.2674334,18 15.7240991,18 C16.0009476,18 16.2589812,17.8636886 16.4124574,17.6366797 Z" id="路径" stroke="#000000" stroke-width="1.3"></path>
            <path d="M3.49612633,1 L8.49916237,1 C9.32800135,1.00386791 9.99731688,1.76805565 9.99391502,2.70685172 C9.99048713,3.64039849 9.32336688,4.39629786 8.49916237,4.39988949 L3.49612633,4.39988949 C2.66728734,4.39602158 1.99797181,3.63183384 2.00137368,2.69303777 C2.00455764,1.759491 2.67192182,1.00359163 3.49612633,1 Z M3.49612633,14.6001105 L8.49916237,14.6001105 C9.32800135,14.6001105 10,15.3612592 10,16.3000553 C10,17.2388513 9.32800135,18 8.49916237,18 L3.49612633,18 C2.66728734,18 1.99528869,17.2388513 1.99528869,16.3000553 C1.99528869,15.3612592 2.66704342,14.6001105 3.49612633,14.6001105 Z M1.49476556,7.80005526 L5.49724318,7.80005526 C6.32608216,7.80392316 6.99539769,8.5681109 6.99199583,9.50690698 C6.98856794,10.4404537 6.32144769,11.1963531 5.49724318,11.1999447 L1.49476556,11.1999447 C0.665926577,11.1960768 -0.00338895548,10.4318891 1.29104847e-05,9.49309302 C0.00344079485,8.55954625 0.67056105,7.80364688 1.49476556,7.80005526 Z" id="形状" fill="#000000" opacity="0.202599516"></path>
        </g>
    </g>
</svg>