<?xml version="1.0" encoding="UTF-8"?>
<svg width="24px" height="24px" viewBox="0 0 24 24" version="1.1" xmlns="http://www.w3.org/2000/svg" xmlns:xlink="http://www.w3.org/1999/xlink">
    <title>icons_filled_AddSticker</title>
    <g id="页面-1" stroke="none" stroke-width="1" fill="none" fill-rule="evenodd">
        <g id="icons_filled_AddSticker备份" transform="translate(2.000000, 2.000000)" fill-rule="nonzero">
            <polygon id="形状-path" fill="#000000" opacity="0.198614211" points="18.3 12 17.1923077 12 17.1913846 14.1923077 15 14.1923077 15 15.3 17.1913846 15.3 17.1923077 17.5384615 18.3 17.5384615 18.2990769 15.3 20.5384616 15.3 20.5384616 14.1923077 18.2990769 14.1923077"></polygon>
            <path d="M9.23076923,0.95769231 C11.6002832,0.95769231 13.7454756,1.91812763 15.2982894,3.47094144 C16.7395516,4.91220361 17.6704891,6.86379038 17.7967246,9.03140822 C16.5471292,9.3920939 15.4525186,10.1194604 14.6452598,11.0881709 C13.7405409,12.1738336 13.1961538,13.5618773 13.1961538,15.0769231 C13.1961538,15.7430009 13.3015037,16.3844666 13.4960663,16.9857611 C12.2396481,17.7070372 10.7833275,18.1192308 9.23076923,18.1192308 C6.86125524,18.1192308 4.71606294,17.1587955 3.16324913,15.6059817 C1.61043532,14.0531678 0.65,11.9079755 0.65,9.5384615 C0.65,7.16894752 1.61043531,5.02375522 3.16324913,3.47094142 C4.71606294,1.91812762 6.86125524,0.95769231 9.23076923,0.95769231 Z" id="形状-path" stroke="#000000" stroke-width="1.3"></path>
            <path d="M13.1745429,10.4615385 L4.17454293,10.4615385 C4.38207345,12.7041385 6.3175533,14.4615385 8.67454293,14.4615385 C11.0315326,14.4615385 12.9670124,12.7041385 13.1745429,10.4615385 Z" id="形状-path" fill="#000000" opacity="0.199660528"></path>
            <path d="M5.38461538,5 C4.61991342,5 4,5.61991343 4,6.38461539 C4,7.14931735 4.61991342,7.76923082 5.38461538,7.76923082 C6.14931734,7.76923082 6.76923076,7.14931735 6.76923076,6.38461539 C6.76923076,5.61991343 6.14931734,5 5.38461538,5 Z" id="形状-path" fill="#000000"></path>
            <path d="M11.3846154,5 C10.6199134,5 10,5.61991343 10,6.38461539 C10,7.14931735 10.6199134,7.76923082 11.3846154,7.76923082 C12.1493173,7.76923082 12.7692307,7.14931735 12.7692307,6.38461539 C12.7692307,5.61991343 12.1493173,5 11.3846154,5 Z" id="形状-path" fill="#000000"></path>
        </g>
    </g>
</svg>