<?xml version="1.0" encoding="UTF-8"?>
<svg width="24px" height="24px" viewBox="0 0 24 24" version="1.1" xmlns="http://www.w3.org/2000/svg" xmlns:xlink="http://www.w3.org/1999/xlink">
    <title>icons_filled_mike_off</title>
    <g id="页面-1" stroke="none" stroke-width="1" fill="none" fill-rule="evenodd">
        <g id="changyuyinhecheng" transform="translate(2.000000, 6.000000)" fill="#000000">
            <path d="M3.06188462,5.33454777 C3.27209443,5.32007399 3.47945688,5.38969771 3.63834346,5.52809877 C3.79723005,5.66649982 3.89462207,5.86233805 3.90908917,6.07252075 L3.9373454,6.3777058 C4.20141833,8.79686839 5.75378695,10.8840933 7.99498205,11.8333688 C10.3255454,12.8235784 13.0146858,12.4205482 14.9520426,10.7906916 C15.2899813,10.5258671 15.7773819,10.5780872 16.051621,10.9085003 C16.3258602,11.2389135 16.2873207,11.7274974 15.9646757,12.0107484 C14.8024782,12.9763963 13.4017703,13.6115437 11.9094464,13.8495819 C8.77090109,14.3467332 5.62413509,13.0055866 3.80914726,10.3972474 C2.94156864,9.15198231 2.42787846,7.69487289 2.32274979,6.18100225 C2.30838749,5.97071433 2.37821217,5.76335523 2.51684624,5.60459201 C2.6554803,5.44582879 2.85155362,5.34868248 3.06188462,5.33454777 L3.06188462,5.33454777 Z M6.66336388,4.19205576 C6.66336388,4.52838395 6.66336388,5.03287625 6.66336388,5.70553264 C6.66619786,7.82921491 8.38783328,9.5498943 10.5119866,9.55201822 C12.0655077,9.54610816 13.435373,8.61613243 14.0384086,7.23775362 C14.143615,6.9972798 14.549553,7.50299753 14.6049832,7.23775362 C14.656401,6.98714732 15.7520206,7.3315303 15.4130019,8.03794857 C14.5365843,9.86415253 12.6728777,11.1264354 10.5132721,11.1340509 C7.51193694,11.1312182 5.07938211,8.69977678 5.07583913,5.69910683 C5.07583913,4.72427778 5.07583913,3.993156 5.07583913,3.50574148 C5.07583913,2.81590406 6.66336388,3.27430369 6.66336388,4.19205576 Z" id="形状" fill-rule="nonzero"></path>
            <path d="M13.2389893,15 C13.6688176,15.0419624 14,15.47715 14,16 C14,16.52285 13.6688176,16.9580376 13.2389893,17 L7.82474766,17 C7.37037862,16.9982293 7.00219623,16.5525334 7,16.0016181 C7.00073215,15.449439 7.36934101,15.0017805 7.82474766,15 L13.2389893,15 Z" id="路径" fill-rule="nonzero" opacity="0.19577753"></path>
            <path d="M0.855112973,5 L20.2137438,5 C20.6493958,5 21.0025615,5.35316572 21.0025615,5.78881772 C21.0025615,5.81001635 21.001707,5.83120637 21,5.85233617 L20.9944554,5.92096934 C20.9586934,6.363646 20.5890059,6.70467233 20.144887,6.70467233 L0.786256196,6.70467233 C0.350604198,6.70467233 -0.00256152596,6.35150661 -0.00256152596,5.91585461 C-0.00256152596,5.89465598 -0.00170699024,5.87346596 7.03354042e-13,5.85233617 L0.00554459564,5.78370299 C0.0413066447,5.34102633 0.410994126,5 0.855112973,5 Z" id="矩形" transform="translate(10.500000, 5.852336) rotate(24.000000) translate(-10.500000, -5.852336) "></path>
        </g>
        <path d="M12.0907009,2.85 C13.2407958,2.85 14.2820112,3.31616803 15.0357029,4.06985978 C15.7893947,4.82355152 16.2555627,5.86476697 16.2555627,7.01486179 L16.2555627,7.01486179 L16.255,13.514 L13.1253787,12.061344 C12.8496858,11.9751145 12.4923326,11.83857 12.0528151,11.6531016 L11.8262069,11.5562969 C11.2796859,11.3201665 10.4708132,10.9522492 9.39949636,10.4527534 L9.39949636,10.4527534 L8.19726928,9.93554049 L7.87526843,7.02317147 C7.8869141,5.86739678 8.36285555,4.82410392 9.12484391,4.06975472 C9.88683228,3.31540552 10.9348676,2.85 12.0907009,2.85 Z" id="矩形" stroke="#000000" stroke-width="1.7" opacity="0.196707589"></path>
    </g>
</svg>