<?xml version="1.0" encoding="UTF-8"?>
<svg width="24px" height="24px" viewBox="0 0 24 24" version="1.1" xmlns="http://www.w3.org/2000/svg" xmlns:xlink="http://www.w3.org/1999/xlink">
    <title>icons_outlined_like</title>
    <g id="页面-1" stroke="none" stroke-width="1" fill="none" fill-rule="evenodd">
        <g id="icons_filled_like备份" transform="translate(2.000000, 4.000000)" fill-rule="nonzero">
            <path d="M18.3042393,1.60744987 C19.4014962,2.6790831 20,4.04297993 20,5.50429798 C20,6.96561604 19.4014962,8.32951288 18.4039899,9.40114614 L14.2144638,13.3954155 L10.4239401,16.9025788 C10.3241895,17 10.1246883,17 9.92518699,17 C9.72568575,17 9.52618449,16.9025788 9.42643388,16.8051577 L1.64588529,9.40114614 C-0.548628429,7.25787965 -0.548628429,3.75071633 1.64588529,1.70487105 C3.840399,-0.438395435 7.33167081,-0.438395435 9.52618452,1.70487105 L9.92518699,2.09455588 L10.4239401,1.60744987 C12.6184538,-0.535816623 16.1097256,-0.535816623 18.3042393,1.60744987 Z" id="形状结合-path" stroke="#000000" stroke-width="1.5"></path>
            <path d="M18.6559686,3.62163746 C15.0559686,3.62163746 12.2559687,6.90288749 12.2559687,11.1216375 C12.2559687,12.6996325 12.6477121,14.1464635 13.3265354,15.3394777 C17.8550122,9.84910725 21.3299119,6.00968109 18.6559686,3.62163746 Z" id="形状结合-path" fill="#000000" opacity="0.204101562" transform="translate(15.922566, 9.480558) rotate(8.000000) translate(-15.922566, -9.480558) "></path>
            <path d="M10,3 C10.6666667,3 11.3333333,3.33333333 11.6666667,3.88888888 C11.8888889,4.22222221 12,4.55555554 12,5 C12,6.11111112 11.1111111,7 10,7 C8.88888888,7 8,6.11111112 8,5 C8,3.88888888 8.88888888,3 10,3 Z" id="形状结合-path" stroke="#000000"></path>
        </g>
    </g>
</svg>