<?xml version="1.0" encoding="UTF-8"?>
<svg width="24px" height="24px" viewBox="0 0 24 24" version="1.1" xmlns="http://www.w3.org/2000/svg" xmlns:xlink="http://www.w3.org/1999/xlink">
    <title>icon_stick</title>
    <g id="页面-1" stroke="none" stroke-width="1" fill="none" fill-rule="evenodd">
        <g id="icon_stick备份" transform="translate(0.000000, 1.000000)">
            <path d="M9.24528697,5.95 C11.4113224,5.95 13.3754748,6.69031645 14.7960352,7.89779274 C16.1752159,9.0700964 17.0405739,10.686022 17.0405739,12.4784939 C17.0405739,14.2709658 16.1752159,15.8868915 14.7960351,17.0591951 C13.3754748,18.2666714 11.4113224,19.0069879 9.24528697,19.0069879 C8.26764852,19.0069879 7.33149547,18.8561211 6.46756714,18.5795803 L6.46756714,18.5795803 L4.52815629,19.5095483 L4.2620661,17.4964624 C2.55675337,16.306632 1.45,14.506149 1.45,12.4784939 C1.45,10.686022 2.31535798,9.0700964 3.69453876,7.89779274 C5.11509911,6.69031645 7.07925154,5.95 9.24528697,5.95 Z" id="形状结合-path" stroke="#000000" stroke-width="1.3" fill-rule="nonzero"></path>
            <ellipse id="椭圆形" fill="#000000" opacity="0.201171875" transform="translate(12.500000, 15.000000) rotate(-27.000000) translate(-12.500000, -15.000000) " cx="12.5" cy="15" rx="3.5" ry="2"></ellipse>
            <path d="M22.7178573,7.417768 C22.745592,7.46631448 22.769148,7.51713169 22.7882705,7.56967031 C22.9745459,8.08145796 22.7106662,8.64734992 22.1988785,8.83362539 C22.1463399,8.85274788 22.0922702,8.86736767 22.0372539,8.8773267 L19.1069008,9.4077783 C18.8487608,9.4545067 18.6016161,9.2831238 18.5548877,9.0249839 C18.5190359,8.82692906 18.6119007,8.62777981 18.7866646,8.52793672 L21.3724131,7.05069154 C21.8453126,6.78052274 22.4476885,6.94486847 22.7178573,7.417768 Z" id="形状结合-path" fill-opacity="0.99" fill="#000000" fill-rule="nonzero" opacity="0.514718192"></path>
            <path d="M20.2858686,2.43698369 C20.337666,2.47362086 20.3862578,2.5145915 20.4311201,2.5594538 C20.8686652,2.99699889 20.8686652,3.70639964 20.4311201,4.14394473 C20.3862578,4.18880703 20.337666,4.22977767 20.2858686,4.26641485 L17.2121794,6.4404877 C16.9980048,6.59197706 16.7015756,6.54116062 16.5500862,6.32698602 C16.4338161,6.16260416 16.4338161,5.94277639 16.5500862,5.77839453 L18.7241591,2.70470532 C19.081484,2.19952186 19.7806852,2.0796588 20.2858686,2.43698369 Z" id="形状结合-path" fill-opacity="0.99" fill="#000000" fill-rule="nonzero" opacity="0.348028274"></path>
            <path d="M15.0216295,0.53518781 C15.0765199,0.54513579 15.1304662,0.55972819 15.1828865,0.57880764 C15.6941459,0.76489081 15.9577532,1.33019859 15.77167,1.84145791 C15.7525906,1.89387826 15.729093,1.94458329 15.7014308,1.99302622 L14.2258292,4.57714018 C14.0957433,4.80495026 13.8056112,4.88417133 13.5778011,4.75408538 C13.4029539,4.65424269 13.3100506,4.45501107 13.3459564,4.25689265 L13.8766164,1.32884813 C13.9736398,0.79349824 14.4862797,0.43816442 15.0216295,0.53518781 Z" id="形状结合-path" fill-opacity="0.99" fill="#000000" fill-rule="nonzero" opacity="0.148995536"></path>
        </g>
    </g>
</svg>