<?xml version="1.0" encoding="UTF-8"?>
<svg width="24px" height="24px" viewBox="0 0 24 24" version="1.1" xmlns="http://www.w3.org/2000/svg" xmlns:xlink="http://www.w3.org/1999/xlink">
    <title>icons_filled_share</title>
    <g id="页面-1" stroke="none" stroke-width="1" fill="none" fill-rule="evenodd">
        <g id="转发,分享" transform="translate(3.500000, 3.000000)">
            <path d="M4.86705643,5 C4.93365713,5 4.99912338,5.00453011 5.063139,5.01328733 L12.2513361,5.01437791 C12.952971,5.01437791 13.5,5.42874986 13.5,6.08991614 C13.5,6.75108241 12.9303376,7.16545436 12.2513361,7.16545436 L6.234,7.165 L6.23411286,12.6892017 C6.23411286,13.4144606 5.62381981,13.9993468 4.86705643,13.9993468 C4.11029305,14.0227423 3.5,13.4144606 3.5,12.6892017 L3.5,6.31014511 L3.50128444,6.24970649 C3.50043116,6.23199203 3.5,6.21400979 3.5,6.19575884 C3.5,5.59132956 3.97288891,5.10469875 4.59011214,5.02563076 C4.67980388,5.00917356 4.77228151,5 4.86705643,5 Z" id="形状结合" fill="#000000" fill-rule="nonzero" opacity="0.202125186"></path>
            <path d="M17.5,10.3702701 L17.5,10.3702701 L17.5,13.6 C17.5,15.4777681 16.0729076,17 14.3125,17 L3.6875,17 C1.92709236,17 0.5,15.4777681 0.5,13.6 L0.5,3.4 C0.5,1.52223185 1.92709236,0 3.6875,0 L10.8940163,0 L10.8940163,0" id="路径" stroke="#000000" stroke-width="1.3"></path>
            <path d="M13.8293286,2.18731208 C12.7890459,1.65082379 11.5,2.33175123 11.5,3.4047278 L11.5,4.23517716 L12.5855124,4.23517716 C13.4448763,4.23517716 14.5252492,4.66666667 14.5252492,6 C14.5252492,7.33333333 13.4448763,7.69608836 12.5855124,7.69608836 L11.5,7.69608836 L11.5,8.58390317 C11.5,9.6775139 12.7890459,10.3584413 13.8293286,9.80131889 L18.7367491,7.22204829 C19.754417,6.68556 19.754417,5.32370513 18.7367491,4.76658268 L13.8293286,2.18731208 Z" id="路径" fill="#000000" fill-rule="nonzero"></path>
        </g>
    </g>
</svg>