<?xml version="1.0" encoding="UTF-8"?>
<svg width="24px" height="24px" viewBox="0 0 24 24" version="1.1" xmlns="http://www.w3.org/2000/svg" xmlns:xlink="http://www.w3.org/1999/xlink">
    <title>icons_outlined_link</title>
    <g id="页面-1" stroke="none" stroke-width="1" fill="none" fill-rule="evenodd">
        <g id="链接ing备份" transform="translate(2.000000, 2.000000)" fill-rule="nonzero">
            <path d="M8.26815413,10.2777443 L6.12744969,12.3740737 C5.73138739,12.7580715 5.72818937,13.383694 6.12031565,13.7715463 C6.51244193,14.1593986 7.15130764,14.1625303 7.54736994,13.7785325 C7.54982995,13.7763643 7.55204397,13.7739553 7.55450398,13.7715463 L9.69520842,11.6752169 L10.4088586,12.3740737 C11.1970471,13.1459238 11.1970471,14.3974097 10.4088586,15.1692598 L6.2996046,19.4211124 C5.51141602,20.1929625 4.2334386,20.1929625 3.44525002,19.4211124 L0.591141434,16.6259263 C-0.197047145,15.8540762 -0.197047145,14.6025903 0.591141434,13.8307402 L4.7003954,9.57888755 C5.48858398,8.80703748 6.7665614,8.80703748 7.55474998,9.57888755 L8.26815413,10.2777443 Z" id="路径" fill="#000000" opacity="0.199855841"></path>
            <path d="M12.522908,8.80467665 L14.4998864,6.82769823 C14.862022,6.46192769 14.8590685,5.87192391 14.493298,5.50978835 C14.1300265,5.15015185 13.5450208,5.15015185 13.1817493,5.50978835 L11.2047709,7.48676677 L10.5459296,6.82769823 C9.81802348,6.09979214 9.81802348,4.91955738 10.5459296,4.19165128 L13.9910461,0.545929572 C14.7189522,-0.181976524 15.899187,-0.181976524 16.627093,0.545929572 L19.26314,3.18197652 C19.9910461,3.90988262 19.9910461,5.09011738 19.26314,5.81802348 L15.8180235,9.46374519 C15.0901174,10.1916513 13.9098826,10.1916513 13.1819765,9.46374519 L12.522908,8.80467665 Z" id="路径" stroke="#000000" stroke-width="1.3"></path>
        </g>
    </g>
</svg>