<?xml version="1.0" encoding="UTF-8"?>
<svg width="24px" height="24px" viewBox="0 0 24 24" version="1.1" xmlns="http://www.w3.org/2000/svg" xmlns:xlink="http://www.w3.org/1999/xlink">
    <title>icons_outlined_finder_tab_like</title>
    <g id="页面-1" stroke="none" stroke-width="1" fill="none" fill-rule="evenodd">
        <g id="icons_tab_like_unSelect备份-2" transform="translate(3.000000, 5.000000)" fill="#000000">
            <path d="M8.6066017,1.46446609 L8.992781,1.84163553 C9.0912935,1.9361437 9.1982694,2.03778038 9.3137085,2.14654555 L9.7760574,1.70521964 C9.8661066,1.61783996 9.9476926,1.53758878 10.0208153,1.46446609 C11.9734367,-0.48815536 15.1392616,-0.48815536 17.0918831,1.46446609 C19.0263413,3.39892429 19.0443356,6.5241205 17.145866,8.4807312 L10.0208153,15.6066017 C9.6303114,15.9971464 8.9971464,15.9971796 8.6066017,15.6066757 L1.48114108,8.4811411 C-0.4169186,6.5241205 -0.39892429,3.39892429 1.53553391,1.46446609 C3.48815536,-0.48815536 6.65398026,-0.48815536 8.6066017,1.46446609 Z M16.0547931,2.50155604 C14.6749406,1.12170354 12.4377577,1.12170354 11.0579052,2.50155604 L10.6523246,2.8977758 L10.3194816,3.21403401 L9.3137085,4.16165972 L7.9750924,2.8977758 C7.8212274,2.75014113 7.6861318,2.61817602 7.5695118,2.50155604 C6.18965927,1.12170354 3.95247635,1.12170354 2.57262385,2.50155604 C1.25592379,3.8182561 1.19424004,5.919059 2.38121241,7.294313 L2.51823641,7.4440565 L9.313,14.239 L16.0932547,7.4593984 C17.3879896,6.125012 17.4196549,4.02373302 16.1959286,2.65100701 L16.0547931,2.50155604 Z" id="形状" fill-rule="nonzero"></path>
            <path d="M14.0369472,13.593059 C15.1281856,12.8391236 14.8877341,11.4675487 14.8877341,8.70612497 C14.8877341,5.94470122 16.2460862,3.59305898 14.0369472,3.59305898 C11.8278082,3.59305898 10.0369472,5.83163523 10.0369472,8.59305898 C10.0369472,11.3544827 12.9457089,14.3469943 14.0369472,13.593059 Z" id="椭圆形" opacity="0.201590402" transform="translate(12.668929, 8.652163) rotate(36.000000) translate(-12.668929, -8.652163) "></path>
        </g>
    </g>
</svg>