<?xml version="1.0" encoding="UTF-8"?>
<svg width="24px" height="24px" viewBox="0 0 24 24" version="1.1" xmlns="http://www.w3.org/2000/svg" xmlns:xlink="http://www.w3.org/1999/xlink">
    <title>icons_filled_video_phone</title>
    <g id="页面-1" stroke="none" stroke-width="1" fill="none" fill-rule="evenodd">
        <g id="录像备份" transform="translate(1.000000, 5.000000)" fill-rule="nonzero">
            <path d="M12.9259259,9.53496116 L19.2222222,12.7786527 C20.4567901,13.4158064 22,12.6048835 22,11.2726531 L22,4.72734694 C22,3.39511648 20.4567901,2.58419361 19.2222222,3.22134729 L12.9259259,6.46503883 C11.691358,7.16011559 11.691358,8.89780748 12.9259259,9.53496116 L12.9259259,9.53496116 Z" id="路径" fill="#000000" opacity="0.197451637"></path>
            <path d="M15.6,15 L2.40000002,15 C1.08000003,15 0,13.9494163 0,12.6653697 L0,2.33463034 C0,1.05058366 1.08,0 2.40000002,0 L15.6,0 C16.92,0 18,1.05058366 18,2.33463034 L18,12.6653697 C18,14.0077821 16.92,15 15.6,15 Z" id="路径" stroke="#000000" stroke-width="1.3"></path>
            <path d="M12,3.5 C12,4.32842712 12.6715729,5 13.5,5 C14.3284271,5 15,4.32842712 15,3.5 C15,2.67157288 14.3284271,2 13.5,2 C12.6715729,2 12,2.67157288 12,3.5 Z" id="路径" fill="#000000"></path>
            <path d="M4.26839598,5.00248962 C4.38766951,4.98205011 4.48192688,5.09075143 4.56261812,5.20798485 C4.64330936,5.32521828 5.34123135,6.29368903 5.34429341,6.44189358 C5.35066462,6.7502621 4.87199698,7.40347212 4.85008737,7.66577609 C4.83005573,7.90559687 5.1410898,8.51907392 5.80419976,9.19460899 C6.48092607,9.85891019 7.09440312,10.1699442 7.33422392,10.1499126 C7.59652789,10.128003 8.24973789,9.64933537 8.55810642,9.6557066 C8.70631098,9.65876865 9.67478172,10.3566906 9.79201517,10.4373819 C9.90924857,10.5180731 10.0179499,10.6123305 9.99751037,10.731604 C9.97707089,10.8508775 9.55143914,12.1646728 8.46480201,11.9827423 C7.51197508,11.823215 6.22984666,10.8438383 5.34653195,9.99940984 C5.28886387,9.94536074 5.23060275,9.88811063 5.17129891,9.82852353 C5.11188937,9.76939726 5.05463926,9.71113613 5,9.65427684 C4.15616166,8.77015334 3.17678498,7.4880249 3.01725768,6.53519799 C2.83532718,5.44856088 4.14912244,5.02292913 4.26839598,5.00248962 Z" id="Path-29" fill="#000000"></path>
        </g>
    </g>
</svg>