<?xml version="1.0" encoding="UTF-8"?>
<svg width="24px" height="24px" viewBox="0 0 24 24" version="1.1" xmlns="http://www.w3.org/2000/svg" xmlns:xlink="http://www.w3.org/1999/xlink">
    <title>icons_outlined_contacts</title>
    <g id="页面-1" stroke="none" stroke-width="1" fill="none" fill-rule="evenodd">
        <g id="喜欢备份-4" transform="translate(2.000000, 5.000000)" fill-rule="nonzero">
            <path d="M7.67404127,1.26768368 C9.24181599,0.737493656 10.2712733,0.554203592 11.2578,0.696889898 C12.2472231,0.839995118 13.1924734,1.31066475 13.943923,2.08847171 C14.7650167,2.91972098 15.232341,4.00216884 15.3304812,5.11916041 C15.4288059,6.23825208 15.15675,7.39333704 14.4926243,8.36900568 C14.4717644,8.39972909 14.2891546,8.66567779 14.1332633,8.85221791 C14.0236515,8.96257608 13.908406,9.07824448 13.7847082,9.20200475 L13.59247,9.39406175 C12.728914,10.2556207 11.448706,11.5178226 8.97780178,13.9445707 C8.71360856,14.2041452 8.36490797,14.3506513 7.99931645,14.3499876 C7.63541354,14.3505653 7.28623372,14.2037721 7.02157135,13.9436373 C4.40317636,11.3714873 3.12335181,10.1093241 2.49026797,9.48103967 L2.36828634,9.35987265 L2.36828634,9.35987265 L2.31379115,9.3056568 C1.72977329,8.68542252 1.53003667,8.40135564 1.50755702,8.36824764 C0.843670851,7.39340558 0.571357812,6.23842499 0.669412772,5.11933974 C0.767284222,4.00234886 1.23433039,2.91980447 2.06017176,2.08324353 C2.80649425,1.3105024 3.75173602,0.839774207 4.74115891,0.69666901 C5.72768456,0.553982857 6.7571482,0.737331005 7.67404127,1.26768368 Z" id="路径" stroke="#000000" stroke-width="1.3"></path>
            <path d="M5.32440876,7.04485934 C5.00856548,6.72944681 4.51129851,6.7451079 4.21368098,7.07984097 C3.91620739,7.41472717 3.93115894,7.94180144 4.24707748,8.25713928 L6.67559122,10.6825321 C6.82118315,10.8283221 7.01396733,10.9094017 7.21425687,10.9090813 C7.43086349,10.9095196 7.63796588,10.8148387 7.786319,10.6475505 C8.08379261,10.3126643 8.06884107,9.78559 7.75292252,9.47025215 L5.32440876,7.04485934 Z" id="路径" fill="#000000"></path>
            <path d="M15.5,4.43781229 C15.5,7.66353988 12.5301105,9.97243931 10.2604249,13.3714892 C9.95658205,13.8265201 11.7020022,15.0006923 12.2203696,15 C12.7382327,15.0008099 13.2368298,14.8032041 13.6139586,14.4475871 C18.5029428,9.83929697 18.6038793,9.72525512 18.6524784,9.67073144 C18.824029,9.47677704 19.0337942,9.1845968 19.0570553,9.15171612 C20.5158011,7.09495579 20.2580297,4.27923186 18.4501899,2.52272072 C17.2071751,1.28781746 15.4650968,0.78185472 13.8111955,1.08634832 C13.2638942,1.18710991 16.0067099,4.15659887 15.5,4.43781229 Z" id="路径" fill="#000000" opacity="0.2"></path>
        </g>
    </g>
</svg>