<?xml version="1.0" encoding="UTF-8"?>
<svg width="24px" height="24px" viewBox="0 0 24 24" version="1.1" xmlns="http://www.w3.org/2000/svg" xmlns:xlink="http://www.w3.org/1999/xlink">
    <title>icons_outlined_stickychat</title>
    <g id="页面-1" stroke="none" stroke-width="1" fill="none" fill-rule="evenodd">
        <g id="编组-10备份" transform="translate(4.000000, 5.000000)">
            <rect id="矩形备份-9" stroke="#000000" opacity="0.400390625" x="6.5" y="9.5" width="10" height="3" rx="1.5"></rect>
            <rect id="矩形备份-10" stroke="#000000" opacity="0.400390625" x="0.5" y="1.5" width="10" height="3" rx="1.5"></rect>
            <path d="M2.89728448,7.09416602 C3.10995757,7.19348136 3.2809184,7.36444219 3.38023374,7.57711528 L4.17930599,9.28482693 C4.68342168,9.74220292 5,10.4025607 5,11.1368593 C5,12.5175712 3.88071187,13.6368593 2.5,13.6368593 C1.11928813,13.6368593 0,12.5175712 0,11.1368593 C0,10.4482767 0.27838626,9.82471479 0.728749995,9.37258221 L1.56808923,7.57711528 C1.80177361,7.07670539 2.39687459,6.86048164 2.89728448,7.09416602 Z" id="形状结合" fill="#000000" opacity="0.178083147" transform="translate(2.500000, 10.318430) rotate(-180.000000) translate(-2.500000, -10.318430) "></path>
            <path d="M14.8972845,0.0941660215 C15.1099576,0.193481363 15.2809184,0.364442189 15.3802337,0.57711528 L16.179306,2.28482693 C16.6834217,2.74220292 17,3.40256069 17,4.13685928 C17,5.51757116 15.8807119,6.63685928 14.5,6.63685928 C13.1192881,6.63685928 12,5.51757116 12,4.13685928 C12,3.44827674 12.2783863,2.82471479 12.72875,2.37258221 L13.5680892,0.57711528 C13.8017736,0.0767053919 14.3968746,-0.139518356 14.8972845,0.0941660215 Z" id="形状结合备份-2" fill="#000000" opacity="0.184337798"></path>
        </g>
    </g>
</svg>