<?xml version="1.0" encoding="UTF-8"?>
<svg width="24px" height="24px" viewBox="0 0 24 24" version="1.1" xmlns="http://www.w3.org/2000/svg" xmlns:xlink="http://www.w3.org/1999/xlink">
    <title>icons_outlined_brand_totext</title>
    <g id="页面-1" stroke="none" stroke-width="1" fill="none" fill-rule="evenodd">
        <g id="icons_outlined_brand_totext" transform="translate(2.000000, 1.000000)" fill-rule="nonzero">
            <g id="common_icons_info" transform="translate(0.000000, 3.000000)">
                <path d="M10,0.65 C12.5819312,0.65 14.9194312,1.6965344 16.6114484,3.3885516 C18.3034656,5.08056879 19.35,7.41806879 19.35,10 C19.35,12.5819312 18.3034656,14.9194312 16.6114484,16.6114484 C14.9194312,18.3034656 12.5819312,19.35 10,19.35 C7.41806879,19.35 5.08056879,18.3034656 3.3885516,16.6114484 C1.6965344,14.9194312 0.65,12.5819312 0.65,10 C0.65,7.41806879 1.6965344,5.08056879 3.3885516,3.3885516 C5.08056879,1.6965344 7.41806879,0.65 10,0.65 Z" id="形状结合-path" stroke="#000000" stroke-width="1.3"></path>
                <polygon id="形状结合-path" fill="#000000" opacity="0.203078497" points="13 13 7 13 7 15 13 15"></polygon>
                <polygon id="形状结合-path" fill="#000000" opacity="0.202590216" points="6.5 9 4.5 9 4.5 11 6.5 11"></polygon>
                <polygon id="形状结合-path" fill="#000000" points="9.5 9 7.5 9 7.5 11 9.5 11"></polygon>
                <polygon id="形状结合-path" fill="#000000" opacity="0.202590216" points="12.5 9 10.5 9 10.5 11 12.5 11"></polygon>
                <polygon id="形状结合-path" fill="#000000" points="15.5 9 13.5 9 13.5 11 15.5 11"></polygon>
                <polygon id="形状结合-path" fill="#000000" points="6.5 6 4.5 6 4.5 8 6.5 8"></polygon>
                <polygon id="形状结合-path" fill="#000000" opacity="0.202590216" points="9.5 6 7.5 6 7.5 8 9.5 8"></polygon>
                <polygon id="形状结合-path" fill="#000000" points="12.5 6 10.5 6 10.5 8 12.5 8"></polygon>
                <polygon id="形状结合-path" fill="#000000" opacity="0.202590216" points="15.5 6 13.5 6 13.5 8 15.5 8"></polygon>
            </g>
            <polygon id="路径-2备份" fill="#020202" opacity="0.202125186" transform="translate(10.000000, 1.000000) rotate(-180.000000) translate(-10.000000, -1.000000) " points="8 0 12 0 10 2"></polygon>
        </g>
    </g>
</svg>