<?xml version="1.0" encoding="UTF-8"?>
<svg width="24px" height="24px" viewBox="0 0 24 24" version="1.1" xmlns="http://www.w3.org/2000/svg" xmlns:xlink="http://www.w3.org/1999/xlink">
    <title>icons_outlined_live_nearby</title>
    <g id="页面-1" stroke="none" stroke-width="1" fill="none" fill-rule="evenodd">
        <g id="附近备份" transform="translate(4.000000, 3.000000)" fill-rule="nonzero">
            <path d="M17.9972433,9.60625 C17.9972433,6.68125 16.3666828,4.32499999 14.3284821,4 C14.4449508,4.56874999 14.5031851,5.21875 14.5031851,5.86874999 C14.5031851,5.86874999 14.5614194,6.51874999 14.3867165,7.57499999 C14.9108252,7.81874999 13.920842,8.875 13.920842,9.60625 C13.920842,10.6625 13.920842,11.15 13.920842,11.15 C13.6947774,11.0283089 14.0955449,11.5883749 13.920842,11.5071249 L13.338499,13.0784793 C12.8143902,13.8909793 12.5241087,13.1 12,13.75 C13.2811547,15.7 13.920842,17 13.920842,17 C13.920842,17 15.4931682,15.8625 16.8325573,13.75 C18.113712,11.6375 17.9972434,9.60625 17.9972433,9.60625 Z" id="路径" fill="#000000" opacity="0.200520833"></path>
            <path d="M7.499,0.65 L7.79679094,0.656484227 C9.568052,0.734031507 11.1639884,1.50239141 12.3360868,2.70549973 C13.5782008,3.98047609 14.3446615,5.74310075 14.3446623,7.69192438 C14.343212,8.61465059 14.1677522,10.7879561 12.4210513,12.9584047 C10.4892987,15.3262867 8.29333213,16.7703704 7.49937634,17.2493791 C6.70419897,16.7720861 4.50822527,15.3402222 2.5816761,13.0364594 C0.836655392,10.8681216 0.65638587,8.70069898 0.650201125,8.01391073 C0.652547752,5.92285622 1.40773736,4.08704731 2.64059808,2.76979372 C3.87904757,1.44656879 5.59831952,0.65 7.5,0.65 L7.499,0.65 Z" id="路径" stroke="#000000" stroke-width="1.3"></path>
            <path d="M7.5,10 C6.14285714,10 5,8.89705883 5,7.5 C5,6.10294115 6.14285714,5 7.5,5 C8.85714284,5 10,6.02941177 10,7.42647058 C10,8.8235294 8.85714286,10 7.5,10 L7.5,10 Z" id="路径" fill="#000000" opacity="0.197707403"></path>
        </g>
    </g>
</svg>