<?xml version="1.0" encoding="UTF-8"?>
<svg width="24px" height="24px" viewBox="0 0 24 24" version="1.1" xmlns="http://www.w3.org/2000/svg" xmlns:xlink="http://www.w3.org/1999/xlink">
    <title>icons_outlined_searchicon_music</title>
    <g id="页面-1" stroke="none" stroke-width="1" fill="none" fill-rule="evenodd">
        <g id="音乐备份" transform="translate(-1.000000, 2.000000)" fill="#000000">
            <path d="M21.5270805,4.77219167 C21.3826596,4.52819561 21.1179604,4.38096009 20.8344899,4.38694711 C20.5510195,4.39293412 20.2927729,4.55121447 20.1587827,4.80109069 C20.0247926,5.05096692 20.0358544,5.35365779 20.1877262,5.59308719 C21.0007653,6.91673213 21.4288874,8.43676355 21.4288874,10 C21.4288874,14.6465043 17.6464878,18.4289081 12.9999888,18.4289081 C8.35348969,18.4289081 4.57109015,14.6465043 4.57109015,10 C4.57109015,5.35349566 8.35348967,1.57109192 12.9999888,1.57109192 C13.4320385,1.57109192 13.7855338,1.21759624 13.7855338,0.785545946 C13.7855338,0.353495656 13.4320385,0 12.9999888,0 C7.48546237,0 3,4.48546739 3,10 C3,15.5145326 7.48546235,20 12.9999888,20 C18.5145152,20 23,15.5145326 23,10 C23.0039052,8.15003927 22.4933009,6.33935585 21.5270805,4.77219167 Z" id="路径" fill-rule="nonzero"></path>
            <path d="M13.0133929,7.35501859 C11.351461,7.35501859 10,8.84510534 10,10.6775093 C10,12.5099133 11.351461,14 13.0133929,14 C14.6753247,14 16.0267857,12.5099133 16.0267857,10.6775093 L16.0267857,3.44454772 C16.0267857,2.98543991 16.3664773,2.61090459 16.7828734,2.61090459 C17.1992695,2.61090459 17.538961,2.98543991 17.538961,3.44454772 C17.538961,3.88754647 17.8676948,4.25 18.2694805,4.25 C18.6712662,4.25 19,3.88754647 19,3.44454772 C19,2.09541513 18.0064935,1 16.7828734,1 C15.5592532,1 14.5657467,2.09541511 14.5657467,3.44454772 L14.5657467,7.83426272 C14.0974897,7.52173939 13.5607565,7.35603862 13.0133929,7.35501859 L13.0133929,7.35501859 Z M13.0133929,12.3890954 C12.1568847,12.3868812 11.4630472,11.6218735 11.461039,10.6775093 C11.4630472,9.73314507 12.1568847,8.96813741 13.0133929,8.96592318 C13.869901,8.96813741 14.5637385,9.73314507 14.5657467,10.6775093 C14.5637385,11.6218735 13.869901,12.3868812 13.0133929,12.3890954 L13.0133929,12.3890954 Z" id="形状" fill-rule="nonzero"></path>
            <path d="M21.5,14.5434269 C22.2884589,12.8639099 22.7757064,13.0035191 21.5,11 C17.3578644,11 14,14.3578644 14,18.5 C14,22.6421356 20.7115411,16.2229439 21.5,14.5434269 Z" id="椭圆形" opacity="0.200567336"></path>
            <path d="M7.43179011,8.39715233 C8.00282256,7.2609477 8.35570602,7.35539426 7.43179011,6 C4.43189527,6 2,8.271618 2,11.0738008 C2,13.8759836 6.86075765,9.53335697 7.43179011,8.39715233 Z" id="椭圆形备份-11" opacity="0.200567336" transform="translate(5.000000, 9.000000) rotate(-211.000000) translate(-5.000000, -9.000000) "></path>
        </g>
    </g>
</svg>