<?xml version="1.0" encoding="UTF-8"?>
<svg width="24px" height="24px" viewBox="0 0 24 24" version="1.1" xmlns="http://www.w3.org/2000/svg" xmlns:xlink="http://www.w3.org/1999/xlink">
    <title>icons_filled_finder_fire</title>
    <g id="页面-1" stroke="none" stroke-width="1" fill="none" fill-rule="evenodd">
        <g id="icon_outline_shocked备份-2" transform="translate(4.000000, 2.000000)">
            <path d="M7.12434331,0.979702707 C7.70238495,1.29505996 8.41968147,1.82721325 9.05676277,2.53515527 C9.8167904,3.37971859 10.4680918,4.50101643 10.6636519,5.8968829 C10.8199769,7.01269802 10.6837634,8.29876408 10.102184,9.75358963 C9.91405099,10.2242058 9.70433017,10.6499019 9.47712016,11.0340969 C10.1502517,10.9598502 10.6698564,10.7524221 11.0138944,10.5671821 C11.6179794,10.2419253 12.5771515,9.50244385 13.1235596,7.98532395 C14.2914274,8.95390451 15.0422577,10.2598169 15.0968053,11.7166534 C15.0951492,13.1001971 14.5398625,14.337814 13.6179738,15.3083033 C12.7782786,16.1922662 11.6382564,16.855717 10.3285393,17.2184164 C10.2220836,16.3954048 10.020692,15.6976559 9.7614557,15.1685169 C9.55838919,14.7540285 9.31584877,14.4342773 9.05740216,14.2140385 C8.72945733,13.9345757 8.36940244,13.8008589 8,13.8008589 C7.62416117,13.8008589 7.25778578,13.9400367 6.92577207,14.2240947 C6.65902905,14.4523096 6.41094461,14.7823491 6.20618595,15.2001604 C5.9426252,15.7379577 5.7455719,16.4318652 5.6548001,17.213279 C4.39700075,16.8627844 3.296637,16.236974 2.46846811,15.4195485 C1.54295306,14.5060396 0.95938472,13.3516411 0.90429526,12.0847515 C0.904020761,10.4404213 1.59469525,9.11516033 2.71918088,8.12009111 L2.71918088,8.12009111 L3.61625624,7.36324697 C4.68382563,6.46032224 6.03584951,5.1982254 6.71290248,3.65263157 C7.07073106,2.83577131 7.24919285,1.9424336 7.12434331,0.979702707 Z" id="形状结合-path" stroke="#000000" stroke-width="1.3" fill-rule="nonzero"></path>
            <path d="M3.5,16.492 C4.2100701,16.492 4.87075312,17.6677195 5.42251616,17.0967102 C6.3727965,16.1132829 7,14.4217417 7,12.5 C7,9.46243388 5.43299662,7 3.5,7 C1.72667525,8.24663306 1.15,9.08901523 1.15,12.1265814 C1.15,15.1641475 1.56700338,16.492 3.5,16.492 Z" id="椭圆形" fill="#000000" opacity="0.198428199"></path>
        </g>
    </g>
</svg>