<?xml version="1.0" encoding="UTF-8"?>
<svg width="24px" height="24px" viewBox="0 0 24 24" version="1.1" xmlns="http://www.w3.org/2000/svg" xmlns:xlink="http://www.w3.org/1999/xlink">
    <title>icons_filled_ear</title>
    <g id="页面-1" stroke="none" stroke-width="1" fill="none" fill-rule="evenodd">
        <g id="icons_filled_ear备份" transform="translate(6.000000, 2.000000)" fill="#000000">
            <circle id="椭圆形" opacity="0.202683222" cx="6" cy="17" r="2"></circle>
            <path d="M10.6656407,16.381743 L10.6643407,16.4162682 L10.6642525,16.4334749 C10.6542271,17.4530279 10.1536169,18.3653184 9.31864237,19.0255866 L9.29297288,19.0456983 C8.51334746,19.6524469 7.49568983,20 6.5,20 C5.55974746,20 4.6694678,19.7153073 4.03665424,19.1530056 C3.28331525,18.4836201 2.9626339,17.4912626 3.15985932,16.2919553 C3.28628983,15.5231061 3.27119661,14.8009162 3.12879153,14.0716201 C3.07546949,13.7985698 3.00502712,13.5254302 2.91515085,13.2418771 L2.89752373,13.1868603 C2.87021603,13.1027074 2.84173067,13.0189522 2.81207627,12.9356201 L2.79171695,12.8788603 C2.76013259,12.7917384 2.7274758,12.7050203 2.69375424,12.6187263 L2.67055254,12.5597318 L2.64682203,12.5002905 C2.6428339,12.4903687 2.63882373,12.4804022 2.63476949,12.4704134 L2.61024576,12.410257 C2.60198305,12.3901229 2.5936322,12.3698994 2.58519322,12.3495866 L2.55958983,12.2884022 L2.53345763,12.2267039 L2.50675254,12.1644246 L2.49320169,12.133095 L2.46568136,12.0699665 L2.43789661,12.006905 C2.18891356,11.4464581 1.93072034,10.9843575 1.62405254,10.5238659 L1.5977,10.484514 L1.56187288,10.4320894 L1.51178983,10.3600894 L1.41788136,10.2266369 L1.25505085,9.99722905 L0.97720339,9.60639106 L0.924366102,9.53141899 L0.871176271,9.45528492 L0.845176271,9.41747486 L0.833476271,9.40011173 C0.248762712,8.5242905 0,7.7298324 0,6.45810056 C0,2.83805587 2.8887322,0 6.5,0 C10.1039305,0 13,2.87588827 13,6.5027933 C13,7.99709497 12.5083576,9.38037989 11.6013763,10.5437542 C11.3749559,10.8341899 10.9592424,10.883486 10.6728678,10.6538547 C10.3893797,10.4265028 10.3389,10.0110391 10.5576305,9.72093855 L10.5643288,9.71217877 C11.2899492,8.78145251 11.6779661,7.68969832 11.6779661,6.5027933 C11.6779661,3.6227933 9.37996271,1.34078212 6.5,1.34078212 C3.60963729,1.34078212 1.3220339,3.58826816 1.3220339,6.45810056 C1.3220339,6.68726257 1.33208136,6.89414525 1.35195593,7.08317318 L1.35653898,7.12489385 C1.38419153,7.36652514 1.42836949,7.57868156 1.48858814,7.77099441 C1.57985254,8.06243575 1.70877288,8.31713966 1.91494407,8.62846927 L1.93521525,8.65886034 L1.9565661,8.68989944 L1.99316441,8.74230168 L2.07927288,8.86408939 L2.42965593,9.35675978 L2.5181661,9.48189944 L2.61117119,9.61456983 L2.65374068,9.67604469 L2.68013729,9.71461453 L2.69853559,9.74187709 C3.04827966,10.2636201 3.34505424,10.7901899 3.62726441,11.4203799 L3.65099492,11.4736536 L3.65872881,11.4911732 C3.72922539,11.6508398 3.79724508,11.8116194 3.86276271,11.9734525 L3.8896,12.0404246 C4.13767966,12.6635084 4.31238644,13.2310391 4.42566271,13.8111955 C4.59646949,14.6860112 4.61654237,15.560581 4.46920169,16.4796648 L4.46386949,16.512514 C4.33992881,17.2663017 4.50925932,17.7903687 4.90785254,18.144514 C5.27795593,18.4733855 5.8590339,18.6592179 6.5,18.6592179 C7.20578983,18.6592179 7.94031186,18.4083352 8.48816271,17.9819888 C9.03284068,17.5581229 9.33624746,17.0117095 9.34228475,16.4201788 L9.34237288,16.4022346 C9.34236941,16.3930251 9.34255307,16.3838164 9.34292373,16.3746145" id="路径" fill-rule="nonzero"></path>
            <path d="M8.16234746,12.755486 L8.14617458,12.7336313 L8.10263559,12.6809609 L8.0325678,12.5967374 L7.99837119,12.5559106 L7.96474746,12.5159106 L7.93167458,12.4767151 L7.88302373,12.4194413 L7.83551864,12.3639106 L7.80447288,12.3278436 L7.75879661,12.2751508 L7.7141339,12.224067 L7.67048475,12.1745698 L7.64188475,12.1424134 L7.61370339,12.1109497 L7.58594068,12.0801117 L7.55850847,12.0499218 L7.53147288,12.0203575 L7.49159153,11.9771173 L7.46539322,11.9490503 L7.43952542,11.9215419 L7.40131864,11.8813184 L7.36375085,11.8423017 L7.33907288,11.8169385 L7.31461525,11.792067 L7.29042203,11.7676872 L7.26644915,11.7437765 L7.23088644,11.7087598 L7.20744237,11.6859665 L7.18419661,11.6635754 L7.16110508,11.6416089 L7.14960339,11.6307709 L7.12675424,11.6093631 L7.10405932,11.5883575 L7.08145254,11.5676872 L7.04778475,11.5372961 L7.03661356,11.527352 L7.01433729,11.5076648 L6.99212712,11.4882682 L6.98104407,11.4786592 L6.95892203,11.4596872 L6.9368661,11.4409832 L6.9148322,11.4225028 L6.89279831,11.4042682 L6.87076441,11.386257 L6.84873051,11.3684469 L6.82669661,11.3507933 L6.80437627,11.3331844 L6.7757322,11.3108156 L6.76112373,11.2995307 L6.7313339,11.2767151 L6.70059661,11.2534302 L6.66875763,11.2295642 L6.62806102,11.1993966 L6.58923729,11.1709274 L6.52005085,11.120648 L6.25842034,10.932514 L6.20011864,10.890324 L6.14360169,10.849162 L6.11590508,10.8288939 L6.06139322,10.7887821 C6.05242676,10.7821611 6.0434663,10.7755316 6.03451186,10.7688939 L5.9811678,10.7291844 L5.92815424,10.6894078 C5.87436994,10.6488633 5.8208266,10.6079911 5.76752712,10.5667933 C4.45880169,9.55562011 3.67020847,8.19177654 3.64176271,6.55027933 C3.63764864,6.51973039 3.63559321,6.48893311 3.63559321,6.45810056 C3.63559321,4.85369832 4.9180322,3.55307263 6.5,3.55307263 C8.0819678,3.55307263 9.36440678,4.85369832 9.36440678,6.45810056 C9.36440678,6.54453631 9.36222542,6.63436872 9.35788475,6.72764246 L9.35552712,6.77456983 L9.35281695,6.82205587 C9.35235424,6.83001117 9.35184746,6.83801117 9.35134068,6.84601117 L9.34807966,6.89436872 C9.34576182,6.92720427 9.34323522,6.96002431 9.3405,6.99282682 L9.33618136,7.04292737 L9.3338678,7.06817877 L9.32902034,7.11912849 L9.32377627,7.17068156 C9.32196949,7.18795531 9.32011864,7.20531844 9.31820169,7.2227933 L9.31225254,7.27550838 C9.30716271,7.3196648 9.30167627,7.36444693 9.29583729,7.40981006 L9.28865424,7.46455866 C9.28493619,7.49231963 9.28111695,7.52006656 9.27719661,7.54779888 L9.26911017,7.60402235 L9.26494576,7.63235754 L9.25635254,7.68947486 L9.24736271,7.74717318 L9.23804237,7.80545251 L9.22836949,7.8643352 L9.21834407,7.92382123 L9.21318814,7.95376536 L9.2026339,8.01414525 L9.19172712,8.07510615 C9.18802542,8.09553073 9.18427966,8.11604469 9.1804678,8.13667039 C9.11315424,8.50058101 8.76772881,8.74024581 8.40892881,8.672 C8.05010678,8.60373184 7.81379322,8.25340782 7.88108475,7.88949721 L7.89091186,7.83584358 L7.90043051,7.78277095 L7.90961864,7.73030168 L7.91852034,7.6784581 L7.92283898,7.65275978 L7.93125593,7.60178771 L7.93535424,7.57653631 L7.94330847,7.52648045 L7.95097627,7.47705028 L7.95831356,7.42822346 L7.96534237,7.38 L7.97206271,7.33240223 L7.97845254,7.28540782 L7.98457797,7.23901676 L7.99037288,7.19322905 L7.99585932,7.14808939 L8.00103729,7.10353073 L8.00588475,7.05959777 C8.00667797,7.0523352 8.00747119,7.04507263 8.00822034,7.03787709 L8.01262712,6.99486034 C8.01335424,6.98775419 8.01403729,6.98064804 8.01472034,6.97358659 L8.01868644,6.93150838 C8.01994237,6.91758659 8.02115424,6.90377654 8.02232203,6.89005587 L8.02567119,6.8492067 L8.02721356,6.82902793 L8.0301,6.78911732 L8.03267797,6.7498324 L8.03494746,6.71117318 L8.03693051,6.67313966 L8.03781186,6.65436872 L8.03931017,6.61727374 L8.03997119,6.59894972 L8.04100678,6.5627933 C8.04191017,6.52694972 8.04237288,6.49204469 8.04237288,6.45810056 C8.04237288,5.59418994 7.35183051,4.89385475 6.5,4.89385475 C5.67187797,4.89385475 4.99618644,5.55575419 4.95921356,6.38636872 C4.96172542,6.40992179 4.96300339,6.43385475 4.96300339,6.45810056 C4.96300339,7.68741899 5.54284746,8.7076648 6.56867966,9.50024581 L6.59379831,9.51962011 L6.64346271,9.55767598 L6.69264237,9.59506145 L6.74171186,9.63202235 L6.76630169,9.6504581 L6.8158339,9.68732961 L6.86613729,9.72444693 L6.91754237,9.76214525 L6.97042373,9.80064804 L7.05567288,9.86227933 L7.28079322,10.0240894 L7.34138644,10.0680223 L7.39618475,10.1081117 L7.43522881,10.1369385 L7.47691695,10.168067 L7.51728305,10.1985475 L7.55659153,10.2286034 C7.56952542,10.2385698 7.58234915,10.2484916 7.59506271,10.2584134 L7.62789322,10.2841788 L7.65543559,10.3060782 L7.6829339,10.3281788 L7.7103661,10.3504581 L7.73775424,10.3729832 L7.76507627,10.3957095 L7.79239831,10.4187263 L7.80605932,10.4303017 L7.83338136,10.4536983 L7.84704237,10.4654972 L7.87436441,10.4893184 L7.90175254,10.5134525 L7.92916271,10.5378994 L7.95666102,10.5627039 L7.98422542,10.5878659 L8.0119,10.6134078 L8.02578136,10.6263017 L8.05358814,10.6524246 L8.08157119,10.6789497 L8.10964237,10.7058994 L8.13791186,10.7332961 L8.15210169,10.7471508 L8.18063559,10.7752626 L8.20934576,10.8038212 L8.23827627,10.8328715 L8.26742712,10.8624581 L8.29682034,10.892581 L8.32647797,10.9232179 L8.35637797,10.9544358 L8.38656441,10.9862123 L8.41705932,11.0185922 L8.44784068,11.0515531 L8.47897458,11.085162 L8.51043898,11.1193966 L8.5422339,11.1542793 L8.57440339,11.1898547 L8.60699153,11.2260782 C8.6124685,11.2322038 8.61794026,11.2383341 8.62340678,11.2444693 L8.6565678,11.2817654 L8.69016949,11.3197765 L8.7241678,11.3585251 L8.75862881,11.3980335 L8.79355254,11.438324 L8.84683051,11.5002235 L8.90125424,11.5639106 L8.93816102,11.6074413 L8.97561864,11.6517989 L9.03279661,11.7199553 L9.09129661,11.7901229 L9.15109661,11.8623017 L9.1713678,11.886838 C9.1784039,11.8953794 9.18522918,11.9040972 9.19183729,11.9129832" id="路径" fill-rule="nonzero" opacity="0.199428013"></path>
        </g>
    </g>
</svg>