<?xml version="1.0" encoding="UTF-8"?>
<svg width="24px" height="24px" viewBox="0 0 24 24" version="1.1" xmlns="http://www.w3.org/2000/svg" xmlns:xlink="http://www.w3.org/1999/xlink">
    <title>icons_outlined_bellring_on</title>
    <g id="页面-1" stroke="none" stroke-width="1" fill="none" fill-rule="evenodd">
        <g id="任务提醒2备份" transform="translate(3.000000, 1.000000)">
            <path d="M10.6860197,18 L6.31400043,18 C6.14058341,18 6,18.1498757 6,18.3347552 C6,19.8043814 7.12151055,21 8.5,21 C9.87848945,21 11,19.8043599 11,18.3347552 C11,18.1498757 10.8594166,18 10.6860197,18 Z" id="路径" fill="#000000" fill-rule="nonzero" opacity="0.203008743"></path>
            <path d="M9,0.65 C9.29655661,0.65 9.56580476,0.767965611 9.76069219,0.959477066 C9.95142682,1.14690765 10.0708777,1.40531758 10.0708777,1.69106742 C10.0708777,1.87130051 10.0233566,2.04065696 9.94044535,2.18820754 C10.1462617,2.2212951 10.3507184,2.26489031 10.5528694,2.3189792 C11.7656274,2.64347295 12.8616738,3.33662257 13.6625403,4.29904003 C14.5343952,5.34672609 15.0149785,6.67026921 15.0149785,8.0261797 L15.0149785,8.0261797 L15.0149785,12.3246937 C15.7504649,12.0918818 16.4354487,12.2687861 16.8729473,12.6836904 C17.1695103,12.9649376 17.35,13.3547546 17.35,13.7855688 C17.35,14.2156091 17.1708218,14.6048635 16.8836497,14.8870649 C16.5923323,15.1733397 16.1899485,15.35 15.746563,15.35 L15.746563,15.35 L2.25343703,15.35 C1.8100552,15.35 1.40766789,15.1733399 1.1163476,14.8870622 C0.829178344,14.6048637 0.65,14.2156126 0.65,13.7855688 C0.65,13.3555227 0.829174607,12.966269 1.11634461,12.6840698 C1.54195789,12.2658236 2.20464612,12.0815586 2.88590676,12.3403306 L2.88590676,12.3403306 L2.98502609,8.03345778 C2.98330306,6.67500612 3.46404492,5.34860057 4.33746743,4.29903074 C5.1376101,3.3374831 6.23250189,2.64460821 7.44429229,2.32632816 C7.64739143,2.27298361 7.85280151,2.23041717 8.0593192,2.19858568 C7.97648282,2.05004355 7.92917316,1.87941721 7.92916867,1.69763557 C7.92916155,1.40915141 8.04829441,1.14875614 8.23949298,0.960133026 C8.43424858,0.768000801 8.70347278,0.65 9,0.65 L9,0.65 Z" id="路径" stroke="#000000" stroke-width="1.3" fill-rule="nonzero"></path>
            <rect id="矩形" fill="#050505" opacity="0.200544085" x="11" y="5" width="2" height="6" rx="1"></rect>
        </g>
    </g>
</svg>