<?xml version="1.0" encoding="UTF-8"?>
<svg width="24px" height="24px" viewBox="0 0 24 24" version="1.1" xmlns="http://www.w3.org/2000/svg" xmlns:xlink="http://www.w3.org/1999/xlink">
    <title>icons_filled_call</title>
    <g id="页面-1" stroke="none" stroke-width="1" fill="none" fill-rule="evenodd">
        <g id="icons_filled_call" transform="translate(2.000000, 2.000000)">
            <g id="XMLID_19_" transform="translate(0.500000, 0.500000)">
                <path d="M3.5549279,0.000277599731 L3.53826889,0 C3.49202511,0 3.44528872,0.00273616133 3.39784913,0.00784553137 C3.30044861,0.0183358238 3.20298332,0.0383109332 3.10435885,0.0651460401 L2.93288349,0.11820789 C1.17781192,0.762745482 0,2.40590127 0,4.27892031 C0,4.53516744 0.0287459952,4.79131085 0.0784511624,5.06134972 L0.143828466,5.38304336 C0.900182952,8.70010126 2.56832432,11.6818331 4.94288459,14.0566213 C7.31744985,16.4314144 10.2989083,18.0997228 13.5749729,18.8486095 C13.8387534,18.9247292 14.2903351,19 14.7197153,19 C16.5925988,19 18.2356138,17.822063 18.8750772,16.0811345 L18.929219,15.9255708 C18.964757,15.8113418 18.9889835,15.6992151 18.9971556,15.5835713 C19.0010385,15.5286243 19.0010649,15.4741495 18.9965463,15.4199208 C18.9539891,14.7804696 18.5773815,14.2276539 17.9990881,13.9829678 L14.4947558,12.6644021 C14.1579991,12.5517588 13.9514404,12.5893185 13.6474465,12.7551493 L12.2732802,13.506624 L11.4145326,13.9670964 L10.9420728,14.215644 C10.7974491,14.2934616 10.6622307,14.3290488 10.5093224,14.3290488 C10.3553743,14.3290488 10.2134506,14.2864676 10.0773685,14.2027168 C8.88966674,13.502936 7.89415707,12.7543884 7.07187059,11.9180847 C6.24069899,11.0868083 5.49117348,10.0848712 4.80191982,8.91463061 C4.71694505,8.77635508 4.67059896,8.61927825 4.67059896,8.47429306 C4.67059896,8.33034045 4.70948239,8.17997676 4.78049353,8.04808626 L5.1527283,7.33455966 L5.73995158,6.24369071 L6.23953536,5.34445256 C6.41011382,5.03190003 6.45016622,4.80491464 6.33699625,4.49366737 L5.02416581,1.00266253 C4.76912085,0.39871892 4.2072181,0.0220226929 3.5549279,0.000277599731 Z" id="Combined-Shape" stroke="#000000" fill-rule="nonzero"></path>
                <path d="M15,19 C17.209139,19 18.3614997,17.7778806 19,16.5 C19.6385003,15.2221194 17.209139,12.5 15,12.5 C14.0238037,12.5 12.3164909,13.8496666 10.5,13.9947012 C9.84170637,14.0472615 8.26083558,12.6381104 7.767155,12.7625174 C6.54029333,13.0716853 5.85190825,13.6208294 5.85190825,14.5 C5.85190825,16.709139 12.790861,19 15,19 Z" id="椭圆形备份-9" fill="#000000" opacity="0.202566964"></path>
            </g>
        </g>
    </g>
</svg>