<?xml version="1.0" encoding="UTF-8"?>
<svg width="10px" height="18px" viewBox="0 0 10 18" version="1.1" xmlns="http://www.w3.org/2000/svg" xmlns:xlink="http://www.w3.org/1999/xlink">
    <title>icons_outlined_back</title>
    <g id="页面-1" stroke="none" stroke-width="1" fill="none" fill-rule="evenodd">
        <g id="icons_outlined_back" fill="#000000" fill-rule="nonzero">
            <path d="M4.08499068,9.10073966 C1.37131361,9.19037154 0.0105006359,9.15961879 0.00255176835,9.00848142 C-0.00937155106,8.78179621 0.020491638,8.56361324 0.0920974124,8.3538492 C0.163812968,8.14414766 0.283199848,7.97133093 0.450477616,7.83531563 L7.09747396,1.47612647 C7.43187577,1.15872966 7.83204247,1 8.29788621,1 C8.76370801,1 9.16385275,1.15872966 9.49827651,1.47612647 C9.66555428,1.63477278 9.79095769,1.81613345 9.87457462,2.0202085 C9.95814762,2.22420019 10,2.43113015 10,2.64081084 C10,2.85051238 9.95814763,3.05458742 9.87457462,3.2529526 C9.79097965,3.45125528 9.66557623,3.62984437 9.49829847,3.78849068 L4.08499068,9.10073966 Z" id="路径" opacity="0.198381696"></path>
            <path d="M4.08499068,9.10073966 L9.49582676,14.3037884 C9.66310453,14.4624347 9.78850795,14.6437954 9.87212487,14.8478704 C9.95569787,15.0518621 9.9975283,15.2587921 9.9975283,15.4684936 C9.9975283,15.6781743 9.95569788,15.8822285 9.87212487,16.0806354 C9.78850795,16.2789172 9.66310451,16.4575271 9.49582676,16.6161526 C9.161403,16.9449274 8.76125826,17.1092836 8.29543646,17.1092836 C7.82959272,17.1092836 7.42944797,16.9449274 7.09502421,16.6161526 L0.555469458,10.3590531 C0.388301489,10.2003234 0.256881508,10.0105022 0.161341266,9.78940176 C0.065779072,9.56840556 0.0120033681,9.34447108 2.04281037e-14,9.11776502 C-0.00789550177,8.96664154 1.35376806,8.96096643 4.08499068,9.10073966 Z" id="路径" opacity="0.71937779"></path>
        </g>
    </g>
</svg>