<?xml version="1.0" encoding="UTF-8"?>
<svg width="24px" height="24px" viewBox="0 0 24 24" version="1.1" xmlns="http://www.w3.org/2000/svg" xmlns:xlink="http://www.w3.org/1999/xlink">
    <title>icons_filled_folder</title>
    <g id="页面-1" stroke="none" stroke-width="1" fill="none" fill-rule="evenodd">
        <g id="钱包" transform="translate(2.000000, 4.000000)">
            <path d="M1.8999306,2 L17.1000694,2 C18.149385,2 19,2.78346589 19,3.74994667 L19,14.2500533 C19,15.2165341 18.149385,16 17.1000694,16 L1.8999306,16 C0.85061501,16 4.72576289e-08,15.2165341 4.72576289e-08,14.2500533 L4.72576289e-08,3.74994667 C-0.000231491339,2.78346589 0.850383424,2 1.8999306,2 Z" id="路径" stroke="#000000" stroke-width="1.3" fill-rule="nonzero"></path>
            <path d="M2,0 L8,0 C8.55228475,-1.01453063e-16 9,0.44771525 9,1 C9,1.55228475 8.55228475,2 8,2 L2,2 C1.44771525,2 1,1.55228475 1,1 C1,0.44771525 1.44771525,1.01453063e-16 2,0 Z" id="矩形" fill="#000000"></path>
            <rect id="矩形" fill="#000000" opacity="0.199730283" x="7" y="6" width="10" height="2" rx="1"></rect>
            <circle id="椭圆形" fill="#000000" opacity="0.197870164" cx="3.5" cy="12.5" r="1.5"></circle>
            <rect id="矩形备份-7" fill="#000000" opacity="0.199730283" x="12" y="10" width="5" height="2" rx="1"></rect>
        </g>
    </g>
</svg>