<?xml version="1.0" encoding="UTF-8"?>
<svg width="24px" height="24px" viewBox="0 0 24 24" version="1.1" xmlns="http://www.w3.org/2000/svg" xmlns:xlink="http://www.w3.org/1999/xlink">
    <title>icons_outlined_channels_fire</title>
    <g id="页面-1" stroke="none" stroke-width="1" fill="none" fill-rule="evenodd">
        <g id="icons_outlined_fire备份-2" transform="translate(4.000000, 2.000000)" fill="#000000">
            <path d="M7.4002686,0.51733398 C9.1690386,0.51733398 10.5617676,2.00476074 11.0305176,3.49035645 C11.2346878,4.13742716 11.1847377,4.81391807 11.098163,5.43953254 L10.9801209,6.2364868 C10.8954902,6.86374224 10.8849832,7.38412874 11.2469482,7.6875 C11.8873479,8.2242338 12.6613026,7.61834608 13.2291981,6.88708393 L13.3930453,6.6649613 L13.5424913,6.44141968 C13.5896801,6.36734747 13.634129,6.29405602 13.6754984,6.22256256 C14.6001438,7.88791371 15.149706,9.8273262 15.149706,11.850294 C15.149706,15.0183442 13.0892103,17.7051399 10.2352557,18.6436441 C9.8252256,18.7784798 9.2562994,18.5409987 9.2973673,18.0786155 C9.3084488,17.9538482 9.3140869,17.8042798 9.3140869,17.6202393 C9.3140869,16.7541504 8.8771337,15.8807373 8.0032272,15 C7.1135025,15.8807373 6.6686401,16.7541504 6.6686401,17.6202393 C6.6686401,17.7764871 6.6817183,17.9307429 6.7070385,18.0796624 C6.7617687,18.4015555 6.2375732,18.7939201 5.85811271,18.6748438 C2.95644557,17.7642885 0.85029398,15.0532503 0.85029398,11.850294 C0.85029398,9.2471615 2.17506162,7.30464261 3.16907932,6.23888111 L3.40973507,5.9908316 L3.63086124,5.78006414 C3.66576879,5.74808477 3.69962309,5.71769008 3.73230439,5.68889572 C3.53691572,6.5929535 3.53450481,8.4161147 3.89442156,8.6773467 C3.89891806,8.6806103 3.91090588,8.6672186 3.91234145,8.6576506 C4.14941008,7.07761185 4.80665978,5.92433266 5.50276664,4.97594607 L5.76488337,4.62947211 L6.0261743,4.29960683 L6.5284043,3.67930228 L6.7604061,3.38366301 C7.4678279,2.45867459 7.8939654,1.62707481 7.4002686,0.51733398 Z M13.384,8.506 L13.3529125,8.5344979 C12.4776458,9.2683068 11.4815137,9.4498306 10.4761302,8.6071954 C9.7992877,8.039918 9.6436764,7.57572126 9.7368057,6.55881347 L9.7766877,6.19847385 L9.8327521,5.7917952 L9.8951791,5.37430854 L9.9392409,5.03834805 L9.9652827,4.75903098 L9.9740688,4.51759903 C9.9742065,4.44135164 9.9715955,4.36829204 9.9663634,4.29529387 C9.9545931,4.13107699 9.9281068,3.98447004 9.8861331,3.85144406 C9.6783705,3.19298797 9.2657167,2.61326528 8.7612011,2.22485222 L8.723,2.196 L8.6979507,2.30189641 C8.6243676,2.56994493 8.5169219,2.83646844 8.3775412,3.10273274 L8.267048,3.30240213 C8.1021262,3.58524121 7.911868,3.85766325 7.6538905,4.19015343 L6.6670749,5.42440616 C5.84691437,6.48926373 5.3676862,7.40951076 5.14848739,8.5466836 L5.09905815,8.8357053 C4.98701793,9.5824422 4.23888306,10.4101277 3.18954356,9.6485043 C2.99649816,9.5083896 2.84218898,9.3014163 2.72224859,9.0477687 L2.701,8.998 L2.59852654,9.22479 C2.28812034,9.9449444 2.09237693,10.7331342 2.05633231,11.569681 L2.05029398,11.850294 C2.05029398,14.1240502 3.33374248,16.1241069 5.23931668,17.1241725 L5.488,17.247 L5.49618559,17.1641093 C5.61519845,16.1823858 6.1175829,15.2435222 6.9588767,14.3520552 L7.1590174,14.1471755 L8.0108334,13.3039639 L8.8550522,14.1547816 C9.7996207,15.1067332 10.3613928,16.1126283 10.4870769,17.1659373 L10.495,17.253 L10.5433119,17.2315987 C12.5006495,16.30543 13.8568871,14.345878 13.9451282,12.0852012 L13.949706,11.850294 C13.949706,10.8613965 13.8021606,9.8770619 13.5205259,8.9303287 L13.384,8.506 Z" id="形状结合" fill-rule="nonzero"></path>
            <path d="M11.5,18 C12.8807119,18 14,15.7614237 14,13 C14,10.2385763 12.8807119,8 11.5,8 C10.1192881,8 9,10.2385763 9,13 C9,13.9431086 9.13055672,14.8252309 9.35749546,15.5780176 C9.56989141,16.2825638 10.7607699,16.4570405 11.1139992,16.8789722 C11.4884266,17.326225 11.0321784,18 11.5,18 Z" id="椭圆形" opacity="0.197405134" transform="translate(11.500000, 13.000000) rotate(19.000000) translate(-11.500000, -13.000000) "></path>
        </g>
    </g>
</svg>