<?xml version="1.0" encoding="UTF-8"?>
<svg width="13px" height="20px" viewBox="0 0 13 20" version="1.1" xmlns="http://www.w3.org/2000/svg" xmlns:xlink="http://www.w3.org/1999/xlink">
    <title>icons_outlined_arrow</title>
    <g id="页面-1" stroke="none" stroke-width="1" fill="none" fill-rule="evenodd">
        <g id="编组" transform="translate(4.000000, 6.000000)" fill="#000000" fill-rule="nonzero">
            <g id="指缘返回7备份" transform="translate(3.000000, 4.000000) rotate(-180.000000) translate(-3.000000, -4.000000) ">
                <path d="M2.50225221,3.99572803 C1.02116591,4.07697184 0.278454892,4.0798094 0.274119146,4.00424071 C0.267615518,3.8908981 0.28390453,3.78180662 0.322962225,3.6769246 C0.362079801,3.57207383 0.427199917,3.48566547 0.518442336,3.41765781 L4.1440767,0.238063236 C4.32647769,0.0793648289 4.54475044,2.22044605e-15 4.79884702,2.22044605e-15 C5.05293164,2.22044605e-15 5.27119241,0.0793648289 5.45360537,0.238063236 C5.54484779,0.31738639 5.61324965,0.408066727 5.65885888,0.510104249 C5.70444415,0.612100095 5.72727273,0.715565074 5.72727273,0.820405418 C5.72727273,0.925256188 5.70444416,1.02729371 5.65885888,1.1264763 C5.61326163,1.22562764 5.54485976,1.31492219 5.45361735,1.39424534 L2.50225221,3.99572803 Z" id="路径" opacity="0.198381696"></path>
                <path d="M2.50225221,3.99572803 L5.45361735,6.59725239 C5.54485976,6.67657554 5.61326163,6.76725588 5.65887086,6.8692934 C5.70445613,6.97128925 5.72727273,7.07475423 5.72727273,7.179605 C5.72727273,7.28444534 5.70445614,7.38647245 5.65887086,7.48567588 C5.61326163,7.58481679 5.54485975,7.67412177 5.45361735,7.7534345 C5.27120438,7.91782191 5.05294361,8 4.798859,8 C4.54476241,8 4.32650164,7.91782192 4.14408868,7.7534345 L0.577058814,4.62488473 C0.485876286,4.5455199 0.41419266,4.45060928 0.362079801,4.34005908 C0.309954967,4.22956098 0.280622765,4.11759374 0.274075474,4.00424071 C0.269768836,3.92867897 1.01249441,3.92584141 2.50225221,3.99572803 Z" id="路径" opacity="0.71937779"></path>
            </g>
        </g>
    </g>
</svg>