<?xml version="1.0" encoding="UTF-8"?>
<svg width="24px" height="24px" viewBox="0 0 24 24" version="1.1" xmlns="http://www.w3.org/2000/svg" xmlns:xlink="http://www.w3.org/1999/xlink">
    <title>icons_outlined_groupdetail_check</title>
    <g id="页面-1" stroke="none" stroke-width="1" fill="none" fill-rule="evenodd">
        <g id="icons_outlined_groupdetail_check备份" transform="translate(2.000000, 3.000000)" fill="#000000">
            <path d="M9.9,0 C12.109139,0 13.9,1.79298022 13.9,4.00020747 L13.9,5.71018568 C13.9,6.84929595 13.3009324,8.4828603 12.5680872,9.351573 L12.2065546,9.7801327 C11.9505779,10.0835668 11.8404693,10.4229419 11.8653023,10.7427561 L10.6631968,10.7428461 C10.642433,10.2041155 10.8072617,9.6462727 11.1762823,9.1491104 L11.2963845,8.9977468 L11.6508692,8.5778088 C12.1507036,7.9853064 12.6133368,6.79951305 12.6891059,5.94414452 L12.6996041,5.72706377 L12.7,4.00020747 C12.7,2.45477701 11.4454526,1.2 9.9,1.2 C8.4336855,1.2 7.21541547,2.3362998 7.10769102,3.79115933 L7.10024472,3.98630862 L7.1,5.70929053 C7.1,6.48567254 7.51044104,7.6858297 8.0061272,8.3901162 L8.138601,8.5632921 L8.510611,9.0048127 C9.561938,10.250882 9.2575812,11.9704941 7.86182431,12.7627064 L7.69078705,12.8526255 L2.0403663,15.6097766 C1.87287899,15.6915086 1.70033208,15.9435714 1.631938,16.1410707 L1.6079803,16.2400834 L1.6,16.44 L1.6,16.8 L9.899,16.799 L9.899,18 L1.40142961,18 C0.84835531,18 0.4,17.5557555 0.4,17.0015619 L0.4,16.3154633 C0.4,15.6303744 0.89815091,14.8319079 1.51409761,14.5313327 L7.17445076,11.769143 C7.99537712,11.36854 8.1862591,10.4812624 7.59344523,9.7786389 L7.23191269,9.350138 C6.49631763,8.4782852 5.9,6.84949648 5.9,5.70929053 L5.9,3.99958038 C5.9,1.79067313 7.69535616,0 9.9,0 Z" id="1.3pt" fill-rule="nonzero"></path>
            <path d="M12,8 C12.3245815,8 12.6371235,7.93127089 12.9298866,7.80413212 C14.131558,7.28228005 14.0502986,5.41812735 13.3906885,4 C12.9298866,3.00930009 13.6568542,1.42283172 12,1.42283172 C11.4537622,1.42283172 10.9416218,0.194651068 10.5004673,0.534768396 C9.60350757,1.2262985 9,2.51917809 9,4 C9,6.209139 10.3431458,8 12,8 Z" id="椭圆形" opacity="0.198544457"></path>
            <path d="M14.6444483,16.5531385 L19.8576058,11.339981 L20.7065093,12.1888846 L15.0696993,17.8240748 C14.8354041,18.0584087 14.4555051,18.0583541 14.2212242,17.8240059 C14.2212066,17.8239882 14.2211889,17.8239705 14.2212242,17.8238998 L11.4049784,15.0061402 L11.4049784,15.0061402 L12.2512142,14.1599044 L14.6444483,16.5531385 Z" id="Combined-Shape备份" fill-rule="nonzero" opacity="0.197102865"></path>
        </g>
    </g>
</svg>