<?xml version="1.0" encoding="UTF-8"?>
<svg width="24px" height="24px" viewBox="0 0 24 24" version="1.1" xmlns="http://www.w3.org/2000/svg" xmlns:xlink="http://www.w3.org/1999/xlink">
    <title>icons_filled_WeChatSearchEmblem</title>
    <g id="页面-1" stroke="none" stroke-width="1" fill="none" fill-rule="evenodd">
        <g id="icons_outlined_searchlogo_wide备份-2" transform="translate(2.000000, 2.000000)" fill-rule="nonzero">
            <path d="M4.74625,11.4673087 C5.075,10.6804359 5.76125,10.1964014 6.26875,10.347187 C6.77625,10.4992397 6.985,11.2861125 6.83625,12.1033958 L6.83625,12.1033958 L5.37375,18.0359858 C5.195,18.731627 4.38875,19.0636087 3.6725,19.0636087 L3.6725,19.0636087 L3.4625,19.0636087 L3.13375,18.9445008 C2.71625,18.8228586 2.41875,18.5478966 2.23875,18.1867714 C2.06,17.823112 2.06,17.4303092 2.23875,17.0362392 L2.23875,17.0362392 L4.74625,11.4673087 Z M18.32875,6.08084136 C19.195,5.96046629 19.91,6.59655347 19.97125,7.47465788 L19.97125,7.47465788 L20,7.80663964 C20,8.17029904 19.88,8.53395844 19.61125,8.83426254 C19.2825,9.16877851 18.8325,9.3803852 18.3875,9.3803852 L18.3875,9.3803852 L18.3575,9.3803852 L11.405,9.28915357 C10.53875,9.28915357 9.85125,8.86594019 9.8225,8.32108464 C9.7925,7.77496199 10.44875,7.26178409 11.285,7.14014192 L11.285,7.14014192 L18.32875,6.08084136 Z M9.28375,0 C9.4325,0 9.5825,0.0304105423 9.73125,0.089964521 L9.73125,0.089964521 L10.06,0.21160669 C10.4775,0.362392296 10.775,0.636087177 10.925,0.998479473 C11.075,1.36087177 11.075,1.75367461 10.89625,2.14901166 L10.89625,2.14901166 L9.34375,5.41687785 C9.015,6.08084136 8.4775,6.53573239 8.03,6.50532184 C7.94,6.50532184 7.88125,6.50532184 7.82125,6.47617841 C7.34375,6.29244805 7.075,5.50557527 7.25375,4.6578814 L7.25375,4.6578814 L7.94,1.11885454 C8.09,0.453623923 8.6275,0 9.28375,0 Z" id="形状结合" fill="#FA5151" opacity="0.204287574"></path>
            <path d="M1.34375,5.80841358 C1.4625,5.80841358 1.5825,5.80841358 1.70125,5.84009123 L1.70125,5.84009123 L4.26875,6.4749113 C5.10375,6.65610745 5.73125,7.200963 5.67125,7.71540801 C5.6125,8.19944247 4.925,8.62265585 4.05875,8.71388748 L4.05875,8.71388748 L1.4325,8.83552965 L1.4325,8.83552965 L1.3425,8.83552965 C0.985,8.83552965 0.65625,8.71388748 0.4175,8.47313735 C0.15,8.20070958 0,7.80663964 0,7.38342625 L0,7.38342625 L0.03,7.01849975 C0.09,6.32285859 0.6575,5.80841358 1.34375,5.80841358 Z" id="形状结合-path" stroke="#FA5151"></path>
            <path d="M9.34375,10.3167765 C9.76125,10.3167765 10.2675,10.5917385 10.65625,11.0149518 L10.65625,11.0149518 L16.32875,17.2744551 C16.5975,17.5760264 16.74625,17.9700963 16.71875,18.3933097 C16.6875,18.8190573 16.51,19.1801825 16.18,19.4551445 L16.18,19.4551445 L15.91125,19.6680182 C15.6425,19.8783578 15.31625,20 14.98625,20 C14.5375,20 14.09,19.7896604 13.82125,19.3639128 L13.82125,19.3639128 L9.075,12.344146 C8.5675,11.6180943 8.5075,10.8033452 8.89625,10.4688292 C9.015,10.3788647 9.165,10.3167765 9.34375,10.3167765 Z" id="形状结合-path" stroke="#FA5151"></path>
        </g>
    </g>
</svg>