<?xml version="1.0" encoding="UTF-8"?>
<svg width="24px" height="24px" viewBox="0 0 24 24" version="1.1" xmlns="http://www.w3.org/2000/svg" xmlns:xlink="http://www.w3.org/1999/xlink">
    <title>icons_outlined_delete_emoji</title>
    <g id="页面-1" stroke="none" stroke-width="1" fill="none" fill-rule="evenodd">
        <g id="编组-18备份-2" transform="translate(0.000000, 3.000000)">
            <path d="M20,0.65 C20.6489346,0.65 21.2364346,0.913032709 21.6617009,1.33829906 C22.0869673,1.76356542 22.35,2.35106542 22.35,3 L22.35,3 L22.35,15 C22.35,15.6489346 22.0869673,16.2364346 21.6617009,16.6617009 C21.2364346,17.0869673 20.6489346,17.35 20,17.35 L20,17.35 L9.59948495,17.35 C8.63203795,17.35 7.71182764,16.9317578 7.07565192,16.2028996 L7.07565192,16.2028996 L1.6321053,9.96630021 C1.41095539,9.71293168 1.29992984,9.39749108 1.29917619,9.08178724 C1.29842254,8.7660834 1.4079408,8.45011632 1.62787852,8.19569482 L1.62787852,8.19569482 L7.14878211,1.80917517 C7.78512186,1.07306444 8.71007388,0.65 9.68310382,0.65 L9.68310382,0.65 L20,0.65 Z" id="矩形" stroke="#000000" stroke-width="1.3"></path>
            <path d="M22.6747249,16.9352237 C25.0777365,16.9688657 23.5245055,15.5334981 22.6921144,13.8998387 C21.8597234,12.2661793 21.8597234,12.2661793 20.9496703,10.4800996 C19.8954781,8.41113088 20.264658,6.03985053 19.4912795,7.61784641 C18.9455334,8.73138292 18.6313456,10.1291154 18.6522231,11.6507074 C18.6908197,14.4637061 19.8634128,16.8852902 21.4879375,17.8836681 C21.9873914,18.1906155 22.1096564,16.9273128 22.6747249,16.9352237 Z" id="椭圆形" fill="#000000" opacity="0.196800595" transform="translate(21.304993, 12.517878) rotate(27.000000) translate(-21.304993, -12.517878) "></path>
            <path d="M6.43494136,16.2883011 C7.36886889,15.179824 6.82659919,14.0438911 6.53092241,13.2458511 C6.23524563,12.4478111 5.74208125,11.6306775 4.87964128,9.86480835 C3.88060339,7.81925128 4.31065123,5.43303604 3.49755205,7.0349433 C2.92377638,8.16535324 2.57385411,9.57444624 2.55529084,11.0987961 C2.52097255,13.9168936 3.62910246,16.3126983 5.22535349,17.2702335 C5.71611474,17.564624 5.92598856,16.8923764 6.43494136,16.2883011 Z" id="椭圆形备份-14" fill="#000000" opacity="0.196800595" transform="translate(4.756322, 11.925769) rotate(-203.000000) translate(-4.756322, -11.925769) "></path>
            <g id="icons_outlined_add备份-5" transform="translate(13.251265, 9.111089) rotate(-315.000000) translate(-13.251265, -9.111089) translate(7.251265, 3.111089)" fill="#000000" fill-rule="nonzero">
                <path d="M1.37375936,4.50823529 L10.9535913,4.50823529 C11.3944908,4.50823529 11.7519106,4.75067832 11.7519106,5.04974695 L11.7519106,6.12672364 C11.7519106,6.42579227 11.3944908,6.66823529 10.9535913,6.66823529 L1.37375936,6.66823529 C0.932859767,6.66823529 0.57544003,6.42579227 0.57544003,6.12672364 L0.57544003,5.04974695 C0.57544003,4.75067832 0.932859767,4.50823529 1.37375936,4.50823529 Z" id="矩形" opacity="0.202171689" transform="translate(6.163675, 5.588235) rotate(90.000000) translate(-6.163675, -5.588235) "></path>
                <path d="M1.74549351,4.47058824 L10.5818571,4.47058824 C11.1241003,4.47058824 11.5636753,4.80417999 11.5636753,5.21568627 L11.5636753,5.96078431 C11.5636753,6.3722906 11.1241003,6.70588235 10.5818571,6.70588235 L1.74549351,6.70588235 C1.2032503,6.70588235 0.763675324,6.3722906 0.763675324,5.96078431 L0.763675324,5.21568627 C0.763675324,4.80417999 1.2032503,4.47058824 1.74549351,4.47058824 Z" id="矩形" opacity="0.720238095"></path>
            </g>
        </g>
    </g>
</svg>