<?xml version="1.0" encoding="UTF-8"?>
<svg width="24px" height="24px" viewBox="0 0 24 24" version="1.1" xmlns="http://www.w3.org/2000/svg" xmlns:xlink="http://www.w3.org/1999/xlink">
    <title>icons_filled_back</title>
    <g id="页面-1" stroke="none" stroke-width="1" fill="none" fill-rule="evenodd">
        <g id="编组" transform="translate(7.000000, 6.000000)" fill="#000000" fill-rule="nonzero">
            <g id="指缘返回7备份-2" transform="translate(4.000000, 6.000000) rotate(-180.000000) translate(-4.000000, -6.000000) ">
                <g id="指缘返回7备份" transform="translate(4.000000, 6.000000) rotate(-180.000000) translate(-4.000000, -6.000000) ">
                    <path d="M3.33633628,5.99359205 C1.36155455,6.11545776 0.37127319,6.11971409 0.365492195,6.00636106 C0.35682069,5.83634716 0.378539373,5.67270993 0.4306163,5.5153869 C0.482773068,5.35811075 0.56959989,5.2284982 0.691256448,5.12648672 L5.52543561,0.357094855 C5.76863692,0.119047243 6.05966725,3.33066907e-15 6.3984627,3.33066907e-15 C6.73724219,3.33066907e-15 7.02825654,0.119047243 7.27147383,0.357094855 C7.39313039,0.476079585 7.48433287,0.612100091 7.54514518,0.765156373 C7.60592554,0.918150143 7.63636364,1.07334761 7.63636364,1.23060813 C7.63636364,1.38788428 7.60592555,1.54094056 7.54514518,1.68971445 C7.48434883,1.83844146 7.39314635,1.97238328 7.27148979,2.09136801 L3.33633628,5.99359205 Z" id="路径" opacity="0.198381696"></path>
                    <path d="M3.33633628,5.99359205 L7.27148979,9.89587859 C7.39314635,10.0148633 7.48434883,10.1508838 7.54516114,10.3039401 C7.6059415,10.4569339 7.63636364,10.6121313 7.63636364,10.7694075 C7.63636364,10.926668 7.60594152,11.0797087 7.54516114,11.2285138 C7.48434883,11.3772252 7.39314634,11.5111826 7.27148979,11.6301518 C7.02827251,11.8767329 6.73725815,12 6.39847867,12 C6.05968321,12 5.76866886,11.8767329 5.52545157,11.6301518 L0.769411752,6.9373271 C0.647835048,6.81827986 0.55225688,6.67591392 0.482773068,6.51008862 C0.41327329,6.34434147 0.374163687,6.17639061 0.365433965,6.00636106 C0.359691782,5.89301846 1.34999255,5.88876212 3.33633628,5.99359205 Z" id="路径" opacity="0.71937779"></path>
                </g>
            </g>
        </g>
    </g>
</svg>