<?xml version="1.0" encoding="UTF-8"?>
<svg width="24px" height="24px" viewBox="0 0 24 24" version="1.1" xmlns="http://www.w3.org/2000/svg" xmlns:xlink="http://www.w3.org/1999/xlink">
    <title>icons_filled_finder_live</title>
    <g id="页面-1" stroke="none" stroke-width="1" fill="none" fill-rule="evenodd">
        <g id="icons_filled_finder_live备份" transform="translate(1.000000, 4.000000)">
            <path d="M5.4,2.24 C5.99646753,2.24 6.48,2.72353247 6.48,3.32 L6.48,12.68 C6.48,13.2764675 5.99646753,13.76 5.4,13.76 C4.80353247,13.76 4.32,13.2764675 4.32,12.68 L4.32,3.32 C4.32,2.72353247 4.80353247,2.24 5.4,2.24 Z" id="形状结合-path" fill="#000000" fill-rule="nonzero" opacity="0.350423177"></path>
            <path d="M15.6,3.2 C16.1964675,3.2 16.68,3.68353247 16.68,4.28 L16.68,11.72 C16.68,12.3164675 16.1964675,12.8 15.6,12.8 C15.0035325,12.8 14.52,12.3164675 14.52,11.72 L14.52,4.28 C14.52,3.68353247 15.0035325,3.2 15.6,3.2 Z" id="形状结合-path" fill="#000000" fill-rule="nonzero" opacity="0.350423177"></path>
            <path d="M19.2,6.08 C19.7964675,6.08 20.28,6.5635325 20.28,7.16 L20.28,8.84 C20.28,9.4364675 19.7964675,9.92 19.2,9.92 C18.6035325,9.92 18.12,9.4364675 18.12,8.84 L18.12,7.16 C18.12,6.5635325 18.6035325,6.08 19.2,6.08 Z" id="形状结合-path" fill="#000000" fill-rule="nonzero" opacity="0.171293713"></path>
            <path d="M1.8,6.08 C2.39646753,6.08 2.88,6.5635325 2.88,7.16 L2.88,8.84 C2.88,9.4364675 2.39646753,9.92 1.8,9.92 C1.20353247,9.92 0.72,9.4364675 0.72,8.84 L0.72,7.16 C0.72,6.5635325 1.20353247,6.08 1.8,6.08 Z" id="形状结合-path" fill="#000000" fill-rule="nonzero" opacity="0.171293713"></path>
            <rect id="矩形" stroke="#000000" stroke-width="1.3" x="9" y="0" width="3" height="16" rx="1.5"></rect>
        </g>
    </g>
</svg>