<?xml version="1.0" encoding="UTF-8"?>
<svg width="24px" height="24px" viewBox="0 0 24 24" version="1.1" xmlns="http://www.w3.org/2000/svg" xmlns:xlink="http://www.w3.org/1999/xlink">
    <title>icons_outlined_text_8</title>
    <g id="页面-1" stroke="none" stroke-width="1" fill="none" fill-rule="evenodd">
        <g id="编组-17" transform="translate(3.000000, 3.000000)" fill="#000000">
            <circle id="椭圆形" opacity="0.194196429" cx="6" cy="5" r="5"></circle>
            <path d="M9.45318503,1.34747553 C9.87989145,1.34747553 10.1984812,1.59613098 10.3771749,2.03671098 C10.5233779,2.35348418 10.6368551,2.7536407 10.7215373,3.2518195 C10.7349289,3.36788064 10.7376959,3.47811242 10.7289429,3.58329627 L10.705,3.744 L15.601905,3.74475039 L15.7453108,3.75180017 C16.0095975,3.77763271 16.2299133,3.87265044 16.3959617,4.03869883 C16.5940787,4.2368158 16.690185,4.51034923 16.690185,4.84447553 C16.690185,5.17860183 16.5940787,5.45213526 16.3959617,5.65025222 C16.2575881,5.78862588 16.0815287,5.87767269 15.8664504,5.91898777 L15.7327105,5.93806177 L15.590185,5.94447553 L14.25,5.944 L14.208219,6.16681553 C13.7698064,8.3022058 12.8575409,10.2143709 11.4732373,11.9003215 L11.1900833,12.2344945 L11.077,12.36 L11.2899837,12.52411 C11.7167707,12.8430433 12.1560468,13.1382239 12.6078354,13.4096737 L13.0637957,13.6732139 L13.5281028,13.9209385 C14.4697376,14.4029658 15.3824157,14.7949135 16.2853897,15.1044362 C16.5051065,15.2005623 16.6766916,15.3292511 16.7953691,15.4924326 C16.9173573,15.6601664 16.979185,15.8533781 16.979185,16.0644755 C16.979185,16.221869 16.9446278,16.3877437 16.8732244,16.5726802 C16.6772191,17.0206923 16.3546286,17.2664755 15.930185,17.2664755 C15.7541883,17.2664755 15.5801478,17.2229654 15.4335957,17.148253 C14.3474831,16.7366735 13.2927511,16.2621871 12.2694523,15.7248123 C11.3871173,15.2614632 10.5367658,14.7138091 9.71847656,14.0819917 L9.473,13.887 L9.2267624,14.0925809 C8.68312921,14.5315967 8.12890114,14.9295286 7.56408608,15.286325 L7.13848985,15.5462086 L6.70892425,15.7906616 C5.90903791,16.2294564 5.10712137,16.6244683 4.31195775,16.9716897 L3.71698843,17.2230823 C3.54722224,17.3079654 3.37318181,17.3514755 3.19718503,17.3514755 C2.77274142,17.3514755 2.450151,17.1056923 2.24984863,16.6472203 C2.18274226,16.4727437 2.14818503,16.306869 2.14818503,16.1494755 C2.14818503,15.9383781 2.21001278,15.7451664 2.33200101,15.5774326 C2.45067849,15.4142511 2.62226352,15.2855623 2.85727392,15.1833371 C3.66082152,14.8931671 4.5221622,14.498852 5.44094163,14.0002461 C6.20356409,13.5863839 6.93531706,13.1084935 7.63628189,12.5664753 L7.843,12.401 L7.7419215,12.2936052 C6.31433692,10.7411438 5.32480346,8.96363312 4.77456028,6.96177124 L4.67036921,6.55840773 L4.57789476,6.14906275 L4.537,5.944 L3.08346508,5.94420066 L2.94005929,5.93715088 C2.67577258,5.91131835 2.45545672,5.81630061 2.28940834,5.65025222 C2.09129137,5.45213526 1.99518503,5.17860183 1.99518503,4.84447553 C1.99518503,4.51034923 2.09129137,4.2368158 2.28940834,4.03869883 C2.42778199,3.90032518 2.60384139,3.81127836 2.81891964,3.76996328 L2.95265952,3.75088928 L3.09518503,3.74447553 L8.571,3.744 L8.54337475,3.62628364 C8.52537908,3.51471044 8.50687867,3.41313273 8.48808141,3.32195614 L8.43100698,3.08003541 L8.40219164,2.98323818 L8.37339877,2.90295535 C8.29295797,2.71526015 8.25118503,2.54120623 8.25118503,2.37947553 C8.25118503,1.97710102 8.49087988,1.66781735 8.92342049,1.47248568 C9.10224592,1.38995087 9.2792265,1.34747553 9.45318503,1.34747553 Z M12.642591,5.44447553 L6.1384963,5.44447553 L6.27356846,6.11161455 L6.36309535,6.48382542 C6.84350451,8.33196089 7.81547675,9.98632063 9.27640834,11.4472522 L9.27640834,11.4472522 L9.45889628,11.6297402 L9.63549143,11.4415439 L9.90897315,11.1412564 C11.3343682,9.52793153 12.2289063,7.72600926 12.5891741,5.73907794 L12.5891741,5.73907794 L12.642591,5.44447553 Z" id="文" fill-rule="nonzero" transform="translate(9.487185, 9.349476) rotate(13.000000) translate(-9.487185, -9.349476) "></path>
        </g>
    </g>
</svg>