<?xml version="1.0" encoding="UTF-8"?>
<svg width="24px" height="24px" viewBox="0 0 24 24" version="1.1" xmlns="http://www.w3.org/2000/svg" xmlns:xlink="http://www.w3.org/1999/xlink">
    <title>icons_outlined_addoutline</title>
    <g id="页面-1" stroke="none" stroke-width="1" fill="none" fill-rule="evenodd">
        <g id="icons_outlined_add备份-2" transform="translate(3.000000, 3.000000)" fill-rule="nonzero">
            <path d="M0,9 C0,12.2153902 1.71539023,15.1865334 4.5,16.7942286 C7.28460966,18.4019238 10.7153903,18.4019238 13.5,16.7942286 C16.2846098,15.1865334 18,12.2153902 18,9 C18,4.02943721 13.9705627,0 9,0 C4.02943725,0 0,4.02943721 0,9 L0,9 Z" id="路径" stroke="#000000" stroke-width="1.5"></path>
            <path d="M4.71428571,8 L13.2857143,8 C13.6802034,8 14,8.33672642 14,8.75209952 L14,10.2479005 C14,10.6632736 13.6802034,11 13.2857143,11 L4.71428571,11 C4.31979661,11 4,10.6632736 4,10.2479005 L4,8.75209952 C4,8.33672642 4.31979661,8 4.71428571,8 Z" id="矩形" fill="#000000" opacity="0.199776786" transform="translate(9.000000, 9.500000) rotate(90.000000) translate(-9.000000, -9.500000) "></path>
            <path d="M4.90909091,8 L13.0909091,8 C13.5929861,8 14,8.44771525 14,9 L14,10 C14,10.5522848 13.5929861,11 13.0909091,11 L4.90909091,11 C4.40701386,11 4,10.5522848 4,10 L4,9 C4,8.44771525 4.40701386,8 4.90909091,8 Z" id="矩形" fill="#000000" opacity="0.716657366"></path>
        </g>
    </g>
</svg>