<?xml version="1.0" encoding="UTF-8"?>
<svg width="24px" height="24px" viewBox="0 0 24 24" version="1.1" xmlns="http://www.w3.org/2000/svg" xmlns:xlink="http://www.w3.org/1999/xlink">
    <title>icons_filled_download</title>
    <g id="页面-1" stroke="none" stroke-width="1" fill="none" fill-rule="evenodd">
        <g id="云下载备份" transform="translate(2.000000, 5.000000)" fill-rule="nonzero">
            <path d="M20,12.2373806 C20,12.5784447 19.9433333,12.899045 19.83,13.1991814 C19.7166667,13.4993179 19.56,13.7721692 19.36,14.0177353 C19.16,14.2633015 18.9233333,14.4645293 18.65,14.6214188 C18.3766667,14.7783083 18.08,14.8840382 17.76,14.9386085 L17.76,14.9795362 L17.34,14.9795362 L17.32,14.9795362 L4.34,14.9795362 C4.31333333,14.9795362 4.29666667,14.9829468 4.29,14.9897681 C4.28333333,14.9965894 4.26666667,15 4.24,15 C4.21333333,15 4.19333333,14.9965894 4.18,14.9897681 C4.16666667,14.9829468 4.14666667,14.9795362 4.12,14.9795362 L4,14.9795362 L4,14.9590723 C3.44,14.9317872 2.91666667,14.8021828 2.43,14.5702592 C1.94333333,14.3383356 1.52,14.0279673 1.16,13.6391542 C0.8,13.2503411 0.516666667,12.8001364 0.31,12.2885402 C0.103333333,11.7769441 0,11.2346521 0,10.6616644 C0,10.0886767 0.103333333,9.54979536 0.31,9.04502046 C0.516666667,8.54024557 0.796666667,8.09686221 1.15,7.7148704 C1.50333333,7.33287858 1.91666667,7.01909959 2.39,6.77353342 C2.86333333,6.52796726 3.37333333,6.38472033 3.92,6.34379263 C4.01333333,5.45702592 4.25333333,4.62824011 4.64,3.8574352 C5.02666667,3.08663029 5.52333333,2.41473397 6.13,1.84174625 C6.73666667,1.26875853 7.43333333,0.818553888 8.22,0.491132333 C9.00666667,0.163710778 9.84666667,0 10.74,0 C11.6866667,0 12.58,0.184174625 13.42,0.552523874 C14.26,0.920873124 14.99,1.42564802 15.61,2.06684857 C16.23,2.70804911 16.72,3.45497954 17.08,4.30763984 C17.44,5.16030014 17.62,6.07094134 17.62,7.03956344 C17.62,7.47612551 17.58,7.90245566 17.5,8.31855389 C17.42,8.73465211 17.3066667,9.13369714 17.16,9.51568895 C17.1866667,9.51568895 17.2166667,9.51227831 17.25,9.50545703 C17.2833333,9.49863574 17.3133333,9.4952251 17.34,9.4952251 C17.7133333,9.4952251 18.06,9.56684857 18.38,9.7100955 C18.7,9.85334243 18.98,10.047749 19.22,10.2933151 C19.46,10.5388813 19.65,10.8287858 19.79,11.1630286 C19.93,11.4972715 20,11.8553888 20,12.2373806 Z" id="路径" stroke="#000000" stroke-width="1.3"></path>
            <path d="M13.42,9.20873124 C13.58,8.93587995 13.6266667,8.77899045 13.56,8.73806276 C13.4933333,8.69713506 13.3266667,8.67667121 13.06,8.67667121 C12.9,8.67667121 12.6766667,8.67326057 12.39,8.66643929 C12.1033333,8.65961801 11.8866667,8.65620737 11.74,8.65620737 C11.5266667,8.65620737 11.39,8.5675307 11.33,8.39017735 C11.27,8.21282401 11.24,7.96725784 11.24,7.65347885 C11.24,7.21691678 11.2366667,6.86562074 11.23,6.59959072 C11.2233333,6.33356071 11.22,6.04365621 11.22,5.72987722 C11.22,5.37517053 11.1966667,5.1159618 11.15,4.95225102 C11.1033333,4.78854025 10.9133333,4.70668486 10.58,4.70668486 C10.34,4.70668486 10.16,4.7100955 10.04,4.71691678 C9.92,4.72373806 9.75333333,4.7271487 9.54,4.7271487 C9.18,4.7271487 8.95666667,4.83287858 8.87,5.04433834 C8.78333333,5.25579809 8.74,5.4638472 8.74,5.66848568 L8.74,6.32332879 C8.74,6.50068213 8.74333333,6.67121419 8.75,6.83492497 C8.75666667,6.99863574 8.76,7.1691678 8.76,7.34652115 L8.76,7.93997271 C8.76,8.15825375 8.73333333,8.32537517 8.68,8.44133697 C8.62666667,8.55729877 8.5,8.61527967 8.3,8.61527967 C8.22,8.62892224 8.11,8.63915416 7.97,8.64597544 C7.83,8.65279673 7.68666667,8.65961801 7.54,8.66643929 C7.39333333,8.67326057 7.25333333,8.67667121 7.12,8.67667121 L6.8,8.67667121 C6.52,8.67667121 6.35333333,8.76534789 6.3,8.94270123 C6.24666667,9.12005457 6.33333333,9.34515689 6.56,9.61800819 C6.78666667,9.90450205 7.03,10.2148704 7.29,10.5491132 C7.55,10.8833561 7.80666667,11.2210095 8.06,11.5620737 C8.31333333,11.9031378 8.55666667,12.23397 8.79,12.5545703 C9.02333333,12.8751705 9.24,13.1514325 9.44,13.3833561 C9.8,13.792633 10.1466667,13.7858117 10.48,13.3628922 C10.68,13.1309686 10.9133333,12.8308322 11.18,12.4624829 C11.4466667,12.0941337 11.72,11.7087312 12,11.3062756 C12.28,10.9038199 12.5466667,10.5150068 12.8,10.1398363 C13.0533333,9.76466576 13.26,9.45429741 13.42,9.20873124 L13.42,9.20873124 Z" id="路径" fill="#000000" opacity="0.199288504"></path>
        </g>
    </g>
</svg>