<?xml version="1.0" encoding="UTF-8"?>
<svg width="24px" height="24px" viewBox="0 0 24 24" version="1.1" xmlns="http://www.w3.org/2000/svg" xmlns:xlink="http://www.w3.org/1999/xlink">
    <title>icons_outlined_me</title>
    <g id="页面-1" stroke="none" stroke-width="1" fill="none" fill-rule="evenodd">
        <g id="我的" transform="translate(4.000000, 5.000000)" fill-rule="nonzero">
            <path d="M12.35,0.65 L12.35,5 C12.35,6.20121933 11.8631097,7.28871933 11.0759145,8.0759145 C10.2887193,8.86310967 9.20121933,9.35 8,9.35 C6.79878067,9.35 5.71128067,8.86310967 4.9240855,8.0759145 C4.13689033,7.28871933 3.65,6.20121933 3.65,5 C3.65,3.79878067 4.13689033,2.71128067 4.9240855,1.9240855 C5.71128067,1.13689033 6.79878067,0.65 8,0.65 L8,0.65 L12.35,0.65 Z" id="路径" stroke="#000000" stroke-width="1.3"></path>
            <path d="M3.5,11 L12.5020576,11 C14.4339178,11 16,12.1189594 16,13.4992651 L16,13.856513 C16,15.0403282 14.6568542,16 13,16 L3,16 C1.34314575,16 0,15.0403282 0,13.856513 L0,13.4992651 C0,12.8361641 0.368814435,12.2002435 1.02525097,11.7314981 C1.68168751,11.2627528 2.57193154,10.9996104 3.5,11 Z" id="路径" fill="#000000" opacity="0.2"></path>
        </g>
    </g>
</svg>