<?xml version="1.0" encoding="UTF-8"?>
<svg width="24px" height="24px" viewBox="0 0 24 24" version="1.1" xmlns="http://www.w3.org/2000/svg" xmlns:xlink="http://www.w3.org/1999/xlink">
    <title>icons_outlined_channels_bulletscreen_open</title>
    <g id="页面-1" stroke="none" stroke-width="1" fill="none" fill-rule="evenodd">
        <g id="icons_outlined_channels_bulletscreen_open备份" transform="translate(2.000000, 4.000000)" fill="#000000" fill-rule="nonzero">
            <path d="M15,0.5 C16.3807119,0.5 17.5,1.61928813 17.5,3 L17.5,4.5 L19.4,4.5 C19.7313708,4.5 20,4.76862915 20,5.1 C20,5.43137085 19.7313708,5.7 19.4,5.7 L13.6,5.7 C13.2686292,5.7 13,5.43137085 13,5.1 C13,4.76862915 13.2686292,4.5 13.6,4.5 L16.299,4.5 L16.3,3 C16.3,2.32690296 15.7884503,1.77328475 15.1329174,1.70671175 L15,1.7 L3,1.7 C2.32690296,1.7 1.77328475,2.21154965 1.70671175,2.86708255 L1.7,3 L1.7,11.5 C1.7,12.173097 2.21154965,12.7267153 2.86708255,12.7932882 L3,12.8 L5.7,12.8 L5.699,15.1 L8.0033874,12.8 L15,12.8 C15.673097,12.8 16.2267153,12.2884503 16.2932882,11.6329174 L16.3,11.5 L16.299,6.9 L17.5,6.9 L17.5,11.5 C17.5,12.8807119 16.3807119,14 15,14 L8.5,14 L6.20710678,16.29 C5.81658249,16.6805243 5.18341751,16.6805243 4.79289322,16.29 C4.60535684,16.1024636 4.5,15.8552165 4.5,15.59 L4.5,14 L3,14 C1.61928813,14 0.5,12.8807119 0.5,11.5 L0.5,3 C0.5,1.61928813 1.61928813,0.5 3,0.5 L15,0.5 Z" id="形状结合"></path>
            <path d="M13.6,7.5 C13.9313708,7.5 14.2,7.7686292 14.2,8.1 C14.2,8.4313708 13.9313708,8.7 13.6,8.7 L9.8,8.7 C9.4686292,8.7 9.2,8.4313708 9.2,8.1 C9.2,7.7686292 9.4686292,7.5 9.8,7.5 L13.6,7.5 Z" id="形状结合-path" opacity="0.202357701"></path>
            <path d="M6.6,7.5 C6.93137085,7.5 7.2,7.7686292 7.2,8.1 C7.2,8.4313708 6.93137085,8.7 6.6,8.7 L4.8,8.7 C4.46862915,8.7 4.2,8.4313708 4.2,8.1 C4.2,7.7686292 4.46862915,7.5 4.8,7.5 L6.6,7.5 Z" id="形状结合-path" opacity="0.202357701"></path>
            <path d="M10.4,4.5 C10.7313708,4.5 11,4.76862915 11,5.1 C11,5.43137085 10.7313708,5.7 10.4,5.7 L8.6,5.7 C8.2686292,5.7 8,5.43137085 8,5.1 C8,4.76862915 8.2686292,4.5 8.6,4.5 L10.4,4.5 Z" id="形状结合-path" opacity="0.202357701"></path>
        </g>
    </g>
</svg>