<?xml version="1.0" encoding="UTF-8"?>
<svg width="24px" height="24px" viewBox="0 0 24 24" version="1.1" xmlns="http://www.w3.org/2000/svg" xmlns:xlink="http://www.w3.org/1999/xlink">
    <title>icons_filled_music</title>
    <g id="页面-1" stroke="none" stroke-width="1" fill="none" fill-rule="evenodd">
        <g id="icons_filled_music备份" transform="translate(3.000000, 3.000000)" fill-rule="nonzero">
            <path d="M4.9496027,0 C5.18437651,1.08356039 4.57650771,2.17140651 3.59188974,2.4297723 C3.54692578,2.44157093 3.50157234,2.45149337 3.45592666,2.45951831 L2.53337515,2.62171169 L3.90354816,8.24911861 C4.18733801,9.41466557 3.55881023,10.6127032 2.49969207,10.9250106 C1.4405739,11.2373179 0.351931855,10.5456306 0.0681419904,9.38008355 C-0.202748325,8.26751608 0.357625984,7.12534436 1.33028706,6.7521828 L1.47199808,6.7041916 L1.47199808,6.7041916 C1.70779374,6.63466138 1.85837691,6.38984794 1.8390078,6.13127396 L1.82358113,6.03388429 L1.82358113,6.03388429 L0.660563956,1.26079056 C0.603395309,1.02780273 0.728677662,0.787926912 0.94039063,0.725012697 C0.962150012,0.718546526 0.984370165,0.714130931 1.00680963,0.711805555 C2.05015103,0.603937554 2.81555957,0.508055305 3.30303526,0.42415882 C3.86077281,0.328169982 4.40962862,0.186783713 4.9496027,0 Z" id="形状结合-path" fill="#000000" opacity="0.1976609"></path>
            <path d="M17.8149832,3.3143163 C19.1624277,4.41189649 18.6463947,4.43826162 18.6343604,4.50452399 L18.6343604,4.50452399 L16.7154357,15.0703634 C16.5811897,15.8095385 16.1527538,16.4273882 15.5653726,16.8266995 C14.9855693,17.2208592 14.2509782,17.4012166 13.4986052,17.2724164 C12.7427386,17.143018 12.113811,16.7268066 11.7061099,16.1615054 C11.2929582,15.5886466 11.1059959,14.8626609 11.2409051,14.1198343 C11.375151,13.3806592 11.803587,12.7628095 12.3909681,12.3634982 C12.9707714,11.9693384 13.7053625,11.788981 14.4577355,11.9177812 L14.4577355,11.9177812 L15.3651348,8.08253457 L10.1013655,8.61419806 L8.86770938,15.4068625 C8.73919749,16.114465 8.34110838,16.7107899 7.79209287,17.1107948 C7.24644238,17.508348 6.55163011,17.7109936 5.83014662,17.6338296 C4.86865601,17.4762799 4.25869821,17.0530639 3.85838363,16.4980045 C3.44523194,15.9251457 3.25826963,15.1991601 3.39317878,14.4563335 C3.52742475,13.7171583 3.95586069,13.0993086 4.54324181,12.6999973 C5.12304509,12.3058375 5.85763621,12.1254801 6.61000924,12.2542804 L6.61000924,12.2542804 L8.17297521,4.81240189 Z" id="形状结合-path" stroke="#000000" stroke-width="1.3"></path>
        </g>
    </g>
</svg>