<?xml version="1.0" encoding="UTF-8"?>
<svg width="24px" height="24px" viewBox="0 0 24 24" version="1.1" xmlns="http://www.w3.org/2000/svg" xmlns:xlink="http://www.w3.org/1999/xlink">
    <title>icons_filled_othersticker</title>
    <g id="页面-1" stroke="none" stroke-width="1" fill="none" fill-rule="evenodd">
        <g id="icons_filled_othersticker" transform="translate(0.000000, 2.000000)" fill-rule="nonzero">
            <path d="M7.22891563,6.11895673 C9.04525901,6.11895673 10.6894993,6.85915582 11.8797522,8.05543593 C13.0711904,9.25290733 13.8078313,10.9072755 13.8078313,12.7344784 C13.8078313,14.5616813 13.0711904,16.2160495 11.8797522,17.4135208 C10.6894993,18.6098009 9.04525901,19.35 7.22891563,19.35 C5.41257229,19.35 3.76833197,18.6098009 2.57807909,17.4135208 C1.38664095,16.2160494 0.65,14.5616813 0.65,12.7344784 C0.65,10.9072755 1.38664095,9.25290733 2.57807911,8.05543593 C3.76833198,6.85915582 5.4125723,6.11895673 7.22891563,6.11895673 Z" id="形状结合-path" stroke="#000000" stroke-width="1.3"></path>
            <path d="M10.9193906,14 L3,14 C3.1826129,16.0367074 4.8857041,17.6327608 6.9596953,17.6327608 C9.0336866,17.6327608 10.7367778,16.0367074 10.9193906,14 Z" id="形状结合-path" fill="#000000" opacity="0.204892113"></path>
            <polygon id="形状结合-path" fill="#000000" points="10.2871479 9 8 10.9881873 10.3124326 12.665906 10.8829043 11.8832589 9.5508338 10.9161209 10.9194939 9.727431"></polygon>
            <polygon id="形状结合-path" fill="#000000" points="3.632346 9 3 9.7274309 4.3684486 10.915937 3.0365896 11.8832589 3.6070612 12.665906 5.9194938 10.9881873"></polygon>
            <path d="M16.791132,-1.86517468e-14 C20.7845797,-1.86517468e-14 24.0219087,3.25288484 24.0219087,7.26552164 C24.0219087,11.2781584 20.7845797,14.5310433 16.791132,14.5310433 C16.3732212,14.5310433 15.963591,14.4954195 15.5663976,14.4268158 C15.6684531,13.9002663 15.7219087,13.3563757 15.7219087,12.8 C15.7219087,12.3393032 15.6852576,11.8871666 15.6130088,11.446582 C15.985288,11.5624402 16.3809584,11.6248346 16.791132,11.6248346 C18.8656572,11.6248346 20.5691869,10.0287812 20.7518467,7.9920738 L20.7518467,7.9920738 L14.2328343,7.99266103 C13.2130555,6.50828172 11.7340929,5.36397636 10,4.76496956 C11.0144114,1.98425105 13.6721565,-1.86517468e-14 16.791132,-1.86517468e-14 Z M20.4692282,3.9960369 C19.870211,3.9960369 19.3846117,4.48396963 19.3846117,5.08586515 C19.3846117,5.68776067 19.870211,6.17569339 20.4692282,6.17569339 C21.0682453,6.17569339 21.5538447,5.68776067 21.5538447,5.08586515 C21.5538447,4.48396963 21.0682453,3.9960369 20.4692282,3.9960369 Z M15.4076845,3.9960369 C14.8086673,3.9960369 14.323068,4.48396963 14.323068,5.08586515 C14.323068,5.68776067 14.8086673,6.17569339 15.4076845,6.17569339 C16.0067017,6.17569339 16.492301,5.68776067 16.492301,5.08586515 C16.492301,4.48396963 16.0067017,3.9960369 15.4076845,3.9960369 Z" id="形状结合" fill="#000000" opacity="0.201474144"></path>
        </g>
    </g>
</svg>