<?xml version="1.0" encoding="UTF-8"?>
<svg width="24px" height="24px" viewBox="0 0 24 24" version="1.1" xmlns="http://www.w3.org/2000/svg" xmlns:xlink="http://www.w3.org/1999/xlink">
    <title>icon_outlined_solitaire</title>
    <g id="页面-1" stroke="none" stroke-width="1" fill="none" fill-rule="evenodd">
        <g id="icon_outlined_solitaire备份" transform="translate(2.000000, 2.000000)" fill-rule="nonzero">
            <path d="M10,5.83333334 C12.3011865,5.83333334 14.1666666,7.69881354 14.1666666,10 C14.1666666,10.323471 14.1298065,10.6383328 14.0600573,10.9406142 C12.5135052,11.2966433 11.2966433,12.5135052 10.9399427,14.0593858 C10.6383328,14.1298065 10.323471,14.1666666 10,14.1666666 C7.69881354,14.1666666 5.83333334,12.3011865 5.83333334,10 C5.83333334,7.69881354 7.69881354,5.83333334 10,5.83333334 Z M10,8 C9.27001949,8 8.75,8.4663086 8.75,9.11572264 L8.75,9.12304689 L9.34082034,9.12304689 L9.34082034,9.11328128 C9.34082034,8.76416017 9.61425779,8.50537106 9.98046877,8.50537106 C10.3295899,8.50537106 10.5908203,8.73730468 10.5908203,9.027832 C10.5908203,9.29150391 10.480957,9.472168 10.0805664,9.87988281 L8.78417966,11.1689453 L8.78417966,11.59375 L11.2597656,11.59375 L11.2597656,11.0786133 L9.6240234,11.0786133 L9.6240234,11.0664062 L10.4956054,10.2045899 C10.9570312,9.73828128 11.2060547,9.42089847 11.2060547,9.0009766 C11.2060547,8.42968749 10.703125,8 10,8 Z" id="形状结合" fill="#000000" opacity="0.199428013"></path>
            <path d="M15.8578657,13.939394 C15.1699617,13.939394 14.7105896,14.3633538 14.6782719,15.0169585 L15.2322886,15.0169585 C15.2553726,14.6762765 15.4862129,14.4567259 15.8301649,14.4567259 C16.204126,14.4567259 16.4072654,14.6687058 16.4072654,14.9866757 C16.4072654,15.3122163 16.1741169,15.5418611 15.8324732,15.5418611 L15.4308111,15.5418611 L15.4308111,16.0314338 L15.8417068,16.0314338 C16.2549109,16.0314338 16.5088351,16.2560316 16.5088351,16.6244729 C16.5088351,16.9601077 16.2387521,17.1947997 15.8555573,17.1947997 C15.458512,17.1947997 15.2092045,16.9727255 15.1815037,16.6396143 L14.6136367,16.6396143 C14.6436459,17.2881718 15.1191769,17.7272731 15.8509404,17.7272731 C16.5780872,17.7272731 17.1136367,17.293219 17.1136367,16.6497085 C17.1136367,16.1424709 16.7904603,15.8093596 16.2918454,15.7689825 L16.2918454,15.753841 C16.702741,15.6756104 16.9797493,15.3500698 16.9797493,14.8983507 C16.9797493,14.3305473 16.513452,13.939394 15.8578657,13.939394 Z" id="形状结合-path" fill="#000000" opacity="0.199428013"></path>
            <path d="M15.8333334,12.3166666 C16.804434,12.3166666 17.6836007,12.710283 18.3199922,13.3466745 C18.9563837,13.983066 19.35,14.8622327 19.35,15.8333334 C19.35,16.8044341 18.9563837,17.6836007 18.3199922,18.3199922 C17.6836007,18.9563837 16.8044341,19.35 15.8333334,19.35 C14.8622327,19.35 13.983066,18.9563837 13.3466745,18.3199922 C12.710283,17.6836007 12.3166666,16.804434 12.3166666,15.8333334 C12.3166666,14.8622327 12.710283,13.983066 13.3466745,13.3466745 C13.983066,12.710283 14.8622327,12.3166666 15.8333334,12.3166666 Z" id="形状结合-path" stroke="#000000" stroke-width="1.3"></path>
            <path d="M4.16666666,0.65 C5.13776736,0.65 6.01693403,1.04361633 6.65332554,1.68000783 C7.28971703,2.31639933 7.68333336,3.19556599 7.68333336,4.16666666 C6.9347405,4.83001904 6.2873164,5.23461606 5.76113092,5.76057505 C5.23461672,6.28686262 4.82960545,6.93455503 4.59116971,7.65792676 C3.19556599,7.68333336 2.31639933,7.28971703 1.68000783,6.65332554 C1.04361633,6.01693403 0.65,5.13776736 0.65,4.16666666 C0.65,3.19556598 1.04361633,2.31639932 1.68000782,1.68000782 C2.31639932,1.04361633 3.19556598,0.65 4.16666666,0.65 Z" id="形状结合-path" stroke="#000000" stroke-width="1.3"></path>
            <polygon id="形状结合-path" fill="#000000" opacity="0.199428013" points="4.70963541 2.25 4.08707683 2.25 3.16666666 2.89697266 3.16666666 3.49023437 4.0773112 2.85058594 4.09195963 2.85058594 4.09195963 5.77294922 4.70963541 5.77294922"></polygon>
        </g>
    </g>
</svg>