<?xml version="1.0" encoding="UTF-8"?>
<svg width="24px" height="24px" viewBox="0 0 24 24" version="1.1" xmlns="http://www.w3.org/2000/svg" xmlns:xlink="http://www.w3.org/1999/xlink">
    <title>icons_outlined_bellring_off</title>
    <g id="页面-1" stroke="none" stroke-width="1" fill="none" fill-rule="evenodd">
        <g id="任务提醒2备份-2" transform="translate(1.000000, 1.000000)">
            <path d="M11.6860197,18 L7.31400043,18 C7.14058341,18 7,18.1498757 7,18.3347552 C7,19.8043814 8.12151055,21 9.5,21 C10.8784895,21 12,19.8043599 12,18.3347552 C12,18.1498757 11.8594166,18 11.6860197,18 Z" id="路径" fill="#000000" fill-rule="nonzero" opacity="0.203008743"></path>
            <path d="M16.6649785,10.1093473 L16.6649785,11.5711376 L16.746563,11.5711376 C17.9891319,11.5711376 19,12.5645309 19,13.7855688 C19,14.9535181 18.0751225,15.9131876 16.9072591,15.9944293 L16.746563,16 L3.25343703,16 C2.01089132,16 1,15.0066295 1,13.7855688 C1,12.6175977 1.92487746,11.657948 3.09274086,11.5767081 L3.25343703,11.5711376 L3.33502147,11.5711376 L3.33502147,8.0261797 C3.33502147,6.90921354 3.62818987,5.81188331 4.17451495,4.84452189 C4.30171278,4.61929651 8.46520064,6.37423832 16.6649785,10.1093473 Z M5.41449782,5.30130058 C4.95351928,6.04510505 4.68568085,6.89603125 4.64152863,7.7689071 L4.63502147,8.0261797 L4.63502147,12.8711376 L3.25343703,12.8711376 C2.7238065,12.8711376 2.3,13.2876082 2.3,13.7855688 C2.3,14.2479515 2.66543634,14.6400871 3.14168284,14.6937474 L3.25343703,14.7 L16.746563,14.7 C17.2761835,14.7 17.7,14.2835166 17.7,13.7855688 C17.7,13.3231887 17.3345664,12.9310508 16.8583177,12.8773902 L16.746563,12.8711376 L15.3649785,12.8711376 C15.3649785,11.4025375 15.3649785,10.3010874 15.3649785,9.56678734 C15.3649785,9.05325146 5.54102214,5.09714931 5.41449782,5.30130058 Z" id="路径" fill="#000000" fill-rule="nonzero"></path>
            <path d="M10,0 C10.8989554,0 11.6391265,0.680844259 11.7145491,1.54536514 L11.7208777,1.69106742 C13.0632305,2.05023642 14.2758456,2.81814952 15.1621694,3.88326273 C16.0666756,4.97018504 16.591884,6.32431724 16.6578917,7.72532627 L16.6649785,8.0261797 L16.6649785,10.0614395 C8.01698509,7.07491797 3.91363786,5.23584659 4.35493684,4.54422532 C4.50124534,4.31492484 4.66240423,4.09406817 4.8378306,3.88326273 C5.66084552,2.89422904 6.76520356,2.16145462 7.99356982,1.77951952 L8.27916867,1.69765162 C8.27914549,0.758594992 9.05110266,0 10,0 Z" id="路径" fill="#000000" fill-rule="nonzero" opacity="0.203171503"></path>
            <path d="M12.8921779,8.45462059 L13.4804575,8.75438591 C13.6774837,8.85478316 13.8356758,9.01765506 13.9302879,9.21752379 L14,9.3647911 L14,9.3647911 L14,10 C14,10.5522847 13.5522847,11 13,11 C12.4477153,11 12,10.5522847 12,10 L12,9.00132976 C12,8.66245044 12.274716,8.38773446 12.6135953,8.38773446 C12.7104332,8.38773446 12.805896,8.41065457 12.8921779,8.45462059 Z" id="矩形" fill="#050505" opacity="0.200544085"></path>
            <rect id="矩形" fill="#000000" transform="translate(10.875578, 7.665609) rotate(24.000000) translate(-10.875578, -7.665609) " x="-0.624422282" y="7.1656088" width="23" height="1"></rect>
        </g>
    </g>
</svg>