<?xml version="1.0" encoding="UTF-8"?>
<svg width="24px" height="24px" viewBox="0 0 24 24" version="1.1" xmlns="http://www.w3.org/2000/svg" xmlns:xlink="http://www.w3.org/1999/xlink">
    <title>icons_filled_copy</title>
    <g id="页面-1" stroke="none" stroke-width="1" fill="none" fill-rule="evenodd">
        <g id="复制" transform="translate(2.000000, 2.000000)" fill-rule="nonzero">
            <path d="M16,2.66753373 L6.66902396,2.66753373 C4.45902172,2.66753373 2.66747953,4.45911234 2.66747953,6.66915949 L2.66747953,16 C0.936088927,15.9144854 0,14.8996911 0,13.0957568 L0,2.91009592 C0,1.02389855 1.02387775,0 2.91003678,0 L13.0954907,0 C14.8993883,0 15.9144872,0.93610795 16,2.66753373 Z" id="路径" fill="#000000" opacity="0.202785528"></path>
            <path d="M17.0909682,4.65 C17.8231655,4.65 18.4059717,4.81998971 18.7929884,5.20700639 C19.1800387,5.59405668 19.35,6.1768969 19.35,6.90903181 L19.35,6.90903181 L19.35,17.0909682 C19.35,17.8231974 19.1800724,18.4060315 18.7930519,18.7930519 C18.4060315,19.1800724 17.8231974,19.35 17.0909682,19.35 L17.0909682,19.35 L6.90903181,19.35 C6.17680262,19.35 5.59396849,19.1800724 5.20694806,18.7930519 C4.81992762,18.4060315 4.65,17.8231974 4.65,17.0909682 L4.65,17.0909682 L4.65,6.90903181 C4.65,6.17692882 4.82002341,5.59411647 5.20706994,5.20706994 C5.59411647,4.82002341 6.17692882,4.65 6.90903181,4.65 L6.90903181,4.65 Z" id="路径" stroke="#000000" stroke-width="1.3"></path>
        </g>
        <rect id="矩形" fill="#000000" opacity="0.195917039" x="17" y="14" width="2" height="5" rx="1"></rect>
    </g>
</svg>