<?xml version="1.0" encoding="UTF-8"?>
<svg width="48px" height="48px" viewBox="0 0 48 48" version="1.1" xmlns="http://www.w3.org/2000/svg" xmlns:xlink="http://www.w3.org/1999/xlink">
    <title>icons_outlined_colorful_websesarch</title>
    <g id="页面-1" stroke="none" stroke-width="1" fill="none" fill-rule="evenodd">
        <g id="icons_filled_WeChatSearchEmblem备份" transform="translate(5.000000, 4.000000)" fill-rule="nonzero">
            <path d="M10.256743,23.1649954 C10.9248939,21.6378829 12.2313954,20.6516882 13.1802951,20.9668315 C14.1401738,21.2858946 14.5856077,22.8279019 14.1942846,24.4765249 L14.1942846,24.4765249 L11.4283596,36.1274213 C11.0927158,37.5408626 9.5650657,38.1735012 8.19974807,38.1735012 C8.08211585,38.1735012 7.96918896,38.1680136 7.86253578,38.1586062 L7.86253578,38.1586062 L7.79744595,38.1452793 L7.14262673,37.9273444 C6.36625428,37.6686446 5.76240901,37.1292948 5.44244945,36.4096391 C5.1232741,35.6907672 5.12719517,34.8840944 5.45421266,34.1377849 L5.45421266,34.1377849 L10.256743,23.1649954 Z" id="路径" fill="#FA5151" opacity="0.219470796"></path>
            <path d="M18.8496962,0 C19.1547557,0 19.4621678,0.0509560125 19.7625221,0.150516223 L19.7625221,0.150516223 L20.4181254,0.366883293 C21.1960664,0.624015174 21.7920695,1.15866134 22.0955606,1.87204551 C22.3990517,2.58542969 22.3716041,3.38347926 22.0187074,4.1203816 L22.0187074,4.1203816 L18.9790917,10.4593096 C18.3540726,11.7629996 17.2789144,12.6731524 16.3637359,12.6731524 C16.2272826,12.6731524 16.0955345,12.65277 15.9724128,12.6120052 C15.0164552,12.295294 14.526321,10.7501508 14.8564754,9.09368847 L14.8564754,9.09368847 L16.2272826,2.20443551 C16.4852892,0.906233092 17.5643685,0 18.8496962,0 Z" id="路径" fill="#FA5151" opacity="0.219470796"></path>
            <path d="M36.7368474,11.6809996 C38.4331038,11.4364108 39.8627271,12.647596 39.9576168,14.3040584 L39.9576168,14.3040584 L39.9960433,14.9923565 C40.0360383,15.701821 39.7717579,16.3956067 39.2518238,16.9459317 C38.6448415,17.5879774 37.7492687,17.9713234 36.8552639,17.9713234 L36.8552639,17.9713234 L36.8066426,17.9713234 L23.0570077,17.7918015 C21.3560461,17.7659315 19.9797495,16.9537711 19.9225018,15.9432741 C19.8652542,14.935129 21.1372503,13.9536378 22.8162538,13.708265 L22.8162538,13.708265 L36.7368474,11.6809996 Z" id="路径" fill="#FA5151" opacity="0.219470796"></path>
            <path d="M2.67025078,11.8700856 C2.90080988,11.8700856 3.13764269,11.8998753 3.36977021,11.9571028 L3.36977021,11.9571028 L8.4169755,13.1988616 C10.0575525,13.6010222 11.2675956,14.6985363 11.1727057,15.6957063 C11.0762473,16.6928763 9.67956103,17.5418818 7.99349961,17.628899 L7.99349961,17.628899 L2.8004304,17.89779 C2.74710381,17.9009257 2.69456142,17.9024936 2.64201905,17.9024936 C1.92289424,17.9024936 1.29003305,17.6469296 0.811662131,17.1648073 C0.280748833,16.6301612 -0.00705793154,15.8634692 -2.82624401e-16,15.0058403 L-2.82624401e-16,15.0058403 L0.0674424571,14.294024 C0.202327371,12.8899898 1.29630676,11.8700856 2.67025078,11.8700856 Z" id="路径" stroke="#FA5151" stroke-width="1.3"></path>
            <path d="M19.941323,21.4222214 C20.7584747,21.4222214 21.753643,21.9419728 22.5386418,22.7784353 L22.5386418,22.7784353 L33.7638897,34.7460428 C34.3222508,35.3402685 34.5990783,36.1038245 34.5449675,36.8948187 C34.4900725,37.685029 34.1105125,38.4039008 33.4760831,38.9158126 L33.4760831,38.9158126 L32.9396802,39.3501147 C32.412688,39.7750094 31.7868848,40 31.1281445,40 C30.1925766,40 29.3409194,39.5492351 28.7919691,38.7652966 L28.7919691,38.7652966 L19.3892359,25.3231003 C18.4160256,23.9316091 18.2717301,22.3425653 19.06065,21.7052233 C19.2896407,21.5202138 19.5947001,21.4222214 19.941323,21.4222214 Z" id="路径" stroke="#FA5151" stroke-width="1.3"></path>
        </g>
    </g>
</svg>