<?xml version="1.0" encoding="UTF-8"?>
<svg width="24px" height="24px" viewBox="0 0 24 24" version="1.1" xmlns="http://www.w3.org/2000/svg" xmlns:xlink="http://www.w3.org/1999/xlink">
    <title>icons_outlined_shake</title>
    <g id="页面-1" stroke="none" stroke-width="1" fill="none" fill-rule="evenodd">
        <g id="摇一摇" transform="translate(2.000000, 4.000000)" fill-rule="nonzero">
            <path d="M6.35714286,0.65 L6.35714286,0.65 L12.6428571,0.65 C13.1278579,0.65 13.5701389,0.810806218 13.8890735,1.08141738 C14.1661389,1.31650317 14.35,1.6376213 14.35,2 L14.35,2 L14.35,14 C14.35,14.3623787 14.1661389,14.6834968 13.8890735,14.9185826 C13.5701389,15.1891938 13.1278579,15.35 12.6428571,15.35 L12.6428571,15.35 L6.35714286,15.35 C5.87214209,15.35 5.42986108,15.1891938 5.1109265,14.9185826 C4.8338611,14.6834968 4.65,14.3623787 4.65,14 L4.65,14 L4.65,2 C4.65,1.6376213 4.8338611,1.31650317 5.1109265,1.08141738 C5.42986108,0.810806218 5.87214209,0.65 6.35714286,0.65 L6.35714286,0.65 Z" id="形状" stroke="#000000" stroke-width="1.3"></path>
            <path d="M2.61538462,4.28153319 C2.94709008,4.28153319 3.22617602,4.5490675 3.26465385,4.90372153 L3.26923076,4.98536617 L3.26923076,13.2969297 C3.26884696,13.669323 2.99905462,13.9769481 2.65370338,13.9987721 C2.30835214,14.020596 2.00697486,13.7490651 1.96611539,13.3792781 L1.96153846,13.2969297 L1.96153846,4.98536617 C1.96153846,4.59664995 2.25427536,4.28153319 2.61538462,4.28153319 Z" id="路径" fill="#000000" opacity="0.418364025"></path>
            <path d="M16.3846154,4 C16.7160989,4 16.995101,4.26710962 17.0338846,4.62148452 L17.0384615,4.70383297 L17.0384615,13.1498286 C17.0380777,13.5222219 16.7682854,13.829847 16.4229342,13.851671 C16.0775829,13.873495 15.7762056,13.601964 15.7353462,13.232177 L15.7307692,13.1498286 L15.7307692,4.70383297 C15.7307692,4.31511676 16.0235061,4 16.3846154,4 Z" id="路径" fill="#000000" opacity="0.418364025"></path>
            <path d="M18.3461539,5.81166606 C18.6776374,5.81166606 18.9566395,6.07877568 18.9954231,6.43315057 L19,6.51549903 L19,12.1461628 C18.9996162,12.5185561 18.7298239,12.8261812 18.3844726,12.8480052 C18.0391214,12.8698291 17.7377441,12.5982982 17.6968846,12.2285112 L17.6923077,12.1461628 L17.6923077,6.51549903 C17.6923077,6.12678281 17.9850446,5.81166606 18.3461539,5.81166606 Z" id="路径" fill="#000000" opacity="0.1976609"></path>
            <path d="M0.653846159,5.81166606 C0.985329702,5.81166606 1.26433182,6.07877568 1.30311539,6.43315057 L1.3076923,6.51549903 L1.3076923,12.1461628 C1.3073085,12.5185561 1.03751616,12.8261812 0.69216492,12.8480052 C0.346813676,12.8698291 0.0454363962,12.5982982 0.00457692819,12.2285112 L-1.66533454e-14,12.1461628 L-1.66533454e-14,6.51549903 C-1.66533454e-14,6.12678281 0.292736897,5.81166606 0.653846159,5.81166606 Z" id="路径" fill="#000000" opacity="0.1976609"></path>
        </g>
    </g>
</svg>