<?xml version="1.0" encoding="UTF-8"?>
<svg width="24px" height="24px" viewBox="0 0 24 24" version="1.1" xmlns="http://www.w3.org/2000/svg" xmlns:xlink="http://www.w3.org/1999/xlink">
    <title>icons_filled_previous2</title>
    <g id="页面-1" stroke="none" stroke-width="1" fill="none" fill-rule="evenodd">
        <g id="icons_filled_previous备份" transform="translate(12.000000, 12.000000) scale(1, -1) rotate(-270.000000) translate(-12.000000, -12.000000) translate(2.000000, 2.000000)" fill="#000000">
            <path d="M10,0.35 C15.3295478,0.35 19.65,4.67045216 19.65,10 C19.65,15.3295478 15.3295478,19.65 10,19.65 C4.67045216,19.65 0.35,15.3295478 0.35,10 C0.35,4.67045216 4.67045216,0.35 10,0.35 Z M11.1164705,6.67146743 C9.66893735,4.95199235 8.04013934,5.13947454 6.59538477,7.12952837 C6.43315352,7.35299119 6.48279151,7.66565801 6.70625433,7.82788927 C6.92971715,7.99012052 7.24238397,7.94048253 7.40461523,7.71701971 C8.48860868,6.22389045 9.34912133,6.12484145 10.3514615,7.31548709 C10.4880647,7.47775339 10.562942,7.68300632 10.5628815,7.89502284 L10.5628815,7.89502284 L10.5626093,10.8688982 C9.87388542,10.8984452 9.26027938,11.0303562 9.04553396,11.2766004 C8.44565773,11.9644661 9.96823839,14.2888063 10.7435168,14.3158334 C11.5187952,14.3428606 13.4311133,11.9627704 13.0939128,11.4125691 C12.9276909,11.1413491 12.2896855,10.9641292 11.5631377,10.8950782 L11.5628815,7.89516539 L11.555566,7.72811085 C11.5214427,7.34056965 11.3688347,6.97124234 11.1164705,6.67146743 Z" id="形状结合"></path>
        </g>
    </g>
</svg>