<?xml version="1.0" encoding="UTF-8"?>
<svg width="24px" height="24px" viewBox="0 0 24 24" version="1.1" xmlns="http://www.w3.org/2000/svg" xmlns:xlink="http://www.w3.org/1999/xlink">
    <title>icons_filled_back2</title>
    <g id="页面-1" stroke="none" stroke-width="1" fill="none" fill-rule="evenodd">
        <g id="icons_filled_back2备份" transform="translate(2.000000, 2.000000)">
            <path d="M10,0.65 C12.5819312,0.65 14.9194312,1.6965344 16.6114484,3.3885516 C18.3034656,5.08056879 19.35,7.41806879 19.35,10 C19.35,12.5819312 18.3034656,14.9194312 16.6114484,16.6114484 C14.9194312,18.3034656 12.5819312,19.35 10,19.35 C7.41806879,19.35 5.08056879,18.3034656 3.3885516,16.6114484 C1.6965344,14.9194312 0.65,12.5819312 0.65,10 C0.65,7.41806879 1.6965344,5.08056879 3.3885516,3.3885516 C5.08056879,1.6965344 7.41806879,0.65 10,0.65 Z" id="Combined-Shape-path" stroke="#000000" stroke-width="1.3" opacity="0.597400484" fill-rule="nonzero"></path>
            <path d="M15.0766918,18.2530029 C16.8604491,16.0209121 20.4663364,13.4895944 18.6752502,11.9354816 C18.0895848,11.7989641 19.6272396,10 19,10 C14.581722,10 11,13.581722 11,18 C11,18.6511136 11.0777856,19.2840594 11.2245711,19.8900516 C11.4016153,20.6209645 12.5975866,18.5456739 12.9599738,19.1827477 C14.3341827,18.6481001 12.0948632,18.2530029 15.0766918,18.2530029 Z" id="椭圆形" fill="#000000" opacity="0.194963728"></path>
            <path d="M11.998534,12.9375 L8.68026,9.5 L11.998534,6.0625 L10.9530663,5 L7.29043516,8.7769971 C6.9031541,9.1763711 6.90322246,9.8236994 7.29043516,10.2230029 L10.9530663,14 L11.998534,12.9375 Z" id="Combined-Shape-path" fill="#000000" fill-rule="nonzero"></path>
        </g>
    </g>
</svg>