<?xml version="1.0" encoding="UTF-8"?>
<svg width="24px" height="24px" viewBox="0 0 24 24" version="1.1" xmlns="http://www.w3.org/2000/svg" xmlns:xlink="http://www.w3.org/1999/xlink">
    <title>icons_filled_new_share</title>
    <g id="页面-1" stroke="none" stroke-width="1" fill="none" fill-rule="evenodd">
        <g id="编组-14备份-3" transform="translate(3.000000, 3.000000)" fill="#000000">
            <path d="M9.92433964,-2.84217094e-14 C10.1879044,-2.84217094e-14 10.4408124,0.10405227 10.6280672,0.28953012 L17.7993619,7.39277017 C18.1615604,7.75153137 18.1919939,8.31862377 17.8888427,8.71236477 L17.7993619,8.81370987 L10.6280672,15.9169499 C10.2356855,16.305608 9.60252784,16.3025893 9.21386974,15.9102077 C9.02839194,15.7229528 8.92433964,15.4700449 8.92433964,15.2064801 L8.92433964,11.9235516 C6.58571702,12.1115132 3.17227836,13.4933132 1.39650245,17.8237984 C1.10147911,18.5432553 0.377746152,18.5370401 0.220236732,17.6045094 C-1.02624612,10.2247376 3.17227836,5.21676864 8.92433964,4.31034922 L8.92433964,1 C8.92433964,0.44771525 9.37205494,-2.84217094e-14 9.92433964,-2.84217094e-14 Z M10.123638,1.47997067 L10.1243396,5.33605905 L9.11113264,5.4957219 C4.28556729,6.25614254 1.13496089,10.0153529 1.20405054,15.2547184 L1.21063804,15.5419707 L1.23594866,15.5004773 C3.00986249,12.6437221 5.6900441,11.0687626 8.54241814,10.754621 L8.82820234,10.7274088 L10.1243396,10.6232346 L10.123638,14.7259707 L16.811638,8.10297067 L10.123638,1.47997067 Z" id="转发" stroke="#000000" stroke-width="0.3" fill-opacity="0.9" fill-rule="nonzero"></path>
            <path d="M11.4049215,14.3500872 C12.5046591,13.5205309 14,12.4529407 15.1480561,10.7591071 C15.8033812,9.79224536 17.6196593,9.69908479 16.9856346,8.83741263 C16.1604187,7.71590159 14.9054529,7 13.5,7 C11.0147186,7 9,9.23857625 9,12 C9,13.3316213 9.46850021,14.5416604 10.232346,15.437723 C11.0525104,16.3998527 10.3503869,15.1455459 11.4049215,14.3500872 Z" id="椭圆形" opacity="0.196963356"></path>
        </g>
    </g>
</svg>