<?xml version="1.0" encoding="UTF-8"?>
<svg width="24px" height="24px" viewBox="0 0 24 24" version="1.1" xmlns="http://www.w3.org/2000/svg" xmlns:xlink="http://www.w3.org/1999/xlink">
    <title>icons_outlined_takephoto_nor</title>
    <g id="页面-1" stroke="none" stroke-width="1" fill="none" fill-rule="evenodd">
        <g id="icons_outlined_takephoto_nor" transform="translate(4.000000, 2.000000)" fill-rule="nonzero">
            <path d="M10.1309602,5 L10.1309602,6.94806107 C10.1309602,7.17406563 10.3192656,7.47622391 10.5640626,7.47622391 L10.5640626,7.47622391 L14.9704092,7.47622391 L15,8.46622216 L14.9988967,9.92107062 C14.9939631,10.075237 14.9740218,10.2899988 14.9707155,11.2745814 L14.9703681,11.9899435 C14.9703354,12.0658435 14.9702782,12.1364169 14.9701804,12.202182 L14.9689774,12.5432212 C14.9644312,13.2237024 14.9456007,13.1649865 14.8681861,13.7896122 C14.1768364,17.3540972 10.7227771,19 7.50006461,19 C4.27735208,19 0.823292895,17.3516406 0.134633125,13.7896122 C0.126224045,13.7705889 0.0972787199,13.3248451 0.0297201118,13.1058548 C0.0289310355,12.9646069 0.00555283449,12.6773357 0,12.6045035 L0,12.6045035 L0.00120853229,11.6981621 C0.00131595704,11.6685734 0.00142562059,11.6418592 0.00153528276,11.6177262 L0.0027080068,11.4332777 C0.00278186209,11.425106 0.00284676361,11.4183434 0.00290047667,11.4126966 L0.00286466841,11.3797406 C0.00279305191,11.3783316 0.00270129318,11.3768661 0.00258715343,11.3750511 L0.00161585167,11.3576215 C0.00119062748,11.3488504 0.000657978522,11.3363363 0,11.3177346 C0.0297201118,10.9293781 0,9.98444967 0,9.85664153 L0,8.46622216 L0.0297201118,7.47622391 L4.6405125,7.47622391 C4.88799962,7.47622391 5.07630502,7.17406563 5.07630502,6.94806107 L5.07630502,6.94806107 L5.07630502,5.00982628 L7.32789967,6.34620109 C7.40053176,6.39041938 7.48661423,6.41252852 7.57000662,6.41252852 C7.65339902,6.41252852 7.73679141,6.39041938 7.80942349,6.34865766 L7.80942349,6.34865766 L10.1309602,5 Z" id="形状结合" stroke="#000000" stroke-width="1.5"></path>
            <path d="M5,9 C4.44827587,9 4,10.1191024 4,11.5 C4,12.8808976 4.44827587,14 5,14 C5.55172413,14 6,12.8808976 6,11.5 C5.99712644,10.1191024 5.54885057,9 5,9 Z" id="形状结合-path" fill="#000000" opacity="0.206147693"></path>
            <path d="M11,9 C10.4482759,9 10,10.1191024 10,11.5 C10,12.8808976 10.4482759,14 11,14 C11.5517241,14 12,12.8808976 12,11.5 C12,10.1191024 11.5517241,9 11,9 Z" id="形状结合-path" fill="#000000" opacity="0.206147693"></path>
            <path d="M14.9390583,5 C14.8476455,4.96587638 12.6842106,4.16397123 12.6842106,2.53741186 C12.6842106,1.92318666 12.8836566,1.45683047 13.1357341,1.11559423 C11.9722992,0.999005189 9.93628813,0.890947049 7.40997233,1.15256149 C1.95567868,1.71844491 1.05817175,4.21515667 0.96398892,4.54217472 L0.96398892,4.59051653 L0,4.59051653 L0.00831024852,4.39146206 C0.0332409969,4.24643665 0.720221608,0.853979791 7.31024934,0.168663692 C11.465374,-0.260725232 14.265928,0.262503656 14.3850416,0.285252739 L16,0.595208981 L14.4819946,1.22933965 C14.4515236,1.24355782 13.6481995,1.60469951 13.6481995,2.53741186 C13.6481995,3.30803702 14.8421053,3.91657497 15.2603879,4.06728763 L15.5817175,4.18387668 L15.5817175,4.58767289 L15.0803324,4.58767289 L14.9390583,5 Z" id="路径" fill="#000000"></path>
        </g>
    </g>
</svg>