<?xml version="1.0" encoding="UTF-8"?>
<svg width="24px" height="24px" viewBox="0 0 24 24" version="1.1" xmlns="http://www.w3.org/2000/svg" xmlns:xlink="http://www.w3.org/1999/xlink">
    <title>icons_filled_cards&amp;offers</title>
    <g id="页面-1" stroke="none" stroke-width="1" fill="none" fill-rule="evenodd">
        <g id="icons_filled_cards&amp;offers备份" transform="translate(2.000000, 3.000000)">
            <path d="M19,3 L6,1.48959933 L18.0821548,0.00785146859 C18.5890667,-0.0543158871 19,0.25920696 19,0.717398574 L19,3 Z" id="Combined-Shape-path" fill="#000000" fill-rule="nonzero" opacity="0.20031157"></path>
            <path d="M0.742767868,2.7112969 L19.0275126,5.10230188 C19.1140594,5.11403292 19.1872436,5.16898564 19.2426496,5.23481099 C19.3063523,5.31049316 19.35,5.40733 19.35,5.50983447 L19.35,5.50983447 L19.35,17.0464242 C19.35,17.1433144 19.3205206,17.2316247 19.2572321,17.2887031 C19.2011461,17.3392858 19.1226201,17.3578695 19.0401787,17.3466949 L19.0401787,17.3466949 L0.972487417,14.8976981 C0.885940577,14.8859671 0.812756416,14.8310144 0.757350368,14.765189 C0.693647714,14.6895069 0.65,14.59267 0.65,14.4901656 L0.65,14.4901656 L0.65,2.95357576 C0.65,2.85668556 0.679479413,2.76837532 0.742767868,2.7112969 L0.742767868,2.7112969 Z" id="Combined-Shape-path" stroke="#000000" stroke-width="1.3" fill-rule="nonzero"></path>
            <polygon id="矩形" fill="#000000" opacity="0.203171503" points="1 10 15 17 11.7571138 16.2678738 1 14.5955976"></polygon>
        </g>
    </g>
</svg>