<?xml version="1.0" encoding="UTF-8"?>
<svg width="24px" height="24px" viewBox="0 0 24 24" version="1.1" xmlns="http://www.w3.org/2000/svg" xmlns:xlink="http://www.w3.org/1999/xlink">
    <title>icons_filled_me</title>
    <g id="页面-1" stroke="none" stroke-width="1" fill="none" fill-rule="evenodd">
        <g id="我的备份" transform="translate(4.000000, 5.000000)" fill="#000000" fill-rule="nonzero">
            <path d="M8,0 L13,0 L13,5 C13,7.76142375 10.7614237,10 8,10 C5.23857625,10 3,7.76142375 3,5 C3,2.23857625 5.23857625,0 8,0 Z" id="路径"></path>
            <path d="M3.5,11 L12.5020576,11 C14.4339178,11 16,12.1189594 16,13.4992651 L16,13.856513 C16,15.0403282 14.6568542,16 13,16 L3,16 C1.34314575,16 0,15.0403282 0,13.856513 L0,13.4992651 C0,12.8361641 0.368814435,12.2002435 1.02525097,11.7314981 C1.68168751,11.2627528 2.57193154,10.9996104 3.5,11 Z" id="路径" opacity="0.2"></path>
        </g>
    </g>
</svg>