<?xml version="1.0" encoding="UTF-8"?>
<svg width="24px" height="24px" viewBox="0 0 24 24" version="1.1" xmlns="http://www.w3.org/2000/svg" xmlns:xlink="http://www.w3.org/1999/xlink">
    <title>icons_filled_allselect</title>
    <g id="页面-1" stroke="none" stroke-width="1" fill="none" fill-rule="evenodd">
        <g id="全选" transform="translate(3.000000, 3.000000)" fill-rule="nonzero">
            <path d="M4.06241389,9 C3.8179199,9 3.58309293,8.90365753 3.40800806,8.7314693 L0.283109523,5.65729203 C-0.0876571068,5.29262325 -0.0952353741,4.69373191 0.266182989,4.31963079 C0.627601352,3.94552967 1.22115456,3.93788324 1.59192119,4.30255203 L3.99887429,6.67045678 L9.33724262,0.346585099 C9.55219456,0.081767511 9.89216992,-0.0452149695 10.2262047,0.0145533513 C10.5602395,0.0743216721 10.83621,0.311514374 10.947808,0.634761013 C11.0594059,0.958007652 10.9892172,1.3168679 10.7642796,1.57310301 L4.77489076,8.66735825 C4.60702411,8.86688453 4.36472729,8.98731508 4.10564166,9 L4.06241389,9 L4.06241389,9 Z" id="形状" fill="#000000"></path>
            <path d="M14.5007138,1.35000039 C15.3699694,1.350955 16.1568135,1.70364868 16.7265824,2.27341759 C17.2963513,2.8431865 17.649045,3.63003064 17.65,4.5 C17.65,5.36984848 17.2974242,6.15734848 16.7273864,6.72738636 C16.1573485,7.29742424 15.3698485,7.65 14.5,7.65 C13.6301515,7.65 12.8426515,7.29742424 12.2726136,6.72738636 C11.7025758,6.15734848 11.35,5.36984848 11.35,4.5 C11.35,3.63015152 11.7025758,2.84265152 12.2726136,2.27261364 C12.8426515,1.70257576 13.6301515,1.35 14.5007138,1.35000039 Z" id="路径" stroke="#000000" stroke-width="1.3" opacity="0.196963356"></path>
            <path d="M14.5007138,11.3500004 C15.3699694,11.350955 16.1568135,11.7036487 16.7265824,12.2734176 C17.2963513,12.8431865 17.649045,13.6300306 17.65,14.5 C17.65,15.3698485 17.2974242,16.1573485 16.7273864,16.7273864 C16.1573485,17.2974242 15.3698485,17.65 14.5,17.65 C13.6301515,17.65 12.8426515,17.2974242 12.2726136,16.7273864 C11.7025758,16.1573485 11.35,15.3698485 11.35,14.5 C11.35,13.6301515 11.7025758,12.8426515 12.2726136,12.2726136 C12.8426515,11.7025758 13.6301515,11.35 14.5007138,11.3500004 Z" id="路径" stroke="#000000" stroke-width="1.3"></path>
            <path d="M4.50071382,11.3500004 C5.36996936,11.350955 6.1568135,11.7036487 6.72658241,12.2734176 C7.29635132,12.8431865 7.649045,13.6300306 7.65,14.5 C7.65,15.3698485 7.29742424,16.1573485 6.72738636,16.7273864 C6.15734848,17.2974242 5.36984848,17.65 4.5,17.65 C3.63015152,17.65 2.84265152,17.2974242 2.27261364,16.7273864 C1.70257576,16.1573485 1.35,15.3698485 1.35,14.5 C1.35,13.6301515 1.70257576,12.8426515 2.27261364,12.2726136 C2.84265152,11.7025758 3.63015152,11.35 4.50071382,11.3500004 Z" id="路径" stroke="#000000" stroke-width="1.3" opacity="0.198474702"></path>
        </g>
    </g>
</svg>