<?xml version="1.0" encoding="UTF-8"?>
<svg width="24px" height="24px" viewBox="0 0 24 24" version="1.1" xmlns="http://www.w3.org/2000/svg" xmlns:xlink="http://www.w3.org/1999/xlink">
    <title>icons_outlined_tv</title>
    <g id="页面-1" stroke="none" stroke-width="1" fill="none" fill-rule="evenodd">
        <g id="tv" transform="translate(2.000000, 3.000000)" fill="#000000">
            <path d="M8.77224824,8 C9.16789944,8 9.48863811,8.32073867 9.48863811,8.71638987 C9.48863811,9.11204107 9.16789944,9.43277974 8.77224824,9.43277974 L7.428,9.432 L7.42876776,13.3333333 C7.42876776,13.7 7.10729501,14 6.71438388,14 C6.32147275,14 6,13.7 6,13.3333333 L6,9.432 L4.71638987,9.43277974 C4.32073867,9.43277974 4,9.11204107 4,8.71638987 C4,8.32073867 4.32073867,8 4.71638987,8 L8.77224824,8 Z" id="形状结合" fill-rule="nonzero"></path>
            <path d="M13.1438388,14 C12.8580853,14 12.6080509,13.8333333 12.5008933,13.6 L10.3577417,8.93333333 C10.2148649,8.6 10.3577417,8.2 10.7149336,8.06666667 C11.0721255,7.93333333 11.5007559,8.06666667 11.6436327,8.43333333 L13.1438388,11.6666667 L14.644045,8.43333333 C14.7869217,8.1 15.2155521,7.93333333 15.572744,8.06666667 C15.9299359,8.2 16.1085319,8.6 15.9299359,8.93333333 L13.7867843,13.6 C13.6796267,13.8333333 13.4295924,14 13.1438388,14 L13.1438388,14 Z" id="路径" fill-rule="nonzero" opacity="0.327566964"></path>
            <path d="M5.16875,0.171428571 L8.572,3 L10.427,3 L13.83125,0.171428571 C14.10625,-0.0571428571 14.51875,-0.0571428571 14.79375,0.171428571 C15.06875,0.4 15.06875,0.742857143 14.79375,0.971428571 L12.352,3 L17,3 C18.1,3 19,3.92045455 19,5.04545455 L19,15.9545455 C19,17.0795455 18.1,18 17,18 L3,18 C1.9,18 1,17.0795455 1,15.9545455 L1,5.04545455 C1,3.92045455 1.9,3 3,3 L6.647,3 L4.20625,0.971428571 C3.93125,0.742857143 3.93125,0.4 4.20625,0.171428571 C4.48125,-0.0571428571 4.89375,-0.0571428571 5.16875,0.171428571 Z M17,4.36363636 L3,4.36363636 C2.63333333,4.36363636 2.33333333,4.67045455 2.33333333,5.04545455 L2.33333333,15.9545455 C2.33333333,16.3295455 2.63333333,16.6363636 3,16.6363636 L17,16.6363636 C17.3666667,16.6363636 17.6666667,16.3295455 17.6666667,15.9545455 L17.6666667,5.04545455 C17.6666667,4.67045455 17.3666667,4.36363636 17,4.36363636 Z" id="形状结合" fill-rule="nonzero"></path>
            <path d="M17.3405366,17.2232886 C18.6693246,16.0635433 19.830048,13.3749742 19.1125282,13.3749742 C15.7540034,13.3749742 13.0313812,14.8143612 13.0313812,16.5899351 C14.7920878,16.8439269 13.9820118,17.2232886 17.3405366,17.2232886 Z" id="椭圆形" opacity="0.19968378" transform="translate(16.181651, 15.299131) rotate(-16.000000) translate(-16.181651, -15.299131) "></path>
            <path d="M3.93761393,6.86220831 C4.17856429,5.96028886 4.40564587,6.79113481 4.40564587,5.59406073 C4.40564587,4.65273119 4.56490906,5.16001397 4.6481566,4.68899837 C4.24640332,4.60766588 5.32027742,3.86388861 4.86924409,3.86388861 C2.75807362,3.86388861 1.04663181,4.83430888 1.04663181,6.03138295 C2.15341292,6.20262167 1.82644346,6.86220831 3.93761393,6.86220831 Z" id="椭圆形备份-13" opacity="0.19968378" transform="translate(3.014356, 5.363048) rotate(-195.000000) translate(-3.014356, -5.363048) "></path>
        </g>
    </g>
</svg>