<?xml version="1.0" encoding="UTF-8"?>
<svg width="24px" height="24px" viewBox="0 0 24 24" version="1.1" xmlns="http://www.w3.org/2000/svg" xmlns:xlink="http://www.w3.org/1999/xlink">
    <title>icons_outlined_colorful_handoff</title>
    <g id="页面-1" stroke="none" stroke-width="1" fill="none" fill-rule="evenodd">
        <g id="icons_outlined_colorful_handoff" transform="translate(2.000000, 4.000000)">
            <path d="M12.7100379,16 L13.961519,18.4036697 C14.0816088,18.6343513 13.9112428,18.8893573 13.5809958,18.9732415 C13.5113014,18.9909442 13.4377131,19 13.3635539,19 L5.63627298,19 C5.28486912,19 5,18.8010154 5,18.5555556 C5,18.5037544 5.01296438,18.4523521 5.03830785,18.4036697 L6.28924813,16 L12.7100379,16 Z" id="形状结合" fill="#10AEFF" fill-rule="nonzero"></path>
            <path d="M18.0148148,0 C18.5589175,0 19,0.461853626 19,1.03157895 L19,12.9684211 C19,13.5381463 18.5589175,14 18.0148148,14 L0.985185185,14 C0.441082431,14 0,13.5381463 0,12.9684211 L0,1.03157895 C0,0.461853626 0.441082431,0 0.985185185,0 L18.0148148,0 Z" id="形状结合-path" stroke="#10AEFF" stroke-width="1.3" fill-rule="nonzero"></path>
            <path d="M17.2841614,14 C19.4933004,14 19,14.209139 19,12 C19,10.1941394 19.2427236,9.56904794 19.1596686,8.17068879 C18.792618,8.05967958 18.4032784,8 18,8 C15.790861,8 14,9.790861 14,12 C14,12.9055781 14.3009315,13.7408699 14.8082476,14.4113285 C15.8423695,14.3155873 15.9806005,14 17.2841614,14 Z" id="椭圆形" fill="#10AEFF" opacity="0.19875372"></path>
            <path d="M9.78940251,3.3517813 C9.6196095,3.18442195 9.35239519,3.19287668 9.19256262,3.37066547 L9.19256262,3.37066547 L5.98148148,6.94249124 L6.86111111,7.92094174 L8.87862963,5.67716881 L8.87800791,10.7684101 L10.1219921,10.7684101 L10.1220741,5.67643197 L12.1388889,7.92094174 L13.0185185,6.94249124 L10.3796296,4.00713987 L9.80743738,3.37066547 C9.80160874,3.36418201 9.7955944,3.35788442 9.78940251,3.3517813 Z" id="形状结合-path" fill="#10AEFF" fill-rule="nonzero"></path>
        </g>
    </g>
</svg>