<?xml version="1.0" encoding="UTF-8"?>
<svg width="56px" height="48px" viewBox="0 0 56 48" version="1.1" xmlns="http://www.w3.org/2000/svg" xmlns:xlink="http://www.w3.org/1999/xlink">
    <title>icons_filled_like_finder</title>
    <g id="页面-1" stroke="none" stroke-width="1" fill="none" fill-rule="evenodd">
        <g id="icons_filled_like_finder" fill="#000000" fill-rule="nonzero">
            <path d="M27.9780802,6.4396367 C28.8438736,5.6238979 29.5509804,4.9418184 30.0994005,4.3933983 C35.9572649,-1.4644661 45.4547396,-1.4644661 51.3126039,4.3933983 C57.1159785,10.1967729 57.1699615,19.5723615 51.4745527,25.4421935 L30.0994005,46.8198051 C29.4950145,47.4242544 28.6968716,47.7168931 27.9048745,47.6977108 C27.161704,47.6797111 27.1122867,5.6238979 27.9780802,6.4396367 Z" id="Combined-Shape" opacity="0.196940104"></path>
            <path d="M4.6435564,4.3933983 C10.5014208,-1.4644661 19.9988954,-1.4644661 25.8567598,4.3933983 C26.4051799,4.9418184 27.1122867,5.6238979 27.9780802,6.4396367 C28.8438736,5.6238979 28.8159289,47.6710716 28.0837385,47.6967423 C27.2811633,47.7248806 26.4694426,47.4326459 25.8567598,46.8200272 L4.4803779,25.4434232 C-1.21380113,19.5723615 -1.15981822,10.1967729 4.6435564,4.3933983 Z" id="Combined-Shape"></path>
        </g>
    </g>
</svg>