<?xml version="1.0" encoding="UTF-8"?>
<svg width="24px" height="24px" viewBox="0 0 24 24" version="1.1" xmlns="http://www.w3.org/2000/svg" xmlns:xlink="http://www.w3.org/1999/xlink">
    <title>icons_outlined_shop</title>
    <g id="页面-1" stroke="none" stroke-width="1" fill="none" fill-rule="evenodd">
        <g id="购物袋" transform="translate(5.000000, 4.000000)" fill-rule="nonzero">
            <path d="M13.2537702,16 L1.78767468,16 C0.75384641,16 -0.0450209052,15.1482759 0.00197130403,14.1172414 L0.659862013,4.70344828 C0.7068542,3.76206897 1.50572152,3 2.44556541,3 C3.01231279,3 3.4314934,3 3.70310723,3 C5.14553578,3 3.75,6.34718452 7.5,6.34718452 C11.25,6.34718452 10.3328113,3 11.3284715,3 C11.599675,3 12.0064802,3 12.5488872,3 C13.4887311,3 14.2875984,3.71724137 14.3345906,4.70344828 L14.9924814,14.1172414 C15.0864658,15.1482759 14.2875984,16 13.2537702,16 Z" id="路径" stroke="#000000" stroke-width="1.3"></path>
            <path d="M7.5,0 C9.975,0 12,2.025 12,4.5 L11.9950776,4.71100408 C11.8839184,7.08906123 9.90428572,9 7.5,9 C5.025,9 3,6.975 3,4.5 L3,4.5 C3,2.025 5.025,0 7.5,0 Z" id="形状结合" fill="#000000" opacity="0.202683222"></path>
        </g>
    </g>
</svg>