<?xml version="1.0" encoding="UTF-8"?>
<svg width="24px" height="24px" viewBox="0 0 24 24" version="1.1" xmlns="http://www.w3.org/2000/svg" xmlns:xlink="http://www.w3.org/1999/xlink">
    <title>icons_filled_transfer</title>
    <g id="页面-1" stroke="none" stroke-width="1" fill="none" fill-rule="evenodd">
        <g id="转账" transform="translate(1.000000, 2.000000)" fill-rule="nonzero">
            <path d="M14.6534317,5.13503683 C15.0218804,5.37076155 15.110625,5.83283967 14.8515224,6.16804454 L12.3016991,9.4681906 L14.0528208,9.4681906 C14.4547977,9.46828174 14.7930077,9.74220113 14.839637,10.1054403 L14.8443912,10.1897822 C14.8443912,10.5879081 14.4896383,10.9106529 14.0520284,10.9106529 L11.8849163,10.909932 L11.8849163,12.3516734 L14.0520284,12.3516734 C14.4543077,12.3513986 14.7929727,12.6254106 14.839637,12.9889231 L14.8443912,13.073265 C14.8443912,13.4713909 14.4896383,13.7941357 14.0520284,13.7941357 L11.8849163,13.7934148 L11.8857087,15.2791293 C11.8856557,15.6445926 11.5850014,15.9521947 11.1860524,15.9949539 L11.0933459,16 C10.6557361,16 10.3009832,15.6772552 10.3009832,15.2791293 L10.3009832,13.7934148 L7.79236274,13.7934148 C7.39065478,13.7933666 7.05254637,13.5198392 7.00554654,13.156886 L7,13.073265 C7,12.6751391 7.35475288,12.3523943 7.79236274,12.3523943 L10.3001908,12.3516734 L10.3001908,10.909932 L7.79236274,10.909932 C7.39065478,10.9098838 7.05254637,10.6363564 7.00554654,10.2734032 L7,10.1897822 C7,9.79165628 7.35475288,9.46891147 7.79236274,9.46891147 L9.77406197,9.4681906 L7.22423866,6.16804454 C6.98684057,5.86037461 7.03994761,5.43978296 7.34784724,5.18910214 L7.42232934,5.13503683 C7.59912843,5.02183784 7.81813973,4.97722616 8.03111641,5.01102946 C8.24409308,5.04483277 8.43356229,5.1542778 8.55778515,5.31525451 L11.0378805,8.52673347 L13.5179759,5.31525451 C13.6421988,5.1542778 13.831668,5.04483277 14.0446447,5.01102946 C14.2576214,4.97722616 14.4766327,5.02183784 14.6534317,5.13503683 L14.6534317,5.13503683 Z" id="路径" fill="#1C1C1E"></path>
            <path d="M11.6583176,0 C14.9029898,-0.00246955809 17.9512847,1.5647283 19.8519088,4.21251484 C20.0150315,4.43907912 20.0457162,4.73605527 19.9324045,4.99157524 C19.8190927,5.2470952 19.5789991,5.42233944 19.3025647,5.45129512 C19.0261303,5.4802508 18.7553519,5.35851889 18.5922293,5.1319546 C16.9842168,2.89073823 14.4043164,1.56430163 11.6583176,1.56693547 C6.93206052,1.56693547 3.10006243,5.42446899 3.10006243,10.1839219 C3.10006243,10.7156277 2.58030276,11.1970577 1.97505134,10.9182549 C1.84415261,10.8584053 1.72927123,10.7680627 1.63989336,10.6546872 C1.54531204,10.5415381 1.45691554,10.4232911 1.37509586,10.3004706 L1.14812657,9.95920379 C1.07247015,9.84036982 0.987734946,9.70782424 0.894677539,9.55928177 L0.593564955,9.07175779 L0.116929456,8.28257834 C-0.102357259,7.92668068 -0.004698657,7.46005666 0.338577621,7.22351793 C0.681853899,6.9869792 1.1492128,7.06427099 1.39930592,7.39894112 L1.44999572,7.47511674 L1.7745618,8.01291664 C2.76187819,3.43171471 6.81252336,0 11.6583176,0 Z" id="路径" fill="#1C1C1E"></path>
            <path d="M19.0679176,9.78727283 C19.0679176,9.03476437 19.9541974,8.72764924 20.3796981,9.2868738 L20.4300959,9.3609787 L21.8801101,11.7460867 C22.0945546,12.0956716 22.0140445,12.5621553 21.6967644,12.8084104 C21.3794843,13.0546656 20.9361348,12.9947725 20.6871242,12.6720159 L20.6360065,12.597911 L20.3091413,12.0600776 L20.2565837,12.2946157 C19.2032715,16.7225742 15.4241628,20 10.9236469,20 C7.84552831,20.0025843 4.95244968,18.4406565 3.14223967,15.7989369 C2.90127772,15.4483148 2.9738043,14.9568032 3.30423233,14.7011149 C3.63466036,14.4454266 4.09786346,14.5223856 4.33882542,14.8730077 C5.87025418,17.1090732 8.31867167,18.4311084 10.9236469,18.4285147 C15.4212829,18.4285147 19.0679176,14.5597808 19.0679176,9.78727283 L19.0679176,9.78727283 Z" id="路径" fill="#000000" opacity="0.199451265"></path>
        </g>
    </g>
</svg>