<?xml version="1.0" encoding="UTF-8"?>
<svg width="24px" height="24px" viewBox="0 0 24 24" version="1.1" xmlns="http://www.w3.org/2000/svg" xmlns:xlink="http://www.w3.org/1999/xlink">
    <title>icons_filled_nearby_wxa</title>
    <g id="页面-1" stroke="none" stroke-width="1" fill="none" fill-rule="evenodd">
        <g id="附近备份-4" transform="translate(4.000000, 4.000000)" fill-rule="nonzero">
            <path d="M15.9972433,8.74375 C15.9972433,6.26875 14.3666828,4.27499999 12.3284821,4 C12.4449508,4.48124999 12.5031851,5.03125 12.5031851,5.58124999 C12.5031851,5.58124999 12.5614194,6.13124999 12.3867165,7.02499999 C12.9108252,7.23124999 11.920842,8.125 11.920842,8.74375 C11.920842,9.6375 12.677888,10.05 11.920842,10.05 C11.6879048,10.05 12.0955449,10.4209326 11.920842,10.3521826 L11.338499,11.6817902 C10.8143902,12.3692902 10.5241087,11.7 10,12.25 C11.2811547,13.9 11.920842,15 11.920842,15 C11.920842,15 13.4931682,14.0375 14.8325573,12.25 C16.113712,10.4625 15.9972434,8.74375 15.9972433,8.74375 Z" id="路径" fill="#35BEFF" opacity="0.200520833"></path>
            <path d="M6.5,0.65 C8.11153307,0.65 9.56858436,1.33877336 10.6234979,2.44936116 C11.6891978,3.57130465 12.3453733,5.12273703 12.345405,6.83175501 C12.3364715,7.73629249 12.1598974,9.60931724 10.6927136,11.4791881 C9.17733908,13.3843151 7.47339024,14.613957 6.65709584,15.1424264 C5.57340805,14.6560384 3.8427262,13.4287899 2.30995713,11.5489588 C0.849748495,9.68800041 0.664286535,7.82787121 0.650867366,7.16594522 C0.654137204,5.30612192 1.29856268,3.68023056 2.35439459,2.51506024 C3.41012734,1.34999936 4.87657613,0.65 6.5,0.65 Z" id="路径" stroke="#35BEFF" stroke-width="1.3"></path>
            <path d="M7,9 C5.91428571,9 5,8.11764706 5,7 C5,5.88235292 5.91428571,5 7,5 C8.08571427,5 9,5.82352942 9,6.94117647 C9,8.05882352 8.08571429,9 7,9 L7,9 Z" id="路径" fill="#37C0FF" opacity="0.197707403"></path>
        </g>
    </g>
</svg>