<?xml version="1.0" encoding="UTF-8"?>
<svg width="48px" height="48px" viewBox="0 0 48 48" version="1.1" xmlns="http://www.w3.org/2000/svg" xmlns:xlink="http://www.w3.org/1999/xlink">
    <title>icons_outlined_min_window</title>
    <g id="页面-1" stroke="none" stroke-width="1" fill="none" fill-rule="evenodd">
        <g id="编组-13备份-5" fill="#000000">
            <g id="minimize窗口化" transform="translate(26.000000, 0.000000)">
                <path d="M7.08080797,18.478681 L14.5182425,18.478681 C15.663568,18.4788723 16.5919447,19.491802 16.5919447,20.7412479 C16.5919447,21.9906939 15.663568,23.0036236 14.5182425,23.0038149 L2.00568176,23.0038149 L1.89783277,22.9947646 L1.8314641,22.9879769 L1.75472541,22.9766641 C1.73948554,22.9738325 1.72427511,22.9708156 1.70909696,22.9676138 L1.66139452,22.9585635 C1.17575318,22.8527373 0.741329099,22.5595512 0.437722873,22.1327266 L0.607792504,22.3408828 C0.230255453,21.9267551 0.0127474976,21.3703991 0,20.7864993 C0,20.7714159 0,20.7563313 0,20.7412479 L0,7.1658463 C0.000280092736,5.91640036 0.928798975,4.90362573 2.07412443,4.90362573 C3.21944989,4.90362573 4.14796877,5.91640036 4.14814411,7.1658463 L4.14814411,15.2748862 C4.15081075,16.6660436 4.32568292,17.5512051 4.67276062,17.9303709 C5.01983833,18.3095367 5.82252077,18.4923067 7.08080797,18.478681 Z" id="路径备份" fill-rule="nonzero"></path>
                <path d="M12.785762,-0.714718626 C14.0870893,-0.65813918 15.1291826,0.383954119 15.185762,1.68528137 L15.785762,15.4852814 C15.8363881,16.6496817 14.9334957,17.6346553 13.7690954,17.6852814 C13.7080131,17.6879371 13.6468443,17.6879371 13.585762,17.6852814 C12.2844348,17.6287019 11.2423415,16.5866086 11.185762,15.2852814 L10.585762,1.48528137 C10.5351359,0.320881027 11.4380284,-0.664092524 12.6024287,-0.714718626 C12.663511,-0.717374376 12.7246798,-0.717374376 12.785762,-0.714718626 Z" id="矩形" opacity="0.196196057" transform="translate(13.185762, 8.485281) rotate(45.000000) translate(-13.185762, -8.485281) "></path>
            </g>
            <g id="minimize窗口化备份" transform="translate(11.000000, 36.500000) rotate(-180.000000) translate(-11.000000, -36.500000) translate(0.000000, 25.000000)">
                <path d="M7.08080797,18.4748661 L14.5182425,18.4748661 C15.663568,18.4750574 16.5919447,19.4879871 16.5919447,20.7374331 C16.5919447,21.986879 15.663568,22.9998087 14.5182425,23 L2.00568176,23 L1.89783277,22.9909497 L1.8314641,22.984162 L1.75472541,22.9728492 C1.73948554,22.9700177 1.72427511,22.9670007 1.70909696,22.9637989 L1.66139452,22.9547487 C1.17575318,22.8489224 0.741329099,22.5557364 0.437722873,22.1289117 L0.607792504,22.3370679 C0.230255453,21.9229403 0.0127474976,21.3665842 3.55271368e-14,20.7826844 C3.55271368e-14,20.767601 3.55271368e-14,20.7525165 3.55271368e-14,20.737433 L3.55271368e-14,7.16203144 C0.000280092736,5.9125855 0.928798975,4.89981087 2.07412443,4.89981087 C3.21944989,4.89981087 4.14796877,5.9125855 4.14814411,7.16203144 L4.14814411,15.2710714 C4.15081075,16.6622287 4.32568292,17.5473903 4.67276062,17.926556 C5.01983833,18.3057218 5.82252077,18.4884918 7.08080797,18.4748661 Z" id="路径备份" fill-rule="nonzero"></path>
                <path d="M12.785762,-0.718533484 C14.0870893,-0.661954038 15.1291826,0.380139261 15.185762,1.68146652 L15.785762,15.4814665 C15.8363881,16.6458669 14.9334957,17.6308404 13.7690954,17.6814665 C13.7080131,17.6841223 13.6468443,17.6841223 13.585762,17.6814665 C12.2844348,17.6248871 11.2423415,16.5827938 11.185762,15.2814665 L10.585762,1.48146652 C10.5351359,0.317066169 11.4380284,-0.667907382 12.6024287,-0.718533484 C12.663511,-0.721189234 12.7246798,-0.721189234 12.785762,-0.718533484 Z" id="矩形" opacity="0.196196057" transform="translate(13.185762, 8.481467) rotate(45.000000) translate(-13.185762, -8.481467) "></path>
            </g>
        </g>
    </g>
</svg>