<?xml version="1.0" encoding="UTF-8"?>
<svg width="24px" height="24px" viewBox="0 0 24 24" version="1.1" xmlns="http://www.w3.org/2000/svg" xmlns:xlink="http://www.w3.org/1999/xlink">
    <title>icons_add_expression</title>
    <g id="页面-1" stroke="none" stroke-width="1" fill="none" fill-rule="evenodd">
        <g id="icons_add_expression" transform="translate(0.000000, 1.000000)">
            <path d="M17.7067447,13.0754272 C18.0966299,12.1427875 18.3089932,11.1189619 18.3031523,10.0439815 C18.2787397,5.66521865 14.6411476,2.09583883 10.1782407,2.07142392 C5.71533383,2.04725823 2.11712413,5.57725569 2.14129217,9.95601852 C2.16570473,14.3347813 5.8032968,17.9041612 10.2662037,17.9285761 C11.3618414,17.9344147 12.4053641,17.7261625 13.3559671,17.343726" id="Path" stroke="#000000" stroke-width="1.2" stroke-linecap="round" transform="translate(10.222222, 10.000000) rotate(-15.000000) translate(-10.222222, -10.000000) "></path>
            <path d="M7.875,7 C8.49632035,7 9.00000001,7.48841661 9.00000001,8.09090912 C9.00000001,8.69340155 8.49632035,9.18181815 7.875,9.18181815 C7.25367965,9.18181815 6.75,8.69340155 6.75,8.09090912 C6.75,7.48841661 7.25367965,7 7.875,7 Z M13.125,7 C13.7463204,7 14.25,7.48841661 14.25,8.09090912 C14.25,8.69340155 13.7463204,9.18181815 13.125,9.18181815 C12.5036796,9.18181815 12,8.69340155 12,8.09090912 C12,7.48841661 12.5036796,7 13.125,7 Z" id="Combined-Shape" fill="#000000" fill-rule="nonzero"></path>
            <path d="M14.1305443,11.3939394 L6.86836693,11.3939394 L6.87424435,11.4208004 C7.23158222,12.9868076 8.63664088,14.1643528 10.3297564,14.2386939 L10.5,14.2424242 C12.2651824,14.2424242 13.74409,13.046067 14.1208471,11.4413839 L14.1305443,11.3939394 Z" id="Combined-Shape-path" fill="#000000" fill-rule="nonzero" opacity="0.201520647"></path>
            <line x1="17" y1="15" x2="23" y2="15" id="Path-7" stroke="#000000" stroke-width="1.3" opacity="0.197405134" stroke-linecap="round"></line>
            <line x1="20" y1="12" x2="20" y2="18" id="Path-7-Copy" stroke="#000000" stroke-width="1.3" opacity="0.197405134" stroke-linecap="round"></line>
        </g>
        <g id="icons_filled_othersticker" transform="translate(-24.000000, 2.000000)" fill="#000000" fill-rule="nonzero" opacity="0.201474144">
            <path d="M16.791132,-1.86517468e-14 C20.7845797,-1.86517468e-14 24.0219087,3.25288484 24.0219087,7.26552164 C24.0219087,11.2781584 20.7845797,14.5310433 16.791132,14.5310433 C16.3732212,14.5310433 15.963591,14.4954195 15.5663976,14.4268158 C15.6684531,13.9002663 15.7219087,13.3563757 15.7219087,12.8 C15.7219087,12.3393032 15.6852576,11.8871666 15.6130088,11.446582 C15.985288,11.5624402 16.3809584,11.6248346 16.791132,11.6248346 C18.8656572,11.6248346 20.5691869,10.0287812 20.7518467,7.9920738 L20.7518467,7.9920738 L14.2328343,7.99266103 C13.2130555,6.50828172 11.7340929,5.36397636 10,4.76496956 C11.0144114,1.98425105 13.6721565,-1.86517468e-14 16.791132,-1.86517468e-14 Z M20.4692282,3.9960369 C19.870211,3.9960369 19.3846117,4.48396963 19.3846117,5.08586515 C19.3846117,5.68776067 19.870211,6.17569339 20.4692282,6.17569339 C21.0682453,6.17569339 21.5538447,5.68776067 21.5538447,5.08586515 C21.5538447,4.48396963 21.0682453,3.9960369 20.4692282,3.9960369 Z M15.4076845,3.9960369 C14.8086673,3.9960369 14.323068,4.48396963 14.323068,5.08586515 C14.323068,5.68776067 14.8086673,6.17569339 15.4076845,6.17569339 C16.0067017,6.17569339 16.492301,5.68776067 16.492301,5.08586515 C16.492301,4.48396963 16.0067017,3.9960369 15.4076845,3.9960369 Z" id="形状结合"></path>
        </g>
    </g>
</svg>