<?xml version="1.0" encoding="UTF-8"?>
<svg width="24px" height="24px" viewBox="0 0 24 24" version="1.1" xmlns="http://www.w3.org/2000/svg" xmlns:xlink="http://www.w3.org/1999/xlink">
    <title>icons_filled_camera_switch</title>
    <g id="页面-1" stroke="none" stroke-width="1" fill="none" fill-rule="evenodd">
        <g id="cameraEmoticonCreateButton备份" transform="translate(1.000000, 3.000000)" fill="#000000" fill-rule="nonzero">
            <g id="icons_filled_camera" transform="translate(0.564103, 0.571429)">
                <path d="M10.4310327,13.0977237 C12.3525625,13.0977237 13.9102701,11.5511881 13.9102701,9.64343974 C13.9102701,9.38030203 13.6954139,9.16698677 13.4303753,9.16698677 C13.1653367,9.16698677 12.9504805,9.38030203 12.9504805,9.64343974 C12.9504805,11.0251533 11.8227277,12.1448178 10.4310327,12.1448178 C10.165994,12.1448178 9.95113782,12.3581331 9.95113782,12.6212707 C9.95113782,12.8844084 10.165994,13.0977237 10.4310327,13.0977237 Z" id="形状-path" opacity="0.198218936"></path>
                <path d="M7.6206398,9.83194384 C9.54216955,9.83194384 11.0998772,8.28540827 11.0998772,6.37765993 C11.0998772,6.11452221 10.885021,5.90120695 10.6199824,5.90120695 C10.3549438,5.90120695 10.1400876,6.11452221 10.1400876,6.37765993 C10.1400876,7.75937353 9.01233475,8.87903798 7.6206398,8.87903798 C7.35560115,8.87903798 7.14074491,9.09235324 7.14074491,9.35549087 C7.14074491,9.61862858 7.35560115,9.83194384 7.6206398,9.83194384 Z" id="形状-path备份-2" transform="translate(9.120311, 7.866575) rotate(-180.000000) translate(-9.120311, -7.866575) "></path>
                <path d="M13.9467421,2.48689958e-14 C14.4784656,-0.00282678617 15.0984897,0.376429759 15.3374774,0.847641739 L16.1451403,2.43899463 C16.2641542,2.67340947 16.5751261,2.86160841 16.8409878,2.86160838 L19.1905529,2.86160838 C20.2504609,2.86290675 21.1103973,3.71369555 21.115411,4.76599086 L21.1538462,15.2431913 C21.1562429,15.7478229 20.955377,16.2324795 20.5959218,16.5892672 C20.2364665,16.946055 19.7482584,17.1453586 19.239982,17.1428571 L1.96520809,17.1023108 C0.903833776,17.0986657 0.0437382778,16.2464399 0.0379504942,15.1926873 L-1.08357767e-13,4.76694375 C-0.00226024021,4.26215984 0.198202347,3.77728806 0.557044471,3.41967823 C0.915886595,3.0620684 1.40350427,2.86122282 1.91193976,2.86160838 L4.84553682,2.86160838 C5.11235833,2.86160838 5.42572966,2.66912138 5.54570336,2.43232427 L6.32985151,0.882899263 C6.56595976,0.415975361 7.18790345,0.03243074 7.71722745,0.0300484677 L13.9467421,2.48689958e-14 Z M10.5510064,3.80689106 C7.36978358,3.80689106 4.7922685,6.36591987 4.7922685,9.52432654 C4.7922685,12.6827331 7.36978358,15.2417619 10.5510064,15.2417619 C13.7317492,15.2417619 16.3097443,12.6827331 16.3097443,9.52432654 C16.3097443,6.36591987 13.7317492,3.80689106 10.5510064,3.80689106 Z" id="形状结合" opacity="0.596540179"></path>
            </g>
        </g>
    </g>
</svg>