<?xml version="1.0" encoding="UTF-8"?>
<svg width="24px" height="24px" viewBox="0 0 24 24" version="1.1" xmlns="http://www.w3.org/2000/svg" xmlns:xlink="http://www.w3.org/1999/xlink">
    <title>icons_outlined_sticker</title>
    <g id="页面-1" stroke="none" stroke-width="1" fill="none" fill-rule="evenodd">
        <g id="表情-(1)" transform="translate(3.000000, 3.000000)" fill-rule="nonzero">
            <path d="M0,9 C0,12.2153902 1.71539023,15.1865334 4.5,16.7942286 C7.28460966,18.4019238 10.7153903,18.4019238 13.5,16.7942286 C16.2846098,15.1865334 18,12.2153902 18,9 C18,4.02943721 13.9705627,0 9,0 C4.02943725,0 0,4.02943721 0,9 L0,9 Z" id="路径" stroke="#000000" stroke-width="1.5"></path>
            <g id="编组-4" transform="translate(3.000000, 6.000000)" fill="#000000">
                <path d="M0,1.5 C0,2.32842712 0.746192084,3 1.66666667,3 C2.58714125,3 3.33333333,2.32842712 3.33333333,1.5 C3.33333333,0.671572875 2.58714125,0 1.66666667,0 C0.746192084,0 0,0.671572875 0,1.5 Z" id="路径"></path>
                <path d="M6.66666667,1.5 C6.66666667,2.03589837 6.98433152,2.5310889 7.49999999,2.7990381 C8.01566845,3.0669873 8.65099821,3.0669873 9.16666667,2.7990381 C9.68233515,2.5310889 10,2.03589837 10,1.5 C10,0.671572865 9.25380792,0 8.33333333,0 C7.41285875,0 6.66666667,0.671572865 6.66666667,1.5 L6.66666667,1.5 Z" id="路径"></path>
                <path d="M5.00216055,8 C6.86455661,8 8.42879644,7.03791982 8.865228,5.74106175 C8.99054004,5.36403033 8.60164063,5 8.08742919,5 L1.91257081,5 C1.39835937,5 1.00945996,5.36403033 1.134772,5.74106175 C1.57552466,7.03791982 3.13976451,8 5.00216055,8 Z" id="路径" opacity="0.20484561"></path>
            </g>
        </g>
    </g>
</svg>