<?xml version="1.0" encoding="UTF-8"?>
<svg width="24px" height="24px" viewBox="0 0 24 24" version="1.1" xmlns="http://www.w3.org/2000/svg" xmlns:xlink="http://www.w3.org/1999/xlink">
    <title>icons_filled_maxwindow</title>
    <g id="页面-1" stroke="none" stroke-width="1" fill="none" fill-rule="evenodd">
        <g id="编组-13备份-7" transform="translate(2.000000, 2.000000)" fill="#000000">
            <g id="minimize窗口化" transform="translate(0.000000, 11.000000)">
                <path d="M3.21854908,7.69945042 L6.59920116,7.69945042 C7.11980363,7.69953012 7.54179306,8.12158416 7.54179306,8.64218664 C7.54179306,9.16278912 7.11980363,9.58484316 6.59920116,9.58492286 L0.911673526,9.58492286 L0.862651258,9.58115191 L0.832483684,9.5783237 L0.797602458,9.57361002 C0.790675246,9.57243022 0.783761414,9.57117316 0.776862254,9.56983907 L0.755179328,9.56606814 C0.534433262,9.52197387 0.336967772,9.39981301 0.198964942,9.2219694 L0.27626932,9.30870115 C0.104661569,9.13614798 0.00579431708,8.90433295 0,8.66104137 C0,8.65475661 0,8.64847138 0,8.64218663 L0,2.98576929 C0.00012731488,2.46516682 0.422181352,2.04317739 0.942783833,2.04317739 C1.46338631,2.04317739 1.88544035,2.46516682 1.88552005,2.98576929 L1.88552005,6.36453593 C1.88673216,6.94418482 1.96621951,7.31300214 2.1239821,7.47098787 C2.28174469,7.62897361 2.64660035,7.70512779 3.21854908,7.69945042 Z" id="路径备份" fill-rule="nonzero"></path>
                <rect id="矩形" opacity="0.196196057" transform="translate(5.993528, 3.535534) rotate(45.000000) translate(-5.993528, -3.535534) " x="4.9935282" y="-0.464466094" width="2" height="8" rx="1"></rect>
            </g>
            <g id="minimize窗口化备份" transform="translate(16.000000, 5.000000) rotate(-180.000000) translate(-16.000000, -5.000000) translate(11.000000, -0.000000)">
                <path d="M3.68948697,8.11452756 L7.07013905,8.11452756 C7.59074152,8.11460726 8.01273095,8.5366613 8.01273095,9.05726378 C8.01273095,9.57786626 7.59074152,9.9999203 7.07013905,10 L1.38261142,10 L1.33358915,9.99622905 L1.30342158,9.99340084 L1.26854035,9.98868717 C1.26161314,9.98750736 1.25469931,9.9862503 1.24780015,9.98491621 L1.22611722,9.98114528 C1.00537116,9.93705101 0.807905665,9.81489016 0.669902836,9.63704655 L0.747207213,9.72377829 C0.575599463,9.55122512 0.47673221,9.31941009 0.470937893,9.07611851 C0.470937893,9.06983376 0.470937893,9.06354852 0.470937893,9.05726377 L0.470937893,3.40084643 C0.471065208,2.88024396 0.893119245,2.45825453 1.41372173,2.45825453 C1.93432421,2.45825453 2.35637824,2.88024396 2.35645794,3.40084643 L2.35645794,6.77961307 C2.35767005,7.35926196 2.4371574,7.72807928 2.59492,7.88606501 C2.75268259,8.04405075 3.11753825,8.12020493 3.68948697,8.11452756 Z" id="路径备份" fill-rule="nonzero"></path>
                <rect id="矩形" opacity="0.196196057" transform="translate(6.464466, 3.950611) rotate(45.000000) translate(-6.464466, -3.950611) " x="5.46446609" y="-0.0493889516" width="2" height="8" rx="1"></rect>
            </g>
        </g>
        <g id="音乐" transform="translate(23.000000, 2.000000)" fill="#000000" opacity="0.200567336">
            <path d="M7.43179011,8.39715233 C8.00282256,7.2609477 8.35570602,7.35539426 7.43179011,6 C4.43189527,6 2,8.271618 2,11.0738008 C2,13.8759836 6.86075765,9.53335697 7.43179011,8.39715233 Z" id="椭圆形备份-11" transform="translate(5.000000, 9.000000) rotate(-211.000000) translate(-5.000000, -9.000000) "></path>
        </g>
    </g>
</svg>