<?xml version="1.0" encoding="UTF-8"?>
<svg width="24px" height="24px" viewBox="0 0 24 24" version="1.1" xmlns="http://www.w3.org/2000/svg" xmlns:xlink="http://www.w3.org/1999/xlink">
    <title>icons_outlined_imac</title>
    <g id="页面-1" stroke="none" stroke-width="1" fill="none" fill-rule="evenodd">
        <g id="diannao" transform="translate(2.000000, 4.000000)" fill="#000000">
            <path d="M16.676027,14 L3.32397299,14 C2.0404493,14 1,12.7167873 1,11.1337847 L1,8 L19,8 L19,11.1337847 C19,12.7167873 17.9595507,14 16.676027,14 L16.676027,14 Z" id="路径" fill-rule="nonzero" opacity="0.204101562"></path>
            <path d="M16.9496099,0.508692546 L3.0503901,0.508692546 C1.36798264,0.508692546 0,1.68613051 0,3.13419745 L0,11.8831876 C0,13.3312546 1.36798264,14.5086925 3.0503901,14.5086925 L16.9496099,14.5086925 C18.6320174,14.5086925 20,13.3312546 20,11.8831876 L20,3.13419745 C20,1.68613051 18.6320174,0.508692546 16.9496099,0.508692546 Z M18.5921276,11.5406574 C18.5921276,12.3487523 17.8553411,13.0061144 16.9496099,13.0061144 L3.0503901,13.0061144 C2.14465888,13.0061144 1.40787235,12.3487523 1.40787235,11.5406574 L1.40787235,3.49891795 C1.40787235,2.69082305 2.14465888,2.03346087 3.0503901,2.03346087 L16.9496099,2.03346087 C17.8553411,2.03346087 18.5921276,2.69082305 18.5921276,3.49891795 L18.5921276,11.5406574 Z" id="形状" fill-rule="nonzero"></path>
            <rect id="矩形" x="5" y="16" width="10" height="2" rx="1"></rect>
        </g>
    </g>
</svg>