<?xml version="1.0" encoding="UTF-8"?>
<svg width="24px" height="24px" viewBox="0 0 24 24" version="1.1" xmlns="http://www.w3.org/2000/svg" xmlns:xlink="http://www.w3.org/1999/xlink">
    <title>icons_outlined_searchlogo</title>
    <g id="页面-1" stroke="none" stroke-width="1" fill="none" fill-rule="evenodd">
        <g id="icons_outlined_searchlogo备份" transform="translate(3.000000, 4.000000)" fill-rule="nonzero">
            <path d="M14.5,17 C13.119403,17 12,16.1065989 12,15 C12,13.893401 13.119403,13 14.5,13 C15.880597,13 17,13.893401 17,15 C17,16.1065989 15.880597,17 14.5,17 Z" id="形状-path" fill="#000000" opacity="0.198311942"></path>
            <path d="M8,0.65 C10.0279905,0.65 11.8654087,1.47364275 13.195883,2.80411702 C14.5263573,4.13459128 15.35,5.97200957 15.35,8 C15.35,10.0264893 14.5244236,11.8625594 13.1942445,13.1927385 C11.8621076,14.5248754 10.0236261,15.35 8,15.35 C5.97200957,15.35 4.13459129,14.5263573 2.80411702,13.195883 C1.47364275,11.8654087 0.65,10.0279904 0.65,8 C0.65,5.97200957 1.47364275,4.13459129 2.80411701,2.80411702 C4.13459128,1.47364275 5.97200957,0.65 8,0.65 Z" id="形状结合" stroke="#000000" stroke-width="1.3"></path>
            <path d="M7.47483589,3 C5.0131291,3 3,5.00218818 3,7.47483589 C3,7.7702407 3.24070023,8 3.52516411,8 C3.82056894,8 4.05032824,7.7702407 4.05032824,7.47483589 C4.05032824,5.59299781 5.5820569,4.05032823 7.47483589,4.05032823 C7.7702407,4.05032823 8,3.82056893 8,3.52516411 C8,3.22975929 7.75929979,3 7.47483589,3 Z" id="形状结合-path" fill="#000000"></path>
        </g>
    </g>
</svg>