<?xml version="1.0" encoding="UTF-8"?>
<svg width="24px" height="24px" viewBox="0 0 24 24" version="1.1" xmlns="http://www.w3.org/2000/svg" xmlns:xlink="http://www.w3.org/1999/xlink">
    <title>icons_filled_chats</title>
    <g id="页面-1" stroke="none" stroke-width="1" fill="none" fill-rule="evenodd">
        <g id="消息备份-4" transform="translate(4.000000, 5.000000)" fill="#000000" fill-rule="nonzero">
            <path d="M7.91389349,15.8539134 L8,15.8734505 C5.90574303,15.7217124 3.6386056,15.762089 1.19792016,15.9949061 C0.874303466,16.0258843 0.553384007,15.9144567 0.322584023,15.6909776 C0.0917840382,15.4674986 -0.0248538055,15.155248 0.00444401381,14.8392868 L0.00778148161,14.8067249 L0.0244687913,14.669314 C0.259759802,12.6889035 0.268770947,10.4655818 0.0521697036,8 C0.9282533,11.8572744 3.99504647,14.9105972 7.91389349,15.8539134 Z" id="路径" opacity="0.2"></path>
            <path d="M8,0 C12.4182755,0 16,3.58172445 16,8 C16,12.4182755 12.4182756,16 8,16 C3.58172445,16 0,12.4182756 0,8 C0,3.58172445 3.58172445,0 8,0 Z M9.08003555,9.2928 L4.12444445,9.2928 C3.88880295,9.2928 3.69777777,9.48382518 3.69777777,9.71946667 L3.69777777,10.2391467 C3.69777777,10.4747882 3.88880296,10.6658133 4.12444445,10.6658133 L9.08003555,10.6658133 C9.31567704,10.6658133 9.50670222,10.4747882 9.50670222,10.2391467 L9.50670222,9.7197511 C9.50670222,9.48410961 9.31567704,9.29308445 9.08003555,9.29308445 L9.08003555,9.2928 Z M11.5080533,5.8296889 L4.12444445,5.82997333 C3.88880295,5.82997333 3.69777778,6.0209985 3.69777778,6.25664 L3.69777778,6.77603555 C3.69777778,7.01167705 3.88880295,7.20270223 4.12444445,7.20270223 L11.5080533,7.20270223 C11.7436948,7.20270223 11.93472,7.01167705 11.93472,6.77603555 L11.93472,6.25635555 C11.93472,6.02071406 11.7436948,5.8296889 11.5080533,5.8296889 Z" id="形状结合"></path>
        </g>
    </g>
</svg>