<?xml version="1.0" encoding="UTF-8"?>
<svg width="24px" height="24px" viewBox="0 0 24 24" version="1.1" xmlns="http://www.w3.org/2000/svg" xmlns:xlink="http://www.w3.org/1999/xlink">
    <title>icons_outlined_facehb</title>
    <g id="页面-1" stroke="none" stroke-width="1" fill="none" fill-rule="evenodd">
        <g id="icons_outlined_facehb备份" transform="translate(3.000000, 3.000000)" fill="#000000">
            <path d="M13.9975267,0.2 C14.5511774,0.2 15,0.6500538 15,1.19958131 L15,7.062 L17.2926555,8.3428798 C17.4553138,8.4337618 17.5649334,8.5939614 17.5929338,8.7747703 L17.6,8.8666667 L17.6,17.2 C17.6,17.5313708 17.3313708,17.8 17,17.8 L17,17.8 L15.2954545,17.8 C14.4417301,17.8 13.69018,16.9191745 13.20843,15.7999416 L4.7894001,15.8049771 C4.30756491,16.9218152 3.55698919,17.8 2.70454545,17.8 L1,17.8 C0.66862915,17.8 0.4,17.5313708 0.4,17.2 L0.4,8.8666667 C0.4,8.6492868 0.51757655,8.4489088 0.70734445,8.3428798 L3,7.061 L3.00078649,5.18883287 C3.00045794,5.18868638 3.0001294,5.18853989 2.99980088,5.18839339 L3.0003243,4.20013833 L3,1.19958131 C3,0.6475278 3.45576096,0.2 4.00247329,0.2 L13.9975267,0.2 Z M2.78172476,8.5584657 L1.6,9.218731 L1.6,16.6 L2.70454545,16.6 C3.25596047,16.6 4.15772825,14.5609117 4.1500097,13.2034115 C4.14860986,12.957215 4.29775208,12.735149 4.52618156,12.6433086 C4.5355454,12.6395439 4.75957239,12.5625584 4.86612446,12.5217706 C5.06058588,12.4473312 5.24686266,12.3637971 5.41793655,12.2698647 C5.67397655,12.1292796 5.86823988,11.9793434 6.0424056,11.7639487 C6.31162002,11.509497 6.47110565,11.0319198 6.52008795,10.5326829 C6.51398391,10.5316774 6.50777817,10.5306776 6.50147289,10.5296849 C6.2410124,10.4886778 5.8659942,10.4660279 5.39449172,10.4590886 C5.10243999,10.4547904 4.82429706,10.4562645 4.40404049,10.4621666 C4.22862291,10.4647005 4.22862291,10.4647005 4.06096416,10.4666233 C3.12117835,10.4553174 2.82120471,9.7247201 2.78172476,8.5584657 Z M15.2182752,8.5584657 C15.1787953,9.7247201 14.8788216,10.4553174 13.9390358,10.4666233 C13.7713771,10.4647005 13.7713771,10.4647005 13.5959595,10.4621666 C13.1757029,10.4562645 12.89756,10.4547904 12.6055083,10.4590886 C12.1340058,10.4660279 11.7589876,10.4886778 11.4985271,10.5296849 C11.4922218,10.5306776 11.4860161,10.5316774 11.4799121,10.5326829 C11.5288943,11.0319198 11.68838,11.509497 11.9575944,11.7639487 C12.1317601,11.9793434 12.3260234,12.1292796 12.5820635,12.2698647 C12.7531373,12.3637971 12.9394141,12.4473312 13.1338755,12.5217706 C13.2404276,12.5625584 13.4644546,12.6395439 13.4738184,12.6433086 C13.7022479,12.735149 13.8513901,12.957215 13.8499903,13.2034115 C13.8422717,14.5609117 14.7440395,16.6 15.2954545,16.6 L15.2954545,16.6 L16.4,16.6 L16.4,9.218731 L15.2182752,8.5584657 Z M8.832934,6.4337373 C7.1635647,6.4337373 5.58823594,6.13258851 4.19876207,5.65863344 L4.19914965,9.2649494 C4.24478941,9.264341 4.28807796,9.2637159 4.38718941,9.2622849 C4.81814759,9.2562326 5.1057067,9.2547085 5.41215079,9.2592186 C7.1654349,9.2850225 7.7363636,9.3749099 7.7363636,10.2 C7.7363636,11.110157 7.4980043,12.0393516 6.93161553,12.5638738 C6.70493696,12.8610691 6.38561636,13.1075268 5.99549187,13.3217344 C5.78363771,13.4380583 5.56232339,13.5384563 5.33425955,13.6273497 C5.31004241,13.9446278 5.25848341,14.273233 5.18291941,14.6003771 L12.8168491,14.5993746 C12.7414113,14.2725617 12.6899329,13.9443037 12.6657405,13.6273497 C12.4376766,13.5384563 12.2163623,13.4380583 12.0045081,13.3217344 C11.6143836,13.1075268 11.295063,12.8610691 11.0683845,12.5638738 C10.5019957,12.0393516 10.2636364,11.110157 10.2636364,10.2 C10.2636364,9.3749099 10.8345651,9.2850225 12.5878492,9.2592186 C12.8942933,9.2547085 13.1818524,9.2562326 13.6128106,9.2622849 C13.711922,9.2637159 13.7552106,9.264341 13.8008504,9.2649494 L13.8016678,5.53989811 C12.3327004,6.08172648 10.6377789,6.4337373 8.832934,6.4337373 Z M13.8000002,1.39999981 L4.19999981,1.39999981 L4.1985558,4.64590329 C5.57188729,5.08683389 7.1518375,5.36741618 8.832934,5.36741618 C10.652234,5.36741618 12.3530736,5.03880405 13.8017704,4.53397181 L13.8000002,1.39999981 Z" id="Combined-Shape" fill-rule="nonzero"></path>
            <path d="M9,9 C10.1045695,9 11,8.09134034 11,6.97045185 C11,6.66820055 10.9348906,6.38138102 10.8181282,6.12364839 C10.3942653,5.95410999 9.80671867,6.2368515 9,6.2368515 C8.15035572,6.2368515 7.50069853,5.70393562 7.13464791,6.2368515 C7.04769484,6.46437315 7,6.71176035 7,6.97045185 C7,8.09134034 7.8954305,9 9,9 Z" id="椭圆形" opacity="0.19796317"></path>
            <path d="M11.9990571,2.383708 L6.0010653,2.383708 L6.0001631,4.01998873 C6.85820796,4.24226467 7.8453463,4.383708 8.8956799,4.383708 C10.0323618,4.383708 11.0950307,4.21805252 12.0001631,3.96356335 L11.9990571,2.383708 Z" id="Combined-Shape-path" fill-rule="nonzero" opacity="0.204334077"></path>
        </g>
    </g>
</svg>