<?xml version="1.0" encoding="UTF-8"?>
<svg width="24px" height="24px" viewBox="0 0 24 24" version="1.1" xmlns="http://www.w3.org/2000/svg" xmlns:xlink="http://www.w3.org/1999/xlink">
    <title>icons_outlined_colorful_favorites</title>
    <defs>
        <linearGradient x1="21.875%" y1="-13.097031%" x2="50%" y2="100%" id="linearGradient-1">
            <stop stop-color="#FDD638" stop-opacity="0.188182911" offset="0%"></stop>
            <stop stop-color="#F9AD1A" offset="100%"></stop>
        </linearGradient>
    </defs>
    <g id="页面-1" stroke="none" stroke-width="1" fill="none" fill-rule="evenodd">
        <g id="icons_outlined_colorful_favorites_dark备份" transform="translate(4.000000, 5.000000)">
            <path d="M11.9073112,0 C14.7181609,0.00470306625 16.9957442,2.48590584 17,5.54804971 C17,8.13682772 15.7055761,10.0899871 11.6754741,13.5964132 L9.24118437,15.7011108 C9.03370453,15.8924086 8.77111475,15.9981934 8.49930558,16 C8.23385758,16.0011952 7.97606758,15.9031251 7.76901866,15.7221577 L5.32700099,13.6174602 C1.89581162,10.6372084 0.481605199,8.79349336 0.106801862,6.79824007 C-0.194514892,5.19233241 0.148567122,3.52269333 1.04960614,2.20999939 C1.90324145,0.96773102 3.19784089,0.174792682 4.61569741,0.0257789902 C6.03355393,-0.123234701 7.44342164,0.385469922 8.49930558,1.4270519 C9.43180205,0.504322381 10.6475695,-0.0047383499 11.9073112,0 Z" id="形状结合-path" stroke="#F7B500" stroke-width="1.3" fill-rule="nonzero"></path>
            <path d="M5.33454802,3.00202582 L5.22681589,3.02249089 C3.91661047,3.39206204 2.99665345,4.74238003 3,6.29099659 C3,6.68256835 3.27657069,7 3.6177153,7 C3.95885992,7 4.23541227,6.68256836 4.23541227,6.29099659 C4.23522632,5.39075333 4.77297081,4.60785026 5.53566435,4.39795749 C5.74972577,4.33463187 5.91809357,4.14503534 5.97734526,3.9005871 C6.03659693,3.65613886 5.97773075,3.39397642 5.82292102,3.21285381 C5.66811129,3.0317312 5.44087729,2.95916526 5.22681589,3.02249089 L5.33454802,3.00202582 Z" id="形状结合-path" fill="url(#linearGradient-1)" fill-rule="nonzero"></path>
            <path d="M16.9166289,6.48047304 C16.1821442,5.5607109 15.2058731,5 14.1344047,5 C11.851036,5 10,7.54643363 10,10.6876187 C10,12.3749895 10.5341324,13.8907397 11.3824883,14.9323451 C12.1134195,15.8297771 17.7473787,7.52078372 16.9166289,6.48047304 Z" id="椭圆形" fill="#F7B500" opacity="0.197288876"></path>
        </g>
    </g>
</svg>