<?xml version="1.0" encoding="UTF-8"?>
<svg width="48px" height="48px" viewBox="0 0 48 48" version="1.1" xmlns="http://www.w3.org/2000/svg" xmlns:xlink="http://www.w3.org/1999/xlink">
    <title>icons_outlined_fire2</title>
    <g id="页面-1" stroke="none" stroke-width="1" fill="none" fill-rule="evenodd">
        <g id="icons_outlined_fire2" transform="translate(7.000000, 2.000000)" fill="#000000" fill-rule="nonzero">
            <path d="M15.5740065,0 C19.7796465,0 23.0911664,3.51226372 24.2057227,7.02020374 C24.6911823,8.54813305 24.5724149,10.1455324 24.3665645,11.6227971 L24.0858936,13.5046466 C23.8846653,14.9857862 23.8596827,16.2145759 24.7203343,16.9309269 C26.2430254,18.1983175 28.083273,16.7676337 29.4335695,15.0409029 L29.8231525,14.5164043 L30.1784933,13.9885551 C30.2906948,13.8136483 30.396382,13.640585 30.494747,13.4717673 C32.6932948,17.4041643 34,21.9837027 34,26.7605405 C34,34.2412637 29.1007178,40.5855996 22.3148126,42.8016913 C21.8149463,42.964934 20.7244281,43.1513172 20.1450638,42.8016913 C19.63812,42.4957686 19.546848,42.1110459 19.5638273,41.6632276 L19.5941631,41.235191 L19.6140838,40.6961496 C19.6157523,40.5973238 19.6165901,40.4937674 19.6165901,40.3851235 C19.6165901,38.3400262 18.7917867,36.5335641 17.0076734,35.1619036 C15.2406962,36.5130931 14.3810385,38.3400262 14.3810385,40.3851235 C14.3810385,40.631089 14.394859,40.874964 14.421911,41.1144086 L14.472339,41.4699603 C14.5376476,41.8514175 14.4586384,42.3946057 13.897748,42.749554 C13.3368575,43.1045022 12.3566387,43.0154277 11.9071915,42.8753633 C5.00783908,40.7252673 0,34.3236875 0,26.7605405 C0,20.6137588 3.14992668,16.0268851 5.51342259,13.5103004 L6.08563457,12.9245805 L6.61141079,12.426895 L6.85261418,12.2116188 C6.38803461,14.3463722 6.38230216,18.6514064 7.23808343,19.268254 C7.24877485,19.2759603 7.27727856,19.2443383 7.28069194,19.2217456 C7.8443748,15.4907969 9.40713065,12.7675565 11.062278,10.5281294 L11.6855181,9.70999978 L12.3067949,8.93108821 L13.5009572,7.46636191 L14.0525925,6.76826833 C15.7346436,4.58409134 16.7478793,2.62043319 15.5740065,0 Z M19.2778559,7.50342892 L19.1311144,7.7570181 C18.8730719,8.17907226 18.58831,8.60434431 18.2780359,9.03454905 L17.7936413,9.68377021 L17.1968696,10.4380972 L16.0344661,11.8634405 L15.4779568,12.559269 L14.8958868,13.3225327 C13.271096,15.5208873 12.3517914,17.4847526 11.9834923,19.9224804 L11.6173231,21.0794796 L11.4795162,21.4331803 C11.3890145,21.6372369 11.2954577,21.7899467 11.164078,21.9641553 L10.7899796,22.4231357 L10.459497,22.7568432 C10.4276794,22.7858123 10.3957018,22.8134688 10.3617698,22.8412034 L10.1203703,23.0196731 L9.48191938,23.436908 L9.00994463,23.6679556 C8.29779089,24.0021529 7.89727051,24.0777603 6.8975691,23.8320952 L6.21855999,23.645642 L5.20650806,23.3335972 L5.16956059,23.472574 C4.95399854,24.3166797 4.8182988,25.1885654 4.77264134,26.084315 L4.75544028,26.7605405 C4.75544028,30.8211569 6.77844936,34.4942294 9.96438828,36.7193538 L10.1783209,36.861496 L10.2043386,36.784533 C10.8411475,34.8890338 11.9930401,33.1931846 13.6080495,31.8216608 L14.1063939,31.4200581 C15.267164,30.5633511 16.2368658,29.9219642 17.0154991,29.4958973 C17.7594148,29.8835845 18.727168,30.5274776 19.9187589,31.4275768 C21.8000701,32.8739649 23.1112618,34.7094338 23.8024587,36.7886894 L23.821679,36.8591347 L24.1388889,36.6446498 C27.1253214,34.5139091 29.0624506,31.1026808 29.2323829,27.3055207 L29.2445597,26.7605405 C29.2445597,25.2893472 29.093075,23.8214873 28.7994771,22.3803671 L28.6579618,21.7491636 L28.3662416,21.8753114 C26.3700922,22.6565093 24.2177135,22.4866014 22.0486127,20.8538189 L21.665685,20.5503912 C19.348262,18.6215167 18.9563969,16.4585228 19.3152206,13.3412119 L19.381774,12.8127002 L19.6560138,10.975436 L19.7089595,10.5663754 L19.7748892,9.85843729 C19.8146692,9.21909833 19.7769834,8.77584481 19.6706795,8.44126516 C19.5873237,8.17891224 19.4856872,7.92404338 19.3685314,7.67888695 L19.2778559,7.50342892 Z" id="路径"></path>
        </g>
        <path d="M33,43 C36.3137085,43 39,37.8512746 39,31.5 C39,25.1487254 36.3137085,20 33,20 C29.6862915,20 27,25.1487254 27,31.5 C27,33.6691498 27.3133361,35.6980312 27.8579891,37.4294404 C28.3677394,39.0498967 31.2258477,39.4511931 32.073598,40.421636 C32.9722238,41.4503176 31.8772281,43 33,43 Z" id="椭圆形" fill="#000000" opacity="0.197405134" transform="translate(33.000000, 31.500000) rotate(19.000000) translate(-33.000000, -31.500000) "></path>
    </g>
</svg>