<?xml version="1.0" encoding="UTF-8"?>
<svg width="24px" height="24px" viewBox="0 0 24 24" version="1.1" xmlns="http://www.w3.org/2000/svg" xmlns:xlink="http://www.w3.org/1999/xlink">
    <title>icons_filled_contacts</title>
    <g id="页面-1" stroke="none" stroke-width="1" fill="none" fill-rule="evenodd">
        <g id="喜欢备份" transform="translate(2.000000, 5.000000)" fill="#000000" fill-rule="nonzero">
            <path d="M7.99949414,0.705028875 C10.095078,-0.506766569 12.7052234,-0.129248136 14.4063586,1.63168583 C16.2653272,3.51364684 16.5303888,6.53046952 15.0303872,8.7341235 C15.0064683,8.76935251 14.7907705,9.08240024 14.6143682,9.29020685 L14.6143682,9.29020685 C14.6048961,9.30117634 14.5998752,9.30683356 14.5923308,9.31500486 L14.5789318,9.32933244 C14.5710962,9.33762408 14.5614144,9.34774633 14.549246,9.36032382 L14.5214044,9.38893754 C14.5161483,9.39431379 14.5105685,9.40000913 14.5046414,9.40604667 L14.4647198,9.44656352 C14.4573082,9.45406244 14.4495017,9.46194985 14.4412767,9.47024887 L14.2429029,9.66908284 C13.7352649,10.1756484 12.5008268,11.3955659 9.43335041,14.4082251 C9.04555575,14.7892402 8.53285749,15.000959 8.00034837,14.9999868 C7.46732063,15.000833 6.95416746,14.7887966 6.56606498,14.4073332 C3.66752708,11.5599881 2.40826943,10.3169075 1.85089692,9.76221952 L1.75963227,9.67129292 C1.6330919,9.54506268 1.5518684,9.46329259 1.49857519,9.4089953 L1.45394814,9.36322645 C1.42954491,9.33798007 1.41497936,9.32242718 1.40509993,9.31153449 L1.39659173,9.30200878 L1.39659173,9.30200878 L1.39006282,9.29447136 L1.39006282,9.29447136 C1.20992627,9.08240024 0.99422849,8.76935251 0.970309534,8.7341235 C-0.530131252,6.5308952 -0.265798755,3.51411156 1.59262963,1.63168583 C3.29363171,-0.129529053 5.90396524,-0.507074687 7.99949414,0.705028875 Z M4.21368098,7.07984097 C3.91620739,7.41472717 3.93115894,7.94180144 4.24707748,8.25713928 L6.67559122,10.6825321 C6.82118315,10.8283221 7.01396733,10.9094017 7.21425687,10.9090813 C7.43086349,10.9095196 7.63796588,10.8148387 7.786319,10.6475505 C8.08379261,10.3126643 8.06884107,9.78559 7.75292252,9.47025215 L5.32440876,7.04485934 C5.00856548,6.72944681 4.51129851,6.7451079 4.21368098,7.07984097 Z" id="形状结合"></path>
            <path d="M12.2195389,1.6578339 C10.1816451,0.526528099 11.752439,2.12059362 10.0982211,3.76440746 C8.29090661,5.52135235 7.22450832,3.74601741 8.6836812,5.80238044 C8.70694229,5.83526112 13.4415772,7.10525855 13.6139586,7.30004538 C13.6679576,7.36081221 5.93405809,9.83513486 10.8255345,14.4467547 C11.2029627,14.80279 11.7020022,15.0006923 12.2203696,15 C12.7382327,15.0008099 13.2368298,14.8032041 13.6139586,14.4475871 C18.5029428,9.83929697 18.6038793,9.72525512 18.6524784,9.67073144 C18.824029,9.47677704 19.0337942,9.1845968 19.0570553,9.15171612 C20.5158011,7.09495579 20.2580297,4.27923186 18.4501899,2.52272072 C16.7958425,0.879169063 14.2574861,0.526815678 12.2195389,1.6578339 Z" id="路径" opacity="0.2"></path>
        </g>
    </g>
</svg>