<?xml version="1.0" encoding="UTF-8"?>
<svg width="24px" height="24px" viewBox="0 0 24 24" version="1.1" xmlns="http://www.w3.org/2000/svg" xmlns:xlink="http://www.w3.org/1999/xlink">
    <title>icons_filled_discover</title>
    <g id="页面-1" stroke="none" stroke-width="1" fill="none" fill-rule="evenodd">
        <g id="发现-4备份-3" transform="translate(2.000000, 6.000000)" fill="#000000" fill-rule="nonzero">
            <path d="M9.99949262,0 C12.6173176,0 14.9172969,1.50129374 16.1980837,3.75 C18.4669451,3.64594628 19.7367895,4.0569862 19.9653854,4.97868408 C20.203727,5.93863972 19.210352,7.03000246 17.0124459,8.22264662 C15.3437129,9.13491868 13.1032335,10.0200222 10.7047717,10.714761 C8.30665183,11.4093149 5.95726032,11.8545466 4.08985227,11.9683958 C4.05548595,11.9704288 4.02385525,11.9713529 3.98983087,11.9732011 C3.92725338,11.9768975 3.86450492,11.9813332 3.8043211,11.9841055 C3.80415012,11.983551 3.80380817,11.9828117 3.80346622,11.9822573 C3.57469933,11.992792 3.35225858,12 3.14383792,12 C1.28532066,12 0.240652722,11.5810128 0.0344547624,10.7500616 C-0.193970174,9.82891819 0.714429293,8.78653277 2.72887735,7.65044357 C2.83454098,3.41288812 6.05420414,0 9.99949262,0 Z M8.4372516,2.03096827 L8.36346351,2.04407161 C6.90947949,2.46368403 5.51472722,3.80440452 4.63250595,5.63095734 C4.47936241,5.94803914 4.51791076,6.30809772 4.7188207,6.43459433 C4.72884624,6.44062702 4.73896156,6.44644522 4.74929634,6.45133938 C4.94789171,6.54538648 5.21458891,6.39078827 5.36025083,6.08918111 C6.05782602,4.64497418 7.16094292,3.58479156 8.31082069,3.25323279 C8.56311366,3.18021963 8.77939282,2.85063222 8.79397483,2.51676211 C8.80833739,2.18381605 8.61591611,1.97267601 8.36346351,2.04407161 Z" id="形状结合"></path>
            <path d="M17.8329993,10.0696473 C17.8908812,10.0464783 17.9454406,10.023169 18,10 C17.4217054,12.8327904 14.3499415,15 10.6614116,15 C8.39614748,15 6.36555871,14.1820658 5,12.8972422 C6.84102985,12.7837845 9.09020594,12.4585767 11.3843236,11.9633228 C13.8358241,11.4370366 16.1267941,10.7635925 17.8329993,10.0696473 L17.8329993,10.0696473 Z" id="路径" opacity="0.2" transform="translate(11.500000, 12.500000) rotate(-4.000000) translate(-11.500000, -12.500000) "></path>
        </g>
    </g>
</svg>