<?xml version="1.0" encoding="UTF-8"?>
<svg width="24px" height="24px" viewBox="0 0 24 24" version="1.1" xmlns="http://www.w3.org/2000/svg" xmlns:xlink="http://www.w3.org/1999/xlink">
    <title>icons_filled_device</title>
    <g id="页面-1" stroke="none" stroke-width="1" fill="none" fill-rule="evenodd">
        <g id="icons_filled_device" transform="translate(1.000000, 3.000000)" fill-rule="nonzero">
            <path d="M19.5,0 C20.3284271,0 21,0.8954305 21,2 L21,6 C21,7.1045695 20.3284271,8 19.5,8 L1.5,8 C0.671572875,8 0,7.1045695 0,6 L0,2 C0,0.8954305 0.671572875,0 1.5,0 L19.5,0 Z M7.5,3 L3,3 C2.58578644,3 2.25,3.4477153 2.25,4 C2.25,4.5522847 2.58578644,5 3,5 L3,5 L7.5,5 C7.91421352,5 8.25,4.5522847 8.25,4 C8.25,3.4477153 7.91421352,3 7.5,3 L7.5,3 Z" id="形状结合" fill="#07C160" opacity="0.200985863"></path>
            <path d="M19.5,10.5 C19.7642754,10.5 19.9915825,10.6603495 20.1606602,10.8857864 C20.3745243,11.1709386 20.5,11.5664883 20.5,12 L20.5,12 L20.5,16 C20.5,16.4335117 20.3745243,16.8290614 20.1606602,17.1142136 C19.9915825,17.3396505 19.7642754,17.5 19.5,17.5 L19.5,17.5 L1.5,17.5 C1.23572457,17.5 1.00841751,17.3396505 0.839339828,17.1142136 C0.62547574,16.8290614 0.5,16.4335117 0.5,16 L0.5,16 L0.5,12 C0.5,11.5664883 0.62547574,11.1709386 0.839339828,10.8857864 C1.00841751,10.6603495 1.23572457,10.5 1.5,10.5 L1.5,10.5 Z" id="形状结合" stroke="#07C160"></path>
            <path d="M7.5,13.5 C7.55716864,13.5 7.5969757,13.5484207 7.63033007,13.5928932 C7.70847086,13.697081 7.75,13.8426307 7.75,14 C7.75,14.1573693 7.70847086,14.302919 7.63033007,14.4071068 C7.5969757,14.4515793 7.55716864,14.5 7.5,14.5 L7.5,14.5 L3.04013986,14.5 C2.95319028,14.4829936 2.89465196,14.4463118 2.85426543,14.3852193 C2.78636951,14.2825136 2.75,14.1466415 2.75,14 C2.75,13.8426307 2.79152914,13.6970809 2.86966992,13.5928932 L2.86966992,13.5928932 Z" id="形状结合-path" stroke="#07C160"></path>
        </g>
    </g>
</svg>