<?xml version="1.0" encoding="UTF-8"?>
<svg width="24px" height="24px" viewBox="0 0 24 24" version="1.1" xmlns="http://www.w3.org/2000/svg" xmlns:xlink="http://www.w3.org/1999/xlink">
    <title>icons_filled_voice</title>
    <g id="页面-1" stroke="none" stroke-width="1" fill="none" fill-rule="evenodd">
        <g id="changyuyinhecheng" transform="translate(5.000000, 2.000000)" fill="#000000" fill-rule="nonzero">
            <path d="M0.369909974,11.3043182 C0.529422174,11.2170084 0.714612151,11.20152 0.884730275,11.2612611 C1.0548484,11.3210022 1.1959557,11.4510777 1.2770026,11.6228656 L1.40034972,11.8697105 C2.40944321,13.8120908 4.31542149,15.0145985 6.38226395,15.0128681 C8.5325447,15.013663 10.5008387,13.7133075 11.4744265,11.6487256 C11.6507144,11.304992 12.049027,11.1747721 12.3730222,11.3549487 C12.6970173,11.5351254 12.8290038,11.9602495 12.6707845,12.3140312 C12.0827312,13.5423759 11.1985819,14.5777018 10.1110587,15.3114328 C7.82270797,16.8516378 4.91798596,16.8470714 2.63382105,15.2996783 C1.54248362,14.5613102 0.657480233,13.5181137 0.0730036007,12.2811185 C-0.00799629801,12.1092046 -0.0222180152,11.9096701 0.033470522,11.7264589 C0.0891590593,11.5432477 0.210190532,11.3913858 0.369909974,11.3043182 L0.369909974,11.3043182 Z M6.37898924,0 C7.1103395,0 7.8395066,0.190423163 8.48680616,0.552462266 C9.11336592,0.901571398 9.6656991,1.40701559 10.0870442,2.01707497 C10.2726434,2.33878098 10.1984791,2.75995761 9.91639819,2.98616693 C9.63431731,3.21237626 9.23834566,3.16821616 9.00530074,2.88455827 C8.38754746,1.98972007 7.41442698,1.46054252 6.37898924,1.45638455 C4.57521189,1.45832716 3.11324259,3.03211914 3.11083605,4.97451126 L3.11083605,8.87701064 C3.1132426,10.8194028 4.5752119,12.3931947 6.37898924,12.3951373 C7.92835141,12.3887887 9.26259433,11.2166304 9.57946527,9.58345706 C9.62312798,9.354244 9.64495931,9.11562731 9.64495931,8.87583519 L9.64495931,6.7470923 C9.67326667,6.36850402 9.96683931,6.07680202 10.3195481,6.07680202 C10.6722568,6.07680202 10.9658294,6.36850402 10.9941368,6.7470923 L10.9941368,8.87701064 C10.9833607,11.6157179 8.92335193,13.8324585 6.38008081,13.8421183 C3.83142285,13.8395274 1.76575876,11.6156483 1.76275014,8.87113337 L1.76275014,4.97216036 C1.76515722,2.2271864 3.83099721,0.00259205019 6.38008081,0 L6.37898924,0 Z" id="形状"></path>
            <path d="M8.59268821,17.5471418 C8.94425918,17.5776245 9.21514437,17.8937574 9.21514437,18.2735709 C9.21514437,18.6533844 8.94425918,18.9695173 8.59268821,19 L4.16419873,19 C3.79255507,18.9987137 3.49140637,18.6749472 3.48961,18.2747464 C3.49020885,17.8736274 3.79170637,17.5484352 4.16419873,17.5471418 L8.59268821,17.5471418 Z" id="路径"></path>
            <path d="M8.35690962,4.27511755 C9.41245543,3.4334942 10.4025072,3.22073745 11.2801275,3.45230142 C11.8886589,3.61443267 12.4339209,3.97981571 12.8377944,4.49610245 C12.9945661,4.69326823 13.041749,4.96552094 12.9615696,5.21030561 C12.8813903,5.45509027 12.6860298,5.63521829 12.4490787,5.68283717 C12.2121275,5.73045605 11.9695842,5.63833135 11.8128124,5.44116556 C11.1862527,4.65008662 10.2627865,4.47964614 8.99438506,5.58457065 L8.77607155,5.76441475 C7.98359352,6.39563226 7.22932034,6.68361791 6.52416774,6.68361791 C5.85745416,6.69514043 5.21313878,6.42461452 4.7296307,5.93015342 C4.49429382,5.64615284 4.50155134,5.21495981 4.7462907,4.94032914 C4.99103005,4.66569847 5.39081338,4.64013657 5.66401251,4.88165059 C6.16940829,5.40472657 6.98371767,5.46232369 8.14514553,4.45143528 L8.35690962,4.27511755 Z" id="路径" opacity="0.198730469"></path>
        </g>
    </g>
</svg>