<?xml version="1.0" encoding="UTF-8"?>
<svg width="24px" height="24px" viewBox="0 0 24 24" version="1.1" xmlns="http://www.w3.org/2000/svg" xmlns:xlink="http://www.w3.org/1999/xlink">
    <title>icons_filled_video_call</title>
    <g id="页面-1" stroke="none" stroke-width="1" fill="none" fill-rule="evenodd">
        <g id="录像备份-2" transform="translate(1.000000, 5.000000)" fill-rule="nonzero">
            <path d="M12.9259259,9.53496116 L19.2222222,12.7786527 C20.4567901,13.4158064 22,12.6048835 22,11.2726531 L22,4.72734694 C22,3.39511648 20.4567901,2.58419361 19.2222222,3.22134729 L12.9259259,6.46503883 C11.691358,7.16011559 11.691358,8.89780748 12.9259259,9.53496116 L12.9259259,9.53496116 Z" id="路径" fill="#000000" opacity="0.197451637"></path>
            <path d="M15.6,15 L2.40000002,15 C1.08000003,15 0,13.9494163 0,12.6653697 L0,2.33463034 C0,1.05058366 1.08,0 2.40000002,0 L15.6,0 C16.92,0 18,1.05058366 18,2.33463034 L18,12.6653697 C18,14.0077821 16.92,15 15.6,15 Z" id="路径" stroke="#000000" stroke-width="1.3"></path>
            <path d="M12,3.5 C12,4.32842712 12.6715729,5 13.5,5 C14.3284271,5 15,4.32842712 15,3.5 C15,2.67157288 14.3284271,2 13.5,2 C12.6715729,2 12,2.67157288 12,3.5 Z" id="路径" fill="#000000"></path>
        </g>
    </g>
</svg>