<?xml version="1.0" encoding="UTF-8"?>
<svg width="24px" height="24px" viewBox="0 0 24 24" version="1.1" xmlns="http://www.w3.org/2000/svg" xmlns:xlink="http://www.w3.org/1999/xlink">
    <title>icons_filled_red_envelope</title>
    <g id="页面-1" stroke="none" stroke-width="1" fill="none" fill-rule="evenodd">
        <g id="红包" transform="translate(4.000000, 2.000000)" fill-rule="nonzero">
            <path d="M13.6002419,20 L2.39980984,20 C1.07407641,20 0,18.9284167 0,17.6063292 L0,4 C1.85784302,5.96172299 4.83866054,7.23406664 8.19984832,7.23406664 C11.3299473,7.23406664 14.1290399,6.13027109 16,4.39446013 L16,17.6063558 C16,18.9284167 14.9255355,20 13.6002419,20 L13.6002419,20 Z" id="路径" stroke="#000000" stroke-width="1.3"></path>
            <path d="M7.49998584,10 C5.56693737,10 4,11.5669121 4,13.5 C4,15.4328541 5.56693737,17 7.49998584,17 C9.4330626,17 11,15.4328541 11,13.5 C11,11.5669121 9.43303432,10 7.49998584,10 Z" id="路径" fill="#000000" opacity="0.198846726"></path>
            <path d="M13.592797,0.65 C14.0873757,0.65 14.537705,0.823838457 14.8627162,1.11316097 C15.1046675,1.32854424 15.2766084,1.60951027 15.3313664,1.92594874 C13.9865271,3.41436185 11.2701747,4.35 8.17573393,4.35 C4.83043383,4.35 1.9021803,3.26198506 0.714987691,1.61326961 C0.822649527,1.37385289 0.999995913,1.16641106 1.22066294,1.00649652 C1.53083573,0.78171831 1.92727701,0.65 2.35773848,0.65 L2.35773848,0.65 L13.592797,0.65 Z" id="路径" stroke="#000000" stroke-width="1.3"></path>
        </g>
        <g id="转账" transform="translate(23.500000, 2.000000)"></g>
    </g>
</svg>