<?xml version="1.0" encoding="UTF-8"?>
<svg width="24px" height="24px" viewBox="0 0 24 24" version="1.1" xmlns="http://www.w3.org/2000/svg" xmlns:xlink="http://www.w3.org/1999/xlink">
    <title>icons_outlined_news</title>
    <g id="页面-1" stroke="none" stroke-width="1" fill="none" fill-rule="evenodd">
        <g id="新闻" transform="translate(4.000000, 3.000000)">
            <path d="M10,17 L14,17 C16.2105263,17 18,15.4739677 18,13.5888689 L18,10.4111311 C18,8.52603232 16.2105263,7 14,7 C11.7894737,7 13.2,8.52603232 13.2,10.4111311 L13.2,17 L10,17 Z" id="路径" fill="#000000" fill-rule="nonzero" opacity="0.204659598"></path>
            <path d="M12.3370166,0.65 C12.6161652,0.65 12.8715583,0.76224174 13.0564705,0.945550407 C13.2371746,1.12468747 13.35,1.37225317 13.35,1.6485623 L13.35,1.6485623 L13.35,17.35 L1.66298343,17.35 C1.38383481,17.35 1.12844171,17.2377583 0.943529514,17.0544496 C0.762825415,16.8753125 0.65,16.6277468 0.65,16.3514377 L0.65,16.3514377 L0.65,1.6485623 C0.65,1.37465997 0.762935169,1.12457867 0.945780649,0.943318793 C1.12853374,0.762150505 1.38136544,0.65 1.66298343,0.65 L1.66298343,0.65 Z" id="路径" stroke="#000000" stroke-width="1.3" fill-rule="nonzero"></path>
            <rect id="矩形" fill="#000000" opacity="0.429245722" x="3" y="4" width="7" height="2" rx="1"></rect>
            <rect id="矩形备份-2" fill="#000000" opacity="0.202729725" x="3" y="7" width="4" height="2" rx="1"></rect>
        </g>
    </g>
</svg>