<?xml version="1.0" encoding="UTF-8"?>
<svg width="24px" height="24px" viewBox="0 0 24 24" version="1.1" xmlns="http://www.w3.org/2000/svg" xmlns:xlink="http://www.w3.org/1999/xlink">
    <title>icons_outline_miniprogram_order</title>
    <g id="页面-1" stroke="none" stroke-width="1" fill="none" fill-rule="evenodd">
        <g id="117订单、订单查询" transform="translate(4.000000, 3.000000)" fill="#07C160" fill-rule="nonzero">
            <path d="M6.79796871,15.7135562 L2.04021411,15.7135562 C1.64287675,15.7135562 1.3423003,15.4254875 1.3423003,15.0446843 L1.3423003,1.95531569 C1.3423003,1.57451253 1.64287675,1.28644383 2.04021411,1.28644383 L12.9597859,1.28644383 C13.3571233,1.28644383 13.6576997,1.57451253 13.6576997,1.95531569 L13.6576997,5.89159703 C13.6576997,6.25858867 13.9459237,6.53481894 14.3288498,6.53481894 C14.711776,6.53481894 15,6.25858867 15,5.89159703 L15,1.95531569 C15,1.43047818 14.7879495,0.939182916 14.4050233,0.570218199 C14.0200384,0.201253482 13.5074115,0 12.9597859,0 L2.04021411,0 C1.49258853,0 0.97996157,0.203226555 0.594976668,0.570218199 C0.209991765,0.939182916 0,1.43047818 0,1.95531569 L0,15.0446843 C0,15.5695218 0.212050508,16.0608171 0.594976668,16.4297818 C0.97996157,16.7987465 1.49258853,17 2.04021411,17 L6.83296733,17 C7.21589349,17 7.50411749,16.7237697 7.50411749,16.3567781 C7.50411749,15.9976787 7.19324732,15.7135562 6.79796871,15.7135562 Z" id="路径"></path>
            <path d="M7.53059592,6.63582819 C7.53059592,6.261744 7.23196907,5.98017526 6.83522197,5.98017526 L3.69537395,5.98017526 C3.29862685,5.98017526 3,6.261744 3,6.63582819 C3,7.00991237 3.29862685,7.29148111 3.69537395,7.29148111 L6.83735502,7.29148111 C7.21917078,7.29148111 7.53059592,6.99784514 7.53059592,6.63582819 L7.53059592,6.63582819 Z M3.69537395,8.99252981 C3.29862685,8.99252981 3,9.27409855 3,9.64818273 C3,10.0222669 3.29862685,10.3038357 3.69537395,10.3038357 L5.82415678,10.3038357 C6.22090388,10.3038357 6.51953073,10.0222669 6.51953073,9.64818273 C6.51953073,9.27409855 6.22090388,8.99252981 5.82415678,8.99252981 L3.69537395,8.99252981 Z M12.8674843,3.65565292 C12.8674843,3.28156874 12.5688575,3 12.1721104,3 L3.69537395,3 C3.29862685,3 3,3.28156874 3,3.65565292 C3,4.02973711 3.29862685,4.31130585 3.69537395,4.31130585 L12.1721104,4.31130585 C12.5368618,4.31130585 12.8674843,3.99956903 12.8674843,3.65565292 Z" id="形状" opacity="0.202287946"></path>
            <path d="M14.9859439,13.3041151 C14.8373075,14.8156574 13.5196655,16 11.9850947,16 C11.8886818,16 11.7882518,15.9959853 11.6958562,15.9859485 C10.0588467,15.8253597 8.8536864,14.3499498 9.01437444,12.6958849 C9.16301088,11.1843426 10.4786443,10 12.0112065,10 C12.1076193,10 12.2060407,10.0040147 12.3044622,10.0140515 C13.9414716,10.1766477 15.1446234,11.6520575 14.9859439,13.3041151 L14.9859439,13.3041151 Z" id="路径"></path>
        </g>
    </g>
</svg>