<?xml version="1.0" encoding="UTF-8"?>
<svg width="24px" height="24px" viewBox="0 0 24 24" version="1.1" xmlns="http://www.w3.org/2000/svg" xmlns:xlink="http://www.w3.org/1999/xlink">
    <title>icons_filled_outlined_like</title>
    <g id="页面-1" stroke="none" stroke-width="1" fill="none" fill-rule="evenodd">
        <g id="icons_filled_outlined_like备份" transform="translate(2.000000, 5.000000)" fill="#000000">
            <path d="M8.6066017,1.46446609 L8.992781,1.84163553 L9.3137085,2.14654555 L9.7760574,1.70521964 L10.0208153,1.46446609 C11.9734367,-0.48815536 15.1392616,-0.48815536 17.0918831,1.46446609 C19.0263413,3.39892429 19.0443356,6.5241205 17.145866,8.4807312 L10.0208153,15.6066017 C9.6303114,15.9971464 8.9971464,15.9971796 8.6066017,15.6066757 L1.48114108,8.4811411 C-0.4169186,6.5241205 -0.39892429,3.39892429 1.53553391,1.46446609 C3.48815536,-0.48815536 6.65398026,-0.48815536 8.6066017,1.46446609 Z M7.1923882,2.87867966 C6.02081528,1.70710678 4.12132034,1.70710678 2.94974747,2.87867966 C1.83677117,3.99165595 1.77991545,5.7646156 2.76659312,6.9251498 L2.89536198,7.0669349 L9.313,13.485 L15.710487,7.0880047 C16.8047238,5.9602566 16.8362274,4.18691697 15.8112887,3.02114596 L15.6776695,2.87867966 C14.5060967,1.70710678 12.6066017,1.70710678 11.4350288,2.87867966 L11.1722665,3.13721872 L10.6852173,3.60221163 L9.3137085,4.89442851 L7.7673439,3.43679167 L7.317635,3.00286911 L7.1923882,2.87867966 Z" id="Path" fill-rule="nonzero"></path>
            <path d="M14.0369472,13.593059 C15.1281856,12.8391236 14.8877341,11.4675487 14.8877341,8.70612497 C14.8877341,5.94470122 16.2460862,3.59305898 14.0369472,3.59305898 C11.8278082,3.59305898 10.0369472,5.83163523 10.0369472,8.59305898 C10.0369472,11.3544827 12.9457089,14.3469943 14.0369472,13.593059 Z" id="椭圆形" opacity="0.201590402" transform="translate(12.668929, 8.652163) rotate(36.000000) translate(-12.668929, -8.652163) "></path>
        </g>
    </g>
</svg>