<?xml version="1.0" encoding="UTF-8"?>
<svg width="24px" height="24px" viewBox="0 0 24 24" version="1.1" xmlns="http://www.w3.org/2000/svg" xmlns:xlink="http://www.w3.org/1999/xlink">
    <title>icons_filled_makesticker</title>
    <g id="页面-1" stroke="none" stroke-width="1" fill="none" fill-rule="evenodd">
        <g id="icons_filled_makesticker" transform="translate(4.000000, 1.000000)" fill-rule="nonzero">
            <path d="M4.27188504,11.4894097 C4.61497121,12.0985374 4.90496934,12.5465754 5.14187945,12.833524 C5.34494525,13.0794799 5.62975289,13.3202989 5.99630235,13.5559811 L6.18638889,13.6733941 L4.13975141,16.8485634 C4.04103352,17.0956636 3.78483346,17.1528243 3.37115121,17.0200458 C2.95746897,16.8872673 2.53053895,16.551721 2.09036116,16.0134071 C1.86719449,15.8077156 2.10722196,15.0565304 2.81044354,13.7598513 C3.51366512,12.4631721 4.0008123,11.7063583 4.27188504,11.4894097 Z" id="形状结合" fill="#000000" opacity="0.202078683"></path>
            <path d="M13.9859996,0.205877786 C14.0665248,0.229957073 14.1295027,0.293846061 14.1532386,0.375536366 L14.5387649,1.7023788 L15.8286208,2.12456959 C15.9585638,2.16710203 16.0299157,2.30844505 15.9879898,2.44026805 C15.9635795,2.51701894 15.9042771,2.57717935 15.8286208,2.60194289 L14.5387649,3.02413368 L14.1532386,4.35097611 C14.114634,4.48383906 13.9771682,4.5597978 13.8462001,4.5206347 C13.7656748,4.4965554 13.702697,4.43266642 13.6789612,4.35097611 L13.2934347,3.02413368 L12.003579,2.60194289 C11.873636,2.55941044 11.802284,2.41806743 11.8442098,2.28624444 C11.8686202,2.20949354 11.9279227,2.14933312 12.003579,2.12456959 L13.2934347,1.7023788 L13.6789612,0.375536366 C13.7175657,0.242673423 13.8550316,0.166714686 13.9859996,0.205877786 Z" id="形状结合-path" fill="#000000"></path>
            <path d="M7.95973816,0.460141185 L8.02118544,0.569297486 L10.8615923,7.46300399 C9.53093842,7.56453498 8.29723342,7.8478668 7.16047716,8.31299944 C6.1658154,8.71999045 5.28792895,9.19375637 4.5268178,9.73429713 L4.20777681,9.97004571 L0.181464727,5.72521885 C-0.0993658975,4.99680205 -0.0542412759,4.48841354 0.316838592,4.20005329 C0.687918469,3.91169305 1.12294051,3.89305654 1.62190472,4.14414377 C2.4519773,4.89853899 3.50781247,5.82795903 4.78941023,6.93240389 C5.46608844,7.51554612 5.88441173,7.22237648 6.47262183,6.97238893 C7.06083191,6.72240139 7.47360106,6.2253323 7.251817,5.45192283 C6.91844406,4.28937861 6.52009148,2.86016444 6.05675927,1.16428034 C5.99100512,0.580878384 6.23834466,0.21132426 6.79877784,0.0556179658 C7.31610082,-0.0881109205 7.70308759,0.0467301549 7.95973816,0.460141185 Z" id="形状结合-path" fill="#000000" opacity="0.199032738"></path>
            <path d="M11.535363,8.6591714 C12.5713166,8.86069876 13.3144305,9.62599975 13.764705,10.9550745 C14.6950046,13.5810532 14.9029604,15.7782727 14.3885722,17.5467329 C13.6169902,20.1994232 11.1008107,21.3506187 9.25251308,20.9073118 C8.0203147,20.6117738 6.4351966,19.6284389 4.49715889,17.9573071 C4.81452714,17.8372212 5.21064492,17.4008818 5.68551224,16.6482889 C6.37432005,15.5566328 6.97983263,14.6086712 7.50204995,13.8044042 C7.80623923,13.8084609 8.05201837,13.793573 8.23938737,13.7597404 C8.42675638,13.7259076 8.65858074,13.654556 8.93486057,13.5456855 C8.9081573,13.8677367 8.8845464,14.3411223 8.86402778,14.9658423 C8.85763273,15.1605514 8.87999323,15.4825697 8.93110945,15.9318973 L10.083232,15.7037273 C10.0096397,15.1823107 9.9914706,14.6384079 10.0287245,14.0720189 C10.0659784,13.50563 10.1889183,12.6806177 10.3975441,11.5969821 C9.88753281,12.0750235 9.1006476,12.4217661 8.03688847,12.6372101 C6.97312933,12.852654 6.10422686,12.1934432 5.43018098,10.6595778 C5.97211737,10.2216087 6.61759293,9.85020415 7.3666075,9.54536395 C9.70879187,8.59212231 10.7923949,8.51463947 11.535363,8.6591714 Z" id="形状结合-path" stroke="#000000" stroke-width="1.3"></path>
        </g>
    </g>
</svg>