<?xml version="1.0" encoding="UTF-8"?>
<svg width="24px" height="24px" viewBox="0 0 24 24" version="1.1" xmlns="http://www.w3.org/2000/svg" xmlns:xlink="http://www.w3.org/1999/xlink">
    <title>icons_outlined_qrcode_reward</title>
    <g id="页面-1" stroke="none" stroke-width="1" fill="none" fill-rule="evenodd">
        <g id="icons_outlined_qrcode_reward" transform="translate(3.000000, 1.000000)">
            <path d="M16.8068016,10.0750152 L16.84,11.126 L16.4240344,11.3514012 C15.8530576,11.6602522 15.2360582,11.994246 14.6062364,12.3351809 L13.8742051,12.7314437 L13.6366143,12.8600562 L13.6366143,12.8600562 L13.1629848,13.1164412 C11.2264538,14.1647234 9.4075784,15.1493163 8.67216884,15.547408 L7.91434293,15.8103047 C7.75730393,15.7800848 7.6251073,15.6864193 7.5490622,15.5592689 L7.5135322,15.4862053 L6.02602515,12.423055 C6.00995745,12.3897091 6,12.3519029 6,12.3151587 C6,12.1741289 6.12197875,12.0598608 6.2722457,12.0598608 C6.33380083,12.0598608 6.38969833,12.0787639 6.43541207,12.110623 L8.1904124,13.2832518 C8.3182751,13.3618377 8.4719366,13.4081397 8.6366871,13.4081397 C8.7346775,13.4081397 8.8285943,13.3911481 8.915722,13.3612005 C8.915722,13.3612005 10.7272991,12.6063678 12.7006642,11.7844459 L13.1964213,11.5779658 C14.5691019,11.0062706 15.9533605,10.4299181 16.8068016,10.0750152 Z" id="形状结合" fill="#000000" opacity="0.198660714"></path>
            <path d="M10.0500268,0.857363246 C10.5589957,0.62266022 11.1150799,0.602125494 11.6116675,0.720402534 C12.134772,0.84499538 12.6026277,1.121562 12.8581958,1.49543941 C13.4797621,2.40455334 13.6077019,3.37582566 13.6077019,5.38004588 C13.6077019,6.23067216 14.0551145,6.77890883 14.7307666,7.19022185 C15.6981314,7.5618003 16.4487778,7.78177135 17.0061894,8.84801428 C17.1638136,9.14952529 17.2583914,9.64736887 17.3106787,10.2518246 C17.4684948,12.9044544 16.9284147,16.6808785 15.1257387,18.1542268 C14.4370754,18.717301 13.0505645,19.2221177 11.9838531,19.3088446 C11.6730431,19.3340525 10.9937266,19.3458589 9.7985675,19.3492846 L9.7985675,19.3492846 L8.39269888,19.3492857 C6.7983972,19.3463282 4.62360324,19.3343337 1.71529906,19.3159199 C1.41940904,19.3141692 1.15116005,19.1960884 0.957341408,19.0043452 C0.767887044,18.8169195 0.65,18.5588 0.65,18.2727811 L0.65,18.2727811 L0.65,10.2400131 C0.65,9.95295811 0.769247253,9.69425507 0.960127776,9.50682771 C1.15590038,9.31459676 1.4265879,9.1968747 1.72433277,9.1968747 L1.72433277,9.1968747 L3.80753551,9.1968747 C4.3718613,9.1968747 4.89966177,9.14464325 5.52938386,9.00704793 C5.99241167,8.9058232 6.38082051,8.7332465 7.08893088,8.32100627 C7.92532689,7.83412108 8.41903918,7.28213286 8.78924056,6.31020745 C8.97966818,5.80948216 9.05927511,5.32182334 9.12895378,3.85840072 C9.17079621,2.71621872 9.22290187,1.99535316 9.39981805,1.50927256 C9.52175175,1.17425737 9.72749294,1.00607531 10.0500268,0.857363246 Z" id="形状结合-path" stroke="#000000" stroke-width="1.3" fill-rule="nonzero"></path>
            <path d="M2.53669731,19.2999999 C3.74051053,19.2999999 4.24202051,20.2909567 4.71977901,19.267713 C4.89957783,18.8826272 5,18.453041 5,18 C5,16.3431458 3.65685425,15 2,15 C1.38564979,15 0.814430598,15.1846658 0.338822563,15.5015174 C-0.468246908,16.0391895 0.822610239,16.957496 0.822610239,18 C0.822610239,19.6568542 0.879843057,19.2999999 2.53669731,19.2999999 Z" id="椭圆形" fill="#000000" opacity="0.201311384"></path>
        </g>
    </g>
</svg>