<?xml version="1.0" encoding="UTF-8"?>
<svg width="24px" height="24px" viewBox="0 0 24 24" version="1.1" xmlns="http://www.w3.org/2000/svg" xmlns:xlink="http://www.w3.org/1999/xlink">
    <title>icons_outlined_report_problem</title>
    <g id="页面-1" stroke="none" stroke-width="1" fill="none" fill-rule="evenodd">
        <g id="icons_outlined_report_problem" transform="translate(-1.000000, 2.000000)">
            <path d="M19.839024,10.8467448 C20.4907306,11.9753446 21.589015,13.8773101 23.133877,16.5526412 C23.4100541,17.0309138 23.2462233,17.6425161 22.7679507,17.9186932 C22.6159412,18.0064706 22.4435045,18.0526893 22.2679717,18.052704 L3.73198946,18.0542575 C3.17970471,18.0542575 2.73190565,17.6066261 2.73190565,17.0543413 C2.73190565,16.8788151 2.77807728,16.7063769 2.86582301,16.5543567 C4.38319501,13.9254963 5.46072508,12.0586659 6.09841323,10.9538656 C7.51058121,8.50727209 8.65902426,6.51758437 9.54374237,4.98480241 C10.1189686,3.98821782 10.9818081,2.49334092 12.1322606,0.50017172 C12.4083483,0.02184749 13.0199199,-0.14209768 13.4982441,0.13398994 C13.6502857,0.22174797 13.7765459,0.34798458 13.8643324,0.50000972 C14.9069094,2.30550338 15.6888421,3.65962362 16.2101306,4.56237045" id="路径" stroke="#000000" stroke-width="1.3" fill-rule="nonzero"></path>
            <path d="M7.31343682,18.3923098 C8.19754033,18.3923098 9.02804996,18.1628471 9.74866363,17.7602284 C8.64502463,16.1200047 5.3501611,8.69600376 4.56065295,9.21765931 C3.20665625,10.1122921 2.31343682,11.6479897 2.31343682,13.3923098 C2.31343682,16.1537335 4.55201307,18.3923098 7.31343682,18.3923098 Z" id="椭圆形" fill="#000000" opacity="0.203520275" transform="translate(6.031050, 13.791888) rotate(-120.000000) translate(-6.031050, -13.791888) "></path>
            <polygon id="Combined-Shape-path" fill="#000000" fill-rule="nonzero" points="12.3725586 6.95410156 13.6274414 6.95410156 13.5297852 11.6757812 12.4702148 11.6757812"></polygon>
            <path d="M12.9975586,14.0976562 C12.6020508,14.0976562 12.2895508,13.7900391 12.2895508,13.4042969 C12.2895508,13.0185547 12.6020508,12.7158203 12.9975586,12.7158203 C13.3979492,12.7158203 13.7104492,13.0185547 13.7104492,13.4042969 C13.7104492,13.7900391 13.3979492,14.0976562 12.9975586,14.0976562 Z" id="Combined-Shape-path" fill="#000000" fill-rule="nonzero"></path>
            <polygon id="路径-3" fill="#000000" fill-rule="nonzero" opacity="0.201311384" points="16.7730235 4.23732959 20.4019169 10.5217039 19.2761311 11.1717857 15.6472377 4.8874113"></polygon>
        </g>
    </g>
</svg>