<?xml version="1.0" encoding="UTF-8"?>
<svg width="24px" height="24px" viewBox="0 0 24 24" version="1.1" xmlns="http://www.w3.org/2000/svg" xmlns:xlink="http://www.w3.org/1999/xlink">
    <title>icons_filled_open</title>
    <g id="页面-1" stroke="none" stroke-width="1" fill="none" fill-rule="evenodd">
        <g id="icons_filled_open备份" transform="translate(2.000000, 3.000000)">
            <path d="M9.5,19 C4.25329487,19 0,14.746705 0,9.5 C0,4.25329487 4.25329487,0 9.5,0 C14.746705,0 19,4.25329487 19,9.5 C19,14.746705 14.746705,19 9.5,19 Z" id="形状结合-path" stroke="#000000" stroke-width="1.3" fill-rule="nonzero"></path>
            <path d="M18.8847326,7.25665437 C18.2850875,7.08940963 17.6529851,7 17,7 C13.1340068,7 10,10.1340068 10,14 C10,15.8569875 10.7230956,17.545087 11.9030793,18.798091 C12.547033,19.4818941 15.7869676,16.9833884 17.7493222,14.000625 C19.6771591,11.070328 20.346917,7.66446667 18.8847326,7.25665437 Z" id="椭圆形" fill="#000000" opacity="0.200102307"></path>
            <path d="M10.1721328,9.59872768 L10.1721328,5.75311589 C10.1721328,5.58014985 10.1189788,5.43985516 10.0126707,5.33223184 C9.9063627,5.22460853 9.76483216,5.17079687 9.58807904,5.17079687 L5.74177739,5.17079687 C5.57783247,5.17079687 5.44142517,5.22460853 5.3325555,5.33223184 C5.22368582,5.43985516 5.16925098,5.56797816 5.16925098,5.71660084 C5.16925098,5.86394229 5.22464644,5.98886221 5.33543734,6.09136061 C5.44622825,6.19385901 5.5797537,6.24510821 5.73601371,6.24510821 L8.42573511,6.24510821 L4.3584921,10.1964215 C4.23425259,10.3232633 4.17213283,10.4603549 4.17213283,10.6076963 C4.17213283,10.7037886 4.19870985,10.7950762 4.25186386,10.8815592 C4.30501788,10.9680422 4.37418215,11.0378692 4.45935666,11.0910403 C4.54453117,11.1442113 4.63642998,11.1707969 4.7350531,11.1707969 C4.88362818,11.1707969 5.02067589,11.1086573 5.14619623,10.9843779 L9.09624427,6.91391026 L9.09624427,9.60449326 C9.09624427,9.76208454 9.14683661,9.89629332 9.24802137,10.0071198 C9.34920612,10.1179461 9.47472646,10.1733594 9.62458236,10.1733594 C9.77443827,10.1733594 9.90316069,10.1179461 10.0107495,10.0071198 C10.1183384,9.89629332 10.1721328,9.76016266 10.1721328,9.59872768 Z" id="形状结合-path" fill="#000000" fill-rule="nonzero" opacity="0.497767857"></path>
        </g>
    </g>
</svg>