<?xml version="1.0" encoding="UTF-8"?>
<svg width="24px" height="24px" viewBox="0 0 24 24" version="1.1" xmlns="http://www.w3.org/2000/svg" xmlns:xlink="http://www.w3.org/1999/xlink">
    <title>icons_outlined_colorful_note</title>
    <g id="页面-1" stroke="none" stroke-width="1" fill="none" fill-rule="evenodd">
        <g id="编组-8" transform="translate(2.000000, -2.000000)">
            <path d="M5.3322965,3.73086 L12.6396952,6.99637509 C13.1889504,7.24182513 13.5985401,7.72148056 13.754941,8.30239864 L15.7119426,15.5712659 C15.8555219,16.1045608 15.539595,16.6532757 15.0063002,16.7968551 C14.7898515,16.8551297 14.5601002,16.838992 14.353923,16.7510323 L7.31826164,13.7494649 C6.76875369,13.5150328 6.35282044,13.0472205 6.18429307,12.4740574 L3.96491546,4.92593439 C3.80912185,4.39607894 4.11235889,3.84025056 4.64221434,3.68445695 C4.87043889,3.617352 5.11511056,3.6338044 5.3322965,3.73086 Z" id="矩形" fill="#3CB2EF" opacity="0.196614583" transform="translate(9.800268, 10.202628) rotate(-49.000000) translate(-9.800268, -10.202628) "></path>
            <path d="M3.83811635,13.3098999 L7.83811635,15.1560537 C8.5464172,15.4829618 9,16.1918706 9,16.9719725 L9,20.8741814 C9,21.9787509 8.1045695,22.8741814 7,22.8741814 C6.71059996,22.8741814 6.42464713,22.8113756 6.16188365,22.6901001 L2.16188365,20.8439463 C1.4535828,20.5170382 1,19.8081294 1,19.0280275 L1,15.1258186 C1,14.0212491 1.8954305,13.1258186 3,13.1258186 C3.28940004,13.1258186 3.57535287,13.1886244 3.83811635,13.3098999 Z" id="矩形备份-5" fill="#FFC000"></path>
            <path d="M12.1618836,15.1560537 L16.1618836,13.3098999 C17.1647879,12.847021 18.3530399,13.284798 18.8159188,14.2877023 C18.9371942,14.5504658 19,14.8364186 19,15.1258186 L19,19.0280275 C19,19.8081294 18.5464172,20.5170382 17.8381164,20.8439463 L13.8381164,22.6901001 C12.8352121,23.152979 11.6469601,22.715202 11.1840812,21.7122977 C11.0628058,21.4495342 11,21.1635814 11,20.8741814 L11,16.9719725 C11,16.1918706 11.4535828,15.4829618 12.1618836,15.1560537 Z" id="矩形备份-6" fill="#F86161"></path>
        </g>
    </g>
</svg>