<?xml version="1.0" encoding="UTF-8"?>
<svg width="24px" height="24px" viewBox="0 0 24 24" version="1.1" xmlns="http://www.w3.org/2000/svg" xmlns:xlink="http://www.w3.org/1999/xlink">
    <title>icons_outlined_colorful_menu_browser</title>
    <g id="页面-1" stroke="none" stroke-width="1" fill="none" fill-rule="evenodd">
        <g id="浏览器" transform="translate(3.000000, 3.000000)" fill-rule="nonzero">
            <path d="M9,0 C4.0374,0 0,4.0374 0,9 C0,13.9626 4.0374,18 9,18 C13.9626,18 18,13.9626 18,9 C18,4.0374 13.9626,0 9,0 Z" id="路径" stroke="#1485EE" stroke-width="1.3"></path>
            <path d="M7.35081083,10.0451323 C7.21171439,10.4268014 7.16333302,10.8934587 7.22935342,11.3487151 C7.24296068,12.8116505 6.50690869,12.8124279 6.78610952,13.3993122 C7.09202089,14.0419052 8.18564146,13.8138883 7.97271303,15.1591878 C7.94300203,15.3574493 7.84948434,15.5397364 7.70711946,15.6768897 C7.58003281,15.7634861 7.45062987,15.8464333 7.31906056,15.9256354 C7.24568665,15.9553758 7.17052249,15.9802157 7.09403678,16 C3.69448954,15.7577321 1,12.8380798 1,9.28153487 C1,7.65691471 1.56218144,6.16469979 2.49705063,5 C2.59507329,5.11271288 2.67545693,5.26144207 2.71249892,5.45940216 C2.79137063,5.88330625 2.50284631,7.27524557 2.86999036,7.58099546 C3.43040791,8.04765271 4.29774476,7.65536005 4.7442645,7.9372718 C5.19582396,8.22229288 6.32195075,9.55178668 6.76166685,9.28153487 C7.08233564,9.18809306 7.27871697,9.18809306 7.35081083,9.28153487 C7.40963786,9.35778137 7.40963786,9.61231383 7.35081083,10.0451323 Z" id="路径" fill="#040000" opacity="0.203497024"></path>
            <path d="M8.0106904,6.11659058 C7.91921362,5.27245054 8.41947729,4.28310502 9.33195827,4.64261797 C9.90483165,4.86818875 10.0240373,5.68127856 10.5591765,5.71476409 C11.0940299,5.74824963 10.8441839,3.95920853 10.8421829,3.67092847 C10.8364656,2.86362254 11.5834307,2.28949773 12.3784212,2 C15.0867058,3.18295282 17,6.01978692 17,9.32541858 C17,10.6511416 16.6906941,11.9010655 16.1472648,13 C16.0849463,12.2913242 15.9231467,11.5025875 15.518076,11.2608828 C14.7316615,10.7920852 13.856343,11.2404871 13.2214369,10.490411 C12.9590129,10.1805175 13.2891869,8.79543379 12.4987703,8.4627093 C10.8370092,8.69765514 9.78140515,8.69765514 9.33195827,8.4627093 C8.78405406,8.17629543 8.34363143,7.39425586 8.0106904,6.11659058 Z" id="路径" fill="#1485EE"></path>
        </g>
    </g>
</svg>