<?xml version="1.0" encoding="UTF-8"?>
<svg width="24px" height="24px" viewBox="0 0 24 24" version="1.1" xmlns="http://www.w3.org/2000/svg" xmlns:xlink="http://www.w3.org/1999/xlink">
    <title>keyboard_delete</title>
    <g id="页面-1" stroke="none" stroke-width="1" fill="none" fill-rule="evenodd">
        <g id="编组-18" transform="translate(-23.000000, 4.000000)" fill="#000000" opacity="0.196800595">
            <path d="M20.9294219,15.154621 C23.1385609,15.154621 21.7284776,13.8807137 20.9837067,12.4190185 C20.2389357,10.9573232 20.2389357,10.9573232 19.4246777,9.35925187 C18.4814531,7.50806937 18.8508298,5.36649651 18.1198017,6.79828853 C17.6039408,7.80865409 17.2974118,9.07220579 17.2974118,10.443148 C17.2974118,12.9776375 18.345057,15.1450909 19.8262079,16.0242988 C20.281582,16.2946079 20.4099425,15.154621 20.9294219,15.154621 Z" id="椭圆形" transform="translate(19.707392, 11.198088) rotate(27.000000) translate(-19.707392, -11.198088) "></path>
        </g>
        <g id="编组-18备份" transform="translate(1.000000, 4.000000)">
            <path d="M18,0.65 C18.6489346,0.65 19.2364346,0.913032709 19.6617009,1.33829906 C20.0869673,1.76356542 20.35,2.35106542 20.35,3 L20.35,3 L20.35,13 C20.35,13.6489346 20.0869673,14.2364346 19.6617009,14.6617009 C19.2364346,15.0869673 18.6489346,15.35 18,15.35 L18,15.35 L8.89082561,15.35 C7.93892185,15.35 7.03196577,14.94504 6.39652496,14.2362836 L6.39652496,14.2362836 L1.67520152,8.97022512 C1.44613667,8.71473131 1.33114111,8.3936374 1.33037133,8.07226989 C1.32960155,7.75090238 1.44305755,7.42926126 1.67089581,7.17267301 L1.67089581,7.17267301 L6.46316093,1.77569132 C7.09891329,1.05971593 8.01064845,0.65 8.96814614,0.65 L8.96814614,0.65 L18,0.65 Z" id="矩形" stroke="#000000" stroke-width="1.3"></path>
            <path d="M20.9294219,15.154621 C23.1385609,15.154621 21.7284776,13.8807137 20.9837067,12.4190185 C20.2389357,10.9573232 20.2389357,10.9573232 19.4246777,9.35925187 C18.4814531,7.50806937 18.8508298,5.36649651 18.1198017,6.79828853 C17.6039408,7.80865409 17.2974118,9.07220579 17.2974118,10.443148 C17.2974118,12.9776375 18.345057,15.1450909 19.8262079,16.0242988 C20.281582,16.2946079 20.4099425,15.154621 20.9294219,15.154621 Z" id="椭圆形" fill="#000000" opacity="0.196800595" transform="translate(19.707392, 11.198088) rotate(27.000000) translate(-19.707392, -11.198088) "></path>
            <path d="M5.97553212,14.6200427 C6.82339814,13.6334457 6.31113603,12.6055927 6.02981692,11.8844401 C5.7484978,11.1632875 5.28504598,10.4227448 4.47078797,8.82467352 C3.52756338,6.97349102 3.89694005,4.83191816 3.16591198,6.26371018 C2.65005103,7.27407574 2.34352202,8.53762744 2.34352202,9.90856966 C2.34352202,12.4430591 3.39116728,14.6105126 4.8723181,15.4897205 C5.32769223,15.7600296 5.51347937,15.1576982 5.97553212,14.6200427 Z" id="椭圆形备份-14" fill="#000000" opacity="0.196800595" transform="translate(4.392837, 10.676183) rotate(-203.000000) translate(-4.392837, -10.676183) "></path>
            <g id="icons_outlined_add备份-5" transform="translate(12.500000, 7.853553) rotate(-315.000000) translate(-12.500000, -7.853553) translate(7.000000, 2.853553)" fill="#000000" fill-rule="nonzero">
                <path d="M1.4213925,4 L9.99282105,4 C10.3873101,4 10.7071068,4.22448428 10.7071068,4.50139968 L10.7071068,5.49860032 C10.7071068,5.77551572 10.3873101,6 9.99282105,6 L1.4213925,6 C1.02690339,6 0.707106781,5.77551572 0.707106781,5.49860032 L0.707106781,4.50139968 C0.707106781,4.22448428 1.02690339,4 1.4213925,4 Z" id="矩形" opacity="0.202171689" transform="translate(5.707107, 5.000000) rotate(90.000000) translate(-5.707107, -5.000000) "></path>
                <path d="M1.61619769,4 L9.79801587,4 C10.3000929,4 10.7071068,4.29847683 10.7071068,4.66666667 L10.7071068,5.33333333 C10.7071068,5.70152317 10.3000929,6 9.79801587,6 L1.61619769,6 C1.11412064,6 0.707106781,5.70152317 0.707106781,5.33333333 L0.707106781,4.66666667 C0.707106781,4.29847683 1.11412064,4 1.61619769,4 Z" id="矩形" opacity="0.720238095"></path>
            </g>
        </g>
    </g>
</svg>