<?xml version="1.0" encoding="UTF-8"?>
<svg width="24px" height="24px" viewBox="0 0 24 24" version="1.1" xmlns="http://www.w3.org/2000/svg" xmlns:xlink="http://www.w3.org/1999/xlink">
    <title>live_like_anchor</title>
    <g id="页面-1" stroke="none" stroke-width="1" fill="none" fill-rule="evenodd">
        <g id="编组备份-2" transform="translate(2.000000, 4.000000)" fill="#000000">
            <g id="编组" fill-opacity="0.9" fill-rule="nonzero">
                <path d="M9.2905866,2.06446609 L9.6767659,2.44163553 L9.9976934,2.74654555 L10.4600423,2.30521964 L10.7048002,2.06446609 C12.6574216,0.11184464 15.8232465,0.11184464 17.775868,2.06446609 C19.7103262,3.99892429 19.7283205,7.1241205 17.8298509,9.0807312 L10.7047632,16.2065647 C10.3443322,16.5671017 9.7771053,16.5948635 9.3847983,16.2898594 L9.2905866,16.2066017 L2.16512597,9.0811411 C0.26706629,7.1241205 0.28506059,3.99892429 2.21951879,2.06446609 C4.17214025,0.11184464 7.33796515,0.11184464 9.2905866,2.06446609 Z M8.4420585,2.91299423 C6.95806616,1.42900192 4.55203924,1.42900192 3.06804693,2.91299423 C1.65016078,4.33088038 1.58546328,6.5941313 2.87077628,8.0768149 L3.0136541,8.2326129 L9.996,15.218 L16.9686235,8.2450953 C18.3629433,6.808074 18.3953082,4.54429056 17.0740793,3.06807319 L16.9273398,2.91299423 C15.4433475,1.42900192 13.0373206,1.42900192 11.5533283,2.91299423 L11.1512752,3.30575029 L9.9976934,4.39527533 L8.6976191,3.16441909 L8.4420585,2.91299423 Z" id="赞"></path>
            </g>
            <path d="M15.0369472,14.593059 C16.1281856,13.8391236 15.8877341,12.4675487 15.8877341,9.70612497 C15.8877341,6.94470122 17.2460862,4.59305898 15.0369472,4.59305898 C12.8278082,4.59305898 11.0369472,6.83163523 11.0369472,9.59305898 C11.0369472,12.3544827 13.9457089,15.3469943 15.0369472,14.593059 Z" id="椭圆形" opacity="0.201590402" transform="translate(13.668929, 9.652163) rotate(36.000000) translate(-13.668929, -9.652163) "></path>
        </g>
    </g>
</svg>