<?xml version="1.0" encoding="UTF-8"?>
<svg width="24px" height="24px" viewBox="0 0 24 24" version="1.1" xmlns="http://www.w3.org/2000/svg" xmlns:xlink="http://www.w3.org/1999/xlink">
    <title>refresh</title>
    <g id="页面-1" stroke="none" stroke-width="1" fill="none" fill-rule="evenodd">
        <g id="编组-11备份" transform="translate(2.350000, 0.000000)" fill="#000000">
            <path d="M6.17466051,3.44937604 L6.45469552,4.70902606 C6.32175096,4.76295556 6.24875903,4.83405742 6.11885709,4.89477237 C3.20299218,6.25762054 1.3,9.18819132 1.3,12.4637452 C1.3,17.0753228 5.03842234,20.8137452 9.65,20.8137452 C14.2615777,20.8137452 18,17.0753228 18,12.4637452 C18,10.8454 17.5392123,9.29759623 16.6877258,7.96797794 L16.4993099,7.68645312 L17.5648682,6.94174805 C18.6879865,8.54875735 19.3,10.4612365 19.3,12.4637452 C19.3,17.793293 14.9795478,22.1137452 9.65,22.1137452 C4.32045216,22.1137452 0,17.793293 0,12.4637452 C0,8.67869033 2.19935711,5.29172335 5.56840586,3.71706127 L5.79513148,3.61464883 L6.17466051,3.44937604 Z" id="路径" fill-rule="nonzero"></path>
            <path d="M9.83951602,5.88932635 C10.4568,6.2079032 11.2284049,5.80244176 11.2284049,5.13632653 L11.2284049,1.86367347 C11.2284049,1.19755824 10.4568,0.792096806 9.83951602,1.11067364 L6.69136787,2.73251942 C6.07408392,3.08005779 6.07408392,3.94890374 6.69136787,4.26748058 L9.83951602,5.88932635 Z" id="路径" fill-rule="nonzero" opacity="0.197451637" transform="translate(8.728405, 3.500000) rotate(-194.000000) translate(-8.728405, -3.500000) "></path>
            <path d="M11.5004498,21.2682479 C14.9944662,20.2665271 16.5330345,18.3174937 17.7715475,17.1688066 C17.7715475,13.8577611 18.5201421,14.54716 18.7708818,13.0953559 C17.8119278,12.6886835 16.7572325,12.4637452 15.65,12.4637452 C11.231722,12.4637452 7.65,16.0454672 7.65,20.4637452 C7.65,20.8315249 7.67481769,21.1935081 7.72286973,21.5481115 C9.90246451,21.7061024 7.4499515,21.2682479 11.5004498,21.2682479 Z" id="椭圆形" opacity="0.196428571"></path>
        </g>
    </g>
</svg>