<?xml version="1.0" encoding="UTF-8"?>
<svg width="24px" height="24px" viewBox="0 0 24 24" version="1.1" xmlns="http://www.w3.org/2000/svg" xmlns:xlink="http://www.w3.org/1999/xlink">
    <title>scan_album</title>
    <g id="页面-1" stroke="none" stroke-width="1" fill="none" fill-rule="evenodd">
        <g id="图片，相册备份" transform="translate(2.000000, 5.000000)" fill-rule="nonzero">
            <path d="M17.8435,7.56829561 L17.921,7.66546787 L19.764,10.0775766 L19.8066635,10.3269343 C20.4323957,14.1659278 19.5093194,15 17.4711017,15 L2.86923142,15 C1.86768225,15 0.907153929,14.6858583 0.198951722,14.1266826 C-0.509250485,13.5675069 0.900875468,13.8366811 0.900875468,13.0458872 L1.01920033,12.958683 C1.07535267,13.3512076 1.25198091,13.7090211 1.51349999,14 L12.6985,6.82116916 C14.3531406,5.75944317 16.627809,6.08975706 17.8435,7.56829561 Z" id="形状" fill="#565656" opacity="0.204124814"></path>
            <path d="M16.5909091,0 C18.473698,0 20,1.39911016 20,3.125 L20,11.875 C20,13.6008898 18.473698,15 16.5909091,15 L3.40909091,15 C2.50494379,15 1.63782817,14.6707599 0.99849961,14.0847087 C0.359171047,13.4986575 0,12.7038015 0,11.875 L0,3.125 C0,2.29619847 0.359171047,1.50134249 0.99849961,0.915291309 C1.63782817,0.329240126 2.50494379,0 3.40909091,0 L16.5909091,0 Z" id="路径" stroke="#000000" stroke-width="1.3"></path>
            <path d="M3.5,2 C4.03589837,2 4.53108891,2.28589837 4.7990381,2.74999999 C5.0669873,3.21410161 5.0669873,3.78589839 4.7990381,4.25000001 C4.53108891,4.71410163 4.03589837,5 3.5,5 C2.67157287,5 2,4.32842712 2,3.5 C2,2.67157288 2.67157287,2 3.5,2 L3.5,2 Z" id="路径" fill="#131415" opacity="0.196335565"></path>
        </g>
        <g id="icons_filled_call备份-2" transform="translate(-12.000000, -11.500000) rotate(-225.000000) translate(12.000000, 11.500000) translate(-21.000000, -20.000000)"></g>
    </g>
</svg>