<?xml version="1.0" encoding="UTF-8"?>
<svg width="24px" height="24px" viewBox="0 0 24 24" version="1.1" xmlns="http://www.w3.org/2000/svg" xmlns:xlink="http://www.w3.org/1999/xlink">
    <title>scan_myqr</title>
    <g id="页面-1" stroke="none" stroke-width="1" fill="none" fill-rule="evenodd">
        <g id="icons_filled_call备份-2" transform="translate(-12.000000, 12.500000) rotate(-225.000000) translate(12.000000, -12.500000) translate(-21.000000, 4.000000)"></g>
        <g id="icons_filled_add_friends备份-3" transform="translate(4.000000, 3.000000)" fill="#000000" fill-rule="nonzero">
            <path d="M7.72498498,0.666338642 C9.07447683,0.666338642 10.2980182,1.21556681 11.1842921,2.10184071 C12.070566,2.98811462 12.6197942,4.21165599 12.6197942,5.56114784 C12.6197942,6.91066008 12.0705515,8.13425941 11.1842588,9.02058212 C10.2979895,9.90688149 9.0744625,10.4561448 7.72498498,10.4561448 C6.37543167,10.4561448 5.15190434,9.90693965 4.26565367,9.02068899 C3.37937513,8.13441046 2.83017578,6.91084892 2.83017578,5.56133564 C2.83017578,4.21180195 3.37938962,2.98818243 4.26568697,2.10185507 C5.15193308,1.21557894 6.37544601,0.666338642 7.72498498,0.666338642 Z M5.74744898,4.27857143 C5.43147774,4.27857143 5.14575702,4.40571113 4.93880767,4.61022579 C4.72905772,4.8175081 4.6,5.10405332 4.6,5.42016807 C4.6,6.23403524 4.93321358,6.97121072 5.47303892,7.50468517 C6.01006366,8.03539197 6.75177927,8.36428571 7.57142857,8.36428571 C8.39107787,8.36428571 9.13279348,8.03539197 9.66981822,7.50468517 C10.2096436,6.97121072 10.5428571,6.23403524 10.5428571,5.42016807 C10.5428571,5.10405332 10.4137994,4.8175081 10.2040495,4.61022579 L10.2040495,4.61022579 L10.156495,4.56033712 C10.0020837,4.39521256 9.77969266,4.18599552 8.58676683,4.61022581 C8.37701689,4.81750811 8.24795918,5.10405334 8.24795918,5.42016807 C8.24795918,5.60180576 8.17286102,5.76589079 8.05253559,5.88480063 C7.92940956,6.00647811 7.75913538,6.08109244 7.1270052,5.89947943 C6.99398928,5.76521747 6.91458098,5.57035815 6.89206228,5.33957844 C6.87119371,5.04380317 6.73735962,4.77844569 6.53174158,4.58686094 C6.32700561,4.39609807 6.05120398,4.27857143 5.74744898,4.27857143 Z" id="形状结合" stroke="#000000" stroke-width="1.3"></path>
            <path d="M1.13015917,18.2230251 C0.745168183,18.1165422 0.519432006,17.7182174 0.625914878,17.333602 C0.686950034,17.113312 1.93150382,9.57620133 6.67987999,9.03157994 C7.07386174,8.98639168 7.45699838,9.18651534 7.54564021,9.57620133 C7.63446984,9.96551178 7.3955089,10.406152 7.00101882,10.4419616 C3.0285971,10.8025561 2.03272828,17.6731453 2.02014564,17.7187808 C1.93150382,18.0393562 1.64060087,18.2493171 1.32340586,18.2493171 C1.2595537,18.2493171 1.19457473,18.2408661 1.13015917,18.2230251 Z" id="路径" stroke="#000000" stroke-width="0.6" transform="translate(4.081852, 13.637305) rotate(-2.000000) translate(-4.081852, -13.637305) "></path>
            <g id="icons_filled_qr_code备份-2" transform="translate(10.000000, 13.000000)">
                <path d="M2.7,0 C2.86568541,0 3,0.134314575 3,0.3 L3,2.7 C3,2.86568541 2.86568541,3 2.7,3 L0.3,3 C0.134314575,3 0,2.86568541 0,2.7 L0,0.3 C0,0.134314575 0.134314575,0 0.3,0 L2.7,0 Z M2.4,0.6 L0.6,0.6 L0.6,2.4 L2.4,2.4 L2.4,0.6 Z" id="形状结合"></path>
                <polygon id="Combined-Shape-path" points="1 1 2 1 2 2 1 2"></polygon>
                <path d="M3.62384057,0 L4.83333333,0 C4.92538078,0 5,0.0746192083 5,0.166666667 L5,1.33333333 C5,1.42538079 4.92538078,1.5 4.83333333,1.5 L3.62384057,1.5 C3.53179312,1.5 3.45717391,1.42538079 3.45717391,1.33333333 L3.45717391,0.166666667 C3.45717391,0.0746192083 3.53179312,0 3.62384057,0 Z" id="Combined-Shape-path" opacity="0.196823847"></path>
                <path d="M4.66666667,3 C4.85076157,3 5,3.14923843 5,3.33333333 L5,4.66666667 C5,4.85076157 4.85076157,5 4.66666667,5 L3.33333333,5 C3.14923843,5 3,4.85076157 3,4.66666667 L3,3.33333333 C3,3.14923843 3.14923843,3 3.33333333,3 L4.66666667,3 Z" id="形状结合"></path>
                <path d="M0.166666667,4 L0.833333333,4 C0.925380792,4 1,4.07461922 1,4.16666667 L1,4.83333333 C1,4.92538078 0.925380792,5 0.833333333,5 L0.166666667,5 C0.0746192083,5 0,4.92538078 0,4.83333333 L0,4.16666667 C0,4.07461922 0.0746192083,4 0.166666667,4 Z" id="Combined-Shape-path"></path>
                <path d="M1.64295367,3.33457468 L2.30962033,3.33457468 C2.40166779,3.33457468 2.476287,3.4091939 2.476287,3.50124135 L2.476287,4.16790801 C2.476287,4.25995546 2.40166779,4.33457468 2.30962033,4.33457468 L1.64295367,4.33457468 C1.55090621,4.33457468 1.476287,4.25995546 1.476287,4.16790801 L1.476287,3.50124135 C1.476287,3.4091939 1.55090621,3.33457468 1.64295367,3.33457468 Z" id="Combined-Shape-path备份" opacity="0.196823847"></path>
            </g>
        </g>
    </g>
</svg>